<svg width="112" height="112" viewBox="0 0 112 112" fill="none" xmlns="http://www.w3.org/2000/svg">
<g clip-path="url(#clip0_528_599)">
<rect x="2" y="2" width="108" height="108" rx="8" fill="white"/>
<path fill-rule="evenodd" clip-rule="evenodd" d="M18.0516 62.2457L16.0166 60.5717V51.1136L18.0516 49.5919V62.2457ZM20.2516 64.0553L18.3817 62.517V49.3447L20.2516 47.9459V64.0553ZM24.981 49.5919L27.016 51.1136V60.5717L24.981 62.2457V49.5919ZM22.781 47.9459L24.6509 49.3447V62.517L22.781 64.0553V47.9459ZM21.5163 47L22.4509 47.6994V64.3266L21.5163 65.0961L20.581 64.3266V47.6994L21.5163 47Z" fill="#009B4C"/>
<path fill-rule="evenodd" clip-rule="evenodd" d="M21.4914 50.3562C24.5137 50.3562 26.9662 52.8095 26.9662 55.831C26.9662 58.8533 24.5137 61.3066 21.4914 61.3066C18.4699 61.3066 16.0166 58.8533 16.0166 55.831C16.0166 52.8095 18.4699 50.3562 21.4914 50.3562Z" fill="#FEFEFE"/>
<path fill-rule="evenodd" clip-rule="evenodd" d="M26.2208 56.0873C26.0867 58.5805 24.0118 60.5732 21.4854 60.5732C18.959 60.5732 16.8833 58.5805 16.7499 56.0873H26.2208ZM21.4854 51.0888C24.0035 51.0888 26.0739 53.0687 26.2193 55.5521H16.7515C16.8969 53.0687 18.9673 51.0888 21.4854 51.0888Z" fill="#FEFEFE"/>
<path fill-rule="evenodd" clip-rule="evenodd" d="M26.2246 56.0873C26.0912 58.5805 24.0155 60.5732 21.4899 60.5732C18.9635 60.5732 16.8879 58.5805 16.7545 56.0873H26.2246ZM21.4899 51.0888C24.008 51.0888 26.0776 53.0687 26.2238 55.5521H16.756C16.9014 53.0687 18.9718 51.0888 21.4899 51.0888Z" fill="#00A2E9"/>
<path fill-rule="evenodd" clip-rule="evenodd" d="M26.2261 55.5521H26.4175L27.016 55.7956L26.4175 56.0873H26.2276C26.2314 56.0021 26.2344 55.9169 26.2344 55.831C26.2344 55.7375 26.2314 55.6441 26.2261 55.5521ZM16.0392 55.5521H16.7447C16.7394 55.6441 16.7364 55.7375 16.7364 55.831C16.7364 55.9169 16.7386 56.0021 16.7432 56.0873H16.0392L16.8954 55.7956L16.0392 55.5521Z" fill="#00A2E9"/>
<path fill-rule="evenodd" clip-rule="evenodd" d="M19.0412 51.7543C20.6186 52.6904 22.3408 52.6949 23.8814 51.7234L24.256 51.9729C22.7795 53.2443 20.281 53.3114 18.6357 52.046L19.0412 51.7543Z" fill="#FEFEFE"/>
<path fill-rule="evenodd" clip-rule="evenodd" d="M17.5971 53.1283C19.8868 54.662 22.9724 54.6409 25.3156 53.0544C25.4498 53.2293 25.5636 53.4041 25.6473 53.579C23.5505 55.1738 19.8393 55.3079 17.2753 53.6513C17.3702 53.4772 17.472 53.3031 17.5971 53.1283Z" fill="#FEFEFE"/>
<path fill-rule="evenodd" clip-rule="evenodd" d="M19.0412 59.9145C20.6186 58.9792 22.3408 58.9747 23.8814 59.9462L24.256 59.6959C22.7795 58.4245 20.281 58.3574 18.6357 59.6236L19.0412 59.9145Z" fill="#FEFEFE"/>
<path fill-rule="evenodd" clip-rule="evenodd" d="M17.5971 58.5345C19.8868 57 22.9724 57.0218 25.3156 58.6076C25.4498 58.4327 25.5636 58.2586 25.6473 58.0838C23.5505 56.489 19.8393 56.3548 17.2753 58.0107C17.3702 58.1855 17.472 58.3596 17.5971 58.5345Z" fill="#FEFEFE"/>
<path d="M32.2609 53.9106C32.8345 54.038 33.2369 54.1932 33.4691 54.3749C33.8015 54.6334 33.968 54.9695 33.968 55.3818C33.968 55.8159 33.7856 56.1754 33.4201 56.4603C32.9716 56.804 32.319 56.9759 31.4635 56.9759H28.393V56.8183C28.6718 56.8183 28.8618 56.7935 28.9613 56.7437C29.0607 56.694 29.1308 56.6292 29.1708 56.5493C29.2107 56.4701 29.2303 56.2742 29.2303 55.9614V52.2088C29.2303 51.8967 29.2107 51.7 29.1708 51.6186C29.1308 51.5372 29.06 51.4732 28.959 51.4249C28.858 51.3759 28.6688 51.3518 28.393 51.3518V51.1943H31.2894C31.9821 51.1943 32.472 51.2531 32.7606 51.3714C33.0485 51.489 33.2761 51.6654 33.442 51.8997C33.6085 52.1341 33.6922 52.3836 33.6922 52.6482C33.6922 52.927 33.5867 53.175 33.3756 53.3921C33.1646 53.6099 32.793 53.7825 32.2609 53.9106ZM30.639 54.1277V55.9825L30.6344 56.1958C30.6344 56.3495 30.6751 56.4649 30.7573 56.5432C30.8387 56.6216 30.96 56.6608 31.1206 56.6608C31.358 56.6608 31.5773 56.6103 31.7778 56.5093C31.9783 56.4083 32.132 56.2621 32.2391 56.0699C32.3461 55.8777 32.3996 55.6644 32.3996 55.4285C32.3996 55.158 32.334 54.916 32.2036 54.7012C32.0725 54.4864 31.8931 54.3364 31.664 54.2513C31.4356 54.1661 31.0934 54.1246 30.639 54.1277ZM30.639 53.7953C31.061 53.7953 31.3723 53.7501 31.5728 53.6589C31.7733 53.5677 31.927 53.4403 32.0341 53.2752C32.1411 53.1102 32.1946 52.8999 32.1946 52.6436C32.1946 52.3881 32.1418 52.1786 32.0363 52.0151C31.9308 51.8515 31.7801 51.7272 31.5841 51.642C31.3874 51.5568 31.0731 51.5154 30.639 51.5184V53.7953Z" fill="#332C2B"/>
<path d="M38.0862 55.3306H35.9517L35.6978 55.8928C35.6141 56.0805 35.5726 56.2357 35.5726 56.3578C35.5726 56.5199 35.6412 56.639 35.7776 56.7158C35.8575 56.7611 36.0558 56.7957 36.37 56.8183V56.9759H34.3607V56.8183C34.577 56.7867 34.7556 56.7008 34.8951 56.5606C35.0345 56.4196 35.2071 56.1287 35.4121 55.6886L37.5737 51.0752H37.6581L39.8378 55.8159C40.0458 56.2651 40.2161 56.5478 40.3503 56.6646C40.4513 56.7528 40.5937 56.804 40.7776 56.8183V56.9759H37.8541V56.8183H37.9747C38.2098 56.8183 38.3741 56.7867 38.4691 56.7249C38.5346 56.6789 38.5678 56.6133 38.5678 56.5282C38.5678 56.4769 38.5588 56.4249 38.5407 56.3706C38.5346 56.345 38.4902 56.2388 38.4073 56.0511L38.0862 55.3306ZM37.9347 55.0148L37.0348 53.0235L36.1078 55.0148H37.9347Z" fill="#332C2B"/>
<path d="M43.1533 51.1943L46.1349 54.7804V52.2939C46.1349 51.9472 46.0829 51.7128 45.9789 51.5907C45.8364 51.4264 45.5975 51.3465 45.2613 51.3518V51.1943H47.2579V51.3518C47.0024 51.3835 46.8313 51.4234 46.7431 51.4739C46.6557 51.5237 46.5871 51.6043 46.5381 51.7166C46.4891 51.8289 46.465 52.0218 46.465 52.2939V57.1085H46.3135L42.2262 52.2939V55.9697C42.2262 56.3021 42.3061 56.5267 42.4651 56.6435C42.6242 56.7603 42.8058 56.8183 43.0108 56.8183H43.1533V56.9759H41.0098V56.8183C41.3421 56.8153 41.5743 56.7498 41.7047 56.6216C41.8358 56.4943 41.9014 56.2764 41.9014 55.9697V51.8892L41.7718 51.7354C41.6444 51.5824 41.5313 51.4815 41.4333 51.4332C41.3354 51.385 41.1937 51.3578 41.0098 51.3518V51.1943H43.1533Z" fill="#332C2B"/>
<path d="M51.2735 53.4071L53.3997 55.9523C53.6997 56.3111 53.9582 56.5538 54.1745 56.6819C54.3328 56.7724 54.4986 56.8183 54.6742 56.8183V56.9759H51.5275V56.8183C51.7265 56.801 51.8554 56.7716 51.9134 56.7287C51.9715 56.6864 52.0001 56.6337 52.0001 56.5711C52.0001 56.4513 51.8637 56.2274 51.5901 55.8973L50.2041 54.2302L49.981 54.4095V55.987C49.981 56.2885 49.9991 56.4754 50.0345 56.5493C50.0699 56.6239 50.1385 56.6864 50.2395 56.7392C50.3405 56.792 50.5025 56.8183 50.7256 56.8183V56.9759H47.6769V56.8183H47.8774C48.053 56.8183 48.194 56.7882 48.301 56.7287C48.3779 56.6887 48.4374 56.6209 48.4789 56.5244C48.512 56.4558 48.5278 56.2764 48.5278 55.987V52.1831C48.5278 51.8877 48.512 51.703 48.4789 51.6292C48.4464 51.5553 48.3801 51.4905 48.2806 51.4355C48.1811 51.3797 48.047 51.3518 47.8774 51.3518H47.6769V51.1943H50.6849V51.3518C50.4799 51.3518 50.3239 51.3805 50.2176 51.4377C50.14 51.4769 50.0789 51.544 50.0345 51.6382C49.9991 51.7091 49.981 51.8907 49.981 52.1831V53.983L52.2224 52.2472C52.5352 52.006 52.6912 51.8123 52.6912 51.6676C52.6912 51.5591 52.6272 51.4739 52.499 51.4121C52.4335 51.3805 52.2714 51.3609 52.0137 51.3518V51.1943H54.3712V51.3518C54.1602 51.3661 53.9944 51.4023 53.8738 51.4611C53.7539 51.5191 53.4766 51.7158 53.0432 52.0512L51.2735 53.4071Z" fill="#332C2B"/>
<path d="M60.6547 53.4071L62.7809 55.9523C63.0809 56.3111 63.3394 56.5538 63.5565 56.6819C63.714 56.7724 63.8798 56.8183 64.0554 56.8183V56.9759H60.9087V56.8183C61.1085 56.801 61.2366 56.7716 61.2946 56.7287C61.3527 56.6864 61.3813 56.6337 61.3813 56.5711C61.3813 56.4513 61.2449 56.2274 60.9713 55.8973L59.5853 54.2302L59.3629 54.4095V55.987C59.3629 56.2885 59.3802 56.4754 59.4164 56.5493C59.4519 56.6239 59.5197 56.6864 59.6207 56.7392C59.7217 56.792 59.8837 56.8183 60.1068 56.8183V56.9759H57.0581V56.8183H57.2586C57.4342 56.8183 57.5752 56.7882 57.6822 56.7287C57.7598 56.6887 57.8186 56.6209 57.8608 56.5244C57.8932 56.4558 57.9098 56.2764 57.9098 55.987V52.1831C57.9098 51.8877 57.8932 51.703 57.8608 51.6292C57.8276 51.5553 57.7621 51.4905 57.6626 51.4355C57.5631 51.3797 57.4282 51.3518 57.2586 51.3518H57.0581V51.1943H60.0669V51.3518C59.8619 51.3518 59.7058 51.3805 59.5988 51.4377C59.5212 51.4769 59.4601 51.544 59.4164 51.6382C59.3802 51.7091 59.3629 51.8907 59.3629 52.1831V53.983L61.6044 52.2472C61.9164 52.006 62.0724 51.8123 62.0724 51.6676C62.0724 51.5591 62.0084 51.4739 61.8802 51.4121C61.8154 51.3805 61.6534 51.3609 61.3949 51.3518V51.1943H63.7524V51.3518C63.5414 51.3661 63.3756 51.4023 63.2557 51.4611C63.1351 51.5191 62.8578 51.7158 62.4244 52.0512L60.6547 53.4071Z" fill="#332C2B"/>
<path d="M67.75 55.3306H65.6155L65.3608 55.8928C65.2779 56.0805 65.2364 56.2357 65.2364 56.3578C65.2364 56.5199 65.305 56.639 65.4414 56.7158C65.5213 56.7611 65.7195 56.7957 66.0346 56.8183V56.9759H64.0245V56.8183C64.2408 56.7867 64.4194 56.7008 64.5589 56.5606C64.6991 56.4196 64.8709 56.1287 65.0759 55.6886L67.2375 51.0752H67.3227L69.5016 55.8159C69.7096 56.2651 69.8807 56.5478 70.0141 56.6646C70.1151 56.7528 70.2575 56.804 70.4422 56.8183V56.9759H67.5179V56.8183H67.6384C67.8736 56.8183 68.0379 56.7867 68.1336 56.7249C68.1984 56.6789 68.2316 56.6133 68.2316 56.5282C68.2316 56.4769 68.2226 56.4249 68.2045 56.3706C68.1984 56.345 68.154 56.2388 68.0711 56.0511L67.75 55.3306ZM67.5985 55.0148L66.6986 53.0235L65.7716 55.0148H67.5985Z" fill="#332C2B"/>
<path d="M76.3067 54.9462L76.0798 56.9759H70.7135V56.8183H70.914C71.0896 56.8183 71.2305 56.7882 71.3376 56.7287C71.4152 56.6887 71.4747 56.6209 71.5162 56.5244C71.5486 56.4558 71.5652 56.2764 71.5652 55.987V52.1831C71.5652 51.8877 71.5486 51.703 71.5162 51.6292C71.483 51.5553 71.4175 51.4905 71.3172 51.4355C71.2177 51.3797 71.0836 51.3518 70.914 51.3518H70.7135V51.1943H73.9363V51.3518H73.6733C73.4976 51.3518 73.3567 51.382 73.2497 51.4415C73.1721 51.4815 73.1118 51.5493 73.0665 51.6465C73.0341 51.7143 73.0175 51.8937 73.0175 52.1831V55.8672C73.0175 56.1634 73.0356 56.3518 73.0711 56.4325C73.1072 56.5131 73.1766 56.5741 73.2806 56.6133C73.3552 56.639 73.5346 56.6518 73.8202 56.6518H74.3237C74.6448 56.6518 74.9123 56.5983 75.1256 56.4897C75.3397 56.382 75.5251 56.2116 75.6811 55.978C75.8371 55.7451 75.9841 55.4014 76.1243 54.9462H76.3067Z" fill="#332C2B"/>
<path d="M80.6924 53.9106C81.2659 54.038 81.6684 54.1932 81.8998 54.3749C82.2329 54.6334 82.3995 54.9695 82.3995 55.3818C82.3995 55.8159 82.2163 56.1754 81.8508 56.4603C81.4024 56.804 80.7504 56.9759 79.8942 56.9759H76.8237V56.8183C77.1033 56.8183 77.2925 56.7935 77.392 56.7437C77.4915 56.694 77.5615 56.6292 77.6015 56.5493C77.6414 56.4701 77.6618 56.2742 77.6618 55.9614V52.2088C77.6618 51.8967 77.6414 51.7 77.6015 51.6186C77.5615 51.5372 77.4907 51.4732 77.3897 51.4249C77.2887 51.3759 77.1003 51.3518 76.8237 51.3518V51.1943H79.7209C80.4128 51.1943 80.9034 51.2531 81.1913 51.3714C81.48 51.489 81.7069 51.6654 81.8734 51.8997C82.04 52.1341 82.1229 52.3836 82.1229 52.6482C82.1229 52.927 82.0174 53.175 81.8063 53.3921C81.5953 53.6099 81.2237 53.7825 80.6924 53.9106ZM79.0697 54.1277V55.9825L79.0659 56.1958C79.0659 56.3495 79.1059 56.4649 79.188 56.5432C79.2702 56.6216 79.3908 56.6608 79.5513 56.6608C79.7895 56.6608 80.008 56.6103 80.2085 56.5093C80.4098 56.4083 80.5628 56.2621 80.6698 56.0699C80.7768 55.8777 80.8303 55.6644 80.8303 55.4285C80.8303 55.158 80.7647 54.916 80.6343 54.7012C80.504 54.4864 80.3238 54.3364 80.0947 54.2513C79.8663 54.1661 79.5249 54.1246 79.0697 54.1277ZM79.0697 53.7953C79.4918 53.7953 79.803 53.7501 80.0035 53.6589C80.204 53.5677 80.3577 53.4403 80.4648 53.2752C80.5718 53.1102 80.6253 52.8999 80.6253 52.6436C80.6253 52.3881 80.5725 52.1786 80.467 52.0151C80.3615 51.8515 80.2108 51.7272 80.0148 51.642C79.8189 51.5568 79.5038 51.5154 79.0697 51.5184V53.7953Z" fill="#332C2B"/>
<path d="M86.5169 55.3306H84.3825L84.1285 55.8928C84.0456 56.0805 84.0033 56.2357 84.0033 56.3578C84.0033 56.5199 84.0719 56.639 84.2084 56.7158C84.289 56.7611 84.4865 56.7957 84.8015 56.8183V56.9759H82.7914V56.8183C83.0085 56.7867 83.1863 56.7008 83.3265 56.5606C83.466 56.4196 83.6378 56.1287 83.8436 55.6886L86.0044 51.0752H86.0896L88.2685 55.8159C88.4773 56.2651 88.6476 56.5478 88.781 56.6646C88.882 56.7528 89.0252 56.804 89.2091 56.8183V56.9759H86.2855V56.8183H86.4061C86.6405 56.8183 86.8056 56.7867 86.9005 56.7249C86.9661 56.6789 86.9985 56.6133 86.9985 56.5282C86.9985 56.4769 86.9902 56.4249 86.9721 56.3706C86.9661 56.345 86.9216 56.2388 86.8387 56.0511L86.5169 55.3306ZM86.3654 55.0148L85.4655 53.0235L84.5385 55.0148H86.3654Z" fill="#332C2B"/>
<path d="M91.7362 54.341V55.9614C91.7362 56.2742 91.7566 56.4709 91.7965 56.5515C91.8365 56.6329 91.9073 56.6978 92.0083 56.746C92.1086 56.7942 92.2977 56.8183 92.5743 56.8183V56.9759H89.4812V56.8183C89.76 56.8183 89.95 56.7935 90.0495 56.7437C90.1489 56.694 90.219 56.6292 90.2582 56.5493C90.2989 56.4701 90.3185 56.2742 90.3185 55.9614V52.2088C90.3185 51.8967 90.2989 51.7 90.2582 51.6186C90.219 51.5372 90.1474 51.4732 90.0472 51.4249C89.9462 51.3759 89.757 51.3518 89.4812 51.3518V51.1943H92.2887C93.0198 51.1943 93.5541 51.2425 93.8933 51.339C94.2317 51.4362 94.5083 51.6141 94.7224 51.8741C94.9364 52.1341 95.0434 52.4394 95.0434 52.7891C95.0434 53.2149 94.8821 53.5677 94.5618 53.8465C94.3568 54.0229 94.0697 54.1548 93.7019 54.243L95.1542 56.1996C95.3449 56.4536 95.4798 56.6111 95.5605 56.6729C95.6818 56.7611 95.8227 56.81 95.9833 56.8183V56.9759H94.0802L92.1327 54.341H91.7362ZM91.7362 51.5056V54.038H91.9902C92.4032 54.038 92.7123 54.0018 92.9173 53.9294C93.1223 53.8571 93.2836 53.7259 93.4004 53.5375C93.518 53.3483 93.5767 53.1019 93.5767 52.7974C93.5767 52.3572 93.469 52.0316 93.2534 51.8206C93.0386 51.6111 92.6911 51.5056 92.2133 51.5056H91.7362Z" fill="#332C2B"/>
<path d="M29.017 60.9847V58.8382H29.568C29.7767 58.8382 29.9132 58.8488 29.9765 58.8706C30.0737 58.9031 30.1551 58.9724 30.2214 59.0809C30.287 59.1887 30.3202 59.3274 30.3202 59.4985C30.3202 59.6304 30.3006 59.7412 30.2629 59.8308C30.2252 59.9205 30.177 59.9914 30.1182 60.0419C30.0601 60.0931 30.0006 60.1278 29.9403 60.1444C29.8589 60.1647 29.7398 60.1745 29.5846 60.1745H29.3607V60.9847H29.017ZM29.3607 59.2015V59.8105H29.5484C29.684 59.8105 29.7745 59.7992 29.8197 59.7766C29.8657 59.754 29.9011 59.7185 29.9275 59.6711C29.9531 59.6236 29.9659 59.5678 29.9659 59.5045C29.9659 59.4261 29.9478 59.362 29.9117 59.3108C29.8755 59.2603 29.8288 59.2286 29.7737 59.2158C29.7323 59.206 29.6501 59.2015 29.5265 59.2015H29.3607Z" fill="#332C2B"/>
<path d="M30.9849 60.9847V59.2015H30.4799V58.8382H31.8313V59.2015H31.3278V60.9847H30.9849Z" fill="#332C2B"/>
<path d="M31.7876 60.9847V60.5732H32.1132V60.9847H31.7876Z" fill="#332C2B"/>
<path d="M33.1111 58.8382H33.7909C33.9251 58.8382 34.0253 58.845 34.0916 58.8593C34.158 58.8737 34.2175 58.9031 34.2695 58.9483C34.3215 58.9927 34.3652 59.053 34.3999 59.1277C34.4346 59.2023 34.4519 59.2859 34.4519 59.3786C34.4519 59.4789 34.4308 59.5716 34.3878 59.6552C34.3449 59.7389 34.2868 59.8022 34.213 59.8444C34.317 59.8821 34.3961 59.9469 34.4519 60.0389C34.5077 60.1308 34.5356 60.2378 34.5356 60.3622C34.5356 60.4602 34.5175 60.5551 34.4813 60.6471C34.4459 60.739 34.3969 60.8129 34.3343 60.8679C34.2718 60.9229 34.1949 60.9569 34.1037 60.9697C34.0472 60.9772 33.9085 60.9825 33.6899 60.9847H33.1111V58.8382ZM33.454 59.1955V59.6914H33.6794C33.8135 59.6914 33.8964 59.6892 33.9288 59.6846C33.9876 59.6756 34.0336 59.65 34.0675 59.607C34.1007 59.5655 34.118 59.509 34.118 59.4397C34.118 59.3734 34.1037 59.3198 34.0743 59.2784C34.0457 59.2369 34.0027 59.2113 33.9447 59.203C33.9107 59.1977 33.8135 59.1955 33.6515 59.1955H33.454ZM33.454 60.0487V60.623H33.7721C33.8957 60.623 33.9748 60.6185 34.008 60.6102C34.0585 60.5981 34.1007 60.5695 34.1323 60.5242C34.1647 60.479 34.1806 60.418 34.1806 60.3418C34.1806 60.277 34.1685 60.2228 34.1436 60.1775C34.1188 60.1331 34.0826 60.0999 34.0359 60.0796C33.9891 60.0592 33.8881 60.0487 33.7314 60.0487H33.454Z" fill="#332C2B"/>
<path d="M36.3595 60.9847H35.9857L35.8372 60.4971H35.1574L35.0172 60.9847H34.6531L35.3149 58.8382H35.6782L36.3595 60.9847ZM35.7271 60.1353L35.4927 59.3394L35.2629 60.1353H35.7271Z" fill="#332C2B"/>
<path d="M36.5449 60.9847V58.8382H36.8788L37.5752 60.271V58.8382H37.894V60.9847H37.5496L36.8637 59.5851V60.9847H36.5449Z" fill="#332C2B"/>
<path d="M38.2618 60.9847V58.8382H38.6047V59.7917L39.2989 58.8382H39.7601L39.1203 59.6741L39.7956 60.9847H39.3509L38.8836 59.9771L38.6047 60.3358V60.9847H38.2618Z" fill="#332C2B"/>
<path d="M40.6329 60.9847V58.8382H41.1839C41.3926 58.8382 41.5291 58.8488 41.5924 58.8706C41.6896 58.9031 41.771 58.9724 41.8373 59.0809C41.9029 59.1887 41.9353 59.3274 41.9353 59.4985C41.9353 59.6304 41.9165 59.7412 41.8788 59.8308C41.8411 59.9205 41.7929 59.9914 41.7341 60.0419C41.676 60.0931 41.6165 60.1278 41.5562 60.1444C41.474 60.1647 41.3557 60.1745 41.2005 60.1745H40.9766V60.9847H40.6329ZM40.9766 59.2015V59.8105H41.1643C41.2992 59.8105 41.3896 59.7992 41.4356 59.7766C41.4808 59.754 41.517 59.7185 41.5426 59.6711C41.569 59.6236 41.5818 59.5678 41.5818 59.5045C41.5818 59.4261 41.5637 59.362 41.5276 59.3108C41.4906 59.2603 41.4446 59.2286 41.3889 59.2158C41.3482 59.206 41.266 59.2015 41.1424 59.2015H40.9766Z" fill="#332C2B"/>
<path d="M42.2172 60.9847V58.8382H43.4781V59.2015H42.5609V59.6771H43.4148V60.0389H42.5609V60.623H43.5113V60.9847H42.2172Z" fill="#332C2B"/>
<path d="M43.7977 60.9847V58.8382H44.3117L44.62 60.3019L44.9252 58.8382H45.44V60.9847H45.1212V59.295L44.7835 60.9847H44.4534L44.1165 59.295V60.9847H43.7977Z" fill="#332C2B"/>
<path d="M45.7821 58.8382H46.462C46.5969 58.8382 46.6971 58.845 46.7635 58.8593C46.829 58.8737 46.8886 58.9031 46.9406 58.9483C46.9926 58.9927 47.0363 59.053 47.071 59.1277C47.1064 59.2023 47.1237 59.2859 47.1237 59.3786C47.1237 59.4789 47.1019 59.5716 47.0589 59.6552C47.0159 59.7389 46.9579 59.8022 46.8848 59.8444C46.9881 59.8821 47.0679 59.9469 47.1237 60.0389C47.1787 60.1308 47.2066 60.2378 47.2066 60.3622C47.2066 60.4602 47.1885 60.5551 47.1531 60.6471C47.1169 60.739 47.0679 60.8129 47.0054 60.8679C46.9436 60.9229 46.8667 60.9569 46.7755 60.9697C46.7182 60.9772 46.5803 60.9825 46.361 60.9847H45.7821V58.8382ZM46.1258 59.1955V59.6914H46.3504C46.4846 59.6914 46.5675 59.6892 46.5999 59.6846C46.6587 59.6756 46.7054 59.65 46.7386 59.607C46.7725 59.5655 46.7891 59.509 46.7891 59.4397C46.7891 59.3734 46.7748 59.3198 46.7461 59.2784C46.7167 59.2369 46.6738 59.2113 46.6165 59.203C46.5826 59.1977 46.4846 59.1955 46.3225 59.1955H46.1258ZM46.1258 60.0487V60.623H46.4439C46.5675 60.623 46.6459 60.6185 46.679 60.6102C46.7303 60.5981 46.7717 60.5695 46.8041 60.5242C46.8358 60.479 46.8516 60.418 46.8516 60.3418C46.8516 60.277 46.8396 60.2228 46.8147 60.1775C46.7898 60.1331 46.7544 60.0999 46.7077 60.0796C46.6609 60.0592 46.5592 60.0487 46.4032 60.0487H46.1258Z" fill="#332C2B"/>
<path d="M49.0306 60.9847H48.6567L48.5082 60.4971H47.8284L47.6882 60.9847H47.3242L47.9867 58.8382H48.35L49.0306 60.9847ZM48.3982 60.1353L48.1638 59.3394L47.9339 60.1353H48.3982Z" fill="#332C2B"/>
<path d="M49.216 60.9847V58.8382H49.5506L50.2463 60.271V58.8382H50.5651V60.9847H50.2206L49.5348 59.5851V60.9847H49.216Z" fill="#332C2B"/>
<path d="M51.7197 60.1956V59.8339H52.4599V60.6885C52.3875 60.7767 52.2835 60.8536 52.1471 60.9207C52.0107 60.9878 51.872 61.0209 51.7325 61.0209C51.5547 61.0209 51.3994 60.9734 51.2668 60.88C51.1349 60.7858 51.0354 60.6509 50.9691 60.476C50.9027 60.3004 50.8696 60.1097 50.8696 59.904C50.8696 59.6801 50.9065 59.4819 50.9804 59.3078C51.055 59.1344 51.1635 59.001 51.3067 58.9083C51.4152 58.8375 51.5517 58.8021 51.7137 58.8021C51.9247 58.8021 52.0898 58.8578 52.2089 58.9694C52.3272 59.0809 52.4033 59.2354 52.438 59.4321L52.0966 59.5128C52.0725 59.408 52.0272 59.3244 51.9617 59.2633C51.8953 59.2023 51.8124 59.1721 51.7137 59.1721C51.5637 59.1721 51.4446 59.2324 51.3557 59.3523C51.2675 59.4721 51.223 59.65 51.223 59.8866C51.223 60.1414 51.2675 60.3321 51.358 60.4594C51.4476 60.5868 51.5652 60.6509 51.7099 60.6509C51.7823 60.6509 51.8546 60.6328 51.927 60.5974C51.9993 60.5612 52.0611 60.5182 52.1132 60.4677V60.1956H51.7197Z" fill="#332C2B"/>
<path d="M52.7741 58.8382H53.1171V60.0004C53.1171 60.1851 53.1216 60.3049 53.1299 60.3592C53.145 60.4466 53.1796 60.5175 53.2354 60.571C53.2904 60.6237 53.3658 60.6509 53.4623 60.6509C53.5595 60.6509 53.6326 60.6252 53.6823 60.5747C53.7321 60.525 53.7615 60.4632 53.772 60.3901C53.7818 60.317 53.7871 60.1956 53.7871 60.0253V58.8382H54.13V59.9658C54.13 60.2228 54.121 60.4052 54.1021 60.5114C54.0841 60.6177 54.0494 60.7074 53.9996 60.7813C53.9499 60.8544 53.8828 60.9124 53.7999 60.9554C53.7163 60.9991 53.607 61.0209 53.4721 61.0209C53.31 61.0209 53.1872 60.9976 53.1028 60.9501C53.0191 60.9026 52.9528 60.8415 52.9038 60.7654C52.8555 60.6901 52.8231 60.6102 52.8073 60.5273C52.7854 60.4044 52.7741 60.2228 52.7741 59.9831V58.8382Z" fill="#332C2B"/>
<path d="M54.4956 60.9847V58.8382H54.8295L55.5259 60.271V58.8382H55.8447V60.9847H55.5002L54.8144 59.5851V60.9847H54.4956Z" fill="#332C2B"/>
<path d="M57.7417 60.9847H57.3679L57.2194 60.4971H56.5396L56.3994 60.9847H56.0354L56.6979 58.8382H57.0604L57.7417 60.9847ZM57.1094 60.1353L56.875 59.3394L56.6451 60.1353H57.1094Z" fill="#332C2B"/>
<path d="M57.9271 60.9847V58.8382H58.261L58.9574 60.271V58.8382H59.2762V60.9847H58.9318L58.2459 59.5851V60.9847H57.9271Z" fill="#332C2B"/>
<path d="M60.2982 58.8382H60.9261C61.0678 58.8382 61.1755 58.8518 61.2494 58.8797C61.3489 58.9166 61.4348 58.9822 61.5057 59.0772C61.5773 59.1714 61.6315 59.2874 61.6685 59.4246C61.7054 59.5618 61.7242 59.7306 61.7242 59.9318C61.7242 60.1082 61.7069 60.2605 61.6715 60.3886C61.6293 60.5446 61.5682 60.6712 61.4898 60.7677C61.4303 60.8408 61.3496 60.8981 61.2479 60.9388C61.1725 60.9689 61.0715 60.9847 60.9442 60.9847H60.2982V58.8382ZM60.6419 59.2015V60.623H60.8982C60.9939 60.623 61.0632 60.6162 61.1054 60.6026C61.1612 60.5845 61.2072 60.5551 61.2441 60.5129C61.2811 60.4707 61.3112 60.4021 61.3346 60.3057C61.3572 60.21 61.3692 60.0788 61.3692 59.913C61.3692 59.7472 61.3572 59.6198 61.3346 59.5309C61.3112 59.4419 61.2788 59.3726 61.2366 59.3229C61.1951 59.2731 61.1424 59.2392 61.0776 59.2219C61.0301 59.2083 60.9359 59.2015 60.7957 59.2015H60.6419Z" fill="#332C2B"/>
<path d="M63.5489 60.9847H63.1751L63.0266 60.4971H62.3468L62.2066 60.9847H61.8426L62.5051 58.8382H62.8676L63.5489 60.9847ZM62.9166 60.1353L62.6822 59.3394L62.4523 60.1353H62.9166Z" fill="#332C2B"/>
<path d="M63.7306 60.9847V58.8382H64.9915V59.2015H64.0742V59.6771H64.9282V60.0389H64.0742V60.623H65.0246V60.9847H63.7306Z" fill="#332C2B"/>
<path d="M65.3163 60.9847V58.8382H66.0391C66.2215 58.8382 66.3534 58.8578 66.4356 58.8963C66.5177 58.9347 66.584 59.0033 66.633 59.102C66.6828 59.2 66.7076 59.3131 66.7076 59.4397C66.7076 59.601 66.67 59.7336 66.5953 59.8391C66.52 59.9439 66.4077 60.0102 66.2584 60.0374C66.3331 60.0916 66.3941 60.1519 66.4423 60.2175C66.4906 60.2831 66.5561 60.3991 66.6383 60.5657L66.8456 60.9847H66.4348L66.1868 60.5175C66.0987 60.3501 66.0384 60.2454 66.006 60.2017C65.9735 60.1587 65.9389 60.1286 65.9027 60.1127C65.8665 60.0961 65.8085 60.0886 65.7301 60.0886H65.66V60.9847H65.3163ZM65.66 59.7457H65.914C66.0791 59.7457 66.1816 59.7374 66.2223 59.7193C66.2637 59.702 66.2961 59.6718 66.3187 59.6289C66.3421 59.5859 66.3542 59.5324 66.3542 59.4676C66.3542 59.3952 66.3383 59.3372 66.3082 59.2927C66.2773 59.2482 66.2343 59.2204 66.1785 59.2083C66.1507 59.2038 66.067 59.2015 65.9283 59.2015H65.66V59.7457Z" fill="#332C2B"/>
<path d="M68.5647 60.9847H68.1917L68.0424 60.4971H67.3634L67.2224 60.9847H66.8584L67.5209 58.8382H67.8842L68.5647 60.9847ZM67.9324 60.1353L67.698 59.3394L67.4689 60.1353H67.9324Z" fill="#332C2B"/>
<path d="M68.7479 60.9847V58.8382H69.0916V59.6831H69.7646V58.8382H70.1075V60.9847H69.7646V60.0464H69.0916V60.9847H68.7479Z" fill="#332C2B"/>
<path d="M71.1273 60.9847V58.8382H71.471V59.7917L72.1644 58.8382H72.6264L71.9857 59.6741L72.661 60.9847H72.2164L71.7491 59.9771L71.471 60.3358V60.9847H71.1273Z" fill="#332C2B"/>
<path d="M74.3719 60.9847H73.9989L73.8504 60.4971H73.1705L73.0296 60.9847H72.6656L73.3281 58.8382H73.6913L74.3719 60.9847ZM73.7396 60.1353L73.5059 59.3394L73.2761 60.1353H73.7396Z" fill="#332C2B"/>
<path d="M74.5634 60.9847V58.8556H74.907V60.623H75.761V60.9847H74.5634Z" fill="#332C2B"/>
<path d="M75.9954 60.9847V58.8382H76.3383V60.9847H75.9954Z" fill="#332C2B"/>
<path d="M76.6609 60.9847V58.8382H77.1749L77.4832 60.3019L77.7884 58.8382H78.3039V60.9847H77.9844V59.295L77.6467 60.9847H77.3166L76.9797 59.295V60.9847H76.6609Z" fill="#332C2B"/>
<path d="M80.1784 60.9847H79.8045L79.6561 60.4971H78.9762L78.836 60.9847H78.472L79.1338 58.8382H79.497L80.1784 60.9847ZM79.546 60.1353L79.3116 59.3394L79.0817 60.1353H79.546Z" fill="#332C2B"/>
<path d="M80.3638 60.9847V58.8382H80.6984L81.3941 60.271V58.8382H81.7129V60.9847H81.3684L80.6826 59.5851V60.9847H80.3638Z" fill="#332C2B"/>
<path d="M82.459 60.9847V59.2015H81.9548V58.8382H83.3054V59.2015H82.8027V60.9847H82.459Z" fill="#332C2B"/>
<path d="M84.8852 60.9847H84.5113L84.3629 60.4971H83.683L83.5429 60.9847H83.1781L83.8406 58.8382H84.2038L84.8852 60.9847ZM84.2528 60.1353L84.0177 59.3394L83.7886 60.1353H84.2528Z" fill="#332C2B"/>
<path d="M85.0706 60.9847V58.8382H85.4045L86.1001 60.271V58.8382H86.4197V60.9847H86.0753L85.3894 59.5851V60.9847H85.0706Z" fill="#332C2B"/>
<path d="M87.444 58.8382H88.1238C88.2579 58.8382 88.3582 58.845 88.4245 58.8593C88.4908 58.8737 88.5504 58.9031 88.6024 58.9483C88.6544 58.9927 88.6981 59.053 88.7328 59.1277C88.7674 59.2023 88.7848 59.2859 88.7848 59.3786C88.7848 59.4789 88.7637 59.5716 88.7207 59.6552C88.6777 59.7389 88.6197 59.8022 88.5459 59.8444C88.6499 59.8821 88.729 59.9469 88.7848 60.0389C88.8405 60.1308 88.8684 60.2378 88.8684 60.3622C88.8684 60.4602 88.8511 60.5551 88.8142 60.6471C88.7787 60.739 88.729 60.8129 88.6672 60.8679C88.6046 60.9229 88.5285 60.9569 88.4366 60.9697C88.38 60.9772 88.2414 60.9825 88.0228 60.9847H87.444V58.8382ZM87.7876 59.1955V59.6914H88.0122C88.1464 59.6914 88.2293 59.6892 88.2617 59.6846C88.3205 59.6756 88.3665 59.65 88.4004 59.607C88.4343 59.5655 88.4509 59.509 88.4509 59.4397C88.4509 59.3734 88.4366 59.3198 88.4072 59.2784C88.3785 59.2369 88.3356 59.2113 88.2783 59.203C88.2436 59.1977 88.1464 59.1955 87.9844 59.1955H87.7876ZM87.7876 60.0487V60.623H88.1057C88.2285 60.623 88.3069 60.6185 88.3408 60.6102C88.3913 60.5981 88.4328 60.5695 88.4652 60.5242C88.4976 60.479 88.5134 60.418 88.5134 60.3418C88.5134 60.277 88.5014 60.2228 88.4758 60.1775C88.4516 60.1331 88.4162 60.0999 88.3695 60.0796C88.322 60.0592 88.2203 60.0487 88.065 60.0487H87.7876Z" fill="#332C2B"/>
<path d="M90.6924 60.9847H90.3185L90.1701 60.4971H89.4902L89.35 60.9847H88.9853L89.6477 58.8382H90.011L90.6924 60.9847ZM90.06 60.1353L89.8256 59.3394L89.5957 60.1353H90.06Z" fill="#332C2B"/>
<path d="M90.8755 60.9847V58.8382H91.5983C91.7799 58.8382 91.9118 58.8578 91.994 58.8963C92.0761 58.9347 92.1425 59.0033 92.1922 59.102C92.242 59.2 92.2661 59.3131 92.2661 59.4397C92.2661 59.601 92.2284 59.7336 92.1538 59.8391C92.0792 59.9439 91.9669 60.0102 91.8176 60.0374C91.8915 60.0916 91.9525 60.1519 92.0008 60.2175C92.049 60.2831 92.1146 60.3991 92.1967 60.5657L92.4048 60.9847H91.994L91.7453 60.5175C91.6571 60.3501 91.5968 60.2454 91.5644 60.2017C91.532 60.1587 91.4973 60.1286 91.4611 60.1127C91.4249 60.0961 91.3677 60.0886 91.2885 60.0886H91.2192V60.9847H90.8755ZM91.2192 59.7457H91.4724C91.6375 59.7457 91.7407 59.7374 91.7814 59.7193C91.8222 59.702 91.8546 59.6718 91.8779 59.6289C91.9013 59.5859 91.9126 59.5324 91.9126 59.4676C91.9126 59.3952 91.8975 59.3372 91.8666 59.2927C91.8365 59.2482 91.7935 59.2204 91.7377 59.2083C91.7091 59.2038 91.6262 59.2015 91.4868 59.2015H91.2192V59.7457Z" fill="#332C2B"/>
<path d="M94.1239 60.9847H93.7501L93.6016 60.4971H92.9218L92.7816 60.9847H92.4168L93.0793 58.8382H93.4426L94.1239 60.9847ZM93.4908 60.1353L93.2572 59.3394L93.0273 60.1353H93.4908Z" fill="#332C2B"/>
<path d="M94.5121 60.9847V59.2015H94.0079V58.8382H95.3592V59.2015H94.8558V60.9847H94.5121Z" fill="#332C2B"/>
</g>
<rect x="1" y="1" width="110" height="110" rx="9" stroke="#CCCCCC" stroke-width="2"/>
<defs>
<clipPath id="clip0_528_599">
<rect x="2" y="2" width="108" height="108" rx="8" fill="white"/>
</clipPath>
</defs>
</svg>
