<svg width="112" height="112" viewBox="0 0 112 112" fill="none" xmlns="http://www.w3.org/2000/svg">
<g clip-path="url(#clip0_771_51)">
<rect x="2" y="2" width="108" height="108" rx="8" fill="white"/>
<path d="M55.9955 16C48.0415 16 40.3217 18.3395 33.7713 22.7845C27.2209 27.2294 22.0742 33.546 19.0329 40.7982C15.9917 48.2844 15.2897 56.2378 16.6934 64.1919C18.097 72.1459 21.8401 79.1642 27.4547 84.7788C33.0694 90.3934 40.3216 94.3709 48.0417 95.7746C55.7618 97.4122 63.9496 96.4764 71.2018 93.435C78.454 90.3937 84.7706 85.2467 89.2155 78.4623C93.6605 71.912 96 63.9585 96 56.0045C96 45.2431 91.7889 34.949 84.3028 27.4629C76.8166 20.2107 66.5229 16 55.9955 16ZM54.3582 19.0411V35.4175H37.5146C41.2577 26.0598 47.5739 19.7429 54.3582 19.0411ZM57.3993 19.0411C64.4176 19.7429 70.5006 26.0598 74.2436 35.4175H57.3993V19.0411ZM43.8312 20.9128C41.7257 23.0183 39.6201 25.3578 37.9825 28.1651C36.5789 30.5046 35.4093 32.8442 34.4735 35.4175H24.8816C29.5604 28.6332 36.1111 23.4861 43.8312 20.9128ZM67.9271 20.9128C75.6472 23.4861 82.1971 28.6332 86.876 35.4175H77.2847C76.349 32.8442 75.1794 30.5046 73.7757 28.1651C72.1381 25.3578 70.2665 23.0183 67.9271 20.9128ZM23.2442 38.2243H33.5377C31.9001 43.6049 31.1977 49.2197 30.9638 54.8343H18.565C18.799 48.9857 20.4369 43.371 23.2442 38.2243ZM36.5788 38.2243H54.3582V54.8343H33.7713C33.7713 49.2197 34.7072 43.6049 36.5788 38.2243ZM57.3993 38.2243H75.1795C76.8171 43.6049 77.7523 49.2197 77.9862 54.8343H57.3993V38.2243ZM78.2206 38.2243H88.514C91.3214 43.371 92.9585 48.9857 93.1925 54.8343H80.7938C80.7938 49.2197 79.8582 43.6049 78.2206 38.2243ZM57.3993 57.6418H77.9862C77.9862 63.2564 77.051 68.8711 75.1795 74.2518H57.3993V57.6418ZM18.565 57.8754H30.9638C30.9638 63.49 31.9001 69.1047 33.5377 74.4854H23.2442C20.4369 69.3387 18.799 63.49 18.565 57.8754ZM33.7713 57.8754H54.3582V74.4854H36.5788C34.9412 69.1047 34.0052 63.49 33.7713 57.8754ZM80.7938 57.8754H93.1925C92.9585 63.7239 91.3214 69.3387 88.514 74.4854H78.2206C79.8582 68.8708 80.7938 63.49 80.7938 57.8754ZM57.3993 77.0585H74.2436C70.5006 86.6503 64.4176 92.9667 57.3993 93.6685V77.0585ZM24.8816 77.2929H34.4735C35.4093 79.8662 36.5789 82.2059 37.9825 84.5453C39.6201 87.1186 41.4917 89.6921 43.8312 91.7976C36.1111 89.2243 29.5604 84.0772 24.8816 77.2929ZM37.5146 77.2929H54.3582V93.6685C47.3399 92.9665 41.2577 86.6506 37.5146 77.2929ZM77.2847 77.2929H86.876C82.1971 84.0772 75.6472 89.2243 67.9271 91.7976C70.2665 89.6921 72.1381 87.3526 73.7757 84.5453C75.1794 82.2059 76.349 79.6324 77.2847 77.2929Z" fill="#333D3E"/>
</g>
<rect x="1" y="1" width="110" height="110" rx="9" stroke="#CCCCCC" stroke-width="2"/>
<defs>
<clipPath id="clip0_771_51">
<rect x="2" y="2" width="108" height="108" rx="8" fill="white"/>
</clipPath>
</defs>
</svg>
