<svg width="112" height="112" viewBox="0 0 112 112" fill="none" xmlns="http://www.w3.org/2000/svg">
<g clip-path="url(#clip0_771_50)">
<rect x="2" y="2" width="108" height="108" rx="8" fill="white"/>
<path d="M29.6913 42C26.9685 42 24.3257 42.8008 22.0834 44.3224C19.8411 45.844 18.0793 48.0062 17.0382 50.4888C15.9971 53.0515 15.7569 55.7743 16.2374 58.4971C16.7179 61.2199 17.9992 63.6224 19.9212 65.5444C21.8432 67.4664 24.3257 68.8278 26.9685 69.3083C29.6112 69.8689 32.4141 69.5486 34.8967 68.5075C37.3793 67.4664 39.5415 65.7046 41.0631 63.3821C42.5847 61.1398 43.3855 58.417 43.3855 55.6942C43.3855 52.0104 41.944 48.4867 39.3813 45.9241C36.8187 43.4415 33.295 42 29.6913 42ZM16.878 56.3348H21.1224C21.1224 58.2568 21.4428 60.1788 22.0033 62.0207H18.4797C17.5187 60.2589 16.9581 58.2568 16.878 56.3348ZM30.1718 48.6469V43.0411C32.5743 43.2813 34.6564 45.4436 35.9378 48.6469H30.1718ZM36.2581 49.6079C36.8187 51.4498 37.139 53.3718 37.2191 55.2938H30.1718V49.6079H36.2581ZM29.1307 43.0411V48.6469H23.3647C24.6461 45.4436 26.8083 43.2813 29.1307 43.0411ZM29.1307 49.6079V55.2938H22.0834C22.0834 53.3718 22.4038 51.4498 23.0444 49.6079H29.1307ZM21.1224 55.2938H16.878C16.9581 53.2917 17.5187 51.3697 18.4797 49.6079H22.0033C21.4428 51.4498 21.2025 53.3718 21.1224 55.2938ZM22.0834 56.3348H29.1307V62.0207H23.0444C22.4838 60.1788 22.1635 58.2568 22.0834 56.3348ZM29.1307 62.9817V68.5876C26.7282 68.3472 24.6461 66.1851 23.3647 62.9817H29.1307ZM30.1718 68.5876V62.9016H35.9378C34.6564 66.1851 32.5743 68.3473 30.1718 68.5876ZM30.1718 61.9406V56.2548H37.2191C37.2191 58.1768 36.8988 60.0987 36.2581 61.9406H30.1718ZM38.1801 56.3348H42.4245C42.3444 58.3369 41.7838 60.2589 40.8228 62.0207H37.2992C37.8598 60.0987 38.1801 58.2568 38.1801 56.3348ZM38.1801 55.2938C38.1801 53.3718 37.8598 51.4498 37.2992 49.6079H40.8228C41.7838 51.3697 42.3444 53.2917 42.4245 55.2938H38.1801ZM40.2623 48.6469H36.9789C36.6585 47.766 36.2581 46.9651 35.7776 46.1643C35.217 45.2033 34.5764 44.4025 33.7755 43.6817C36.4183 44.5627 38.6606 46.3245 40.2623 48.6469ZM25.527 43.6817C24.8062 44.4025 24.0855 45.2033 23.5249 46.1643C23.0444 46.9651 22.644 47.766 22.3237 48.6469H19.0403C20.6419 46.3245 22.8842 44.5627 25.527 43.6817ZM19.0403 62.9817H22.3237C22.644 63.8626 23.0444 64.6635 23.5249 65.4643C24.0855 66.3452 24.7262 67.2261 25.527 67.9469C22.8842 67.066 20.6419 65.3041 19.0403 62.9817ZM33.7755 67.9469C34.5764 67.2261 35.217 66.4253 35.7776 65.4643C36.2581 64.6635 36.6585 63.7826 36.9789 62.9817H40.2623C38.6606 65.3041 36.4183 67.066 33.7755 67.9469ZM81.1846 51.8502H78.9423V64.183H81.1846V51.8502ZM80.0635 50.1685C80.8643 50.1685 81.5851 49.5278 81.5851 48.6469C81.5851 47.766 80.9444 47.1253 80.0635 47.1253C79.2627 47.1253 78.5419 47.766 78.5419 48.6469C78.5419 49.5278 79.2627 50.1685 80.0635 50.1685ZM85.7494 55.1336H89.0328V53.2116H85.7494V51.4498C85.7494 50.1685 86.6303 49.4477 88.1519 49.4477H89.0328V47.2054H88.1519C85.2689 47.2054 83.507 48.8071 83.507 51.3697V64.2631H85.7494V55.1336ZM95.1191 64.2631H96V62.0207H95.1191C93.5975 62.0207 92.7166 61.3 92.7166 60.0187V55.1336H96V53.2116H92.7166V47.2054H90.4743V60.0987C90.4743 62.5813 92.2361 64.183 95.1191 64.2631ZM66.7697 64.2631L69.012 55.0535L71.2544 64.2631H73.817L77.2606 51.9303H74.9382L72.5357 61.3801L70.2133 51.9303H67.7307L65.4083 61.3801L63.0058 51.9303H60.7635L64.2071 64.2631H66.7697ZM54.5971 62.1809C52.6751 62.1809 51.0735 60.9796 50.5129 59.7784L48.4307 60.8996C49.3917 63.0618 51.7942 64.5033 54.517 64.5033C58.0407 64.5033 60.5232 62.5012 60.5232 59.6182C60.5232 52.9714 51.1535 55.7743 51.1535 51.9303C51.1535 50.2486 52.595 49.4477 54.5971 49.4477C56.1988 49.4477 57.6403 50.3286 58.5212 51.4498L60.283 49.9282C59.0818 48.2465 56.9195 47.2855 54.5971 47.2855C50.9934 47.2855 48.751 49.5278 48.751 51.9303C48.751 58.417 58.2008 55.2137 58.2008 59.6983C58.2008 61.1398 56.7593 62.1809 54.5971 62.1809Z" fill="#333D3E"/>
</g>
<rect x="1" y="1" width="110" height="110" rx="9" stroke="#CCCCCC" stroke-width="2"/>
<defs>
<clipPath id="clip0_771_50">
<rect x="2" y="2" width="108" height="108" rx="8" fill="white"/>
</clipPath>
</defs>
</svg>
