<svg width="112" height="112" viewBox="0 0 112 112" fill="none" xmlns="http://www.w3.org/2000/svg">
<g clip-path="url(#clip0_812_230)">
<rect x="2" y="2" width="108" height="108" rx="8" fill="white"/>
<path d="M19.2863 51.9796C19.2701 52.1177 17.9217 61.625 17.873 61.9659C17.8405 62.311 18.0151 62.4531 18.2304 62.4937H20.0783C20.3016 62.4937 20.586 62.38 20.6753 62.0187C20.9637 59.9524 22.0927 51.8416 22.113 51.728C22.1333 51.594 22.1658 51.5087 22.2835 51.4316L25.8778 49H16.1591C15.9967 49 15.9398 49.2395 16.0779 49.3491C16.1348 49.3897 18.0517 50.6928 18.9249 51.2652C19.2741 51.4885 19.3269 51.663 19.2863 51.9796Z" fill="url(#paint0_linear_812_230)"/>
<path d="M26.7305 49.276C26.7508 49.2598 26.7792 49.2557 26.8036 49.2517C26.828 49.2517 26.8523 49.2557 26.8767 49.2639C26.8767 49.2639 27.0838 49.345 27.1853 49.3856L27.5427 49.5643C27.7539 49.682 27.9489 49.82 28.1276 49.9783C28.424 50.2462 28.6718 50.5629 28.8667 50.9161C28.9845 51.1272 29.0779 51.3504 29.151 51.5818C29.151 51.5818 29.1876 51.6995 29.216 51.8173C29.6587 53.5872 28.5946 55.0567 28.4037 55.3206C27.8352 56.1041 27.0432 56.6927 26.1253 57.0093L25.971 57.0661C25.971 57.0661 27.8676 61.4463 28.0017 61.7386C28.1316 62.1161 27.7905 62.4774 27.5468 62.4774H25.4471C25.3253 62.4774 25.2156 62.4043 25.1669 62.2907C25.1588 62.2704 22.2874 55.6859 22.2671 55.6413C22.2631 55.6129 22.2631 55.5844 22.2671 55.556C22.2671 55.5439 22.3321 55.0689 22.3565 54.8944C22.3605 54.8578 22.3971 54.8294 22.4336 54.8335C22.7342 54.8335 23.9201 54.8375 23.9485 54.8375C24.0094 54.8416 24.3546 54.8294 24.3546 54.8294C25.041 54.805 25.4796 54.5736 25.6827 54.4437C25.7923 54.3747 25.8979 54.2935 25.9913 54.2001C26.2675 53.9201 26.4381 53.5547 26.4827 53.1609C26.5152 52.9417 26.4949 52.7185 26.4218 52.5114C26.3893 52.4181 26.3406 52.3247 26.2878 52.2435C26.1457 52.0324 25.9466 51.866 25.7111 51.7645C25.634 51.732 25.5568 51.7077 25.4796 51.6833C25.3415 51.6427 25.2035 51.6062 25.0653 51.5818L23.4002 51.5696L26.7305 49.276Z" fill="url(#paint1_linear_812_230)"/>
<path d="M38.5365 59.9971C38.2157 59.652 38.0573 59.2298 38.0573 58.7346V53.9647H36.778L36.8998 52.8971H38.0573V51.0541L39.43 50.9161V52.8971H41.3957V53.9647H39.43V57.8943C39.43 58.4139 39.4625 58.7671 39.5234 58.9619C39.5762 59.1487 39.7265 59.2907 39.9133 59.3354C40.1123 59.3923 40.4738 59.4207 41.0018 59.4207H41.351L41.2454 60.5167H40.0108C39.3447 60.5126 38.8574 60.3422 38.5365 59.9971Z" fill="#2E4865"/>
<path d="M44.3971 60.0053C43.8448 59.6724 43.4021 59.1893 43.1178 58.6129C42.8213 58.0242 42.6751 57.3626 42.6751 56.6318C42.6751 55.9011 42.8213 55.2394 43.1178 54.6508C43.4021 54.0744 43.8448 53.5872 44.3971 53.2544C44.9576 52.9134 45.6155 52.7429 46.379 52.7429C47.1304 52.7429 47.7883 52.9134 48.3528 53.2544C48.9092 53.5832 49.3559 54.0703 49.6402 54.6468C49.9367 55.2354 50.0829 55.8971 50.0829 56.6278C50.0829 57.3585 49.9367 58.0202 49.6402 58.6088C49.3559 59.1893 48.9051 59.6724 48.3528 60.0012C47.7883 60.3422 47.1304 60.5127 46.379 60.5127C45.6155 60.5167 44.9535 60.3462 44.3971 60.0053ZM48.0766 58.5966C48.4787 58.1298 48.6777 57.4762 48.6777 56.6318C48.6777 55.7875 48.4787 55.1339 48.0725 54.6671C47.6705 54.2002 47.106 53.9648 46.3749 53.9648C45.6439 53.9648 45.0753 54.1962 44.6773 54.6671C44.2793 55.138 44.0763 55.7875 44.0763 56.6318C44.0763 57.4762 44.2753 58.1298 44.6773 58.5966C45.0794 59.0634 45.6439 59.2989 46.3749 59.2989C47.11 59.2948 47.6745 59.0634 48.0766 58.5966Z" fill="#2E4865"/>
<path d="M61.2065 52.8971H62.3355L62.5023 54.1312C62.8882 53.6522 63.2576 53.3031 63.6071 53.0798C63.9358 52.8647 64.3178 52.7469 64.7115 52.7429C64.8293 52.7429 64.9471 52.7591 65.061 52.7875L64.9228 54.2976C64.7726 54.2652 64.618 54.2489 64.4638 54.253C64.0943 54.253 63.7288 54.3382 63.3958 54.5047C63.0627 54.6711 62.8189 54.866 62.6647 55.0892V60.3584H61.2026L61.2065 52.8971Z" fill="#2E4865"/>
<path d="M66.799 59.6156C66.2793 59.0147 66.0233 58.2394 66.0233 57.2854C66.0194 56.5101 66.1979 55.7469 66.5431 55.0527C66.8722 54.3788 67.3716 53.7983 67.9892 53.3761C68.6107 52.954 69.3088 52.7429 70.0927 52.7429C70.8034 52.7429 71.3517 52.9174 71.7376 53.2625C72.1235 53.6075 72.3184 54.0703 72.3184 54.6508C72.3184 55.073 72.2045 55.483 71.9892 55.8484C71.7701 56.2299 71.4045 56.5425 70.8848 56.7942C70.3651 57.0418 69.6869 57.1677 68.8419 57.1677C68.5981 57.1677 68.3465 57.1555 68.0866 57.1312C67.8874 57.1149 67.6925 57.0865 67.5015 57.0459C67.5015 57.8781 67.6721 58.4627 68.0134 58.7996C68.3547 59.1365 68.8298 59.3029 69.4392 59.3029C69.7843 59.2989 70.1295 59.2624 70.4665 59.1893C70.8199 59.1203 71.165 59.0107 71.4938 58.8605L71.4331 59.9403C70.7631 60.326 69.9749 60.5208 69.0693 60.5208C68.0745 60.5127 67.3192 60.2163 66.799 59.6156ZM70.5028 55.8077C70.8684 55.5236 71.0511 55.1948 71.0511 54.8173C71.0511 54.5331 70.9498 54.3179 70.7467 54.1758C70.5436 54.0338 70.2798 53.9607 69.9545 53.9607C69.4673 53.9607 69.0247 54.1353 68.6306 54.4844C68.2369 54.8335 67.9077 55.3653 67.6561 56.0757C67.9606 56.1772 68.3179 56.2299 68.7241 56.2299C69.5444 56.234 70.1373 56.0919 70.5028 55.8077Z" fill="#2E4865"/>
<path d="M85.8059 55.962V60.3625H84.4334V55.9742C84.4334 55.2719 84.2952 54.7645 84.0232 54.4438C83.7469 54.1231 83.3 53.9648 82.6828 53.9648C81.3627 53.9648 80.701 54.6549 80.701 56.0351V60.3625H79.3281V56.2502C79.3281 55.3978 79.1778 54.8051 78.8777 54.4681C78.5771 54.1312 78.1423 53.9648 77.5736 53.9648C77.1271 53.9648 76.7291 54.046 76.3839 54.2083C76.047 54.3626 75.7706 54.6183 75.5918 54.939V60.3625H74.2193V52.8971H75.2873L75.4415 53.6887C75.8191 53.3518 76.1968 53.1123 76.5749 52.9661C76.9647 52.816 77.383 52.7429 77.8014 52.7469C78.9383 52.7469 79.7425 53.2463 80.2094 54.2408C80.7296 53.2463 81.6352 52.7469 82.9349 52.7469C84.8474 52.7469 85.8059 53.8186 85.8059 55.962Z" fill="#2E4865"/>
<path d="M88.1982 49.6983H89.5707V51.2206H88.1982V49.6983ZM88.1982 52.8972H89.5707V60.3625H88.1982V52.8972Z" fill="#2E4865"/>
<path d="M93.1407 59.9971C92.8198 59.652 92.6613 59.2298 92.6613 58.7346V53.9647H91.3819L91.5041 52.8971H92.6613V51.0541L94.0342 50.9161V52.8971H96V53.9647H94.0342V57.8943C94.0342 58.4139 94.0667 58.7671 94.1277 58.9619C94.1801 59.1487 94.3304 59.2907 94.5175 59.3354C94.7163 59.3923 95.0779 59.4207 95.6059 59.4207H95.955L95.8497 60.5167H94.615C93.9528 60.5126 93.4616 60.3422 93.1407 59.9971Z" fill="#2E4865"/>
<path d="M53.4782 62.855V59.4491C53.7219 59.7941 54.059 60.058 54.4854 60.2406C54.9362 60.4274 55.4154 60.5208 55.9028 60.5167C56.6054 60.5167 57.1983 60.3462 57.6857 60.0052C58.173 59.6642 58.5426 59.2014 58.7903 58.6209C59.0381 58.0364 59.164 57.3747 59.164 56.6318C59.164 55.9011 59.03 55.2394 58.766 54.6508C58.502 54.0622 58.1243 53.5953 57.6288 53.2584C57.1374 52.9174 56.5607 52.7469 55.8987 52.7469C54.8103 52.7469 53.9534 53.1447 53.3239 53.9363L53.1695 52.9011H52.1055V62.859L53.4782 62.855ZM54.0346 54.6508C54.457 54.192 54.9931 53.9647 55.6429 53.9647C56.3049 53.9647 56.8206 54.2002 57.1983 54.671C57.576 55.1419 57.7628 55.7955 57.7628 56.6277C57.7628 57.4599 57.576 58.1135 57.1983 58.5844C56.8206 59.0553 56.3049 59.2907 55.6429 59.2948C54.9808 59.2948 54.4448 59.0756 54.0265 58.6331C53.6081 58.1906 53.401 57.5249 53.401 56.6277C53.4051 55.7671 53.6122 55.1095 54.0346 54.6508Z" fill="#2E4865"/>
</g>
<rect x="1" y="1" width="110" height="110" rx="9" stroke="#CCCCCC" stroke-width="2"/>
<defs>
<linearGradient id="paint0_linear_812_230" x1="12.0694" y1="61.4647" x2="13.2385" y2="43.3636" gradientUnits="userSpaceOnUse">
<stop stop-color="#18A4E9"/>
<stop offset="1" stop-color="#06E4AE"/>
</linearGradient>
<linearGradient id="paint1_linear_812_230" x1="11.4246" y1="64.8401" x2="12.2959" y2="46.3363" gradientUnits="userSpaceOnUse">
<stop stop-color="#18A4E9"/>
<stop offset="1" stop-color="#06E4AE"/>
</linearGradient>
<clipPath id="clip0_812_230">
<rect x="2" y="2" width="108" height="108" rx="8" fill="white"/>
</clipPath>
</defs>
</svg>
