<svg width="112" height="112" viewBox="0 0 112 112" fill="none" xmlns="http://www.w3.org/2000/svg">
<g clip-path="url(#clip0_812_229)">
<rect x="2" y="2" width="108" height="108" rx="8" fill="white"/>
<path fill-rule="evenodd" clip-rule="evenodd" d="M30.9381 57.5189L24.6846 53.0012C24.3693 52.7738 23.9427 52.7738 23.6279 53.0012L20.8408 55.0144C20.678 55.1317 20.4792 55.1793 20.2807 55.1481C20.0822 55.117 19.908 55.0108 19.7898 54.8489C19.6715 54.6873 19.6238 54.4895 19.6554 54.2923C19.6869 54.095 19.7934 53.9216 19.9562 53.8041L23.6531 51.1336C24.6143 50.439 25.9393 50.5251 26.7988 51.3394C26.9887 51.5198 27.2848 51.5308 27.4972 51.3771L30.9381 48.8916V57.5189ZM30.8593 59.2847L30.8504 59.3444C30.8293 59.475 30.7419 59.6633 30.6459 59.7541C30.3928 59.9941 30.022 60.013 29.7523 59.8179L26.7 57.6107L26.6777 57.5949C26.4926 57.4609 26.1904 57.4626 26.0221 57.617C25.7771 57.8417 25.8091 58.2179 26.0644 58.4022L26.1018 58.4291L28.9012 60.4515C29.0569 60.5643 29.1718 60.731 29.1982 60.9212C29.2351 61.1837 29.1284 61.4306 28.9193 61.5819L28.8551 61.6284C28.6116 61.8041 28.2818 61.8041 28.0382 61.6284L24.5666 59.1201C24.3815 58.9867 24.0787 58.988 23.9107 59.1422C23.6654 59.3674 23.6978 59.743 23.9528 59.9273L26.7896 61.9767C26.9458 62.0895 27.0602 62.2563 27.0865 62.4465C27.124 62.7095 27.0174 62.9557 26.8079 63.1073L26.7434 63.1537C26.5 63.3296 26.1701 63.3296 25.9268 63.1537L22.455 60.6455C22.2699 60.5118 21.9674 60.5136 21.7993 60.6679C21.5537 60.8925 21.5864 61.2685 21.8414 61.4527L24.6782 63.5023C24.8342 63.6149 24.9486 63.7818 24.9755 63.9716C25.0124 64.2347 24.9058 64.4815 24.6963 64.6327L24.6339 64.6779C24.4157 64.8353 24.131 64.8518 23.8981 64.7277L17.1091 59.823V48.8916L20.9892 51.6946L19.3042 52.9122C18.902 53.2023 18.638 53.6314 18.5603 54.1198C18.4821 54.6079 18.6002 55.097 18.8928 55.4972C19.1849 55.897 19.6161 56.1596 20.1071 56.2374C20.2057 56.2529 20.3043 56.2606 20.4022 56.2606C20.7922 56.2606 21.1711 56.1392 21.4928 55.9068L23.8493 54.2045C24.0324 54.0721 24.28 54.0721 24.4629 54.2045L30.6459 58.6732C30.8142 58.8285 30.8954 59.0552 30.8593 59.2847ZM30.1434 48.1025L27.3411 50.127C27.2555 50.1888 27.139 50.1947 27.0502 50.137C25.9101 49.3984 24.4267 49.3658 23.2465 50.0798C23.2106 50.0957 23.1759 50.1146 23.1428 50.1384L21.9321 51.0132L17.9037 48.1025H30.1434ZM31.8846 47.1613C31.781 47.0577 31.6397 47 31.4924 47H16.5545C16.2482 47 16 47.2467 16 47.5509V60.1039C16 60.2803 16.0851 60.446 16.2283 60.5498L23.414 65.7425C23.7771 66.005 24.2696 66.005 24.6329 65.7425L31.8184 60.5516C31.9621 60.4474 32.0472 60.2819 32.0472 60.1055V47.5514C32.0472 47.4052 31.9888 47.265 31.8846 47.1613Z" fill="#212E61"/>
<path fill-rule="evenodd" clip-rule="evenodd" d="M74.8144 52.0583C74.9153 52.0583 74.9969 52.141 74.9969 52.242V59.9919C74.9969 60.0932 74.9153 60.1752 74.8144 60.1752H72.3475C72.2467 60.1752 72.165 60.0932 72.165 59.9919V52.242C72.165 52.141 72.2467 52.0583 72.3475 52.0583H74.8144ZM86.0235 49.7056C86.1244 49.7056 86.2063 49.7875 86.2063 49.8887V59.9921C86.2063 60.0929 86.1244 60.1752 86.0235 60.1752H83.5567C83.4564 60.1752 83.3745 60.0929 83.3745 59.9921V49.8887C83.3745 49.7875 83.4564 49.7056 83.5567 49.7056H86.0235ZM73.6399 48.0587C74.5196 48.0587 75.2329 48.7697 75.2329 49.6466C75.2329 50.5237 74.5196 51.2349 73.6399 51.2349C72.7602 51.2349 72.047 50.5237 72.047 49.6466C72.047 48.7697 72.7602 48.0587 73.6399 48.0587ZM95.9988 53.0701C95.9988 53.0727 96 53.0769 96 53.0794V60.3242C96 62.0793 95.244 63.2922 93.5937 63.8534C92.5493 64.2091 91.5559 64.2382 90.6189 64.0927C90.5228 64.0774 90.4551 63.9894 90.464 63.8935L90.6504 61.7566C90.6599 61.6461 90.7578 61.5759 90.8687 61.594C91.1655 61.6433 91.7144 61.6482 91.7209 61.6482C91.9529 61.655 92.1695 61.5974 92.3624 61.4999C92.3719 61.4954 92.3814 61.4904 92.3909 61.4857C92.7914 61.2704 93.1095 60.8606 93.1243 60.3774V59.6567C93.1243 59.2968 92.8727 59.3727 92.703 59.5041C92.1689 59.9191 91.5666 60.3208 90.6955 60.3208C89.7288 60.3208 88.9941 59.9224 88.4992 59.2712C88.215 58.8984 87.9764 58.1108 87.9764 56.4508V52.2412C87.9764 52.1399 88.0583 52.0583 88.1604 52.0583H90.6616C90.7637 52.0583 90.8468 52.1399 90.8468 52.2412V56.4508C90.8468 57.3327 91.2847 57.7955 91.9642 57.7955C92.6442 57.7955 93.1279 57.3327 93.1279 56.4508V52.2412C93.1279 52.1399 93.2109 52.0583 93.313 52.0583H95.8137C95.9157 52.0583 95.9988 52.1399 95.9988 52.2412V53.0701ZM81.6542 52.067C81.7575 52.067 81.8405 52.1484 81.8405 52.2491V54.3609C81.8405 54.4617 81.7575 54.543 81.6542 54.543H80.5208C80.4181 54.543 80.3344 54.6242 80.3344 54.7249V57.0861C80.3344 58.1665 81.2103 57.9807 81.6263 57.9199C81.7391 57.9032 81.8405 57.9874 81.8405 58.0994V59.8082C81.8405 59.8879 81.7859 59.9471 81.7106 59.9828C81.367 60.1452 80.538 60.2929 79.5737 60.2929C78.2557 60.2929 77.4481 59.3613 77.4481 58.2125V54.7249C77.4481 54.6242 77.365 54.543 77.2623 54.543H76.4808C76.3782 54.543 76.2951 54.4617 76.2951 54.3609V52.2491C76.2951 52.1484 76.3782 52.067 76.4808 52.067H77.2623C77.365 52.067 77.4481 51.9853 77.4481 51.885V49.8876C77.4481 49.7872 77.5318 49.7056 77.635 49.7056H80.1487C80.2514 49.7056 80.3344 49.7872 80.3344 49.8876V51.8852C80.3344 51.9853 80.4181 52.067 80.5208 52.067H81.6542ZM42.5721 54.7311C43.5685 54.7311 44.1421 54.2525 44.1421 53.4897V53.4598C44.1421 52.6374 43.5385 52.2186 42.5568 52.2186H40.8244C40.7222 52.2186 40.6397 52.3004 40.6397 52.4014V54.548C40.6397 54.6491 40.7222 54.7311 40.8244 54.7311H42.5721ZM37.7106 49.8887C37.7106 49.7876 37.7931 49.7056 37.8952 49.7056H42.708C44.3236 49.7056 45.4407 50.1246 46.1505 50.8425C46.7696 51.4406 47.0864 52.2484 47.0864 53.2805V53.3102C47.0864 54.8284 46.3115 55.8621 45.1109 56.4366C45.0082 56.4854 44.9705 56.6101 45.0347 56.7029L47.2356 59.8884C47.3193 60.0101 47.232 60.1752 47.0832 60.1752H44.1849C44.1016 60.1752 44.0237 60.1339 43.9776 60.0652L42.017 57.1444C41.9585 57.0568 41.8592 57.0045 41.753 57.0045H40.8244C40.7222 57.0045 40.6397 57.0862 40.6397 57.1873V59.9922C40.6397 60.0932 40.5566 60.1752 40.4547 60.1752H37.8952C37.7931 60.1752 37.7106 60.0932 37.7106 59.9922V49.8887ZM53.5265 55.1677C53.5265 54.3735 52.9433 53.7468 52.0756 53.7468C51.2707 53.7468 50.6478 54.3733 50.6478 55.1675C50.6478 55.2684 50.7245 55.3502 50.8191 55.3502H53.3551C53.4497 55.3502 53.5265 55.2686 53.5265 55.1677ZM51.9521 51.8231C54.675 51.8231 56.1177 53.8079 56.1177 56.1468V56.6702C56.1177 56.7715 56.0355 56.8542 55.9342 56.8542H50.7377L50.7316 56.8547C50.631 56.8547 50.5496 56.9366 50.5496 57.0375C50.5496 57.8314 51.2796 58.3139 52.2038 58.3139L52.2046 58.3131C52.206 58.3131 52.2083 58.3139 52.2083 58.3139C52.7034 58.3139 53.0569 58.1236 53.3375 57.8311C53.3985 57.7682 53.4798 57.7292 53.5672 57.7292H55.7398C55.8691 57.7292 55.9624 57.8616 55.913 57.981C55.3378 59.3659 54.0784 60.2929 51.9521 60.2929C49.5766 60.2929 47.8581 58.4856 47.8581 56.1468C47.8581 53.8079 49.4257 51.8231 51.9521 51.8231ZM65.1044 52.9898C65.7872 52.2697 66.5898 51.8231 67.7126 51.8231C69.4538 51.8231 70.5131 52.8953 70.5131 54.7716V59.8754C70.5131 59.9762 70.43 60.0576 70.3279 60.0576H67.8225C67.7199 60.0576 67.6373 59.9762 67.6373 59.8754V55.68C67.6373 54.801 67.1979 54.3397 66.5167 54.3397C65.8357 54.3397 65.336 54.801 65.336 55.68V59.8754C65.336 59.9762 65.2528 60.0576 65.1508 60.0576H62.6454C62.5426 60.0576 62.4599 59.9762 62.4599 59.8754V55.68C62.4599 54.801 62.0209 54.3397 61.3396 54.3397C60.6583 54.3397 60.1741 54.801 60.1741 55.68V59.8754C60.1741 59.9762 60.0911 60.0576 59.9888 60.0576H57.4831C57.3806 60.0576 57.2977 59.9762 57.2977 59.8754V52.1842C57.2977 52.0833 57.3806 52.0019 57.4831 52.0019H59.9948C60.0939 52.0019 60.1741 52.0807 60.1741 52.1779V52.7516C60.1741 52.8848 60.3437 52.9419 60.4282 52.8383C60.9149 52.2453 61.6598 51.8554 62.5009 51.8241C62.5387 51.8233 62.5753 51.8231 62.6111 51.8231C63.6272 51.8231 64.4195 52.2375 64.8783 52.9691C64.9274 53.0482 65.0396 53.0582 65.1044 52.9898Z" fill="#212E61"/>
</g>
<rect x="1" y="1" width="110" height="110" rx="9" stroke="#CCCCCC" stroke-width="2"/>
<defs>
<clipPath id="clip0_812_229">
<rect x="2" y="2" width="108" height="108" rx="8" fill="white"/>
</clipPath>
</defs>
</svg>
