<svg width="112" height="112" viewBox="0 0 112 112" fill="none" xmlns="http://www.w3.org/2000/svg">
<g clip-path="url(#clip0_812_163)">
<rect x="1.99988" y="2" width="108" height="108" rx="8" fill="white"/>
<path d="M96 40H16V71.5646H96V40Z" fill="#EA5F00"/>
<path fill-rule="evenodd" clip-rule="evenodd" d="M31.2412 47.5496C35.563 47.5496 39.0664 51.053 39.0664 55.3746C39.0664 58.5432 37.1829 61.2719 34.4746 62.5024C34.1818 62.442 33.8874 62.3654 33.5889 62.2753C32.3606 61.9041 31.1884 61.3605 29.9623 60.9733C28.4982 60.5107 27.0922 60.3113 25.5605 60.5305C25.5001 60.5391 25.4397 60.5483 25.3798 60.5579C24.158 59.1776 23.416 57.3629 23.416 55.3746C23.416 51.053 26.9195 47.5496 31.2412 47.5496ZM31.2412 46.7648C35.9963 46.7648 39.851 50.6196 39.851 55.3746C39.851 58.4408 38.2479 61.1323 35.8344 62.6576C36.2941 62.6646 36.7603 62.6228 37.2427 62.523C37.7222 62.4236 38.252 62.2418 38.7375 62.0132C40.3036 60.2459 41.2548 57.9217 41.2548 55.3746C41.2548 49.8442 36.7717 45.3609 31.2412 45.3609C25.7109 45.3609 21.2275 49.8442 21.2275 55.3746C21.2275 57.5632 21.9303 59.5878 23.1217 61.2354C23.5676 61.0263 24.032 60.8633 24.508 60.7399C23.3338 59.2684 22.6314 57.4036 22.6314 55.3746C22.6314 50.6196 26.4862 46.7648 31.2412 46.7648ZM25.6489 61.1485C24.6543 61.2906 23.7638 61.5721 22.9812 62.0081C22.4325 62.3138 21.1982 63.0452 20.9402 63.4567C20.6594 63.9049 20.9489 64.4458 21.3373 64.5661C22.2294 64.8427 22.6231 63.5866 24.8755 62.8768C26.8613 62.251 28.9687 62.8254 30.6636 63.5059C32.4919 64.2402 34.1121 64.9043 36.4275 64.7885C37.492 64.7351 38.3755 64.5072 39.2594 64.1347C39.8166 63.8999 41.1734 63.213 41.4371 62.8232C41.7373 62.3795 41.4629 61.8524 41.0798 61.7045C40.5681 61.5067 40.1539 61.903 39.8372 62.1132C39.1904 62.5422 38.2385 62.9544 37.3691 63.1342C32.9877 64.0413 30.293 60.4841 25.6489 61.1485ZM25.7939 63.2723C25.0259 63.4335 24.4162 63.6671 23.8472 64.0376C23.5898 64.205 23.2832 64.3715 23.1967 64.6909C23.0398 65.27 23.621 66.1018 24.5535 65.4294C24.8429 65.2206 25.0742 65.0929 25.4491 64.9566C28.9499 63.6865 32.9422 68.3479 38.7481 66.4953C39.9446 66.1133 39.555 65.2668 39.1915 65.0295C38.6177 64.6543 37.3721 65.696 34.3982 65.2445C31.299 64.7737 28.6038 62.6828 25.7939 63.2723ZM29.2454 56.7463L28.5029 57.9047C29.2767 58.6942 30.8214 59.4154 32.3576 58.9838C33.9899 58.5252 34.492 56.9375 33.9155 55.803C33.2141 54.4227 31.561 54.3328 30.798 53.8135C30.1529 53.3743 30.2792 52.5597 31.233 52.4565C32.2109 52.3509 32.6209 52.7199 33.1963 53.0499L33.9408 51.9599C33.6523 51.6186 32.9027 51.2026 32.2981 51.0713C30.9384 50.7758 29.2419 51.2382 28.9538 52.7543C28.6323 54.4452 29.8247 55.1522 31.1802 55.616C31.761 55.8147 32.6017 56.0741 32.6124 56.7449C32.6244 57.4921 31.724 57.7081 30.9956 57.5837C30.1014 57.431 29.8219 57.069 29.2454 56.7463ZM80.1721 53.4867L80.1608 53.0901L78.6094 53.0897V59.1624L80.1383 59.1572L80.1567 56.0613C80.1682 55.0974 80.4977 54.3648 81.5058 54.3463C82.5332 54.3275 82.8613 55.0536 82.8611 56.0504L82.8799 59.1494L84.3914 59.1638L84.389 55.6075C84.3946 54.3682 83.7709 53.2253 82.3632 53.0057C81.4238 52.8591 80.7882 53.1259 80.1721 53.4867ZM85.4608 59.1702L86.9271 59.1661L86.9349 57.3113L87.4237 56.7709C87.6441 56.9777 87.9005 57.3344 88.1066 57.5827L89.3935 59.1613H91.1721L88.452 55.6436L90.8563 52.9923L88.9472 52.9764L86.9445 55.1106L86.9441 51.0276L85.468 51.004L85.4608 59.1702ZM44.9485 56.9449L44.2009 58.1032C44.9801 58.8926 46.5352 59.6138 48.0819 59.1822C49.7251 58.7236 50.2308 57.1361 49.6502 56.0015C48.9441 54.6214 47.2798 54.5317 46.5116 54.0122C45.8623 53.5731 45.9894 52.7586 46.9498 52.6556C47.9343 52.5498 48.3002 53.0071 48.9262 53.2489L49.6759 52.1588C49.3855 51.8176 48.6307 51.4016 48.0222 51.2702C46.653 50.9748 44.9449 51.4372 44.6549 52.9531C44.3313 54.644 45.5316 55.3509 46.8966 55.8147C47.4811 56.0134 48.3278 56.2729 48.3384 56.9435C48.3503 57.6906 47.444 57.9066 46.7106 57.7823C45.8105 57.6297 45.5288 57.2679 44.9485 56.9449ZM60.2257 54.3719C62.4343 53.9802 62.8114 57.5227 60.7773 57.8028C58.4942 58.1174 58.2428 54.7235 60.2257 54.3719ZM62.1116 58.6422L62.117 59.1374L63.569 59.1628L63.5692 53.1065L62.1162 53.1105L62.116 53.4903C61.7124 53.2123 61.3558 52.9829 60.592 52.9275C56.3642 52.6358 56.3409 59.4182 60.5301 59.2284C61.4539 59.1794 61.8438 58.8052 62.1116 58.6422ZM56.6173 58.2398L55.9808 57.2571C55.5823 57.4655 55.101 57.9955 53.7712 57.9387C52.9063 57.9017 52.2459 57.4561 52.1163 56.7038L56.7413 56.7035C56.9026 55.3022 56.3327 53.5309 54.6168 53.0129C50.797 51.8599 48.9301 57.0759 52.1359 58.9096C53.5983 59.7459 55.7361 59.151 56.6173 58.2398ZM55.2498 55.4893L52.0649 55.4891C52.1035 54.7606 52.8362 54.2601 53.6262 54.2452C54.4391 54.23 55.2178 54.7854 55.2498 55.4893ZM64.7685 59.1804L68.0443 59.1797C69.2679 59.181 70.1714 58.6562 70.5031 57.7607C70.7655 57.0523 70.6765 56.0948 70.1696 55.498C69.9164 55.1998 69.846 55.1726 69.6158 55.0286C69.8882 54.6788 70.0998 54.505 70.1826 53.8691C70.4044 52.1637 69.1704 51.3984 67.361 51.3984H64.755L64.7685 59.1804ZM66.1148 52.7489L67.2927 52.7492C68.1045 52.7492 69.1771 52.9523 68.8093 53.9476C68.5626 54.6152 67.3397 54.5068 66.5409 54.5068H66.1146L66.1148 52.7489ZM66.1354 55.7975L67.9337 55.7936C68.6061 55.8097 69.2714 56.0962 69.2622 56.8025C69.2528 57.5204 68.5815 57.8277 67.8945 57.821L66.1162 57.8125L66.1354 55.7975ZM74.1132 54.3719C76.3219 53.9802 76.6988 57.5227 74.6647 57.8028C72.3817 58.1174 72.1303 54.7235 74.1132 54.3719ZM75.999 58.6422L76.0045 59.1374L77.4564 59.1628V53.1065L76.0036 53.1105L76.0035 53.4903C75.5999 53.2123 75.2433 52.9829 74.4793 52.9275C70.2518 52.6358 70.2283 59.4182 74.4175 59.2284C75.3413 59.1794 75.7311 58.8052 75.999 58.6422Z" fill="white"/>
</g>
<rect x="1" y="1" width="110" height="110" rx="9" stroke="#CCCCCC" stroke-width="2"/>
<defs>
<clipPath id="clip0_812_163">
<rect x="2" y="2" width="108" height="108" rx="8" fill="white"/>
</clipPath>
</defs>
</svg>
