<svg width="112" height="112" viewBox="0 0 112 112" fill="none" xmlns="http://www.w3.org/2000/svg">
<g clip-path="url(#clip0_428_518)">
<rect x="2" y="2" width="108" height="108" rx="8" fill="white"/>
<g clip-path="url(#clip1_428_518)">
<path d="M81.744 16H30.256C22.3826 16 16 22.3826 16 30.256V81.744C16 89.6174 22.3826 96 30.256 96H81.744C89.6174 96 96 89.6174 96 81.744V30.256C96 22.3826 89.6174 16 81.744 16Z" fill="#C1C1C3"/>
<path d="M32.4801 19.4561H79.5201C86.7073 19.4561 92.5441 25.2929 92.5441 32.4801V79.5201C92.5441 86.7073 86.7073 92.5441 79.5201 92.5441H32.4801C25.2929 92.5441 19.4561 86.7073 19.4561 79.5201V32.4801C19.4561 25.2929 25.2929 19.4561 32.4801 19.4561Z" fill="#103B99"/>
<path d="M72.2241 40.5858L63.3953 57.789H72.0097L73.7473 53.6482H79.0401L79.0689 57.789H86.7809L85.7409 33.6514H74.1089L70.2145 40.589H72.2241V40.5858ZM78.7841 41.565L78.8513 48.1314H75.9585L78.7809 41.565H78.7841Z" fill="white"/>
<path d="M36.992 57.7888C42.1728 57.7888 46.0032 54.0928 46.0032 50.1376C46.0032 48.5024 45.7824 46.1856 43.2032 45.2448C45.7056 43.984 47.9872 41.5488 47.9872 38.7968C47.9872 35.8112 45.6704 33.744 41.8432 33.7216C38.7328 33.6992 31.6672 33.7216 31.6672 33.7216L27.9328 40.9408L29.7472 40.9504L25.3728 57.7888H36.9888H36.992ZM37.0272 40.0544L39.2384 40.064C39.8656 40.064 41.1776 40.1088 40.7936 41.7632C40.4448 43.2896 39.0464 43.488 38.256 43.488H36.2048L37.024 40.0544H37.0272ZM35.1168 47.7312H37.8496C38.8864 47.7312 39.7216 48.5952 39.3792 49.888C39.0304 51.1744 37.7696 51.6896 36.7264 51.6896H34.08L35.1136 47.7344L35.1168 47.7312Z" fill="white"/>
<path d="M58.0321 58.6465C59.5073 58.6017 61.1841 58.3009 61.9553 58.0545L65.8081 50.1633C64.6913 51.0209 62.3553 52.2337 60.0321 52.1825C55.9937 52.0929 54.4801 49.5649 54.4993 47.3441C54.5313 44.2017 57.1073 40.9473 61.3761 40.8705C63.5457 40.8321 65.4145 41.8209 66.8097 42.9441L70.5921 36.1953L65.4401 33.4529L64.7553 34.3521C64.1921 34.0321 63.2033 33.8881 62.5889 33.8881C52.5793 33.8881 46.7361 42.0769 46.7329 48.8097C46.7329 53.9041 49.8401 58.8865 58.0257 58.6465H58.0321Z" fill="white"/>
<path d="M39.4145 67.7762C37.9617 67.7762 36.6401 68.4802 35.4529 69.8818C35.3633 69.2226 35.1137 68.7073 34.7073 68.3329C34.2977 67.9617 33.7665 67.7729 33.1137 67.7729C31.6929 67.7729 30.4449 68.4194 29.3601 69.709L29.6705 68.0098H28.0129C27.8657 68.7618 27.6385 69.7154 27.3281 70.8706L25.3057 78.4162H27.1681L28.8321 72.2018C29.0305 71.4562 29.4497 70.8034 30.0897 70.2466C30.7265 69.6866 31.3633 69.4081 31.9969 69.4081C32.6305 69.4081 33.0977 69.6642 33.3377 70.1762C33.5745 70.6882 33.5777 71.3858 33.3377 72.2658L31.6897 78.4162H33.5521L35.2641 72.0322C35.4689 71.2642 35.8753 70.637 36.4801 70.1442C37.0849 69.6546 37.6929 69.4081 38.3009 69.4081C39.0049 69.4081 39.4721 69.6834 39.7025 70.237C39.9329 70.7874 39.9105 71.581 39.6353 72.6114L38.0801 78.4162H39.9425L41.5617 72.3746C41.9649 70.8706 41.9553 69.7282 41.5297 68.9442C41.1041 68.1634 40.4001 67.7729 39.4177 67.7729L39.4145 67.7762Z" fill="white"/>
<path d="M50.0384 67.7761C48.5568 67.7761 47.1968 68.2753 45.9584 69.2769C44.7168 70.2753 43.872 71.6193 43.4208 73.3025C42.9952 74.8865 43.1232 76.1761 43.7984 77.1681C44.4736 78.1601 45.536 78.6561 46.9824 78.6561C47.9104 78.6561 48.8352 78.4289 49.7536 77.9777C50.672 77.5265 51.4656 76.8801 52.1344 76.0417C52.8032 75.2033 53.2864 74.2241 53.5872 73.1073C54.0064 71.5393 53.8912 70.2561 53.2352 69.2641C52.5792 68.2721 51.5168 67.7761 50.0416 67.7761H50.0384ZM51.5808 73.1713C51.2672 74.3457 50.7104 75.3057 49.9136 76.0513C49.1168 76.7969 48.272 77.1681 47.3792 77.1681C46.4864 77.1681 45.8784 76.7969 45.4976 76.0545C45.1168 75.3121 45.0784 74.3713 45.3824 73.2321C45.6864 72.0929 46.2208 71.1457 46.9792 70.3905C47.7376 69.6353 48.5984 69.2577 49.5616 69.2577C50.5248 69.2577 51.1552 69.6385 51.5008 70.4033C51.8464 71.1681 51.872 72.0897 51.584 73.1713H51.5808Z" fill="white"/>
<path d="M62.6464 67.7762C61.0368 67.7762 59.696 68.4226 58.6272 69.7122L60.3968 63.1106H58.4512L55.0816 75.6866C54.7712 76.8482 54.4992 77.757 54.2688 78.4162H55.9264L56.4704 76.6978C56.9056 78.0034 57.8976 78.653 59.4464 78.653C60.736 78.653 61.9648 78.1474 63.1328 77.133C64.3008 76.1186 65.1136 74.7618 65.568 73.0626C65.984 71.5074 65.92 70.237 65.3696 69.2514C64.8224 68.2658 63.9136 67.773 62.6432 67.773L62.6464 67.7762ZM63.6224 73.1522C63.3024 74.349 62.768 75.2994 62.0224 76.0066C61.2768 76.7138 60.4288 77.0658 59.4816 77.0658C58.6688 77.0658 58.0672 76.7746 57.6736 76.1954C57.28 75.6162 57.1872 74.9378 57.3952 74.1634L57.8496 72.4642C58.0704 71.6386 58.544 70.9154 59.2736 70.2882C60 69.661 60.7744 69.3474 61.5936 69.3474C62.5216 69.3474 63.1648 69.7026 63.5264 70.4162C63.888 71.1298 63.92 72.0418 63.6224 73.1522Z" fill="white"/>
<path d="M66.3232 78.4193H68.2272L71.0144 68.0129H69.1136L66.3232 78.4193Z" fill="white"/>
<path d="M70.2721 63.9649C69.9777 64.2049 69.7857 64.4993 69.6929 64.8513C69.5969 65.2097 69.6289 65.5105 69.7889 65.7537C69.9489 65.9969 70.2049 66.1185 70.5601 66.1185C70.9153 66.1185 71.2577 65.9969 71.5489 65.7537C71.8401 65.5105 72.0321 65.2097 72.1281 64.8513C72.2209 64.4993 72.1857 64.2049 72.0225 63.9649C71.8593 63.7249 71.6033 63.6033 71.2545 63.6033C70.9057 63.6033 70.5665 63.7249 70.2721 63.9649Z" fill="white"/>
<path d="M75.2545 63.1106L71.1553 78.4194H73.0593L77.1585 63.1106H75.2545Z" fill="white"/>
<path d="M82.9314 67.7761C81.4498 67.7761 80.1282 68.3137 78.9634 69.3889C77.7986 70.4641 77.0018 71.7953 76.5762 73.3889C76.1506 74.9793 76.2658 76.2561 76.9218 77.2161C77.5778 78.1761 78.6786 78.6561 80.221 78.6561C81.5522 78.6561 82.765 78.4257 83.8658 77.9681L83.9138 76.5697C82.9922 76.9281 81.981 77.1073 80.8834 77.1073C79.8722 77.1073 79.133 76.8097 78.6562 76.2081C78.1826 75.6097 78.0834 74.7489 78.3554 73.6225H85.5394C85.6354 73.4145 85.7378 73.1137 85.8434 72.7201C86.2146 71.3377 86.1634 70.1665 85.6898 69.2097C85.2162 68.2529 84.2978 67.7761 82.9314 67.7761ZM84.1442 72.1825H78.7618C79.117 71.2865 79.6226 70.5633 80.2722 70.0161C80.925 69.4689 81.6354 69.1937 82.4066 69.1937C83.2194 69.1937 83.7698 69.4689 84.0642 70.0161C84.3586 70.5633 84.3842 71.2865 84.1442 72.1825Z" fill="white"/>
<path opacity="0.16" d="M81.744 16H30.256C22.3808 16 16 22.3808 16 30.256V49.7472C27.0016 53.6864 40.2912 55.9936 54.608 55.9936C70.1536 55.9936 84.4896 53.2736 96 48.6944V30.256C96 22.384 89.6192 16 81.744 16Z" fill="white"/>
</g>
</g>
<rect x="1" y="1" width="110" height="110" rx="9" stroke="#CCCCCC" stroke-width="2"/>
<defs>
<clipPath id="clip0_428_518">
<rect x="2" y="2" width="108" height="108" rx="8" fill="white"/>
</clipPath>
<clipPath id="clip1_428_518">
<rect width="80" height="80" fill="white" transform="translate(16 16)"/>
</clipPath>
</defs>
</svg>
