<svg width="112" height="112" viewBox="0 0 112 112" fill="none" xmlns="http://www.w3.org/2000/svg">
<g clip-path="url(#clip0_643_433)">
<rect x="2" y="2" width="108" height="108" rx="8" fill="white"/>
<path d="M16 34.6047C16 24.3296 24.3296 16 34.6047 16H77.3953C87.6704 16 96 24.3296 96 34.6047V77.3953C96 87.6704 87.6704 96 77.3953 96H34.6047C24.3296 96 16 87.6704 16 77.3953V34.6047Z" fill="#FF3400"/>
<path d="M24.5141 66.3524V57.1735H26.1848V58.4317C26.5149 57.9917 26.8999 57.6341 27.3399 57.3591C27.7937 57.0841 28.3163 56.9466 28.9076 56.9466C29.8014 56.9466 30.4615 57.0841 30.8878 57.3591C31.3278 57.6204 31.7128 58.0192 32.0429 58.5555C32.4554 57.9917 32.9092 57.586 33.4043 57.3385C33.8993 57.0772 34.4356 56.9466 35.0131 56.9466C35.7557 56.9466 36.3539 57.0566 36.8077 57.2766C37.2615 57.4966 37.6053 57.7785 37.839 58.1223C38.0728 58.4661 38.2309 58.8442 38.3135 59.2568C38.396 59.6556 38.4372 60.0406 38.4372 60.4119V66.3524H36.7664V60.4119C36.7664 59.7243 36.6014 59.1674 36.2714 58.7411C35.9414 58.3148 35.4188 58.1017 34.7037 58.1017C34.2637 58.1017 33.8649 58.2254 33.5074 58.473C33.1499 58.7205 32.868 59.023 32.6617 59.3805C32.4554 59.7381 32.3523 60.0819 32.3523 60.4119V66.3524H30.6815V60.4119C30.6815 60.0131 30.599 59.6418 30.434 59.298C30.269 58.9405 30.0352 58.6517 29.7327 58.4317C29.4301 58.2117 29.0726 58.1017 28.6601 58.1017C28.1788 58.1017 27.7525 58.2323 27.3812 58.4936C27.0099 58.7411 26.7143 59.0436 26.4942 59.4012C26.288 59.7587 26.1848 60.0956 26.1848 60.4119V66.3524H24.5141Z" fill="white"/>
<path d="M45.1616 66.6C44.3228 66.6 43.5596 66.4281 42.872 66.0843C42.1982 65.7268 41.655 65.1905 41.2425 64.4754C40.8437 63.7603 40.6443 62.8596 40.6443 61.7733C40.6443 60.6732 40.8437 59.7656 41.2425 59.0505C41.655 58.3355 42.1982 57.806 42.872 57.4622C43.5596 57.1185 44.3228 56.9466 45.1616 56.9466C45.9867 56.9466 46.743 57.1185 47.4305 57.4622C48.1181 57.806 48.6613 58.3355 49.0601 59.0505C49.4726 59.7656 49.6789 60.6732 49.6789 61.7733C49.6789 62.8596 49.4726 63.7603 49.0601 64.4754C48.6613 65.1905 48.1181 65.7268 47.4305 66.0843C46.743 66.4281 45.9867 66.6 45.1616 66.6ZM45.1616 65.4036C45.8079 65.4036 46.3304 65.2248 46.7292 64.8673C47.1418 64.496 47.4443 64.0354 47.6368 63.4853C47.8431 62.9215 47.9462 62.3508 47.9462 61.7733C47.9462 61.1957 47.8431 60.625 47.6368 60.0612C47.4443 59.4974 47.1418 59.0299 46.7292 58.6586C46.3304 58.2873 45.8079 58.1017 45.1616 58.1017C44.5015 58.1017 43.9652 58.2873 43.5527 58.6586C43.1401 59.0299 42.8307 59.4974 42.6245 60.0612C42.432 60.625 42.3357 61.1957 42.3357 61.7733C42.3357 62.3508 42.432 62.9215 42.6245 63.4853C42.8307 64.0354 43.1401 64.496 43.5527 64.8673C43.9652 65.2248 44.5015 65.4036 45.1616 65.4036Z" fill="white"/>
<path d="M56.5889 66.6C55.8738 66.6 55.255 66.4693 54.7325 66.208C54.2237 65.933 53.8111 65.6236 53.4948 65.2798V66.3524H51.8241V53.0893H53.433V58.4317C53.6667 58.0879 54.0243 57.7579 54.5056 57.4416C55.0006 57.1116 55.6882 56.9466 56.5683 56.9466C57.3246 56.9466 57.9571 57.0978 58.4659 57.4004C58.9747 57.6891 59.3735 58.0673 59.6623 58.5348C59.9648 59.0024 60.178 59.4906 60.3017 59.9994C60.4255 60.5082 60.4874 60.9688 60.4874 61.3814C60.4874 62.509 60.288 63.4647 59.8892 64.2485C59.5041 65.0186 59.0091 65.603 58.404 66.0018C57.8127 66.4006 57.2077 66.6 56.5889 66.6ZM56.0938 65.3623C56.8227 65.3623 57.4346 65.0254 57.9296 64.3516C58.4384 63.6778 58.6928 62.7496 58.6928 61.567C58.6928 60.9482 58.6103 60.3706 58.4453 59.8343C58.294 59.2843 58.0328 58.8442 57.6615 58.5142C57.2902 58.1704 56.7814 57.9985 56.1351 57.9985C55.53 57.9985 55.0281 58.1773 54.6293 58.5348C54.2305 58.8786 53.9349 59.3255 53.7424 59.8756C53.5636 60.4119 53.4742 60.9757 53.4742 61.567C53.4742 62.8046 53.6942 63.7466 54.1343 64.3929C54.5743 65.0392 55.2275 65.3623 56.0938 65.3623Z" fill="white"/>
<path d="M62.6532 66.3524V57.1735H64.324V66.3524H62.6532ZM62.5913 54.7808V53.0893H64.3858V54.7808H62.5913Z" fill="white"/>
<path d="M66.8611 66.3524V53.0893H68.5319V66.3524H66.8611Z" fill="white"/>
<path d="M74.9056 66.6C74.1492 66.6 73.5029 66.4487 72.9666 66.1462C72.4303 65.8436 71.9972 65.4517 71.6671 64.9704C71.3509 64.4891 71.1171 63.9666 70.9658 63.4028C70.8146 62.839 70.7389 62.2958 70.7389 61.7733C70.7389 61.1957 70.8077 60.625 70.9452 60.0612C71.0965 59.4974 71.3371 58.9818 71.6671 58.5142C71.9972 58.0329 72.4372 57.6548 72.9873 57.3797C73.5373 57.091 74.218 56.9466 75.0293 56.9466C75.9232 56.9466 76.6382 57.0978 77.1745 57.4004C77.7246 57.6891 78.1371 58.0604 78.4121 58.5142C78.6872 58.9543 78.8728 59.4149 78.9691 59.8962C79.0653 60.3775 79.1135 60.7969 79.1135 61.1545C79.1135 61.457 79.0928 61.7458 79.0516 62.0208H72.4922C72.4922 62.6533 72.5747 63.224 72.7397 63.7328C72.9048 64.2416 73.166 64.6473 73.5236 64.9498C73.8811 65.2523 74.3555 65.4036 74.9468 65.4036C75.5106 65.4036 75.9575 65.2936 76.2876 65.0736C76.6176 64.8535 76.8582 64.5923 77.0095 64.2897C77.1608 63.9735 77.257 63.6847 77.2983 63.4234H79.0516C78.9691 63.9185 78.7697 64.4135 78.4534 64.9086C78.1509 65.3898 77.7108 65.7955 77.1333 66.1255C76.5557 66.4418 75.8132 66.6 74.9056 66.6ZM72.4922 60.8244H77.2983C77.312 60.7557 77.3189 60.6869 77.3189 60.6182C77.3189 60.5494 77.3189 60.4806 77.3189 60.4119C77.3189 60.0131 77.2433 59.6418 77.092 59.298C76.9408 58.9405 76.6932 58.6517 76.3494 58.4317C76.0057 58.2117 75.5381 58.1017 74.9468 58.1017C74.3555 58.1017 73.888 58.2598 73.5442 58.5761C73.2142 58.8786 72.9666 59.243 72.8016 59.6693C72.6504 60.0819 72.5472 60.4669 72.4922 60.8244Z" fill="white"/>
<path d="M29.2789 82.108C28.5638 82.108 27.945 81.9774 27.4225 81.7161C26.9137 81.4411 26.5011 81.1317 26.1848 80.7879V81.8605H24.5141V68.5974H26.123V73.9398C26.3567 73.596 26.7143 73.2659 27.1956 72.9497C27.6906 72.6196 28.3782 72.4546 29.2582 72.4546C30.0146 72.4546 30.6471 72.6059 31.1559 72.9084C31.6647 73.1972 32.0635 73.5753 32.3523 74.0429C32.6548 74.5104 32.868 74.9986 32.9917 75.5074C33.1155 76.0162 33.1774 76.4769 33.1774 76.8894C33.1774 78.017 32.978 78.9727 32.5792 79.7565C32.1941 80.5266 31.6991 81.111 31.094 81.5098C30.5027 81.9086 29.8977 82.108 29.2789 82.108ZM28.7838 80.8704C29.5126 80.8704 30.1246 80.5335 30.6196 79.8597C31.1284 79.1859 31.3828 78.2576 31.3828 77.075C31.3828 76.4562 31.3003 75.8787 31.1353 75.3424C30.984 74.7923 30.7228 74.3523 30.3515 74.0223C29.9802 73.6785 29.4714 73.5066 28.8251 73.5066C28.22 73.5066 27.7181 73.6854 27.3193 74.0429C26.9205 74.3867 26.6249 74.8336 26.4324 75.3836C26.2536 75.9199 26.1642 76.4837 26.1642 77.075C26.1642 78.3127 26.3842 79.2546 26.8243 79.9009C27.2643 80.5472 27.9175 80.8704 28.7838 80.8704Z" fill="white"/>
<path d="M38.0767 82.108C37.5541 82.108 37.0178 82.0117 36.4678 81.8192C35.9315 81.6267 35.4777 81.3311 35.1064 80.9323C34.7351 80.5335 34.5495 80.0384 34.5495 79.4471C34.5495 78.7458 34.7007 78.1751 35.0032 77.7351C35.3195 77.2951 35.7252 76.9582 36.2202 76.7244C36.729 76.4769 37.2722 76.3118 37.8498 76.2293C38.4411 76.1331 39.0049 76.0849 39.5412 76.0849H40.7994C40.7994 75.2461 40.6756 74.6411 40.4281 74.2698C40.1806 73.8847 39.6374 73.6922 38.7986 73.6922C38.4961 73.6922 38.1867 73.7404 37.8704 73.8366C37.5541 73.9191 37.286 74.0704 37.0659 74.2904C36.8597 74.4967 36.7565 74.7855 36.7565 75.1567H35.0445C35.0445 74.4279 35.2233 73.871 35.5808 73.486C35.9521 73.1009 36.4196 72.8328 36.9834 72.6815C37.5472 72.5302 38.1317 72.4546 38.7367 72.4546C39.1493 72.4546 39.5962 72.489 40.0775 72.5578C40.5725 72.6265 41.0194 72.7709 41.4182 72.9909C41.8307 73.2109 42.1195 73.5478 42.2845 74.0016C42.367 74.2079 42.4152 74.5379 42.4289 74.9917C42.4564 75.4455 42.4702 75.8718 42.4702 76.2706V79.2821C42.4702 79.7084 42.4839 80.1828 42.5114 80.7054C42.5527 81.2142 42.6214 81.5992 42.7177 81.8605H41.0882C41.0332 81.6267 40.985 81.4067 40.9438 81.2004C40.9163 80.9941 40.8888 80.7741 40.8613 80.5404C40.435 81.0767 40.0156 81.4754 39.603 81.7367C39.1905 81.9842 38.6817 82.108 38.0767 82.108ZM38.0767 80.8704C38.8467 80.8704 39.4243 80.7122 39.8093 80.396C40.1943 80.0659 40.4487 79.6328 40.5725 79.0965C40.71 78.5602 40.7788 77.9757 40.7788 77.3432C40.6825 77.3294 40.5313 77.3157 40.325 77.3019C40.1325 77.2882 39.9743 77.2813 39.8506 77.2813C39.548 77.2813 39.1905 77.3088 38.778 77.3638C38.3792 77.4188 37.9873 77.522 37.6022 77.6732C37.2172 77.8107 36.894 78.0101 36.6328 78.2714C36.3852 78.5189 36.2615 78.8421 36.2615 79.2409C36.2615 79.7497 36.4403 80.1484 36.7978 80.4372C37.1553 80.726 37.5816 80.8704 38.0767 80.8704Z" fill="white"/>
<path d="M44.6467 81.8605V72.6815H46.3175V73.8572C46.5925 73.4722 46.9363 73.1422 47.3489 72.8672C47.7751 72.5921 48.3596 72.4546 49.1021 72.4546C49.9822 72.4546 50.6767 72.599 51.1855 72.8878C51.708 73.1766 52.0793 73.5753 52.2993 74.0841C52.5193 74.5929 52.6293 75.1774 52.6293 75.8374V81.8605H50.9998V75.7755C50.9998 75.363 50.8967 74.9917 50.6904 74.6617C50.4841 74.3179 50.2091 74.0498 49.8653 73.8572C49.5216 73.651 49.1434 73.5478 48.7309 73.5478C48.0845 73.5478 47.5207 73.7747 47.0395 74.2285C46.5582 74.6686 46.3175 75.2324 46.3175 75.9199V81.8605H44.6467Z" fill="white"/>
<path d="M54.7646 81.8605V68.5974H56.4354V76.5181L59.942 72.6815H62.0047L58.3331 76.6625L62.2935 81.8605H60.0864L56.4354 76.9719V81.8605H54.7646Z" fill="white"/>
<path d="M63.5005 81.8605V72.6815H65.1713V81.8605H63.5005ZM63.4387 70.2888V68.5974H65.2332V70.2888H63.4387Z" fill="white"/>
<path d="M67.286 81.8605V72.6815H68.9568V73.8572C69.2318 73.4722 69.5756 73.1422 69.9881 72.8672C70.4144 72.5921 70.9988 72.4546 71.7414 72.4546C72.6215 72.4546 73.3159 72.599 73.8247 72.8878C74.3473 73.1766 74.7185 73.5753 74.9386 74.0841C75.1586 74.5929 75.2686 75.1774 75.2686 75.8374V81.8605H73.6391V75.7755C73.6391 75.363 73.5359 74.9917 73.3297 74.6617C73.1234 74.3179 72.8484 74.0498 72.5046 73.8572C72.1608 73.651 71.7826 73.5478 71.3701 73.5478C70.7238 73.5478 70.16 73.7747 69.6787 74.2285C69.1974 74.6686 68.9568 75.2324 68.9568 75.9199V81.8605H67.286Z" fill="white"/>
<path d="M81.2199 85.5114C80.4636 85.5114 79.8447 85.4014 79.3635 85.1814C78.8822 84.9751 78.504 84.707 78.229 84.377C77.9677 84.0607 77.7821 83.7375 77.672 83.4075C77.5758 83.0912 77.5277 82.8231 77.5277 82.6031H79.2397C79.2397 83.0156 79.3497 83.3525 79.5697 83.6138C79.8035 83.875 80.0923 84.0676 80.4361 84.1913C80.7936 84.3151 81.158 84.377 81.5293 84.377C82.3819 84.377 83.0075 84.0676 83.4063 83.4488C83.8189 82.8437 84.0251 81.7505 84.0251 80.1691C83.7776 80.6091 83.3719 80.9598 82.8081 81.221C82.2443 81.4823 81.6805 81.613 81.1167 81.613C79.8791 81.613 78.8959 81.2348 78.1671 80.4785C77.4383 79.7222 77.0739 78.5533 77.0739 76.9719C77.0739 76.1056 77.232 75.3355 77.5483 74.6617C77.8783 73.9741 78.3321 73.4378 78.9097 73.0528C79.501 72.654 80.1748 72.4546 80.9311 72.4546C81.7424 72.4546 82.3956 72.5509 82.8906 72.7434C83.3857 72.9222 83.7639 73.2384 84.0251 73.6922V72.6815H85.6959V81.3448C85.6959 82.1286 85.524 82.8368 85.1802 83.4694C84.8502 84.1019 84.3483 84.597 83.6745 84.9545C83.0144 85.3258 82.1962 85.5114 81.2199 85.5114ZM81.3436 80.4372C81.9899 80.4372 82.5056 80.2722 82.8906 79.9422C83.2894 79.6121 83.5713 79.1859 83.7364 78.6633C83.9151 78.1408 84.0045 77.5907 84.0045 77.0132C84.0045 76.0368 83.7914 75.2255 83.3651 74.5792C82.9388 73.9329 82.2306 73.6097 81.2405 73.6097C80.6079 73.6097 80.106 73.761 79.7347 74.0635C79.3772 74.366 79.1228 74.7717 78.9715 75.2805C78.834 75.7893 78.7653 76.3531 78.7653 76.9719C78.7653 78.017 78.9784 78.8558 79.4047 79.4884C79.8447 80.1209 80.4911 80.4372 81.3436 80.4372Z" fill="white"/>
<path d="M24.575 50.2325V27.8599H33.7607C34.9437 27.8599 36.0455 28.0686 37.0661 28.4862C38.0868 28.8805 38.9102 29.4836 39.5365 30.2955C40.1628 31.0841 40.476 32.0932 40.476 33.3226C40.476 34.2968 40.2672 35.1203 39.8497 35.793C39.4553 36.4424 38.9218 36.9992 38.2491 37.4631C37.5764 37.9038 36.8458 38.2981 36.0571 38.6461C37.1473 38.9708 38.0984 39.3652 38.9102 39.8291C39.7453 40.2698 40.3948 40.8613 40.8587 41.6036C41.3458 42.3459 41.5894 43.2969 41.5894 44.4567C41.5894 45.3846 41.3458 46.208 40.8587 46.9271C40.3948 47.6462 39.7801 48.2609 39.0146 48.7712C38.2491 49.2583 37.4257 49.6294 36.5442 49.8846C35.686 50.1166 34.8625 50.2325 34.0738 50.2325H24.575ZM29.1678 46.6835H32.4385C33.6447 46.6835 34.6769 46.4516 35.5352 45.9877C36.3934 45.5005 36.8226 44.6887 36.8226 43.5521C36.8226 42.7634 36.6022 42.1487 36.1615 41.708C35.7208 41.244 35.164 40.9193 34.4914 40.7337C33.8187 40.525 33.1344 40.4206 32.4385 40.4206H29.1678V46.6835ZM29.1678 36.9412H32.1254C32.7516 36.9412 33.3432 36.8368 33.8999 36.628C34.4798 36.4192 34.9553 36.1177 35.3264 35.7234C35.6976 35.3058 35.8831 34.8071 35.8831 34.2272C35.8831 33.5777 35.7092 33.0558 35.3612 32.6615C35.0133 32.2439 34.5725 31.9308 34.039 31.722C33.5287 31.5133 32.9952 31.4089 32.4385 31.4089H29.1678V36.9412Z" fill="white"/>
<path d="M45.4515 50.2325V27.8599H51.9233L60.5174 45.7441V27.8599H64.9015V50.2325H58.395L49.766 32.3483V50.2325H45.4515Z" fill="white"/>
<path d="M69.2508 50.2325V27.8599H73.8436V50.2325H69.2508Z" fill="white"/>
</g>
<rect x="1" y="1" width="110" height="110" rx="9" stroke="#CCCCCC" stroke-width="2"/>
<defs>
<clipPath id="clip0_643_433">
<rect x="2" y="2" width="108" height="108" rx="8" fill="white"/>
</clipPath>
</defs>
</svg>
