<svg width="112" height="112" viewBox="0 0 112 112" fill="none" xmlns="http://www.w3.org/2000/svg">
<g clip-path="url(#clip0_689_3)">
<rect x="2" y="2" width="108" height="108" rx="8" fill="white"/>
<rect x="11" y="11" width="90" height="90" rx="7.76213" fill="white"/>
<path d="M38.1175 58.9409C38.8139 58.9409 39.3803 58.8516 39.8168 58.673C40.2636 58.4944 40.6118 58.2633 40.8612 57.9796C41.1107 57.6959 41.2821 57.3754 41.3757 57.0182C41.4692 56.661 41.516 56.2985 41.516 55.9308C41.516 55.5105 41.4588 55.1323 41.3445 54.796C41.2406 54.4598 41.0535 54.1761 40.7833 53.945C40.5235 53.7138 40.1753 53.5352 39.7388 53.4091C39.3023 53.2831 38.7515 53.22 38.0864 53.22H34.4073V58.9409H38.1175ZM34.4073 43.9846V49.6582H37.151C37.733 49.6582 38.2578 49.6162 38.7255 49.5322C39.1932 49.4481 39.5881 49.301 39.9103 49.0909C40.2429 48.8808 40.4923 48.5918 40.6586 48.2241C40.8352 47.8563 40.9236 47.394 40.9236 46.8372C40.9236 46.2908 40.856 45.839 40.7209 45.4818C40.5858 45.1141 40.378 44.8199 40.0974 44.5993C39.8168 44.3786 39.4582 44.221 39.0217 44.1265C38.5956 44.0319 38.0864 43.9846 37.494 43.9846H34.4073ZM37.494 39.9973C39.0633 39.9973 40.3988 40.1444 41.5004 40.4386C42.602 40.7328 43.501 41.1478 44.1973 41.6837C44.8936 42.2195 45.3977 42.8709 45.7095 43.6379C46.0316 44.4049 46.1927 45.2612 46.1927 46.2068C46.1927 46.7216 46.12 47.2207 45.9745 47.704C45.829 48.1768 45.6003 48.6233 45.2886 49.0436C44.9768 49.4534 44.5766 49.8316 44.0882 50.1783C43.5997 50.525 43.0125 50.8245 42.3266 51.0767C43.8232 51.4444 44.93 52.038 45.6471 52.8575C46.3642 53.6771 46.7228 54.7382 46.7228 56.0411C46.7228 57.0182 46.5357 57.927 46.1615 58.7676C45.7874 59.6081 45.2366 60.3436 44.5091 60.974C43.792 61.5939 42.9034 62.0825 41.8433 62.4397C40.7833 62.7864 39.5725 62.9598 38.2111 62.9598H29.1382V39.9973H37.494Z" fill="#00A39D"/>
<path d="M62.9088 44.6807C62.7529 44.9326 62.5866 45.1215 62.41 45.2474C62.2437 45.3733 62.0254 45.4363 61.7552 45.4363C61.5162 45.4363 61.2564 45.3628 60.9758 45.2159C60.7055 45.0585 60.3938 44.8853 60.0404 44.6964C59.6975 44.5075 59.3025 44.3396 58.8556 44.1927C58.4087 44.0353 57.8995 43.9566 57.3279 43.9566C56.3406 43.9566 55.6027 44.1717 55.1142 44.602C54.6362 45.0218 54.3971 45.5937 54.3971 46.3179C54.3971 46.7796 54.5426 47.1627 54.8336 47.467C55.1246 47.7714 55.504 48.0338 55.9716 48.2541C56.4497 48.4745 56.9901 48.6792 57.5929 48.8681C58.2061 49.0465 58.8297 49.2511 59.4636 49.482C60.0976 49.7024 60.7159 49.9648 61.3187 50.2691C61.9319 50.5735 62.4723 50.9618 62.94 51.4341C63.4181 51.9063 63.8026 52.4835 64.0936 53.1657C64.3846 53.8374 64.5301 54.6507 64.5301 55.6057C64.5301 56.6657 64.3482 57.6574 63.9845 58.581C63.6207 59.5045 63.0907 60.3126 62.3944 61.0052C61.7085 61.6874 60.8562 62.2279 59.8378 62.6267C58.8297 63.015 57.6813 63.2091 56.3926 63.2091C55.6858 63.2091 54.9635 63.1357 54.2257 62.9887C53.4982 62.8418 52.7915 62.6372 52.1055 62.3748C51.4196 62.1019 50.7753 61.7818 50.1725 61.4145C49.5697 61.0472 49.0449 60.6379 48.598 60.1867L50.1569 57.6994C50.2816 57.521 50.4427 57.3741 50.6402 57.2586C50.848 57.1327 51.0715 57.0697 51.3105 57.0697C51.6223 57.0697 51.9341 57.1694 52.2458 57.3688C52.568 57.5682 52.9266 57.7886 53.3215 58.03C53.7268 58.2714 54.1893 58.4917 54.7089 58.6911C55.2286 58.8905 55.8417 58.9902 56.5484 58.9902C57.5046 58.9902 58.2477 58.7804 58.7777 58.3606C59.3077 57.9303 59.5727 57.2534 59.5727 56.3298C59.5727 55.7946 59.4272 55.3591 59.1362 55.0232C58.8452 54.6874 58.4607 54.4093 57.9826 54.1889C57.515 53.9685 56.9797 53.7744 56.377 53.6065C55.7742 53.4385 55.1558 53.2549 54.5219 53.0555C53.8879 52.8456 53.2695 52.5937 52.6667 52.2999C52.064 51.9955 51.5235 51.602 51.0455 51.1192C50.5778 50.626 50.1985 50.0173 49.9075 49.2931C49.6165 48.5585 49.471 47.6559 49.471 46.5855C49.471 45.7249 49.6424 44.8853 49.9854 44.0667C50.3284 43.2481 50.8324 42.5188 51.4976 41.8786C52.1627 41.2384 52.9785 40.7294 53.9451 40.3516C54.9116 39.9633 56.0184 39.7691 57.2655 39.7691C57.9619 39.7691 58.6374 39.8269 59.2921 39.9423C59.9573 40.0473 60.586 40.2099 61.1784 40.4303C61.7708 40.6402 62.3216 40.8973 62.8309 41.2017C63.3505 41.4955 63.813 41.8314 64.2183 42.2092L62.9088 44.6807Z" fill="#00A39D"/>
<path fill-rule="evenodd" clip-rule="evenodd" d="M81.7416 39.0475C77.6958 38.6534 76.2733 40.8811 75.4797 41.983C74.4675 37.5779 72.7558 37.9253 70.9246 36.8156C73.5713 35.2793 74.3115 32.891 74.2387 31.1221C76.8312 33.0228 78.6388 32.8189 80.8775 32.2025C79.7636 35.5266 80.4669 36.4649 81.7416 39.0475Z" fill="#F8AD3C"/>
<path d="M73.2801 62.9693H67.8008V39.4871C71.2296 39.9517 73.2855 42.7876 73.2801 45.7892V62.9693Z" fill="#00A39D"/>
<path d="M30.3721 79.0364V72.4424H31.0686C31.2335 72.4424 31.3355 72.5226 31.3745 72.6832L31.4592 73.3602C31.7022 73.0607 31.9756 72.8156 32.2793 72.6246C32.5831 72.4337 32.9346 72.3382 33.3339 72.3382C33.7765 72.3382 34.1345 72.4619 34.4079 72.7092C34.6857 72.9566 34.8853 73.2908 35.0068 73.7117C35.1023 73.473 35.2238 73.2669 35.3713 73.0933C35.5232 72.9197 35.6925 72.7765 35.8791 72.6637C36.0657 72.5508 36.2631 72.4684 36.4714 72.4163C36.6841 72.3642 36.8989 72.3382 37.1159 72.3382C37.463 72.3382 37.7712 72.3946 38.0402 72.5074C38.3136 72.6159 38.5436 72.7765 38.7302 72.9891C38.9212 73.2018 39.0665 73.4643 39.1664 73.7768C39.2662 74.0849 39.3161 74.4386 39.3161 74.8378V79.0364H38.1509V74.8378C38.1509 74.3214 38.038 73.9308 37.8124 73.6661C37.5867 73.3971 37.2613 73.2625 36.836 73.2625C36.645 73.2625 36.4628 73.2973 36.2892 73.3667C36.1199 73.4318 35.9702 73.5294 35.84 73.6596C35.7098 73.7898 35.6057 73.9547 35.5276 74.1543C35.4538 74.3496 35.4169 74.5775 35.4169 74.8378V79.0364H34.2517V74.8378C34.2517 74.3084 34.1454 73.9135 33.9327 73.6531C33.7201 73.3927 33.4098 73.2625 33.0019 73.2625C32.7155 73.2625 32.4508 73.3407 32.2077 73.4969C31.9647 73.6488 31.7412 73.8571 31.5373 74.1218V79.0364H30.3721Z" fill="#F8AD3C"/>
<path d="M43.8566 72.3382C44.3383 72.3382 44.7723 72.4185 45.1585 72.579C45.5447 72.7396 45.8746 72.9674 46.148 73.2625C46.4213 73.5576 46.6297 73.9157 46.7729 74.3366C46.9204 74.7532 46.9942 75.2197 46.9942 75.7361C46.9942 76.2569 46.9204 76.7256 46.7729 77.1422C46.6297 77.5588 46.4213 77.9146 46.148 78.2097C45.8746 78.5048 45.5447 78.7327 45.1585 78.8932C44.7723 79.0495 44.3383 79.1276 43.8566 79.1276C43.3706 79.1276 42.9323 79.0495 42.5417 78.8932C42.1555 78.7327 41.8257 78.5048 41.5523 78.2097C41.2789 77.9146 41.0684 77.5588 40.9209 77.1422C40.7776 76.7256 40.706 76.2569 40.706 75.7361C40.706 75.2197 40.7776 74.7532 40.9209 74.3366C41.0684 73.9157 41.2789 73.5576 41.5523 73.2625C41.8257 72.9674 42.1555 72.7396 42.5417 72.579C42.9323 72.4185 43.3706 72.3382 43.8566 72.3382ZM43.8566 78.2228C44.5076 78.2228 44.9936 78.0058 45.3147 77.5718C45.6359 77.1335 45.7964 76.5238 45.7964 75.7426C45.7964 74.9572 45.6359 74.3453 45.3147 73.907C44.9936 73.4687 44.5076 73.2495 43.8566 73.2495C43.5268 73.2495 43.2382 73.3059 42.9909 73.4188C42.7478 73.5316 42.5439 73.6943 42.379 73.907C42.2184 74.1196 42.0969 74.3822 42.0144 74.6946C41.9363 75.0027 41.8973 75.3521 41.8973 75.7426C41.8973 76.5238 42.0578 77.1335 42.379 77.5718C42.7044 78.0058 43.197 78.2228 43.8566 78.2228Z" fill="#F8AD3C"/>
<path d="M49.629 77.4481C49.8416 77.7345 50.0738 77.9363 50.3255 78.0535C50.5815 78.1707 50.8614 78.2293 51.1652 78.2293C51.7858 78.2293 52.261 78.0101 52.5908 77.5718C52.9206 77.1335 53.0855 76.4804 53.0855 75.6125C53.0855 74.8053 52.938 74.2129 52.6429 73.8354C52.3521 73.4535 51.9355 73.2625 51.3931 73.2625C51.0155 73.2625 50.6857 73.3493 50.4036 73.5229C50.1259 73.6965 49.8677 73.9417 49.629 74.2585V77.4481ZM49.629 73.3927C49.9067 73.0716 50.2192 72.8156 50.5664 72.6246C50.9179 72.4337 51.3214 72.3382 51.7771 72.3382C52.1633 72.3382 52.5105 72.412 52.8186 72.5595C53.1311 72.7071 53.3958 72.9219 53.6128 73.204C53.8298 73.4817 53.9947 73.8202 54.1075 74.2194C54.2247 74.6187 54.2833 75.0678 54.2833 75.5669C54.2833 76.1007 54.2182 76.5867 54.088 77.025C53.9578 77.4633 53.769 77.8387 53.5216 78.1511C53.2786 78.4593 52.9814 78.7001 52.6299 78.8737C52.2783 79.0429 51.8834 79.1276 51.4451 79.1276C51.0112 79.1276 50.6445 79.0473 50.345 78.8867C50.0499 78.7218 49.7917 78.4896 49.5704 78.1902L49.5118 78.7891C49.4771 78.954 49.3773 79.0364 49.2124 79.0364H48.4638V69.448H49.629V73.3927Z" fill="#F8AD3C"/>
<path d="M56.9726 72.4424V79.0364H55.8139V72.4424H56.9726ZM57.2199 70.3723C57.2199 70.4852 57.1961 70.5915 57.1483 70.6913C57.1049 70.7868 57.0442 70.8736 56.9661 70.9517C56.8923 71.0255 56.8033 71.084 56.6992 71.1274C56.5994 71.1708 56.493 71.1925 56.3802 71.1925C56.2674 71.1925 56.1611 71.1708 56.0613 71.1274C55.9658 71.084 55.8812 71.0255 55.8074 70.9517C55.7336 70.8736 55.675 70.7868 55.6316 70.6913C55.5882 70.5915 55.5665 70.4852 55.5665 70.3723C55.5665 70.2595 55.5882 70.1532 55.6316 70.0534C55.675 69.9492 55.7336 69.8603 55.8074 69.7865C55.8812 69.7084 55.9658 69.6476 56.0613 69.6042C56.1611 69.5608 56.2674 69.5391 56.3802 69.5391C56.493 69.5391 56.5994 69.5608 56.6992 69.6042C56.8033 69.6476 56.8923 69.7084 56.9661 69.7865C57.0442 69.8603 57.1049 69.9492 57.1483 70.0534C57.1961 70.1532 57.2199 70.2595 57.2199 70.3723Z" fill="#F8AD3C"/>
<path d="M60.0741 69.448V79.0364H58.9154V69.448H60.0741Z" fill="#F8AD3C"/>
<path d="M66.3665 75.0201C66.3665 74.751 66.3275 74.5058 66.2494 74.2845C66.1756 74.0589 66.0649 73.8658 65.9174 73.7052C65.7742 73.5403 65.5984 73.4144 65.3901 73.3276C65.1818 73.2365 64.9453 73.1909 64.6806 73.1909C64.1251 73.1909 63.6846 73.3537 63.3592 73.6791C63.038 74.0003 62.8384 74.4473 62.7603 75.0201H66.3665ZM67.3039 78.1121C67.1607 78.2857 66.9893 78.4376 66.7897 78.5678C66.59 78.6936 66.3752 78.7978 66.1452 78.8802C65.9196 78.9627 65.6852 79.0234 65.4422 79.0625C65.1992 79.1059 64.9583 79.1276 64.7197 79.1276C64.264 79.1276 63.843 79.0516 63.4568 78.8997C63.0749 78.7435 62.7429 78.5178 62.4609 78.2228C62.1831 77.9233 61.9661 77.5544 61.8099 77.1161C61.6537 76.6778 61.5756 76.1744 61.5756 75.6059C61.5756 75.1459 61.645 74.7163 61.7839 74.3171C61.9271 73.9178 62.1311 73.5728 62.3958 73.2821C62.6605 72.987 62.9838 72.757 63.3657 72.5921C63.7476 72.4228 64.1772 72.3382 64.6546 72.3382C65.0495 72.3382 65.414 72.4055 65.7481 72.54C66.0866 72.6702 66.3774 72.8611 66.6204 73.1128C66.8678 73.3602 67.0609 73.6683 67.1997 74.0372C67.3386 74.4017 67.4081 74.8183 67.4081 75.287C67.4081 75.4692 67.3885 75.5908 67.3495 75.6515C67.3104 75.7123 67.2366 75.7426 67.1281 75.7426H62.7212C62.7343 76.1593 62.7907 76.5216 62.8905 76.8297C62.9946 77.1378 63.1378 77.396 63.3201 77.6044C63.5024 77.8083 63.7194 77.9624 63.9711 78.0665C64.2228 78.1663 64.5048 78.2162 64.8173 78.2162C65.108 78.2162 65.3576 78.1837 65.5659 78.1186C65.7785 78.0492 65.9608 77.9754 66.1127 77.8973C66.2646 77.8192 66.3904 77.7476 66.4902 77.6825C66.5944 77.613 66.6833 77.5783 66.7571 77.5783C66.8526 77.5783 66.9264 77.6152 66.9784 77.689L67.3039 78.1121Z" fill="#F8AD3C"/>
<path d="M101 11L56 11C78.8814 15.215 96.785 33.1186 101 56L101 11Z" fill="#F8AD3C"/>
<path d="M11 101L56 101C33.1186 96.785 15.215 78.8814 11 56L11 101Z" fill="#00A39D"/>
</g>
<rect x="1" y="1" width="110" height="110" rx="9" stroke="#CCCCCC" stroke-width="2"/>
<defs>
<clipPath id="clip0_689_3">
<rect x="2" y="2" width="108" height="108" rx="8" fill="white"/>
</clipPath>
</defs>
</svg>
