<svg width="112" height="112" viewBox="0 0 112 112" fill="none" xmlns="http://www.w3.org/2000/svg">
<g clip-path="url(#clip0_812_166)">
<rect x="2" y="2" width="108" height="108" rx="8" fill="white"/>
<g clip-path="url(#clip1_812_166)">
<path d="M24.7551 16C24.7551 16 16 16 16 24.7551V87.2449C16 87.2449 16 96 24.7551 96H87.2449C87.2449 96 96 96 96 87.2449V24.7551C96 24.7551 96 16 87.2449 16H24.7551Z" fill="white"/>
<path d="M28.7825 29.3955V81.1821H68.1878C68.3702 81.1821 68.5453 81.1967 68.7277 81.1967C76.7241 81.1967 83.2102 74.7763 83.2102 66.8529C83.2102 60.6586 79.2412 55.3764 73.689 53.37C78.1833 51.4584 81.3351 47.0371 81.3351 41.8862C81.3351 34.9915 75.6954 29.4028 68.7277 29.4028H28.7825V29.3955Z" fill="url(#paint0_linear_812_166)"/>
<path d="M38.0265 72.872C38.1652 73.0398 38.2381 73.3389 38.2381 73.7548V74.8492H36.7498V73.7621C36.7498 73.3389 36.8154 73.0398 36.9467 72.872C37.0781 72.7042 37.2532 72.6166 37.4721 72.6166C37.7055 72.6166 37.8952 72.7042 38.0338 72.872M33.9554 74.8492V73.9226C33.9554 73.5578 34.0138 73.2951 34.1378 73.1492C34.2545 73.0033 34.4224 72.9303 34.6412 72.9303C34.8747 72.9303 35.0498 73.0033 35.1738 73.1492C35.2979 73.2951 35.3562 73.5578 35.3562 73.9372V74.8492H33.9627H33.9554ZM36.5601 69.9025C36.2536 70.2089 36.0348 70.6905 35.9034 71.3471C35.7867 70.9167 35.6189 70.5883 35.4146 70.3622C35.1009 70.0265 34.7288 69.8587 34.2983 69.8587C33.7803 69.8587 33.3426 70.0922 32.9923 70.5664C32.6421 71.0334 32.467 71.7119 32.467 72.5874V77.8551H39.8214V72.996C39.8214 72.7917 39.7849 72.3685 39.7192 71.7338C39.6681 71.2596 39.5879 70.9021 39.4784 70.6686C39.3033 70.2892 39.0626 69.9901 38.7561 69.7712C38.4497 69.5523 38.1068 69.4429 37.7274 69.4429C37.2605 69.4429 36.8738 69.5961 36.5601 69.9025Z" fill="white"/>
<path d="M32.4597 69.9681V66.5172L34.809 65.4374L32.4597 64.3576V60.9285L37.3188 63.9636H39.9381V66.9257H37.3188L32.4597 69.9681Z" fill="white"/>
<path d="M37.8879 56.0767C38.2089 56.2883 38.3621 56.5947 38.3621 56.9887C38.3621 57.3827 38.2016 57.6673 37.8733 57.8934C37.5523 58.1123 37.0124 58.229 36.2755 58.229C35.5386 58.229 34.9914 58.1196 34.6631 57.8934C34.3421 57.6745 34.1743 57.3754 34.1743 57.0106C34.1743 56.6458 34.3348 56.3248 34.6558 56.0986C34.9768 55.8725 35.4802 55.763 36.1734 55.763C36.9978 55.763 37.5669 55.8725 37.8879 56.084M33.4447 53.6326C32.788 54.4206 32.4597 55.5514 32.4597 57.0106C32.4597 58.4698 32.7953 59.5496 33.4666 60.3449C34.1378 61.1401 35.0717 61.5414 36.2755 61.5414C37.1364 61.5414 37.8514 61.3371 38.4278 60.9358C38.9969 60.5346 39.42 60.0093 39.6827 59.3599C39.9454 58.7106 40.0767 57.8934 40.0767 56.9012C40.0767 55.9089 39.9235 55.1137 39.617 54.457C39.3106 53.8004 38.8801 53.3043 38.333 52.9614C37.7858 52.6185 37.078 52.4434 36.2171 52.4434C35.0352 52.4434 34.1086 52.8373 33.452 53.6326" fill="white"/>
<path d="M32.4597 51.4949V47.8761L36.3557 45.8041H32.4597V42.9951H39.814V46.6358L35.6043 48.6932H39.814V51.4949H32.4597Z" fill="white"/>
<path d="M37.4355 36.3411C37.6982 36.4506 37.8806 36.6111 37.99 36.8081C38.0922 37.005 38.1505 37.3407 38.1505 37.8149V38.3694H34.1305V37.8076C34.1305 37.2239 34.2764 36.8008 34.5609 36.5527C34.8455 36.2973 35.3854 36.1733 36.1587 36.1733C36.7497 36.1733 37.1729 36.2317 37.4355 36.3411ZM34.685 33.1309C34.2399 33.2841 33.8459 33.5322 33.503 33.8751C33.1674 34.218 32.9047 34.6485 32.7223 35.1738C32.5399 35.6991 32.4524 36.3849 32.4524 37.2385V41.5577H39.8067V37.2385C39.8067 36.7205 39.741 36.1441 39.6097 35.5021C39.5149 35.0351 39.3179 34.5974 39.026 34.1888C38.7342 33.7802 38.3694 33.4665 37.9389 33.233C37.5085 33.0069 36.8956 32.8901 36.1077 32.8901C35.6042 32.8901 35.13 32.9704 34.685 33.1236" fill="white"/>
<path d="M78.9932 84.188V87.5587H79.7957V85.0343C79.7957 84.8446 79.6936 84.2755 78.9932 84.188Z" fill="#00A39E"/>
<path d="M74.7395 86.9677C74.8417 86.9677 74.9219 86.9532 74.9876 86.9313C75.0533 86.9021 75.1043 86.8729 75.1408 86.8291C75.1773 86.7854 75.1992 86.7416 75.2138 86.6905C75.2284 86.6394 75.2357 86.5884 75.2357 86.5373C75.2357 86.4789 75.2357 86.4206 75.2138 86.3768C75.1992 86.3257 75.17 86.2892 75.1335 86.2527C75.097 86.2236 75.046 86.1944 74.9803 86.1798C74.9146 86.1579 74.8344 86.1506 74.7395 86.1506H74.1996V86.9677H74.7395ZM74.1996 84.83V85.6399H74.6009C74.6885 85.6399 74.7614 85.6399 74.8344 85.6253C74.9 85.6107 74.9584 85.5888 75.0095 85.5596C75.0606 85.5304 75.097 85.4867 75.1189 85.4356C75.1481 85.3845 75.1554 85.3189 75.1554 85.2386C75.1554 85.1584 75.1481 85.0927 75.1262 85.0416C75.1043 84.9905 75.0752 84.9468 75.0387 84.9176C74.9949 84.8884 74.9438 84.8592 74.8855 84.8519C74.8271 84.8446 74.7468 84.83 74.6593 84.83H74.2069H74.1996ZM74.652 84.261C74.8782 84.261 75.0752 84.2828 75.2357 84.3266C75.3962 84.3704 75.5275 84.4288 75.6296 84.5017C75.7318 84.5747 75.8047 84.6695 75.8485 84.779C75.8923 84.8884 75.9215 85.0124 75.9215 85.1438C75.9215 85.2167 75.9069 85.2897 75.8923 85.3553C75.8777 85.421 75.8339 85.4867 75.7902 85.545C75.7464 85.6034 75.688 85.6618 75.6151 85.7056C75.5421 85.7566 75.4618 85.8004 75.3597 85.8369C75.5786 85.888 75.7391 85.9755 75.8485 86.0922C75.9507 86.209 76.0017 86.3622 76.0017 86.5446C76.0017 86.6832 75.9726 86.8145 75.9215 86.9386C75.8631 87.0553 75.7902 87.1647 75.6807 87.2523C75.5786 87.3398 75.4472 87.4128 75.2867 87.4639C75.1335 87.5149 74.9584 87.5368 74.7541 87.5368H73.4263V84.2537H74.6447L74.652 84.261Z" fill="#00A39E"/>
<path d="M78.3147 84.9248C78.3147 84.9248 78.2709 84.9905 78.2417 85.0051C78.2125 85.0197 78.1833 85.0342 78.1469 85.0342C78.1104 85.0342 78.0739 85.0197 78.0374 84.9978C78.0009 84.9759 77.9499 84.954 77.8988 84.9248C77.8477 84.8956 77.7894 84.8737 77.7237 84.8518C77.658 84.83 77.5851 84.8227 77.5048 84.8227C77.3589 84.8227 77.2495 84.8518 77.1838 84.9102C77.1108 84.9686 77.0817 85.0561 77.0817 85.1583C77.0817 85.2239 77.1035 85.2823 77.1473 85.3261C77.1911 85.3699 77.2422 85.4063 77.3151 85.4355C77.3881 85.4647 77.461 85.4939 77.5486 85.5231C77.6361 85.5523 77.731 85.5814 77.8185 85.6106C77.9134 85.6398 78.0009 85.6836 78.0885 85.7274C78.176 85.7711 78.2563 85.8295 78.3293 85.8952C78.3949 85.9608 78.4533 86.0484 78.4971 86.1432C78.5408 86.2381 78.5627 86.3548 78.5627 86.4934C78.5627 86.6467 78.5335 86.7853 78.4825 86.9166C78.4314 87.0479 78.3511 87.1647 78.249 87.2595C78.1469 87.3544 78.0228 87.4346 77.8769 87.493C77.731 87.5513 77.5632 87.5805 77.3735 87.5805C77.2713 87.5805 77.1619 87.5732 77.0598 87.5513C76.9503 87.5295 76.8482 87.5003 76.746 87.4638C76.6439 87.4273 76.549 87.3762 76.4615 87.3252C76.3739 87.2741 76.2937 87.2157 76.228 87.1501L76.4542 86.7926C76.4542 86.7926 76.498 86.7415 76.5272 86.7269C76.5563 86.7123 76.5855 86.6977 76.622 86.6977C76.6658 86.6977 76.7096 86.7123 76.7606 86.7415C76.8044 86.7707 76.8628 86.7999 76.9138 86.8363C76.9722 86.8728 77.0379 86.902 77.1181 86.9312C77.1984 86.9604 77.2859 86.975 77.3881 86.975C77.5267 86.975 77.6361 86.9458 77.7164 86.8874C77.7966 86.829 77.8331 86.7269 77.8331 86.5956C77.8331 86.5226 77.8112 86.457 77.7675 86.4059C77.7237 86.3548 77.6726 86.3183 77.5997 86.2891C77.534 86.26 77.4537 86.2308 77.3662 86.2089C77.2786 86.187 77.1911 86.1578 77.0962 86.1286C77.0014 86.0995 76.9138 86.063 76.8263 86.0192C76.7387 85.9754 76.6585 85.9171 76.5928 85.8514C76.5199 85.7784 76.4688 85.6909 76.425 85.5887C76.3812 85.4866 76.3594 85.3553 76.3594 85.2021C76.3594 85.078 76.3885 84.9613 76.4323 84.8446C76.4834 84.7278 76.5563 84.6257 76.6512 84.5308C76.746 84.436 76.8701 84.363 77.0087 84.3119C77.1473 84.2536 77.3151 84.2317 77.4975 84.2317C77.5997 84.2317 77.6945 84.239 77.7967 84.2536C77.8915 84.2682 77.9863 84.2901 78.0739 84.3265C78.1615 84.3557 78.2417 84.3922 78.3147 84.436C78.3876 84.4798 78.4606 84.5235 78.519 84.5819L78.3293 84.9321L78.3147 84.9248Z" fill="#00A39E"/>
<path d="M79.8833 82.9767C79.8833 82.9767 79.8833 82.9184 79.876 82.8965C80.0584 83.0789 80.3137 83.1883 80.591 83.1664C80.7223 83.1591 80.8463 83.1227 80.9558 83.0643C80.8682 83.2102 80.8245 83.3853 80.839 83.5677C80.8536 83.7939 80.9485 83.9982 81.1017 84.1441C81.0287 84.1295 80.9485 84.1222 80.8609 84.1295C80.5399 84.1514 80.2627 84.3338 80.1167 84.5964C80.0584 84.2097 79.7592 83.9033 79.3726 83.8377C79.6936 83.6844 79.9052 83.3488 79.8833 82.9694V82.9767Z" fill="#FAAD3E"/>
<path d="M68.9394 86.8947C68.8445 86.9969 68.7132 87.0479 68.5527 87.0479C68.3922 87.0479 68.2608 86.9969 68.166 86.8947C68.0711 86.7926 68.0274 86.6466 68.0274 86.457C68.0274 86.2673 68.0784 86.1213 68.166 86.0192C68.2608 85.9098 68.3849 85.8587 68.5454 85.8587C68.7059 85.8587 68.8445 85.9098 68.9394 86.0192C69.0342 86.1286 69.0853 86.2746 69.0853 86.4643C69.0853 86.6539 69.0415 86.7999 68.9467 86.902M69.4501 85.6544C69.2823 85.4574 69.0488 85.3626 68.7497 85.3626C68.5964 85.3626 68.4651 85.399 68.3484 85.4647C68.2462 85.5304 68.1441 85.6252 68.0492 85.7565V84.2317H67.4656V87.5003H68.0565V87.2011C68.1368 87.3325 68.2316 87.4273 68.3484 87.493C68.4651 87.5513 68.6037 87.5878 68.7716 87.5878C69.0488 87.5878 69.2677 87.4857 69.4355 87.2814C69.6033 87.0771 69.6908 86.8072 69.6908 86.4715C69.6908 86.1359 69.6106 85.8514 69.4428 85.6544" fill="black"/>
<path d="M71.442 85.4282L70.9751 86.581C70.8218 86.187 70.6249 85.6763 70.6249 85.669L70.53 85.4209H69.8296L70.6686 87.3324L70.2163 88.4341H70.8875L72.1278 85.4282H71.4347H71.442Z" fill="black"/>
</g>
</g>
<rect x="1" y="1" width="110" height="110" rx="9" stroke="#CCCCCC" stroke-width="2"/>
<defs>
<linearGradient id="paint0_linear_812_166" x1="55.9963" y1="29.3955" x2="55.9963" y2="81.1967" gradientUnits="userSpaceOnUse">
<stop stop-color="#FAAD3E"/>
<stop offset="1" stop-color="#05908B"/>
</linearGradient>
<clipPath id="clip0_812_166">
<rect x="2" y="2" width="108" height="108" rx="8" fill="white"/>
</clipPath>
<clipPath id="clip1_812_166">
<rect width="80" height="80" fill="white" transform="translate(16 16)"/>
</clipPath>
</defs>
</svg>
