<svg width="112" height="112" viewBox="0 0 112 112" fill="none" xmlns="http://www.w3.org/2000/svg">
<g clip-path="url(#clip0_812_167)">
<rect x="2" y="2" width="108" height="108" rx="8" fill="white"/>
<path d="M16 45V63.8692H30.3537C30.4165 63.8692 30.487 63.8692 30.5497 63.8692C33.4659 63.8692 35.8256 61.5331 35.8256 58.6404C35.8256 56.3827 34.3831 54.462 32.3606 53.7251C33.999 53.0274 35.1436 51.4204 35.1436 49.5468C35.1436 47.0304 33.0897 45 30.5497 45H16Z" fill="url(#paint0_linear_812_167)"/>
<path d="M93.656 62.0113V65.3978H94.4635V62.8579C94.4635 62.6698 94.3616 62.0975 93.656 62.0113Z" fill="#00A39E"/>
<path d="M89.3836 64.8099C89.4855 64.8099 89.5718 64.7942 89.6345 64.7707C89.6972 64.7472 89.7521 64.708 89.7834 64.6688C89.8226 64.6296 89.8462 64.5826 89.8618 64.5277C89.8775 64.4728 89.8853 64.4258 89.8853 64.3709C89.8853 64.3082 89.8775 64.2533 89.8618 64.2063C89.8462 64.1592 89.8226 64.12 89.7834 64.0808C89.7442 64.0495 89.6972 64.0181 89.6266 64.0024C89.5639 63.9868 89.4855 63.9789 89.3836 63.9789H88.8427V64.8021H89.3836V64.8099ZM88.8427 62.6541V63.4694H89.2425C89.3288 63.4694 89.4072 63.4694 89.4699 63.4537C89.5404 63.438 89.5953 63.4223 89.6423 63.391C89.6894 63.3596 89.7286 63.3204 89.7521 63.2656C89.7756 63.2107 89.7913 63.148 89.7913 63.0617C89.7913 62.9755 89.7834 62.9206 89.7599 62.8658C89.7364 62.8109 89.705 62.7717 89.6658 62.7403C89.6266 62.709 89.5718 62.6854 89.5091 62.6698C89.4463 62.6541 89.368 62.6463 89.2817 62.6463H88.827L88.8427 62.6541ZM89.2974 62.0818C89.5247 62.0818 89.7207 62.1053 89.8853 62.1445C90.05 62.1837 90.1832 62.2464 90.2851 62.3248C90.3871 62.4032 90.4655 62.4973 90.5125 62.6071C90.5595 62.7168 90.583 62.8422 90.583 62.9755C90.583 63.0461 90.5752 63.1244 90.5517 63.1872C90.5282 63.2577 90.4968 63.3204 90.4498 63.3831C90.4027 63.4459 90.3479 63.5007 90.2695 63.5478C90.1989 63.5948 90.1127 63.6418 90.0108 63.681C90.2303 63.7359 90.3949 63.8221 90.4968 63.9397C90.5987 64.0573 90.6536 64.2141 90.6536 64.4023C90.6536 64.5434 90.6301 64.6766 90.5752 64.7942C90.5203 64.9118 90.4419 65.0216 90.3322 65.1078C90.2303 65.194 90.097 65.2646 89.9402 65.3195C89.7834 65.3743 89.611 65.3978 89.4072 65.3978H88.0745V62.0897H89.3052L89.2974 62.0818Z" fill="#00A39E"/>
<path d="M92.974 62.756C92.974 62.756 92.927 62.8187 92.9035 62.8344C92.88 62.8501 92.8486 62.8579 92.8094 62.8579C92.778 62.8579 92.7388 62.8501 92.6997 62.8266C92.6605 62.803 92.6134 62.7795 92.5585 62.756C92.5037 62.7325 92.4488 62.7011 92.3861 62.6854C92.3234 62.6619 92.245 62.6541 92.1587 62.6541C92.0176 62.6541 91.9079 62.6854 91.8373 62.7482C91.7668 62.8109 91.7276 62.8893 91.7276 62.999C91.7276 63.0617 91.7511 63.1244 91.7903 63.1636C91.8373 63.2107 91.8922 63.242 91.9549 63.2812C92.0255 63.3126 92.1039 63.3439 92.1901 63.3675C92.2763 63.391 92.3704 63.4223 92.4645 63.4537C92.5585 63.4851 92.6526 63.5243 92.7388 63.5713C92.8251 63.6183 92.9113 63.6732 92.974 63.7359C93.0446 63.8065 93.0995 63.8849 93.1465 63.9868C93.1857 64.0808 93.2092 64.1984 93.2092 64.3395C93.2092 64.4963 93.1857 64.6374 93.1308 64.7707C93.0759 64.904 92.9975 65.0216 92.8956 65.1156C92.7937 65.2175 92.6683 65.2959 92.5193 65.3508C92.3704 65.4057 92.1979 65.437 92.0098 65.437C91.9079 65.437 91.7981 65.4292 91.6884 65.4057C91.5786 65.3822 91.4767 65.3508 91.3748 65.3195C91.2729 65.2803 91.1788 65.2332 91.0926 65.1783C91.0064 65.1235 90.928 65.0686 90.8574 64.998L91.0848 64.6374C91.0848 64.6374 91.124 64.5904 91.1553 64.5747C91.1867 64.559 91.218 64.5512 91.2494 64.5512C91.2964 64.5512 91.3435 64.5669 91.3905 64.5982C91.4375 64.6296 91.4924 64.6609 91.5473 64.6923C91.61 64.7237 91.6727 64.755 91.7511 64.7864C91.8295 64.8177 91.9157 64.8256 92.0255 64.8256C92.1666 64.8256 92.2763 64.7942 92.3547 64.7315C92.4331 64.6688 92.4723 64.5747 92.4723 64.4414C92.4723 64.3631 92.4488 64.3003 92.4096 64.2533C92.3704 64.2063 92.3077 64.1671 92.245 64.1357C92.1744 64.1044 92.096 64.073 92.0098 64.0495C91.9236 64.026 91.8295 63.9946 91.7354 63.9711C91.6413 63.9397 91.5473 63.9084 91.461 63.8613C91.3748 63.8221 91.2964 63.7594 91.2259 63.6889C91.1553 63.6183 91.1004 63.5321 91.0612 63.4223C91.0142 63.3204 90.9985 63.1872 90.9985 63.0304C90.9985 62.9049 91.022 62.7874 91.0769 62.6698C91.124 62.5522 91.2023 62.4503 91.2964 62.3562C91.3905 62.2621 91.5159 62.1916 91.657 62.1367C91.7981 62.0818 91.9628 62.0505 92.1431 62.0505C92.245 62.0505 92.3469 62.0505 92.441 62.074C92.535 62.0897 92.6291 62.1132 92.7153 62.1445C92.8016 62.1759 92.88 62.2151 92.9584 62.2543C93.0367 62.2935 93.0995 62.3484 93.1622 62.4032L92.974 62.756Z" fill="#00A39E"/>
<path d="M94.5497 60.7962C94.5497 60.7962 94.5497 60.7413 94.5419 60.7099C94.7222 60.8981 94.9809 61 95.2553 60.9843C95.3885 60.9765 95.514 60.9373 95.6237 60.8824C95.5375 61.0314 95.4904 61.2038 95.5061 61.392C95.5218 61.6193 95.6237 61.8231 95.7727 61.9721C95.6943 61.9564 95.6159 61.9486 95.5375 61.9564C95.2082 61.9799 94.9339 62.1602 94.7927 62.4268C94.7379 62.0348 94.4321 61.7291 94.048 61.6663C94.3694 61.5096 94.5811 61.1725 94.5576 60.7962H94.5497Z" fill="#FAAD3E"/>
<path d="M83.5512 64.7393C83.4571 64.8413 83.3239 64.8961 83.1592 64.8961C82.9946 64.8961 82.8613 64.8413 82.7673 64.7393C82.6732 64.6374 82.6262 64.4885 82.6262 64.3003C82.6262 64.1122 82.6732 63.9633 82.7673 63.8535C82.8613 63.7438 82.9946 63.6889 83.1514 63.6889C83.3082 63.6889 83.4493 63.7438 83.5434 63.8535C83.6374 63.9633 83.6845 64.1122 83.6845 64.3003C83.6845 64.4885 83.6374 64.6374 83.5434 64.7393M84.0529 63.4851C83.8883 63.2891 83.6531 63.1872 83.3474 63.1872C83.1984 63.1872 83.0652 63.2185 82.9476 63.2891C82.8378 63.3518 82.7437 63.4459 82.6497 63.5791V62.0505H82.0617V65.3351H82.6575V65.0372C82.7359 65.1705 82.8378 65.2646 82.9554 65.3273C83.073 65.39 83.2141 65.4214 83.3787 65.4214C83.6531 65.4214 83.8804 65.3195 84.0451 65.1156C84.2175 64.9118 84.2959 64.6374 84.2959 64.3003C84.2959 63.9633 84.2097 63.6732 84.0451 63.4772" fill="black"/>
<path d="M86.0598 63.2656L85.5894 64.4258C85.4405 64.0338 85.2445 63.5164 85.2366 63.5086L85.1426 63.2577H84.437L85.2837 65.1783L84.829 66.2837H85.5032L86.7575 63.2577H86.0598V63.2656Z" fill="black"/>
<path d="M93.6247 61.8388V65.2254H94.4321V62.6854C94.4321 62.4973 94.3302 61.925 93.6247 61.8388Z" fill="#00A39E"/>
<path d="M89.3523 64.6374C89.4542 64.6374 89.5404 64.6218 89.6031 64.5982C89.6658 64.5747 89.7207 64.5355 89.7599 64.4963C89.7991 64.4571 89.8226 64.4101 89.8383 64.3552C89.854 64.3003 89.8618 64.2533 89.8618 64.1984C89.8618 64.1357 89.854 64.0808 89.8383 64.0338C89.8226 63.9868 89.7991 63.9476 89.7599 63.9084C89.7207 63.877 89.6737 63.8457 89.6031 63.83C89.5404 63.8143 89.462 63.8065 89.3601 63.8065H88.8192V64.6296H89.3601L89.3523 64.6374ZM88.8114 62.4816V63.2969H89.2112C89.2974 63.2969 89.3758 63.2969 89.4385 63.2812C89.5091 63.2656 89.5639 63.2499 89.611 63.2185C89.658 63.1872 89.6972 63.148 89.7207 63.0931C89.7442 63.0382 89.7599 62.9755 89.7599 62.8893C89.7599 62.803 89.7521 62.7482 89.7286 62.6933C89.705 62.6384 89.6815 62.5992 89.6345 62.5679C89.5953 62.5365 89.5404 62.513 89.4777 62.4973C89.415 62.4816 89.3366 62.4738 89.2504 62.4738H88.7957L88.8114 62.4816ZM89.266 61.9094C89.4934 61.9094 89.6894 61.9329 89.854 61.9721C90.0186 62.0113 90.1519 62.074 90.2538 62.1524C90.3557 62.2308 90.4341 62.3248 90.4811 62.4346C90.5282 62.5443 90.5517 62.6698 90.5517 62.803C90.5517 62.8736 90.5438 62.952 90.5203 63.0147C90.4968 63.0853 90.4655 63.148 90.4184 63.2107C90.3714 63.2734 90.3165 63.3283 90.2381 63.3753C90.1676 63.4223 90.0813 63.4694 89.9794 63.5086C90.1989 63.5634 90.3635 63.6497 90.4655 63.7673C90.5674 63.8849 90.6222 64.0416 90.6222 64.2298C90.6222 64.3709 90.5987 64.5042 90.5438 64.6218C90.489 64.7393 90.4106 64.8491 90.3008 64.9353C90.1989 65.0216 90.0657 65.0921 89.9089 65.147C89.7521 65.2019 89.5796 65.2254 89.3758 65.2254H88.0431V61.9172H89.2739L89.266 61.9094Z" fill="#00A39E"/>
<path d="M92.9427 62.5757C92.9427 62.5757 92.8956 62.6384 92.8721 62.6541C92.8486 62.6698 92.8172 62.6776 92.778 62.6776C92.7467 62.6776 92.7075 62.6698 92.6683 62.6463C92.6291 62.6227 92.5821 62.5992 92.5272 62.5757C92.4723 62.5522 92.4174 62.5208 92.3547 62.5051C92.292 62.4816 92.2136 62.4738 92.1274 62.4738C91.9863 62.4738 91.8765 62.5051 91.806 62.5679C91.7354 62.6306 91.6962 62.709 91.6962 62.8187C91.6962 62.8814 91.7197 62.9441 91.7589 62.9833C91.806 63.0304 91.8608 63.0617 91.9236 63.1009C91.9941 63.1323 92.0725 63.1636 92.1587 63.1872C92.245 63.2107 92.339 63.242 92.4331 63.2734C92.5272 63.3048 92.6213 63.3439 92.7075 63.391C92.7937 63.438 92.88 63.4929 92.9427 63.5556C93.0132 63.6262 93.0681 63.7046 93.1151 63.8065C93.1543 63.9005 93.1778 64.0181 93.1778 64.1592C93.1778 64.316 93.1543 64.4571 93.0995 64.5904C93.0446 64.7237 92.9662 64.8413 92.8643 64.9353C92.7624 65.0372 92.6369 65.1156 92.488 65.1705C92.339 65.2254 92.1666 65.2567 91.9784 65.2567C91.8765 65.2567 91.7668 65.2489 91.657 65.2254C91.5473 65.2019 91.4454 65.1705 91.3435 65.1391C91.2415 65.1 91.1475 65.0529 91.0612 64.998C90.975 64.9432 90.8966 64.8883 90.8261 64.8177L91.0534 64.4571C91.0534 64.4571 91.0926 64.4101 91.124 64.3944C91.1553 64.3787 91.1867 64.3709 91.218 64.3709C91.2651 64.3709 91.3121 64.3866 91.3591 64.4179C91.4062 64.4493 91.461 64.4806 91.5159 64.512C91.5786 64.5434 91.6413 64.5747 91.7197 64.6061C91.7981 64.6374 91.8844 64.6453 91.9941 64.6453C92.1352 64.6453 92.245 64.6139 92.3234 64.5512C92.4018 64.4885 92.441 64.3944 92.441 64.2611C92.441 64.1828 92.4174 64.12 92.3782 64.073C92.339 64.026 92.2763 63.9868 92.2136 63.9554C92.1431 63.9241 92.0647 63.8927 91.9784 63.8692C91.8922 63.8457 91.7981 63.8143 91.7041 63.7908C91.61 63.7594 91.5159 63.7281 91.4297 63.681C91.3435 63.6418 91.2651 63.5791 91.1945 63.5086C91.124 63.438 91.0691 63.3518 91.0299 63.242C90.9828 63.1401 90.9672 63.0069 90.9672 62.8501C90.9672 62.7246 90.9907 62.6071 91.0456 62.4895C91.0926 62.3719 91.171 62.27 91.2651 62.1759C91.3591 62.0818 91.4846 62.0113 91.6257 61.9564C91.7668 61.9015 91.9314 61.8702 92.1117 61.8702C92.2136 61.8702 92.3155 61.8702 92.4096 61.8937C92.5037 61.9094 92.5977 61.9329 92.684 61.9642C92.7702 61.9956 92.8486 62.0348 92.927 62.074C93.0054 62.1132 93.0681 62.1681 93.1308 62.2229L92.9427 62.5757Z" fill="#00A39E"/>
<path d="M94.5184 60.6159C94.5184 60.6159 94.5184 60.561 94.5105 60.5296C94.6908 60.7178 94.9495 60.8197 95.2239 60.804C95.3572 60.7962 95.4826 60.757 95.5924 60.7021C95.5061 60.8511 95.4591 61.0235 95.4748 61.2117C95.4904 61.439 95.5924 61.6428 95.7413 61.7918C95.6629 61.7761 95.5845 61.7682 95.5061 61.7761C95.1769 61.7996 94.9025 61.9799 94.7614 62.2464C94.7065 61.8545 94.4008 61.5487 94.0167 61.486C94.3381 61.3293 94.5497 60.9922 94.5262 60.6159H94.5184Z" fill="#FAAD3E"/>
<path d="M83.5198 64.559C83.4258 64.6609 83.2925 64.7158 83.1279 64.7158C82.9632 64.7158 82.83 64.6609 82.7359 64.559C82.6418 64.4571 82.5948 64.3082 82.5948 64.12C82.5948 63.9319 82.6418 63.7829 82.7359 63.6732C82.83 63.5634 82.9632 63.5086 83.12 63.5086C83.2768 63.5086 83.4179 63.5634 83.512 63.6732C83.6061 63.7829 83.6531 63.9319 83.6531 64.12C83.6531 64.3082 83.6061 64.4571 83.512 64.559M84.0216 63.3048C83.8569 63.1088 83.6217 63.0069 83.316 63.0069C83.1671 63.0069 83.0338 63.0382 82.9162 63.1088C82.8065 63.1715 82.7124 63.2656 82.6183 63.3988V61.8702H82.0304V65.1548H82.6262V64.8569C82.7046 64.9902 82.8065 65.0843 82.9241 65.147C83.0416 65.2097 83.1828 65.2411 83.3474 65.2411C83.6217 65.2411 83.8491 65.1391 84.0137 64.9353C84.1862 64.7315 84.2646 64.4571 84.2646 64.12C84.2646 63.7829 84.1783 63.4929 84.0137 63.2969" fill="black"/>
<path d="M86.0284 63.0853L85.5581 64.2455C85.4091 63.8535 85.2131 63.3361 85.2053 63.3283L85.1112 63.0774H84.4057L85.2523 64.998L84.7976 66.1034H85.4718L86.7261 63.0774H86.0284V63.0853Z" fill="black"/>
<path d="M48.3371 56.5394C48.1333 56.7041 47.7805 56.7903 47.2866 56.7903H45.9853V55.0108H47.2788C47.7805 55.0108 48.1411 55.0892 48.3371 55.246C48.5409 55.4027 48.6428 55.6144 48.6428 55.8731C48.6428 56.1553 48.5409 56.3748 48.3371 56.5394ZM45.9853 51.6791H47.0906C47.5296 51.6791 47.8354 51.7496 48.0157 51.8907C48.1881 52.0318 48.2822 52.2357 48.2822 52.4865C48.2822 52.7609 48.196 52.9726 48.0157 53.1137C47.8354 53.2626 47.5296 53.3332 47.075 53.3332H45.9931V51.6712L45.9853 51.6791ZM51.8883 54.7834C51.5198 54.415 50.9476 54.1563 50.1636 53.9995C50.6732 53.8584 51.0652 53.6624 51.3317 53.4116C51.7315 53.0431 51.9275 52.5963 51.9275 52.0789C51.9275 51.4596 51.6453 50.9422 51.0887 50.5267C50.5321 50.1112 49.7246 49.8996 48.682 49.8996H42.4027V58.6717H48.196C48.4468 58.6717 48.9407 58.6325 49.7011 58.5541C50.2656 58.4914 50.6967 58.3974 50.9711 58.2641C51.4258 58.0524 51.7864 57.7624 52.0451 57.4018C52.3038 57.0412 52.437 56.6335 52.437 56.1788C52.437 55.6222 52.2489 55.1597 51.8883 54.7913" fill="#FAAD3E"/>
<path d="M51.8021 49.8996H55.9177L57.2033 52.706L58.489 49.8996H62.5811L58.9593 55.6928V58.8207H55.4238V55.6928L51.8021 49.8996Z" fill="#FAAD3E"/>
<path d="M68.3665 56.3748C68.1078 56.7511 67.7472 56.9471 67.2847 56.9471C66.8221 56.9471 66.4694 56.7511 66.2107 56.367C65.9441 55.9829 65.8187 55.34 65.8187 54.462C65.8187 53.584 65.952 52.9255 66.2185 52.5414C66.4851 52.1573 66.8378 51.9613 67.2768 51.9613C67.7158 51.9613 68.0921 52.1494 68.3586 52.5336C68.6252 52.9177 68.7585 53.5213 68.7585 54.3444C68.7585 55.3244 68.633 56.0064 68.3743 56.3827M71.2984 51.0833C70.3577 50.2994 69.0093 49.9074 67.269 49.9074C65.5287 49.9074 64.243 50.3072 63.2866 51.1068C62.3381 51.9064 61.8599 53.0196 61.8599 54.4542C61.8599 55.4811 62.1029 56.3356 62.5811 57.0176C63.0593 57.6997 63.6864 58.2014 64.4625 58.5149C65.2386 58.8285 66.2107 58.9853 67.3944 58.9853C68.5781 58.9853 69.5267 58.805 70.3028 58.4365C71.0789 58.0681 71.6747 57.5585 72.0902 56.9079C72.4978 56.2494 72.7094 55.4106 72.7094 54.3836C72.7094 52.9726 72.2391 51.8751 71.2984 51.0911" fill="#FAAD3E"/>
<path d="M73.8305 49.8996H78.1421L80.6115 54.5483V49.8996H83.9588V58.6717H79.6159L77.17 53.6546V58.6717H73.8305V49.8996Z" fill="#FAAD3E"/>
<path d="M91.8922 55.8339C91.7589 56.1475 91.5708 56.367 91.3356 56.4924C91.1004 56.6178 90.7006 56.6805 90.1362 56.6805H89.4777V51.8907H90.1519C90.8496 51.8907 91.3513 52.0632 91.6492 52.4081C91.9471 52.7531 92.1039 53.388 92.1039 54.3131C92.1039 55.0186 92.0333 55.5203 91.9 55.8339M95.7256 52.5571C95.5453 52.024 95.2474 51.5536 94.8398 51.1538C94.4321 50.754 93.9147 50.4405 93.2876 50.2288C92.6605 50.0093 91.8452 49.9074 90.8261 49.9074H85.6756V58.6796H90.8261C91.4454 58.6796 92.1352 58.6012 92.8956 58.4365C93.4522 58.319 93.9775 58.0916 94.4557 57.7389C94.9417 57.3939 95.318 56.9549 95.5924 56.4375C95.8667 55.9201 96 55.1911 96 54.2582C96 53.6624 95.9059 53.0902 95.7256 52.5571Z" fill="#FAAD3E"/>
</g>
<rect x="1" y="1" width="110" height="110" rx="9" stroke="#CCCCCC" stroke-width="2"/>
<defs>
<linearGradient id="paint0_linear_812_167" x1="56" y1="45" x2="56" y2="66.2837" gradientUnits="userSpaceOnUse">
<stop stop-color="#FAAD3E"/>
<stop offset="1" stop-color="#05908B"/>
</linearGradient>
<clipPath id="clip0_812_167">
<rect x="2" y="2" width="108" height="108" rx="8" fill="white"/>
</clipPath>
</defs>
</svg>
