<svg width="112" height="112" viewBox="0 0 112 112" fill="none" xmlns="http://www.w3.org/2000/svg">
<g clip-path="url(#clip0_428_520)">
<rect x="2" y="2" width="108" height="108" rx="8" fill="white"/>
<path d="M77.0403 16.3418C72.9939 15.5109 68.7848 17.4588 66.6543 21.146C66.1513 22.0195 65.7889 22.9587 65.5595 23.925C64.6201 20.1643 61.6648 17.1148 57.9106 16.3418C53.8643 15.5109 49.6515 17.4588 47.521 21.146C47.018 22.0195 46.6555 22.9587 46.4262 23.925C45.483 20.1682 42.5315 17.1148 38.7773 16.3418C34.7309 15.5109 30.5181 17.4588 28.3877 21.146C26.2498 24.8487 26.5901 29.7031 29.2236 33.0386C31.8534 36.3702 36.3102 37.665 40.205 36.2001C43.3082 35.0329 45.6236 32.2733 46.4299 29.0113C46.7776 30.4645 47.4174 31.8482 48.3569 33.0386C50.9867 36.3702 55.4436 37.665 59.3383 36.2001C62.4415 35.0329 64.7569 32.2733 65.5632 29.0113C65.9109 30.4645 66.5508 31.8482 67.4902 33.0386C70.12 36.3702 74.5769 37.665 78.4716 36.2001C82.3515 34.7392 85.0109 30.7853 85.0109 26.4758C85.0072 21.6098 81.6155 17.2849 77.0403 16.3418Z" fill="#FDAF27"/>
<path d="M45.4716 66.5123C46.4777 71.0073 49.0409 75.2009 53.5273 76.484C57.7882 77.7015 62.5374 75.7265 64.7307 71.6953C66.0474 69.2758 65.881 66.5394 65.8699 63.861C65.8625 62.056 65.8514 60.2549 65.8551 58.45C65.8551 56.4634 65.8551 54.4768 65.8662 52.4941C65.8773 49.9509 65.807 47.4811 67.0202 45.1738C68.6957 41.9813 72.0282 40.0179 75.5087 40.1609C79.0224 40.3078 82.2255 42.6112 83.6236 45.9854C84.5519 48.2271 84.393 50.6582 84.4003 53.0429C84.4077 55.0102 84.4077 56.9813 84.4077 58.9486C84.4077 63.2 84.6629 67.6332 83.8714 71.819C82.0406 81.5085 75.6159 89.942 66.9092 93.8261C58.2025 97.7108 47.8906 96.6705 40.042 91.1438C36.1731 88.4192 32.9849 84.6508 30.884 80.2949C28.809 75.9854 27.5515 70.6015 28.3467 65.778C28.9422 62.1835 31.6607 59.2462 35.082 58.5118C38.6364 57.7505 42.3573 59.4665 44.2104 62.7246C44.8835 63.9035 45.1757 65.1866 45.4716 66.5123Z" fill="#FDAF27"/>
</g>
<rect x="1" y="1" width="110" height="110" rx="9" stroke="#CCCCCC" stroke-width="2"/>
<defs>
<clipPath id="clip0_428_520">
<rect x="2" y="2" width="108" height="108" rx="8" fill="white"/>
</clipPath>
</defs>
</svg>
