<svg width="112" height="112" viewBox="0 0 112 112" fill="none" xmlns="http://www.w3.org/2000/svg">
<g clip-path="url(#clip0_428_517)">
<rect x="2" y="2" width="108" height="108" rx="8" fill="white"/>
<path d="M96 52.1529C95.9866 52.1985 95.9669 52.243 95.9607 52.2893C95.8925 52.8049 95.6073 53.108 95.0891 53.1774C94.8319 53.2118 94.5696 53.2178 94.3096 53.2178C91.887 53.2186 89.4642 53.2151 87.0416 53.2137C86.9526 53.2137 86.8623 53.2123 86.7748 53.2259C86.6878 53.2393 86.6423 53.2992 86.666 53.3899C86.6866 53.4692 86.7111 53.5485 86.7436 53.6237C87.2419 54.7719 88.1102 55.4892 89.3296 55.7302C90.5752 55.9765 91.7104 55.6606 92.7194 54.898C92.977 54.7033 93.2432 54.5444 93.5729 54.5279C94.0347 54.5048 94.4314 54.6462 94.6992 55.0381C94.9706 55.435 94.9883 55.8665 94.7619 56.2852C94.6531 56.4865 94.495 56.6674 94.3345 56.8337C94.031 57.1487 93.6626 57.3766 93.2591 57.5429C92.1612 57.9954 91.0224 58.2491 89.8301 58.1963C88.4009 58.1331 87.0997 57.6824 85.9468 56.8333C85.074 56.1906 84.4733 55.3377 84.1585 54.3046C83.6526 52.6444 83.6825 50.9865 84.3105 49.3613C84.754 48.2136 85.4677 47.2641 86.5106 46.5835C87.1755 46.1495 87.9076 45.8852 88.6855 45.7483C89.6608 45.5767 90.6383 45.5555 91.6094 45.7745C92.9102 46.0677 94.0145 46.6871 94.827 47.7691C95.3384 48.4503 95.6477 49.2245 95.8255 50.051C95.8929 50.3646 95.9168 50.6873 95.9619 51.0056C95.9714 51.0728 95.9873 51.1389 96 51.2057V52.1529ZM90.0894 51.0963V51.0926C90.6179 51.0926 91.1464 51.0926 91.6749 51.0926C92.2035 51.0924 92.732 51.0915 93.2605 51.0911C93.4518 51.0911 93.4827 51.0674 93.452 50.8758C93.4128 50.6327 93.3665 50.3891 93.3001 50.1521C93.085 49.3844 92.6582 48.7749 91.9311 48.4101C91.0648 47.9758 90.1518 47.8569 89.2093 48.0807C87.6684 48.4462 86.9058 49.65 86.6383 50.8231C86.5928 51.0229 86.648 51.0819 86.8564 51.094C86.8838 51.0957 86.9112 51.0963 86.9386 51.0963C87.9888 51.0963 89.0391 51.0963 90.0894 51.0963Z" fill="#B01F25"/>
<path d="M78.2886 70.1496C78.1895 70.1281 78.0908 70.104 77.991 70.0855C77.3533 69.9672 76.77 69.7245 76.2505 69.3328C76.2128 69.3043 76.171 69.2808 76.1184 69.247C76.0846 69.3303 76.0552 69.4049 76.0243 69.4789C75.8538 69.8879 75.5464 70.0657 75.1077 70.0026C74.9929 69.9862 74.8753 69.9672 74.7675 69.9264C74.4772 69.8168 74.3161 69.6021 74.2944 69.2895C74.2893 69.2143 74.2901 69.1387 74.2901 69.063C74.2901 66.27 74.2901 63.4769 74.2901 60.6836C74.2901 60.6288 74.2899 60.5738 74.2917 60.519C74.3043 60.1314 74.5128 59.8575 74.8905 59.7926C75.0892 59.7586 75.3041 59.7611 75.5027 59.7967C75.8681 59.8623 76.0686 60.1124 76.0995 60.4848C76.1079 60.5872 76.1079 60.6904 76.1081 60.7932C76.1089 61.3354 76.1085 61.8775 76.1085 62.4196V62.6496C76.1815 62.6174 76.2299 62.609 76.26 62.5808C77.8701 61.0739 81.4182 61.5408 82.0835 64.6296C82.3592 65.9096 82.2564 67.1587 81.6553 68.3361C81.1408 69.3437 80.3186 69.9493 79.1862 70.1116C79.1468 70.1172 79.1093 70.1364 79.071 70.1491L78.2886 70.1496ZM80.4178 66.0031C80.3811 65.7181 80.366 65.4286 80.3038 65.1494C80.1223 64.3341 79.6642 63.7509 78.841 63.4998C78.5076 63.398 78.1668 63.3938 77.8227 63.4346C76.7932 63.5568 76.1197 64.2947 76.0982 65.3279C76.0883 65.8004 76.0793 66.273 76.0673 66.7455C76.057 67.1519 76.1994 67.4999 76.4807 67.7861C77.0382 68.3534 77.7283 68.5603 78.5062 68.4859C79.1851 68.421 79.6778 68.0608 80.0209 67.4809C80.2904 67.0256 80.3994 66.5302 80.4178 66.0031Z" fill="#B01F25"/>
<path d="M91.1808 70.1496C91.0203 70.1211 90.8598 70.0915 90.6991 70.0643C89.8306 69.9167 89.0585 69.5755 88.4384 68.9332C87.8384 68.3118 87.5199 67.5619 87.4343 66.7076C87.3668 66.0332 87.3779 65.3608 87.5606 64.7058C88.0063 63.1089 89.0749 62.1711 90.6803 61.8365C91.4619 61.6735 92.2395 61.7421 92.9951 61.997C94.3454 62.4524 95.1365 63.4011 95.4194 64.7864C95.5092 65.2259 95.5288 65.671 95.5065 66.1179C95.5018 66.2129 95.4853 66.3089 95.4614 66.4012C95.4113 66.5957 95.2869 66.728 95.0922 66.7795C94.9669 66.8127 94.8375 66.8331 94.7085 66.8471C94.5997 66.8589 94.489 66.8545 94.3794 66.8545C92.7868 66.8549 91.1944 66.8587 89.6018 66.8519C89.24 66.8502 89.2691 66.9716 89.3756 67.203C89.7114 67.9326 90.2948 68.3521 91.0689 68.5032C91.8004 68.646 92.4878 68.5102 93.1161 68.1014C93.2138 68.0377 93.3081 67.9689 93.4058 67.9052C93.5632 67.8026 93.732 67.7303 93.923 67.7216C94.262 67.7062 94.5282 67.8321 94.691 68.136C94.8562 68.4447 94.8309 68.7469 94.6135 69.022C94.3617 69.3406 94.0332 69.5633 93.6704 69.7377C93.2385 69.9452 92.7767 70.0422 92.3057 70.1055C92.2323 70.1154 92.1602 70.1347 92.0875 70.1498L91.1808 70.1496ZM91.5262 65.4587C92.1847 65.4587 92.8435 65.4587 93.502 65.4587C93.55 65.4587 93.5983 65.4608 93.6461 65.4577C93.7986 65.448 93.8356 65.4014 93.8115 65.2459C93.8 65.1715 93.7812 65.0981 93.7656 65.0244C93.588 64.1882 93.0868 63.6508 92.2663 63.4167C91.896 63.311 91.5198 63.331 91.1446 63.398C90.5303 63.5076 90.0137 63.7802 89.6754 64.3211C89.5493 64.5228 89.4584 64.7474 89.3618 64.9662C89.315 65.072 89.2857 65.1867 89.2604 65.3001C89.2359 65.4093 89.2717 65.4486 89.3855 65.4581C89.4263 65.4616 89.4677 65.4585 89.5089 65.4585C90.1813 65.4585 90.8538 65.4587 91.5262 65.4587Z" fill="#B01F25"/>
<path d="M69.2267 70.1496C69.0452 70.1211 68.8636 70.0931 68.6821 70.0643C68.1698 69.9833 67.6811 69.8324 67.2267 69.5786C66.5698 69.2116 66.0873 68.6816 65.7732 68.0014C65.4468 67.2945 65.261 66.5477 65.2884 65.7692C65.3415 64.2599 66.0182 63.0922 67.3096 62.3024C67.8146 61.9935 68.3877 61.8616 68.9731 61.808C69.6681 61.7446 70.3577 61.7792 71.0289 61.9949C72.2539 62.3887 73.102 63.183 73.5174 64.4025C73.9967 65.8094 73.8747 67.1686 73.0478 68.4187C72.3806 69.4275 71.4076 69.9688 70.2084 70.1083C70.1414 70.1162 70.0757 70.1353 70.0095 70.1494L69.2267 70.1496ZM69.5605 63.3809C68.5237 63.3755 67.6982 63.9444 67.352 64.9166C67.1196 65.5696 67.1002 66.2368 67.3026 66.8988C67.5445 67.6905 68.06 68.2227 68.8688 68.4451C69.1888 68.5331 69.5162 68.5537 69.8482 68.5129C70.6584 68.4131 71.2693 68.0179 71.6244 67.279C72 66.497 72.0047 65.6852 71.7097 64.8783C71.3641 63.9337 70.5626 63.386 69.5605 63.3809Z" fill="#B01F25"/>
<path d="M61.5108 41C62.7176 41.0202 64.016 41.2036 65.2389 41.7542C67.4878 42.7667 68.9318 44.4714 69.592 46.8454C69.8694 47.8429 70.0266 48.8565 70.0009 49.8929C69.9566 51.6743 69.4843 53.3326 68.5156 54.8339C67.5492 56.3319 66.1765 57.2987 64.4868 57.8283C63.2157 58.2268 61.9113 58.3781 60.5844 58.2794C58.9435 58.1574 57.4264 57.6567 56.0736 56.7067C54.673 55.723 53.772 54.3752 53.2539 52.7593C52.8843 51.6059 52.7034 50.4231 52.7609 49.2115C52.8373 47.5999 53.2688 46.0887 54.1122 44.7073C55.1128 43.0686 56.5756 42.029 58.3895 41.4546C59.3655 41.1455 60.367 41.0037 61.5108 41ZM66.2799 54.8178C66.3046 54.8106 66.3217 54.8108 66.3296 54.8026C66.5789 54.538 66.8295 54.2747 67.0749 54.0066C67.1814 53.8904 67.2016 53.7515 67.142 53.604C67.119 53.5469 67.0955 53.4898 67.0691 53.434C66.856 52.9811 66.6407 52.5292 66.4289 52.0759C65.0551 49.1379 63.6822 46.1996 62.3086 43.2617C62.2761 43.1918 62.2402 43.1234 62.206 43.0544C62.1916 43.055 62.1774 43.0558 62.1629 43.0564C62.075 43.3632 61.8722 43.5965 61.6888 43.8427C61.5431 44.0385 61.4786 44.2627 61.5219 44.5027C61.5483 44.6492 61.5959 44.7959 61.6589 44.9309C63.1668 48.1693 64.6782 51.4062 66.1893 54.6433C66.2173 54.7035 66.2505 54.7612 66.2799 54.8178ZM60.6365 45.7543C60.6219 45.7543 60.6074 45.7543 60.5928 45.7545C60.5269 45.9989 60.4014 46.2101 60.2386 46.3974C59.9015 46.785 59.8753 47.1983 60.0909 47.6566C61.3214 50.2749 62.5456 52.8964 63.7728 55.5164C63.8367 55.6528 63.9033 55.7892 63.9824 55.9167C64.1073 56.1178 64.2204 56.1595 64.4322 56.0651C64.6383 55.9732 64.8379 55.8644 65.0318 55.749C65.1858 55.6573 65.2072 55.5673 65.1478 55.3993C65.132 55.3542 65.1097 55.3113 65.0893 55.2679C63.6358 52.1558 62.1823 49.0436 60.7282 45.9317C60.6999 45.8713 60.6672 45.8134 60.6365 45.7543ZM59.0779 48.4602C59.055 48.4819 59.0334 48.493 59.0274 48.5097C58.9328 48.7722 58.7719 48.9947 58.5994 49.2086C58.3338 49.5383 58.3072 49.8847 58.4857 50.2646C59.4032 52.2199 60.3163 54.1772 61.2328 56.1329C61.2936 56.2627 61.3676 56.3872 61.4446 56.5083C61.5176 56.6229 61.6264 56.7016 61.7624 56.716C62.0803 56.75 62.3908 56.6859 62.6983 56.6167C62.8034 56.593 62.824 56.5324 62.7887 56.4261C62.765 56.3548 62.7302 56.2872 62.6983 56.2188C61.5254 53.7016 60.3523 51.1845 59.1791 48.6675C59.1475 48.5997 59.1135 48.5334 59.0779 48.4602ZM57.5156 51.1538C57.3987 51.3534 57.2998 51.5321 57.1912 51.7046C57.1148 51.8261 57.0196 51.936 56.9423 52.0571C56.7705 52.3258 56.747 52.606 56.8902 52.8968C56.9811 53.0812 57.0676 53.2677 57.1546 53.454C57.5374 54.2734 57.9215 55.0923 58.3004 55.9136C58.3769 56.0795 58.4816 56.1972 58.6629 56.2479C59.0517 56.3562 59.4381 56.4737 59.8265 56.5837C59.8887 56.6014 59.9563 56.6004 60.0566 56.6124C59.2015 54.7756 58.362 52.972 57.5156 51.1538Z" fill="#B01F25"/>
<path d="M40.7899 51.871C40.7899 53.422 40.7905 54.973 40.7889 56.524C40.7889 56.647 40.781 56.771 40.7658 56.893C40.7019 57.4067 40.3932 57.764 39.8971 57.9029C39.649 57.9723 39.3949 57.9898 39.1419 57.9509C38.705 57.8839 38.3813 57.654 38.1913 57.2487C38.168 57.199 38.1516 57.1458 38.1248 57.0982C38.0654 56.9921 38.0259 56.9829 37.9307 57.0515C37.1538 57.6119 36.288 57.9624 35.3447 58.104C34.2003 58.2756 33.0845 58.139 32.0169 57.6884C30.9032 57.2184 30.1169 56.4055 29.6176 55.3128C29.1599 54.3107 28.8762 53.2613 28.8387 52.1571C28.7884 50.6763 29.1443 49.2935 29.9596 48.0545C30.8411 46.7153 32.109 45.9424 33.6864 45.689C35.1432 45.4549 36.4947 45.7632 37.7446 46.5373C38.0628 46.7343 38.0696 46.7345 38.2501 46.4028C38.363 46.1951 38.5317 46.0469 38.7456 45.9569C39.2521 45.7438 39.7536 45.7714 40.2311 46.0385C40.6133 46.2523 40.768 46.6088 40.7884 47.0329C40.7913 47.0945 40.7897 47.1563 40.7897 47.2181C40.7897 48.7691 40.7899 50.3201 40.7899 51.871ZM38.0871 51.9209C38.078 51.9209 38.0689 51.9207 38.0597 51.9205C38.07 51.3862 38.0803 50.8517 38.0904 50.3174C38.097 49.9669 37.9923 49.6506 37.7658 49.386C37.105 48.6137 36.2771 48.1332 35.2571 48.0399C33.8077 47.9072 32.5139 48.6933 31.9633 50.0438C31.38 51.4748 31.4651 52.8888 32.1646 54.2584C32.544 55.0012 33.1593 55.4869 33.9773 55.6571C35.2822 55.9287 36.4516 55.6085 37.4679 54.749C37.6175 54.6225 37.7415 54.4601 37.8575 54.3C38.0182 54.0779 38.0891 53.822 38.0879 53.5457C38.0854 53.0041 38.0871 52.4624 38.0871 51.9209Z" fill="#B01F25"/>
<path d="M45.5267 50.2923C45.6163 50.2185 45.6695 50.1795 45.7171 50.1348C46.9641 48.9667 48.2099 47.7973 49.4582 46.6305C49.6434 46.4574 49.8287 46.2806 50.0337 46.1326C50.5734 45.7432 51.1433 45.7279 51.7139 46.0607C52.379 46.4487 52.4973 47.2241 51.9813 47.7963C51.8118 47.9842 51.6236 48.1569 51.4339 48.3253C50.4273 49.2175 49.4172 50.1058 48.4084 50.9955C48.3671 51.0318 48.3245 51.0664 48.2841 51.1037C48.1244 51.2512 48.1186 51.3229 48.2561 51.4841C48.314 51.5519 48.376 51.6162 48.4364 51.6819C49.6807 53.0363 50.9247 54.3909 52.1701 55.7443C52.3784 55.9707 52.5435 56.2192 52.5989 56.5271C52.6863 57.0121 52.5365 57.41 52.1367 57.6999C51.6679 58.0399 51.0288 58.0484 50.5528 57.7193C50.4077 57.6189 50.2746 57.4947 50.1563 57.363C48.949 56.0214 47.7461 54.6759 46.5417 53.3316C46.4914 53.2753 46.4422 53.2174 46.3863 53.1669C46.2549 53.0478 46.1652 53.0392 46.0173 53.1383C45.6719 53.3699 45.4974 53.692 45.5083 54.1123C45.5191 54.5238 45.5281 54.9353 45.5312 55.3468C45.5341 55.7517 45.5324 56.1566 45.5248 56.5613C45.5219 56.7183 45.5164 56.8796 45.4795 57.0311C45.3746 57.4599 45.0915 57.7329 44.6779 57.8683C44.3293 57.9824 43.9755 57.982 43.6248 57.872C43.1509 57.7234 42.8593 57.3564 42.8201 56.8609C42.8115 56.7517 42.8086 56.6416 42.8086 56.532C42.808 52.346 42.8078 48.16 42.8096 43.974C42.8096 43.81 42.8096 43.6412 42.8453 43.4828C42.9535 43.0051 43.2764 42.7317 43.7389 42.6169C44.0509 42.5394 44.3654 42.5495 44.6746 42.641C45.1659 42.7863 45.4612 43.1417 45.509 43.6501C45.5217 43.7865 45.5261 43.9239 45.5263 44.0609C45.5273 46.0442 45.5271 48.0273 45.5271 50.0106C45.5271 50.0895 45.5267 50.1684 45.5267 50.2923Z" fill="#B01F25"/>
<path d="M73.3237 47.1369C73.395 47.0823 73.449 47.0438 73.4999 47.0016C74.4984 46.1734 75.6422 45.7193 76.9398 45.6393C77.8147 45.5855 78.6688 45.6667 79.4872 45.9884C80.8571 46.5268 81.7435 47.5303 82.2389 48.8983C82.5249 49.6881 82.6287 50.5082 82.6291 51.3438C82.6298 52.7641 82.6298 54.1842 82.6291 55.6046C82.6289 55.9682 82.6267 56.3317 82.6201 56.6954C82.618 56.8114 82.6108 56.9295 82.5869 57.0426C82.4946 57.4786 82.2286 57.7578 81.8002 57.8792C81.4414 57.9808 81.0806 57.983 80.725 57.8693C80.2692 57.7236 80.0079 57.4051 79.9374 56.9338C79.9183 56.8054 79.9121 56.6742 79.9119 56.5444C79.9102 54.8564 79.9102 53.1684 79.9111 51.4804C79.9113 51.0332 79.8754 50.5902 79.7804 50.1521C79.4909 48.8157 78.4363 47.9865 77.0683 48.0193C76.2002 48.0399 75.4549 48.3819 74.7941 48.9152C73.9423 49.6028 73.4622 50.5061 73.3394 51.5912C73.3002 51.9376 73.3002 52.2893 73.2992 52.6386C73.2948 53.9697 73.2986 55.301 73.2959 56.6322C73.2957 56.7754 73.2833 56.9204 73.2584 57.0614C73.1784 57.5134 72.9122 57.7978 72.4628 57.9004C72.1438 57.9732 71.822 57.9725 71.5028 57.9002C70.9621 57.7778 70.6446 57.4069 70.5945 56.8444C70.586 56.749 70.5865 56.6523 70.5865 56.5565C70.5861 53.4618 70.5856 50.3671 70.5879 47.2723C70.5879 47.1155 70.5974 46.9558 70.6281 46.8027C70.7311 46.2903 71.0839 45.948 71.5965 45.866C71.8689 45.8225 72.1449 45.8279 72.4136 45.9035C72.8638 46.03 73.1376 46.3302 73.2543 46.7776C73.2819 46.8833 73.2963 46.9927 73.3237 47.1369Z" fill="#B01F25"/>
<path d="M28.1913 48.4097C28.1913 49.7685 28.1952 51.127 28.1898 52.4857C28.1867 53.3095 28.0565 54.1119 27.7275 54.8731C27.139 56.2347 26.1155 57.1407 24.7438 57.6575C23.6051 58.0865 22.4205 58.267 21.2066 58.1524C19.6433 58.0049 18.305 57.3597 17.2205 56.2223C16.392 55.3532 16.0087 54.2988 16 53.1006C15.992 51.9823 17.1546 51.3905 18.0851 51.8558C18.4902 52.0584 18.6963 52.4136 18.7667 52.8517C18.8036 53.0816 18.8133 53.3176 18.8675 53.5432C19.1292 54.6342 19.8121 55.3416 20.8866 55.6379C21.9439 55.9293 22.9731 55.8034 23.9344 55.2724C24.8579 54.7622 25.3729 53.9637 25.4889 52.9149C25.5167 52.6633 25.5293 52.4088 25.5299 52.1556C25.534 49.9735 25.534 47.7916 25.535 45.6094C25.535 45.1866 25.4971 45.1483 25.0807 45.1487C23.9826 45.1497 22.8845 45.1545 21.7865 45.1487C21.5971 45.1477 21.4007 45.1244 21.2198 45.0704C20.6456 44.899 20.3173 44.423 20.3661 43.8666C20.4135 43.3259 20.8397 42.8823 21.4094 42.8116C21.7012 42.7754 21.9979 42.7706 22.2925 42.77C23.8023 42.7671 25.3123 42.77 26.822 42.7719C27.1711 42.7723 27.4831 42.8794 27.7485 43.11C28.0518 43.3733 28.1964 43.7049 28.1956 44.1079C28.1925 45.5421 28.1944 46.9762 28.1944 48.4104C28.1933 48.4104 28.1923 48.4097 28.1913 48.4097Z" fill="#B01F25"/>
<path d="M51.9548 62.7145C52.0347 62.6533 52.0877 62.6102 52.1429 62.5707C53.3463 61.7083 54.645 61.5426 56.0254 62.0621C56.5838 62.2723 57.0363 62.6372 57.3856 63.1249C57.4093 63.1581 57.434 63.1905 57.4752 63.2459C57.5374 63.1812 57.5922 63.1243 57.6466 63.0675C58.4816 62.1925 59.4991 61.7398 60.7133 61.7615C61.2103 61.7703 61.6954 61.8686 62.1598 62.0491C62.9604 62.3603 63.499 62.9356 63.8281 63.719C64.0928 64.3493 64.1911 65.0093 64.1864 65.6891C64.1829 66.19 64.1868 66.6909 64.1854 67.1916C64.1835 67.8298 64.1817 68.4682 64.1759 69.1063C64.1703 69.7113 63.8911 69.9864 63.2886 69.9872C63.2268 69.9872 63.1648 69.986 63.1036 69.9798C62.674 69.9371 62.4184 69.6793 62.3805 69.2489C62.3733 69.1671 62.3735 69.0845 62.3733 69.002C62.3729 67.959 62.3754 66.9159 62.3717 65.8729C62.3704 65.5024 62.3634 65.1307 62.2666 64.7695C62.1024 64.1579 61.7609 63.6941 61.1514 63.4618C60.7564 63.3114 60.3544 63.3188 59.9598 63.4497C58.8745 63.8099 58.2164 64.5381 58.0975 65.6957C58.0548 66.1109 58.0538 66.5312 58.0503 66.9495C58.0445 67.6495 58.0532 68.3497 58.0523 69.0496C58.0523 69.1586 58.0406 69.2689 58.0225 69.3764C57.9687 69.6952 57.7826 69.9048 57.4639 69.9552C57.271 69.986 57.0643 69.989 56.8727 69.9552C56.5018 69.8895 56.2928 69.6344 56.2564 69.2567C56.2485 69.1749 56.2492 69.0923 56.249 69.0099C56.2485 67.9528 56.2541 66.8957 56.2452 65.8389C56.2426 65.5315 56.2238 65.2195 56.1682 64.9178C56.0305 64.1701 55.618 63.6438 54.8676 63.4215C54.5278 63.3207 54.1849 63.3347 53.8534 63.4456C52.827 63.7889 52.1549 64.4581 51.9824 65.556C51.9379 65.8393 51.9311 66.1303 51.9288 66.4179C51.9222 67.2689 51.9278 68.1199 51.9249 68.9709C51.9245 69.1073 51.9162 69.2458 51.8909 69.3793C51.8311 69.695 51.635 69.8885 51.3224 69.9575C51.1122 70.0039 50.9004 70.0024 50.69 69.9509C50.3997 69.8798 50.2276 69.6907 50.1656 69.4049C50.1382 69.2786 50.1267 69.1465 50.1264 69.0169C50.1242 66.9922 50.1229 64.9673 50.1281 62.9426C50.1285 62.774 50.1565 62.5989 50.2076 62.4384C50.2898 62.1796 50.478 62.0106 50.7467 61.9504C51.2857 61.8297 51.7425 62.0034 51.9099 62.575C51.921 62.6129 51.9342 62.6506 51.9548 62.7145Z" fill="#B01F25"/>
<path d="M85.1331 64.8783C85.1331 63.4989 85.1325 62.1198 85.1344 60.7405C85.1344 60.6247 85.1438 60.5072 85.1649 60.3935C85.2248 60.0696 85.4228 59.8594 85.7424 59.7996C85.927 59.7652 86.128 59.7632 86.3128 59.7961C86.6695 59.8596 86.8912 60.1299 86.9312 60.4996C86.9408 60.588 86.9408 60.6778 86.9408 60.7668C86.9413 63.5049 86.9413 66.2428 86.9408 68.9808C86.9408 69.0562 86.9454 69.1329 86.9338 69.2069C86.9182 69.3076 86.9009 69.4111 86.8634 69.5052C86.7214 69.8615 86.3802 70.0249 85.8877 69.982C85.4997 69.9482 85.2409 69.7313 85.1661 69.363C85.1418 69.2433 85.1341 69.1183 85.1339 68.9957C85.1319 67.6233 85.1331 66.2506 85.1331 64.8783Z" fill="#B01F25"/>
<path d="M84.7138 65.9623C84.7138 66.9841 84.7138 68.006 84.7136 69.028C84.7136 69.117 84.7152 69.2069 84.706 69.2953C84.6712 69.626 84.4803 69.853 84.1616 69.9443C83.9462 70.0059 83.7272 70.0068 83.5106 69.9546C83.15 69.8679 82.9463 69.6293 82.9121 69.2615C82.9044 69.1797 82.9059 69.097 82.9057 69.0148C82.9055 66.978 82.9048 64.9411 82.9069 62.9043C82.9069 62.7749 82.9147 62.6432 82.9395 62.5167C82.9963 62.2257 83.1853 62.0485 83.4632 61.9667C83.6773 61.9039 83.8953 61.9002 84.114 61.9535C84.4669 62.0399 84.6804 62.2869 84.7089 62.6502C84.7152 62.732 84.7138 62.8146 84.7138 62.8968C84.714 63.9187 84.7138 64.9403 84.7138 65.9623Z" fill="#B01F25"/>
<path d="M82.896 60.6414C82.9011 60.5653 82.9011 60.4895 82.9123 60.4153C82.9632 60.0772 83.1498 59.8676 83.4816 59.7961C83.7177 59.7452 83.9572 59.7448 84.1923 59.8143C84.4583 59.8928 84.6271 60.0691 84.6907 60.3366C84.7404 60.5451 84.7398 60.7576 84.6819 60.9661C84.6042 61.2459 84.4237 61.4268 84.1451 61.508C83.9234 61.5727 83.6979 61.5748 83.4756 61.5204C83.155 61.4419 82.9572 61.208 82.9104 60.866C82.9003 60.7916 82.9005 60.7157 82.896 60.6414Z" fill="#B01F25"/>
</g>
<rect x="1" y="1" width="110" height="110" rx="9" stroke="#CCCCCC" stroke-width="2"/>
<defs>
<clipPath id="clip0_428_517">
<rect x="2" y="2" width="108" height="108" rx="8" fill="white"/>
</clipPath>
</defs>
</svg>
