<svg width="112" height="112" viewBox="0 0 112 112" fill="none" xmlns="http://www.w3.org/2000/svg">
<g clip-path="url(#clip0_428_523)">
<rect x="2" y="2" width="108" height="108" rx="8" fill="white"/>
<path d="M76 16H36C24.9543 16 16 24.9543 16 36V76C16 87.0457 24.9543 96 36 96H76C87.0457 96 96 87.0457 96 76V36C96 24.9543 87.0457 16 76 16Z" fill="#00A4DE"/>
<path fill-rule="evenodd" clip-rule="evenodd" d="M59.545 32C53.5076 32 44.9317 34.5099 39.8665 40.5928C31.8519 43.9525 26 51.4634 26 59.6655C26 72.3956 37.2941 80 50.9071 80C53.1476 80 55.2783 79.5221 57.2718 79.0398C58.74 79.2612 60.2612 79.3785 61.8313 79.3785C74.6785 79.3785 86 69.379 86 56.322C86 42.8374 74.8347 32 59.545 32ZM50.3334 41.7543C56.7923 41.7543 61.8025 47.8553 61.8025 53.3035C61.8025 60.6677 57.1157 65.6078 50.5699 65.6078C44.6958 65.6078 39.4614 60.3817 39.4614 52.9567C39.4614 46.8337 44.2031 41.7543 50.3334 41.7543ZM49.4689 77.7077C40.5774 77.7077 31.1769 69.4524 31.1769 59.1631C31.1769 54.1433 32.8209 49.1228 36.9765 45.7481C36.2303 47.2269 35.735 49.0037 35.5345 51.1247C35.4325 51.8949 35.3757 52.6939 35.3757 53.5186C35.3757 64.6326 41.7202 73.8438 51.6434 77.5835C50.9253 77.6644 50.1994 77.7077 49.4689 77.7077ZM56.1336 76.545C48.6816 75.1407 42.5709 69.722 39.9312 63.3093C42.5448 65.7577 46.2633 67.4373 51.0031 67.4373C58.5839 67.4373 65.7922 61.8656 65.7922 53.5945C65.7922 49.5349 64.2966 46.877 64.2966 46.877C67.4551 49.9557 69.4532 54.2794 69.4532 59.5526C69.4532 66.965 63.6745 73.8751 56.1336 76.545ZM63.5047 76.5857C69.5787 73.1025 73.3547 67.1482 73.3547 60.6702C73.3547 46.2423 58.6969 41.0719 58.6969 41.0719C56.0029 39.5492 52.6843 38.7364 48.9965 38.7364C48.7162 38.7364 48.2366 38.7433 47.9589 38.7527C51.6964 36.0477 56.559 34.3826 61.4785 34.3826C72.9463 34.3826 81.6209 44.8293 81.6209 54.6111C81.6209 65.9835 73.2358 74.8046 63.5047 76.5857Z" fill="white"/>
</g>
<rect x="1" y="1" width="110" height="110" rx="9" stroke="#CCCCCC" stroke-width="2"/>
<defs>
<clipPath id="clip0_428_523">
<rect x="2" y="2" width="108" height="108" rx="8" fill="white"/>
</clipPath>
</defs>
</svg>
