<svg width="112" height="112" viewBox="0 0 112 112" fill="none" xmlns="http://www.w3.org/2000/svg">
<g clip-path="url(#clip0_428_522)">
<rect x="2" y="2" width="108" height="108" rx="8" fill="white"/>
<path d="M88.2475 55.5417C87.9707 55.3758 87.2651 55.099 86.7812 56.6065C86.2974 58.114 85.3012 60.7972 84.6928 61.9179C84.0843 63.0387 83.2687 63.5637 82.9223 62.4852C82.5768 61.4066 82.2863 58.114 82.1617 55.4995C82.0371 52.885 82.3486 50.5198 79.8377 49.981C77.3268 49.4413 75.8542 50.8937 75.2732 51.9109C74.6922 52.9272 71.9953 58.0315 71.9953 58.0315C71.9953 58.0315 71.8706 55.7698 72.1611 53.0317C72.4516 50.2926 72.5762 49.027 72.1199 48.3636C71.6635 47.6992 69.2983 46.5171 68.5725 47.7203C67.8468 48.9235 66.6426 52.513 65.8756 54.4841C65.1077 56.4553 63.2822 61.5174 62.1202 61.5174C60.9582 61.5174 61.3935 55.5417 61.892 54.1313C62.3896 52.7201 62.846 51.7038 62.846 50.397C62.846 49.0903 62.2439 48.1565 60.6054 47.8449C58.966 47.5333 58.0954 48.841 57.5346 50.7077C56.9747 52.5753 56.5596 54.837 56.4973 57.0775C56.4973 57.0775 55.1071 59.5674 51.8704 59.3181C51.8704 59.3181 52.6173 56.8906 53.0535 55.3969C53.4887 53.9032 54.2356 50.5831 52.4935 49.5256C50.7506 48.4671 48.302 48.5505 47.0786 50.2312C45.8543 51.9118 45.5436 54.1524 45.7095 55.7708C45.8754 57.3891 46.8504 59.3813 47.743 60.2941C47.743 60.2941 46.4774 63.4684 45.9588 64.8174C45.4401 66.1663 45.1083 66.7473 44.5686 66.7473C44.0288 66.7473 43.5312 66.0004 42.9915 64.2364C42.4517 62.4732 41.8707 60.4599 41.6224 57.8042C41.3731 55.1485 41.2907 51.9742 40.585 50.7911C39.8794 49.608 39.0226 49.4843 38.3445 49.4843C37.6663 49.4843 36.3321 50.2101 35.9582 51.6837C35.5843 53.1572 34.7485 56.8292 33.7799 59.111C32.8113 61.3937 31.7877 62.5695 31.4697 60.7156C31.1517 58.8617 31.6007 55.4179 31.8088 54.1937C32.0159 52.9694 33.2402 51.1989 33.2264 50.6179C33.2127 50.0369 32.5767 48.2802 30.875 48.2939C29.1732 48.3077 28.759 49.5943 28.3576 50.7425C27.9563 51.8908 27.0985 54.6711 26.414 57.6796C25.7294 60.6881 25.1759 63.2329 23.8343 63.2329C23.0041 63.2329 22.271 62.1818 21.8558 60.01C21.4407 57.8381 21.0403 53.2873 21.0403 46.4547C21.0403 46.4547 22.6449 44.3177 23.8343 40.2929C25.0211 36.2663 24.8552 32.6356 22.5725 33.0296C20.2907 33.4237 18.5477 36.9096 17.5937 40.8932C16.6388 44.8767 15.366 57.0491 16.3621 61.752C16.8707 64.1521 18.3607 67.0983 21.5993 67.3677C24.9258 67.6444 26.4369 65.0694 27.1984 62.8444C27.1984 62.8444 29.4875 67.2568 31.4514 67.2568C33.4152 67.2568 34.7916 63.6948 35.5385 58.9442C35.5385 58.9442 36.7765 66.4275 37.911 68.6131C39.0455 70.7986 40.4558 72.5132 43.5541 72.5132C46.6525 72.5132 47.9528 70.3001 48.6447 68.2254C49.3366 66.1507 50.9128 61.9454 50.9128 61.9454C50.9128 61.9454 53.4438 62.3468 56.6393 60.0228C56.6393 60.0228 56.7428 64.2556 58.4858 65.7283C60.2288 67.2009 61.7436 67.0075 62.8084 65.8181C63.8733 64.6286 65.4366 61.3919 65.7885 60.4993C65.7885 60.4993 65.6025 63.5216 65.8783 64.5589C66.1551 65.5963 67.8568 67.1734 69.8756 67.1734C71.8945 67.1734 72.4489 65.7347 73.0015 64.4206C73.555 63.1065 76.4938 57.6567 76.4938 57.6567C76.4938 57.6567 76.9089 62.1177 77.4487 64.2125C77.9884 66.3083 79.5234 68.8394 81.972 68.8394C84.4206 68.8394 86.6199 62.8636 87.7196 59.6269C88.8193 56.3902 88.5224 55.7057 88.2456 55.5398L88.2475 55.5417ZM21.8054 38.9431C22.2407 36.5568 23.7555 35.5195 23.5072 37.6986C23.2579 39.8769 22.2416 42.3044 21.4114 43.9649C21.4114 43.9649 21.3702 41.3294 21.8054 38.9431ZM48.7574 56.9941C48.0655 55.9568 47.9831 54.7261 48.4394 54.0892C48.8958 53.4532 49.6014 53.6741 49.6976 54.4631C49.7939 55.2512 48.7574 56.9941 48.7574 56.9941Z" fill="#69B1E2"/>
<path d="M30.7476 38.8808C30.5322 39.4022 31.0793 40.6448 32.4493 41.64C33.8184 42.6361 35.2086 42.0341 35.8308 41.3908C36.453 40.7475 37.2833 39.2748 35.8308 38.2998C34.3783 37.3247 32.9469 38.3099 32.4282 38.6627C31.9096 39.0155 31.0692 38.1028 30.7476 38.8808Z" fill="#69B1E2"/>
<path d="M60.6247 38.8808C60.4093 39.4022 60.9564 40.6448 62.3264 41.64C63.6955 42.6361 65.0857 42.0341 65.7079 41.3908C66.3301 40.7475 67.1604 39.2748 65.7079 38.2998C64.2554 37.3247 62.824 38.3099 62.3053 38.6627C61.7867 39.0155 60.9463 38.1028 60.6247 38.8808Z" fill="#69B1E2"/>
<path d="M91.7737 46.3429C91.8168 46.9221 91.0204 47.3253 91.1863 47.7817C91.3522 48.238 91.8507 49.3166 93.3444 48.2591C94.8381 47.2007 96.0001 45.7491 96.0001 43.5699C96.0001 41.3908 94.5449 40.5825 93.5808 40.5825C92.6168 40.5825 91.2688 42.1596 91.2688 44.0886C91.2688 45.52 91.7389 45.8802 91.7737 46.3429Z" fill="#FDB515"/>
<path d="M52.6941 77.3646C52.7097 77.0997 52.7262 76.7066 52.7262 76.362V71.6692H53.4245V74.1077H53.4401C53.6884 73.6743 54.1384 73.3938 54.7634 73.3938C55.7256 73.3938 56.4083 74.1957 56.4 75.3751C56.4 76.7625 55.5258 77.4525 54.6589 77.4525C54.0971 77.4525 53.6481 77.2363 53.3594 76.7222H53.3356L53.3036 77.3636L52.6941 77.3646ZM53.4245 75.8085C53.4245 75.8965 53.4401 75.9854 53.4566 76.0651C53.5931 76.5545 54.0018 76.8917 54.515 76.8917C55.2527 76.8917 55.6944 76.2896 55.6944 75.3998C55.6944 74.6218 55.293 73.9556 54.5388 73.9556C54.0577 73.9556 53.6087 74.2846 53.4639 74.8216C53.4483 74.9022 53.4236 74.9984 53.4236 75.1102L53.4245 75.8085Z" fill="#69B1E2"/>
<path d="M57.4915 73.4818L58.3419 75.7765C58.4298 76.0331 58.5261 76.3382 58.5902 76.571H58.6058C58.6782 76.3382 58.7579 76.0413 58.8541 75.7609L59.6239 73.4827H60.3698L59.3114 76.2502C58.8056 77.5818 58.461 78.2635 57.9799 78.6805C57.6353 78.9857 57.2898 79.1057 57.1139 79.1378L56.937 78.544C57.1139 78.4881 57.3457 78.3753 57.5547 78.1994C57.7471 78.0473 57.9881 77.7742 58.1485 77.4131C58.1806 77.3407 58.2044 77.2848 58.2044 77.2445C58.2044 77.2042 58.1888 77.1483 58.1558 77.0603L56.7199 73.4827H57.4896L57.4915 73.4818Z" fill="#69B1E2"/>
<path d="M62.6572 74.6209C62.6572 74.1719 62.6489 73.7943 62.6251 73.458H63.4755L63.5158 74.0353H63.5396C63.7321 73.7302 64.0849 73.3691 64.7429 73.3691C65.256 73.3691 65.6574 73.6578 65.826 74.0912H65.8425C65.9791 73.875 66.1394 73.7146 66.3236 73.6019C66.5399 73.4497 66.7892 73.3691 67.1099 73.3691C67.7596 73.3691 68.4176 73.8099 68.4176 75.0617V77.3636H67.4554V75.2056C67.4554 74.5558 67.2309 74.1709 66.7571 74.1709C66.4199 74.1709 66.1715 74.412 66.067 74.6924C66.0432 74.7886 66.0185 74.9086 66.0185 75.0214V77.3636H65.0563V75.1011C65.0563 74.5558 64.84 74.1709 64.3827 74.1709C64.0134 74.1709 63.7651 74.4596 63.6771 74.7327C63.6368 74.8289 63.6212 74.9416 63.6212 75.0534V77.3636H62.659V74.62L62.6572 74.6209Z" fill="#262262"/>
<path d="M71.658 77.3646L71.5938 76.9311H71.57C71.329 77.2363 70.9203 77.4525 70.4144 77.4525C69.6282 77.4525 69.1874 76.8835 69.1874 76.2896C69.1874 75.3027 70.0616 74.806 71.5059 74.8133V74.7492C71.5059 74.4926 71.4014 74.0674 70.7113 74.0674C70.3265 74.0674 69.9251 74.1875 69.6602 74.3561L69.4678 73.7146C69.7565 73.5377 70.2623 73.37 70.88 73.37C72.1318 73.37 72.4919 74.1645 72.4919 75.0149V76.4271C72.4919 76.7799 72.5084 77.1254 72.5478 77.3655H71.6571L71.658 77.3646ZM71.5297 75.4557C70.8314 75.4392 70.1661 75.5923 70.1661 76.1861C70.1661 76.571 70.4144 76.7478 70.7278 76.7478C71.121 76.7478 71.4096 76.4913 71.4976 76.2099C71.5214 76.1375 71.5297 76.0578 71.5297 75.9937V75.4557Z" fill="#262262"/>
<path d="M73.5348 74.6209C73.5348 74.1719 73.5265 73.7943 73.5027 73.458H74.3687L74.4172 74.0436H74.4411C74.6097 73.7384 75.0349 73.37 75.6846 73.37C76.3664 73.37 77.072 73.8108 77.072 75.047V77.3655H76.0851V75.1597C76.0851 74.598 75.8761 74.1728 75.3391 74.1728C74.946 74.1728 74.6729 74.4532 74.5694 74.7501C74.5373 74.8381 74.529 74.959 74.529 75.0709V77.3655H73.5338V74.6218L73.5348 74.6209Z" fill="#262262"/>
<path d="M81.7254 71.6692V76.2658C81.7254 76.6672 81.741 77.0997 81.7575 77.3646H80.875L80.8347 76.7469H80.8191C80.5864 77.1804 80.1135 77.4525 79.5435 77.4525C78.6125 77.4525 77.8748 76.658 77.8748 75.4548C77.8665 74.1471 78.6849 73.3691 79.6233 73.3691C80.1612 73.3691 80.5461 73.5936 80.722 73.8823H80.7376V71.6683H81.7245L81.7254 71.6692ZM80.7385 75.0864C80.7385 75.0058 80.7302 74.9096 80.7147 74.8298C80.6267 74.445 80.3133 74.1315 79.8643 74.1315C79.2301 74.1315 78.8773 74.6933 78.8773 75.4227C78.8773 76.1522 79.2301 76.658 79.856 76.658C80.2574 76.658 80.6102 76.385 80.7064 75.9598C80.7302 75.8718 80.7385 75.7756 80.7385 75.6711V75.0864Z" fill="#262262"/>
<path d="M83.8341 72.3675C83.8341 72.6644 83.6178 72.8972 83.2723 72.8972C82.9268 72.8972 82.7271 72.6644 82.7271 72.3675C82.7271 72.0706 82.9516 71.8296 83.2806 71.8296C83.6096 71.8296 83.8258 72.0623 83.8341 72.3675ZM82.783 77.3655V73.4589H83.7782V77.3655H82.783Z" fill="#262262"/>
<path d="M84.8376 74.7172C84.8376 74.1875 84.8294 73.8109 84.8056 73.4581H85.6642L85.6963 74.204H85.7284C85.9208 73.6505 86.3781 73.3701 86.7951 73.3701C86.8913 73.3701 86.9472 73.3783 87.0278 73.3939V74.3241C86.9481 74.3085 86.8592 74.292 86.7392 74.292C86.2654 74.292 85.9446 74.5971 85.8567 75.0379C85.8402 75.1259 85.8246 75.2304 85.8246 75.3431V77.3646H84.8376V74.7172Z" fill="#262262"/>
<path d="M88.7442 72.3676C88.7442 72.6645 88.5279 72.8973 88.1825 72.8973C87.837 72.8973 87.6372 72.6645 87.6372 72.3676C87.6372 72.0707 87.8617 71.8297 88.1907 71.8297C88.5197 71.8297 88.736 72.0624 88.7442 72.3676ZM87.6931 77.3656V73.459H88.6883V77.3656H87.6931Z" fill="#262262"/>
</g>
<rect x="1" y="1" width="110" height="110" rx="9" stroke="#CCCCCC" stroke-width="2"/>
<defs>
<clipPath id="clip0_428_522">
<rect x="2" y="2" width="108" height="108" rx="8" fill="white"/>
</clipPath>
</defs>
</svg>
