<svg width="112" height="112" viewBox="0 0 112 112" fill="none" xmlns="http://www.w3.org/2000/svg">
<g clip-path="url(#clip0_642_1026)">
<rect x="2" y="2" width="108" height="108" rx="8" fill="white"/>
<path d="M83.6338 16H28.3662C21.5365 16 16 21.5365 16 28.3662V83.6338C16 90.4635 21.5365 96 28.3662 96H83.6338C90.4635 96 96 90.4635 96 83.6338V28.3662C96 21.5365 90.4635 16 83.6338 16Z" fill="#FFBE00"/>
<path fill-rule="evenodd" clip-rule="evenodd" d="M89.4532 94.5349C87.7161 95.4688 85.7342 96 83.6338 96H28.3662C26.1384 96 24.0435 95.4028 22.2331 94.3609V93.7242C22.2331 90.8072 23.6101 88.1982 25.7465 86.5145V34.1088C25.7465 32.6523 27.1656 31.4605 28.4135 30.9683C29.9512 30.362 31.6314 30.5927 32.686 31.9469C34.7674 34.3377 36.802 36.7969 38.8222 39.2443H73.5186L79.5803 31.7218C80.462 30.6279 82.2429 30.523 83.4888 30.9252C85.3116 31.5136 86.2926 33.0806 86.2926 34.9647V46.262C88.2265 47.9476 89.4532 50.4261 89.4532 53.1795V94.5349Z" fill="white"/>
<path fill-rule="evenodd" clip-rule="evenodd" d="M89.4509 94.5362C88.6199 94.9827 87.7329 95.3366 86.8038 95.5847V53.1796C86.8038 50.8655 85.5812 48.8211 83.7508 47.6599V51.7473C83.7508 52.3143 83.2869 52.7784 82.7196 52.7784C82.1524 52.7784 81.6885 52.3143 81.6885 51.7473V46.8044C81.232 46.7022 80.758 46.6481 80.2721 46.6481C79.7972 46.6481 79.3338 46.7 78.887 46.7977V51.7473C78.887 52.3143 78.4231 52.7784 77.8559 52.7784C77.2887 52.7784 76.8248 52.3143 76.8248 51.7473V47.6405C74.9771 48.7979 73.7405 50.8525 73.7405 53.1796V83.224H71.0934V53.1796C71.0934 48.5779 74.5195 44.7425 78.9485 44.0966C79.9501 44.024 80.5942 44.0242 81.5957 44.0966C82.3074 44.2003 82.9932 44.387 83.6432 44.6455V34.9649C83.6432 34.3095 83.4423 33.7617 82.8106 33.4953C82.5286 33.3765 81.8922 33.2772 81.5975 33.4349L74.7829 41.8916H37.5724L37.1754 41.4105C35.0309 38.8124 32.8729 36.1945 30.661 33.6553L30.6314 33.6211L30.6043 33.5852C30.496 33.4424 30.3738 33.3515 30.1972 33.3155C29.9362 33.2619 29.6251 33.3353 29.3824 33.4311C29.1096 33.5386 28.5293 33.8853 28.3914 34.1796V85.0583C28.9351 84.8677 29.5018 84.7265 30.0859 84.6413C31.0874 84.5689 31.7316 84.5689 32.7332 84.6413C37.1621 85.2872 40.5884 89.1226 40.5884 93.7244V96H37.9411V93.7244C37.9411 90.1346 34.9993 87.1928 31.4096 87.1928C27.8198 87.1928 24.878 90.1346 24.878 93.7244V95.4951C23.9458 95.2191 23.0584 94.8362 22.2309 94.3598V93.7244C22.2309 90.8072 23.6079 88.1984 25.7442 86.5146V34.1088C25.7442 32.6525 27.1634 31.4605 28.4113 30.9685C29.9489 30.3621 31.6292 30.5929 32.6837 31.947C34.7652 34.3377 36.7997 36.7971 38.82 39.2445H73.5163L79.5782 31.7219C80.4596 30.6279 82.2406 30.5231 83.4865 30.9252C85.3092 31.5138 86.2903 33.0807 86.2903 34.9649V46.2621C88.2242 47.9477 89.4509 50.4263 89.4509 53.1796V94.5362Z" fill="black"/>
<path fill-rule="evenodd" clip-rule="evenodd" d="M80.3851 54.4516C82.0291 54.4516 83.3618 55.7843 83.3618 57.4283C83.3618 59.0722 82.0291 60.4048 80.3851 60.4048C78.7412 60.4048 77.4085 59.0722 77.4085 57.4283C77.4085 55.7843 78.7412 54.4516 80.3851 54.4516ZM81.585 41.636H78.3361C78.3361 41.636 77.4412 41.597 78.2193 40.4297C78.9975 39.2624 79.1417 39.0188 79.2328 38.872C79.9623 37.6949 81.5128 37.4444 81.5614 39.7206L81.585 41.636ZM30.197 41.636H33.4459C33.4459 41.636 34.3409 41.597 33.5627 40.4297C32.7846 39.2624 32.6404 39.0188 32.5493 38.872C31.8197 37.6949 30.2693 37.4444 30.2207 39.7206L30.197 41.636Z" fill="#FFBE00"/>
<path fill-rule="evenodd" clip-rule="evenodd" d="M31.2099 64.4696L38.4862 61.3957C38.7549 61.2822 39.0665 61.4088 39.18 61.6774C39.2934 61.946 39.167 62.2576 38.8982 62.371L31.6221 65.4451C31.3534 65.5585 31.0417 65.4319 30.9283 65.1634C30.8148 64.8948 30.9413 64.5831 31.2099 64.4696ZM29.8276 59.8023L38.4657 58.635C38.7546 58.5959 39.0222 58.7998 39.0613 59.0888C39.1004 59.3777 38.8965 59.6452 38.6075 59.6843L29.9693 60.8516C29.6804 60.8906 29.4129 60.6867 29.3738 60.3978C29.3347 60.109 29.5386 59.8414 29.8276 59.8023ZM30.43 55.0899L37.6673 55.4401C37.9585 55.4542 38.1846 55.7033 38.1705 55.9946C38.1564 56.2858 37.9074 56.5119 37.6161 56.4977L30.3787 56.1476C30.0875 56.1334 29.8614 55.8844 29.8756 55.5932C29.8896 55.3018 30.1386 55.0757 30.43 55.0899ZM49.341 58.8507C49.2741 59.6585 49.5738 60.7197 49.9849 61.4012C51.2561 63.5087 53.3218 63.646 55.4627 63.6545V59.0441C54.9971 58.8675 54.4789 58.553 54.1716 58.3702C53.675 58.0748 53.1821 57.762 52.702 57.4401C52.3789 57.2238 52.292 56.784 52.5082 56.4608C52.7244 56.1378 53.1645 56.0506 53.4875 56.267C53.9441 56.5725 55.5545 57.6288 56.0552 57.7608C56.3036 57.7491 56.4178 57.7239 56.6677 57.6036C57.3785 57.2614 58.1894 56.6228 58.8094 56.1407C59.1162 55.9019 59.5613 55.9575 59.8 56.2645C60.0386 56.5715 59.983 57.0164 59.676 57.2552C58.9653 57.8079 58.0943 58.4838 57.2798 58.8758C57.1337 58.946 57.0024 59.0006 56.8745 59.0427V63.6522C58.9053 63.6284 60.8368 63.4087 62.0475 61.4012C62.4586 60.7197 62.7583 59.6585 62.6914 58.8507C62.6593 58.4633 62.9492 58.1212 63.3366 58.0891C63.7241 58.057 64.0663 58.3469 64.0984 58.7342C64.1899 59.8397 63.821 61.1945 63.2566 62.1303C61.7374 64.649 58.7484 65.0686 56.0162 65.0686C53.284 65.0686 50.295 64.649 48.7758 62.1303C48.2114 61.1945 47.8425 59.8397 47.934 58.7342C47.9661 58.3469 48.3083 58.057 48.6957 58.0891C49.0832 58.1212 49.3731 58.4633 49.341 58.8507ZM72.2954 52.896C69.5569 53.0151 65.7948 53.3884 63.5028 54.4946C62.5885 54.9082 61.6158 55.049 61.3482 54.3341C61.0807 53.6193 61.0903 52.9141 62.1459 52.4276C63.068 52.0027 65.2895 50.7907 72.2954 50.569V52.896ZM36.9216 52.8168C36.9216 52.8168 45.1755 52.5588 49.1055 54.4558C50.0199 54.8692 50.9926 55.01 51.2602 54.2952C51.5277 53.5805 51.5181 52.8751 50.4625 52.3886C49.407 51.9023 46.6491 50.3845 36.9604 50.5013C36.9604 50.5013 35.4331 50.4625 35.4428 51.5811C35.4526 52.6998 36.1431 52.7776 36.9216 52.8168Z" fill="black"/>
<path d="M71.0933 74.0129H28.3913V78.9934H71.0933V74.0129Z" fill="#FFBE00"/>
<path d="M45.6426 95.0249C53.1211 95.0249 59.1837 88.9624 59.1837 81.4839C59.1837 74.0054 53.1211 67.9429 45.6426 67.9429C38.1641 67.9429 32.1016 74.0054 32.1016 81.4839C32.1016 88.9624 38.1641 95.0249 45.6426 95.0249Z" fill="black"/>
<path d="M45.6426 92.6123C51.7887 92.6123 56.771 87.6299 56.771 81.4839C56.771 75.3379 51.7887 70.3555 45.6426 70.3555C39.4966 70.3555 34.5143 75.3379 34.5143 81.4839C34.5143 87.6299 39.4966 92.6123 45.6426 92.6123Z" fill="#FFBE00"/>
<path fill-rule="evenodd" clip-rule="evenodd" d="M37.8908 78.248C38.0602 78.0521 38.2602 77.8886 38.4897 77.7584C38.8031 77.5807 39.1417 77.4933 39.5018 77.4933H39.7069C40.0051 77.4933 40.2913 77.5537 40.5623 77.6782C40.827 77.8 41.0584 77.9678 41.2575 78.1804C41.4604 78.3967 41.6148 78.6479 41.7236 78.9238C41.8377 79.2134 41.893 79.5161 41.893 79.8276V85.1538C41.893 85.2511 41.8139 85.3303 41.7166 85.3303H40.8964C40.7992 85.3303 40.7199 85.2511 40.7199 85.1538V79.7787C40.7199 79.6284 40.6944 79.4844 40.6389 79.3446C40.5881 79.2167 40.5147 79.097 40.4208 78.9962C40.3281 78.8968 40.2207 78.8193 40.0974 78.762C39.974 78.7047 39.8429 78.6781 39.7069 78.6781H39.1601C39.0251 78.6781 38.8943 78.705 38.7718 78.7619C38.6482 78.8196 38.5412 78.8977 38.4478 78.9969C38.3531 79.0976 38.2817 79.2176 38.2302 79.3456C38.1738 79.485 38.1494 79.6284 38.1494 79.7787V85.1538C38.1494 85.2511 38.0702 85.3303 37.973 85.3303H37.1504C37.0532 85.3303 36.974 85.2511 36.974 85.1538V77.8141C36.974 77.7169 37.0532 77.6377 37.1504 77.6377H37.4238C37.4876 77.6377 37.5422 77.6686 37.5751 77.7232L37.8908 78.248ZM44.3584 81.7315V83.1892C44.3584 83.3396 44.3828 83.4829 44.4391 83.6225C44.4908 83.7503 44.5622 83.8703 44.6569 83.971C44.7503 84.0701 44.8573 84.1485 44.981 84.206C45.1034 84.263 45.2342 84.2899 45.3691 84.2899H45.916C46.0519 84.2899 46.1832 84.2634 46.3065 84.206C46.4298 84.1487 46.5373 84.0713 46.63 83.9717C46.7238 83.8709 46.7972 83.7513 46.8479 83.6233C46.9032 83.4836 46.9289 83.3397 46.9289 83.1892V82.7024C46.9289 82.6484 46.9505 82.602 46.992 82.5673C47.0333 82.5325 47.0829 82.5192 47.136 82.5286L47.9564 82.6729C48.0415 82.6878 48.1023 82.7604 48.1023 82.8466V83.1403C48.1023 83.4518 48.0469 83.7545 47.9327 84.0443C47.8238 84.32 47.6694 84.5712 47.4666 84.7877C47.2674 85.0001 47.0362 85.1681 46.7712 85.2897C46.5005 85.4142 46.2142 85.4746 45.916 85.4746H45.3691C45.0713 85.4746 44.7848 85.4142 44.514 85.2897C44.2498 85.1684 44.0163 84.9999 43.8181 84.7873C43.6165 84.5707 43.4622 84.3194 43.3527 84.0449C43.2374 83.7554 43.1831 83.452 43.1831 83.1403V79.8276C43.1831 79.5161 43.2374 79.2127 43.3527 78.9231C43.4622 78.6485 43.6165 78.3974 43.8181 78.1808C44.0163 77.968 44.2498 77.7995 44.514 77.6782C44.7848 77.5537 45.0713 77.4933 45.3691 77.4933H45.916C46.2142 77.4933 46.5005 77.5537 46.7712 77.6782C47.0362 77.8 47.2674 77.9678 47.4666 78.1804C47.6694 78.3967 47.8238 78.6479 47.9327 78.9238C48.0469 79.2134 48.1023 79.5161 48.1023 79.8276V81.555C48.1023 81.6522 48.0231 81.7315 47.9257 81.7315H44.3584ZM54.3113 83.1403C54.3113 83.4518 54.256 83.7545 54.1418 84.0443C54.033 84.32 53.8785 84.5712 53.6756 84.7877C53.4765 85.0001 53.2452 85.1681 52.9804 85.2897C52.7095 85.4142 52.4232 85.4746 52.1252 85.4746H51.5782C51.2805 85.4746 50.9939 85.4142 50.7232 85.2897C50.459 85.1684 50.2254 84.9999 50.0272 84.7873C49.8256 84.5707 49.6713 84.3194 49.5618 84.0449C49.4465 83.7554 49.3921 83.452 49.3921 83.1403V79.8276C49.3921 79.5161 49.4465 79.2127 49.5618 78.9231C49.6713 78.6485 49.8256 78.3974 50.0272 78.1808C50.2254 77.968 50.459 77.7995 50.7232 77.6782C50.9939 77.5537 51.2805 77.4933 51.5782 77.4933H52.1252C52.4232 77.4933 52.7095 77.5539 52.9804 77.6782C53.2452 77.8 53.4765 77.9678 53.6756 78.1804C53.8785 78.3967 54.033 78.6479 54.1418 78.9238C54.256 79.2134 54.3113 79.5161 54.3113 79.8276V83.1403ZM44.3584 80.691H46.9289V79.7787C46.9289 79.6284 46.9032 79.4844 46.8479 79.3446C46.7972 79.2167 46.7238 79.097 46.63 78.9962C46.5373 78.8968 46.4298 78.8193 46.3065 78.7619C46.1832 78.7045 46.0519 78.6781 45.916 78.6781H45.3691C45.2342 78.6781 45.1034 78.705 44.981 78.7619C44.8573 78.8196 44.7503 78.8978 44.6569 78.9969C44.5622 79.0976 44.4908 79.2178 44.4391 79.3456C44.3828 79.485 44.3584 79.6285 44.3584 79.7787V80.691ZM53.138 79.7787C53.138 79.6284 53.1123 79.4844 53.057 79.3446C53.0064 79.2166 52.9328 79.097 52.8389 78.9962C52.7463 78.8968 52.639 78.8193 52.5156 78.7619C52.3921 78.7045 52.2611 78.6781 52.1252 78.6781H51.5782C51.4434 78.6781 51.3126 78.705 51.1901 78.7619C51.0663 78.8196 50.9593 78.8977 50.8659 78.9969C50.7712 79.0976 50.6998 79.2176 50.6483 79.3456C50.5919 79.485 50.5676 79.6284 50.5676 79.7787V83.1892C50.5676 83.3396 50.5919 83.4829 50.6483 83.6225C50.6998 83.7503 50.7712 83.8703 50.8659 83.971C50.9593 84.0703 51.0663 84.1485 51.1901 84.206C51.3126 84.263 51.4434 84.2899 51.5782 84.2899H52.1252C52.2611 84.2899 52.3921 84.2634 52.5156 84.206C52.639 84.1487 52.7463 84.0713 52.8389 83.9717C52.9328 83.8709 53.0064 83.7513 53.057 83.6233C53.1123 83.4836 53.138 83.3397 53.138 83.1892V79.7787Z" fill="black"/>
</g>
<rect x="1" y="1" width="110" height="110" rx="9" stroke="#CCCCCC" stroke-width="2"/>
<defs>
<clipPath id="clip0_642_1026">
<rect x="2" y="2" width="108" height="108" rx="8" fill="white"/>
</clipPath>
</defs>
</svg>
