<svg width="112" height="112" viewBox="0 0 112 112" fill="none" xmlns="http://www.w3.org/2000/svg">
<g clip-path="url(#clip0_428_521)">
<rect x="2" y="2" width="108" height="108" rx="8" fill="white"/>
<g clip-path="url(#clip1_428_521)">
<path fill-rule="evenodd" clip-rule="evenodd" d="M54.0912 48.5365C54.1808 48.4184 54.2255 47.8678 54.2255 47.7389V45.0695C54.211 44.9123 54.1535 44.7941 54.0534 44.7157C53.9534 44.6368 53.8382 44.5977 53.7092 44.5977H42.1393C41.9955 44.5977 41.8755 44.6405 41.7787 44.7261C41.6823 44.8118 41.6335 44.9266 41.6335 45.0695V45.0993C41.6335 45.2712 41.7138 45.4323 41.8494 45.5376C42.5125 46.0529 43.1287 46.6005 43.8036 47.5701C44.4539 48.5034 44.487 48.7135 44.6873 48.7135H45.8381V60.0478C45.8381 60.1936 45.9002 60.3354 46.0107 60.431C46.1148 60.521 46.2251 60.5657 46.3422 60.5657H49.4958C49.6457 60.5657 49.7671 60.5139 49.8602 60.41C49.9527 60.3058 49.9995 60.189 49.9995 60.06V48.7135H53.7092C53.8745 48.7135 54.0013 48.6545 54.0912 48.5365Z" fill="#E72635"/>
<path fill-rule="evenodd" clip-rule="evenodd" d="M59.1838 56.209C57.2324 56.209 55.6507 54.6271 55.6507 52.6759C55.6507 50.7244 57.2324 49.1428 59.1838 49.1428C61.1355 49.1428 62.7169 50.7244 62.7169 52.6759C62.7169 54.6271 61.1355 56.209 59.1838 56.209ZM67.1141 50.5035C66.9171 49.8047 66.6408 49.1487 66.2858 48.5358C65.9303 47.9231 65.5017 47.3659 65.0001 46.8637C64.4975 46.3618 63.9415 45.9337 63.3323 45.579C62.7222 45.224 62.066 44.9477 61.3625 44.7509C60.6597 44.5539 59.9319 44.4551 59.1785 44.4551C58.418 44.4551 57.6883 44.5539 56.9886 44.7509C56.4854 44.8928 56.0068 45.0776 55.5501 45.3012C55.459 45.3638 55.3383 45.4647 55.2277 45.6092C55.0958 45.7814 55.028 45.9949 55.028 46.2117V48.3324C55.028 48.8871 54.5784 49.3367 54.0239 49.3367H52.3522C51.9224 49.3367 51.5413 49.6101 51.4008 50.0156C51.3451 50.1754 51.2942 50.3386 51.2481 50.5035C51.0545 51.2028 50.9578 51.9323 50.9578 52.6922C50.9578 53.4517 51.0545 54.1814 51.2481 54.8803C51.442 55.5791 51.7181 56.2314 52.0768 56.8376C52.4355 57.4434 52.8643 57.9948 53.3628 58.4932C53.8612 58.9916 54.4153 59.4199 55.0253 59.7782C55.6348 60.1367 56.2898 60.413 56.9886 60.6057C57.6883 60.7999 58.418 60.8966 59.1785 60.8966C59.9319 60.8966 60.6597 60.7999 61.3625 60.6057C62.066 60.413 62.7222 60.1367 63.3323 59.7782C63.9415 59.4199 64.4975 58.9916 65.0001 58.4932C65.5017 57.9948 65.9303 57.4434 66.2858 56.8376C66.6408 56.2314 66.9171 55.5791 67.1141 54.8803C67.3115 54.1814 67.4103 53.4517 67.4103 52.6922C67.4103 51.9323 67.3115 51.2028 67.1141 50.5035Z" fill="#E72635"/>
<path fill-rule="evenodd" clip-rule="evenodd" d="M24.6111 56.1147C22.6597 56.1147 21.078 54.5328 21.078 52.5816C21.078 50.6302 22.6597 49.0485 24.6111 49.0485C26.5623 49.0485 28.1442 50.6302 28.1442 52.5816C28.1442 54.5328 26.5623 56.1147 24.6111 56.1147ZM43.5931 55.3993L40.1825 54.2578C39.9204 54.17 39.6262 54.2647 39.4767 54.4977C38.8079 55.542 37.6016 56.2088 36.2457 56.1006C35.3564 56.0298 34.5489 55.6131 33.9654 54.9824C33.542 54.5253 33.2358 53.9561 33.1053 53.3217C33.0557 53.0806 33.0338 52.8438 33.0338 52.612H33.0326C33.0326 50.3674 32.1365 48.3329 30.6836 46.8433C30.6608 46.8194 30.6381 46.7947 30.6149 46.7704C29.1187 45.2729 27.0505 44.3459 24.7667 44.3459C21.3871 44.3459 18.4831 46.3751 17.2015 49.2802C16.7521 50.2998 16.5 51.4262 16.5 52.6122C16.5 56.4567 19.1246 59.6874 22.6793 60.6123C22.7314 60.6258 22.7849 60.6356 22.8377 60.6478V60.6482C23.4566 60.7964 24.1017 60.8785 24.7663 60.8785C26.8339 60.8785 28.7233 60.1172 30.1729 58.8624C30.1729 58.8624 30.5926 58.4751 30.653 58.4167C32.1518 59.9345 34.2304 60.8788 36.532 60.8788C37.453 60.8788 38.3366 60.7233 39.1637 60.4449C41.2603 59.7403 42.9827 58.2219 43.9492 56.2607C44.115 55.924 43.9492 55.5181 43.5931 55.3993Z" fill="#E72635"/>
<path fill-rule="evenodd" clip-rule="evenodd" d="M36.5321 49.113C37.6136 49.113 38.5785 49.6046 39.2202 50.3757C39.3945 50.5852 39.6908 50.6479 39.9425 50.5422L43.2461 49.1518C43.6085 48.9992 43.7453 48.5582 43.5362 48.225C42.0748 45.8961 39.4852 44.3467 36.5321 44.3467C34.4441 44.3467 32.5382 45.1223 31.0835 46.3998C32.2826 47.6187 33.1321 49.1818 33.4692 50.9258C34.0652 49.8457 35.2115 49.113 36.5321 49.113Z" fill="#E72635"/>
<path fill-rule="evenodd" clip-rule="evenodd" d="M75.1749 53.53H74.4097C72.4967 53.53 71.0857 54.8691 71.0857 56.6625C71.0857 58.8386 72.7476 59.795 73.9791 59.795H75.1749V60.8472H73.9791C71.6478 60.8472 69.9141 59.0538 69.9141 56.6625C69.9141 54.63 71.576 52.4778 74.2901 52.4778H75.1749V53.53Z" fill="#790008"/>
<mask id="mask0_428_521" style="mask-type:luminance" maskUnits="userSpaceOnUse" x="16" y="44" width="81" height="24">
<path d="M16.5 67.663H96.4709V44.3462H16.5V67.663Z" fill="#790008"/>
</mask>
<g mask="url(#mask0_428_521)">
<path fill-rule="evenodd" clip-rule="evenodd" d="M76.2756 60.8472H77.3278V52.4778H76.2756V60.8472Z" fill="#790008"/>
</g>
<path fill-rule="evenodd" clip-rule="evenodd" d="M79.2647 60.8474H80.3167V55.1083H79.2647V60.8474ZM79.7907 53.1953C80.1973 53.1953 80.4244 53.5062 80.4244 53.829C80.4244 54.1518 80.1973 54.4627 79.7907 54.4627C79.3843 54.4627 79.157 54.1518 79.157 53.829C79.157 53.5062 79.3843 53.1953 79.7907 53.1953Z" fill="#790008"/>
<path fill-rule="evenodd" clip-rule="evenodd" d="M85.8528 56.1127H85.0397C84.0474 56.1127 83.067 56.7584 83.067 57.9779C83.067 59.1974 84.0474 59.8431 85.0397 59.8431H85.8528V60.8474H84.8486C83.5094 60.8474 81.967 59.8192 81.967 57.9779C81.967 56.1366 83.5094 55.1084 84.8486 55.1084H85.8528V56.1127Z" fill="#790008"/>
<path fill-rule="evenodd" clip-rule="evenodd" d="M86.7261 60.8472V52.4778H87.7781V57.2364H88.2206C88.6629 57.2364 88.9499 57.069 89.1054 56.806L90.0977 55.1082H91.2933L90.54 56.3995C90.3129 56.794 89.9662 57.3679 89.6433 57.4516V57.4755C90.4922 57.6429 90.9585 58.1451 90.9585 59.1614V60.8472H89.9063V59.2809C89.9063 58.5636 89.5237 58.2407 88.9737 58.2407H87.7781V60.8472H86.7261Z" fill="#790008"/>
<path fill-rule="evenodd" clip-rule="evenodd" d="M91.748 59.8431H94.6892C95.1795 59.8431 95.3707 59.6518 95.3707 59.2931C95.3707 58.2409 91.748 58.6474 91.748 56.6627C91.748 55.6464 92.4534 55.1084 93.7088 55.1084H96.1837V56.1127H93.5295C93.0154 56.1127 92.86 56.2562 92.848 56.6149C92.8359 57.6073 96.4708 57.1888 96.4708 59.2453C96.4708 60.3333 95.7055 60.8474 94.6892 60.8474H91.748V59.8431Z" fill="#790008"/>
<path d="M34.6051 63.581C34.7558 63.581 34.873 63.56 34.9568 63.5182C35.0884 63.4524 35.1542 63.3339 35.1542 63.1629C35.1542 62.9906 35.0842 62.8746 34.9442 62.8148C34.8653 62.7813 34.748 62.7645 34.5925 62.7645H33.9556V63.581H34.6051ZM34.7253 64.7975C34.9442 64.7975 35.1003 64.7341 35.1936 64.6073C35.2523 64.5272 35.2816 64.4303 35.2816 64.3166C35.2816 64.1252 35.196 63.9948 35.025 63.9255C34.9341 63.8884 34.8138 63.8698 34.6643 63.8698H33.9556V64.7975H34.7253ZM33.6057 62.4667H34.7379C35.0465 62.4667 35.266 62.5588 35.3964 62.743C35.473 62.8519 35.5112 62.9775 35.5112 63.1198C35.5112 63.2861 35.464 63.4225 35.3695 63.5289C35.3204 63.5851 35.2499 63.6366 35.1577 63.6832C35.2929 63.7347 35.394 63.7927 35.461 63.8573C35.5794 63.9721 35.6386 64.1306 35.6386 64.3328C35.6386 64.5026 35.5854 64.6564 35.4789 64.7939C35.3198 64.9997 35.0668 65.1025 34.7199 65.1025H33.6057V62.4667ZM35.8611 62.4667H36.2774L37.0346 63.7335L37.7918 62.4667H38.2099L37.214 64.0403V65.1025H36.857V64.0403L35.8611 62.4667Z" fill="#790008"/>
<path fill-rule="evenodd" clip-rule="evenodd" d="M39.3457 66.9102H43.652V62.6052H39.3457V66.9102Z" fill="#790008"/>
<path fill-rule="evenodd" clip-rule="evenodd" d="M42.2171 63.4177H39.928L40.9396 64.7574H43.2288L42.2171 63.4177Z" fill="white"/>
<path fill-rule="evenodd" clip-rule="evenodd" d="M43.2288 64.7573H40.9396L39.928 66.0968H42.2171L43.2288 64.7573Z" fill="#ED1C24"/>
<path fill-rule="evenodd" clip-rule="evenodd" d="M46.8501 65.5038C46.6869 65.6348 46.4901 65.7021 46.2813 65.7021C45.7743 65.7021 45.3808 65.3001 45.3808 64.7845C45.3808 64.2694 45.7743 63.8665 46.2813 63.8665C46.4901 63.8665 46.6869 63.9352 46.8501 64.0645L46.858 64.0713L47.2484 63.6809L47.2388 63.6732C46.9732 63.4421 46.6325 63.3147 46.2813 63.3147C45.462 63.3147 44.7954 63.9746 44.7954 64.7845C44.7954 65.5943 45.462 66.2538 46.2813 66.2538C46.6325 66.2538 46.9732 66.1263 47.2388 65.8954L47.2484 65.8873L46.858 65.497L46.8501 65.5038ZM47.7788 66.1714H48.3403V63.397H47.7788V66.1714ZM50.5523 65.1698C50.5329 65.133 49.5737 63.3911 49.5737 63.3911H49.0267V66.1665H49.5863V64.5082C49.6274 64.5814 50.5523 66.1879 50.5523 66.1879C50.5523 66.1879 51.4752 64.582 51.5173 64.5093V66.1665H52.0765V63.3911H51.5292C51.5292 63.3911 50.5729 65.133 50.5523 65.1698ZM53.8426 65.6697H53.2942V65.0153H53.8426C54.0982 65.0153 54.1891 65.1841 54.1891 65.3408C54.1891 65.4999 54.0982 65.6697 53.8426 65.6697ZM53.2942 63.9002H53.8076C54.0225 63.9002 54.1513 64.0143 54.1513 64.2054C54.1513 64.396 54.0225 64.5103 53.8076 64.5103H53.2942V63.9002ZM54.3871 64.7488C54.5091 64.6813 54.7116 64.4922 54.7116 64.1814C54.7116 63.6976 54.3818 63.397 53.8503 63.397H52.7331V66.1714H53.8958C54.4236 66.1714 54.7504 65.8644 54.7504 65.3679C54.7504 64.9953 54.5305 64.8223 54.3871 64.7488Z" fill="#790008"/>
<path fill-rule="evenodd" clip-rule="evenodd" d="M60.6476 63.4114H61.0498L62.0152 66.1621H61.6809L61.418 65.4212H60.2613L60.0099 66.1796H59.6335L60.6476 63.4114ZM60.3767 65.0981H61.3032L60.8475 63.7577H60.84L60.3767 65.0981Z" fill="#790008"/>
<path fill-rule="evenodd" clip-rule="evenodd" d="M66.2418 63.4114H66.6456L67.609 66.1621H67.2739L67.0125 65.4212H65.8557L65.604 66.1796H65.2288L66.2418 63.4114ZM65.9708 65.0981H66.8976L66.4407 63.7577H66.4341L65.9708 65.0981Z" fill="#790008"/>
<path fill-rule="evenodd" clip-rule="evenodd" d="M64.6952 63.7697C64.6952 63.7697 63.6524 62.9421 62.7174 63.824C62.7174 63.824 62.2974 64.1893 62.3205 64.9566C62.3205 64.9566 62.3692 66.2163 63.7602 66.2339C63.7602 66.2339 64.3538 66.1979 64.7504 65.9644V64.6514H63.8329V64.9023H64.4806V65.7662C64.4806 65.7662 63.5266 66.2163 62.9866 65.676C62.9866 65.676 62.5558 65.4424 62.6445 64.6337C62.6445 64.6337 62.8252 63.6498 63.8209 63.7098C63.8209 63.7098 64.3605 63.7756 64.5049 64.0092L64.6952 63.7697Z" fill="#790008"/>
<path fill-rule="evenodd" clip-rule="evenodd" d="M58.8857 66.1622H59.1737V63.3918H58.8857V66.1622Z" fill="#790008"/>
<path fill-rule="evenodd" clip-rule="evenodd" d="M57.8608 63.3918V65.6581L56.2051 63.3918H55.9175V66.1622H56.2051V63.8871L57.8608 66.1622H58.1487V63.3918H57.8608Z" fill="#790008"/>
</g>
</g>
<rect x="1" y="1" width="110" height="110" rx="9" stroke="#CCCCCC" stroke-width="2"/>
<defs>
<clipPath id="clip0_428_521">
<rect x="2" y="2" width="108" height="108" rx="8" fill="white"/>
</clipPath>
<clipPath id="clip1_428_521">
<rect width="80" height="23.3807" fill="white" transform="translate(16.5 44.3096)"/>
</clipPath>
</defs>
</svg>
