<svg width="112" height="112" viewBox="0 0 112 112" fill="none" xmlns="http://www.w3.org/2000/svg">
<g clip-path="url(#clip0_428_516)">
<rect x="2" y="2" width="108" height="108" rx="8" fill="white"/>
<path d="M89.4857 67.5674C89.4003 67.6137 89.307 67.6011 89.2162 67.6011C87.9737 67.6018 86.731 67.6018 85.4884 67.6016C85.4273 67.6016 85.3651 67.6057 85.3055 67.596C85.1205 67.5659 84.9833 67.4705 84.9291 67.2841C84.8524 67.0204 84.778 66.7561 84.7082 66.4906C84.4625 65.5563 84.2199 64.6212 83.9748 63.6866C83.6653 62.5063 83.3561 61.3259 83.0443 60.1461C82.7454 59.0157 82.442 57.8863 82.1433 56.7559C81.899 55.8318 81.6584 54.9065 81.4165 53.9818C81.3522 53.7359 81.2897 53.4897 81.2243 53.2441C81.2091 53.1868 81.2104 53.1221 81.1606 53.0776C81.1021 53.0636 81.0989 53.1082 81.0891 53.1451C80.8842 53.9219 80.6795 54.6986 80.4748 55.4753C80.1249 56.8028 79.7746 58.1302 79.4254 59.4578C79.0193 61.0012 78.6144 62.5449 78.2085 64.0884C77.9422 65.1012 77.6751 66.1138 77.4084 67.1266C77.4058 67.1364 77.4019 67.146 77.399 67.1556C77.2927 67.5121 77.1798 67.6008 76.8118 67.6013C75.5284 67.6027 74.2451 67.6019 72.9617 67.6019C72.9209 67.6019 72.8801 67.6033 72.8395 67.601C72.6117 67.5877 72.4559 67.4785 72.39 67.2556C72.2948 66.9338 72.2004 66.6119 72.1081 66.2894C71.7589 65.0671 71.4118 63.8444 71.062 62.6222C70.6314 61.1166 70.199 59.6114 69.7674 58.1059C69.4143 56.8742 69.0614 55.6425 68.7086 54.4108C68.6891 54.3423 68.6807 54.269 68.6509 54.2056C68.6032 54.104 68.6339 53.9636 68.5045 53.9019C68.3991 53.9795 68.4272 54.1064 68.4006 54.2092C68.2289 54.8734 67.9828 55.5063 67.6266 56.0932C67.0869 56.9828 66.3418 57.6647 65.4578 58.2005C64.9773 58.4917 64.4662 58.7164 63.9245 58.869C63.9049 58.8745 63.8846 58.8777 63.8654 58.8845C63.7936 58.9097 63.7674 58.9628 63.8024 59.0259C63.8466 59.106 63.8964 59.183 63.9447 59.2608C64.7723 60.5916 65.5997 61.9226 66.4276 63.2533C67.1373 64.3938 67.8474 65.534 68.5571 66.6745C68.6055 66.7523 68.6559 66.8293 68.6969 66.9109C68.8605 67.2372 68.6784 67.5675 68.3187 67.5992C68.2581 67.6045 68.1967 67.6016 68.1356 67.6016C66.8013 67.6019 65.4669 67.6019 64.1327 67.6021C64.1022 67.6021 64.0715 67.6002 64.0411 67.6024C63.8119 67.6184 63.6522 67.5131 63.5392 67.3209C63.4257 67.128 63.3083 66.9372 63.194 66.7447C62.2173 65.0998 61.2411 63.4546 60.2643 61.8097C59.854 61.1187 59.4427 60.4281 59.032 59.7373C59.0009 59.6849 58.9708 59.6317 58.9402 59.5788C58.9017 59.5122 58.8479 59.4734 58.7671 59.4775C58.7164 59.4801 58.6654 59.4775 58.6143 59.4775C57.7485 59.4775 56.8829 59.4775 56.0171 59.4779C55.956 59.4779 55.8944 59.4759 55.834 59.4824C55.7908 59.4872 55.7598 59.5197 55.7573 59.5633C55.752 59.6545 55.7517 59.7461 55.7517 59.8375C55.7517 62.1894 55.7518 64.5413 55.752 66.893C55.752 66.9847 55.756 67.0767 55.7496 67.1679C55.7323 67.4141 55.5945 67.5633 55.3529 67.5961C55.2828 67.6056 55.2107 67.6018 55.1394 67.6018C54.0393 67.6021 52.9393 67.6021 51.8393 67.6018C51.7681 67.6018 51.696 67.6053 51.6257 67.5958C51.4004 67.5654 51.2586 67.4224 51.2303 67.1957C51.2204 67.1153 51.2251 67.033 51.2251 66.9517C51.2253 62.533 51.2259 58.1144 51.2254 53.6958C51.2254 53.5949 51.2442 53.4919 51.2042 53.3939C51.2022 53.389 51.1874 53.3894 51.1735 53.3862C51.1174 53.4 51.1139 53.4588 51.0968 53.5002C50.3806 55.2283 49.6669 56.9576 48.9516 58.686C47.7853 61.504 46.615 64.3205 45.4548 67.1411C45.3184 67.4727 45.1968 67.6196 44.7705 67.6047C44.3737 67.5908 43.9762 67.6019 43.579 67.6019C43.5179 67.6019 43.4568 67.6019 43.3956 67.6014C43.168 67.5995 43.0109 67.4976 42.9239 67.2829C42.8016 66.9815 42.6712 66.6832 42.5469 66.3826C41.6966 64.3243 40.8477 62.2656 39.9971 60.2077C39.0921 58.0187 38.1859 55.8304 37.2799 53.6418C37.2533 53.5778 37.223 53.5152 37.1966 53.4567C37.126 53.453 37.1253 53.4974 37.1245 53.5356C37.1222 53.6476 37.123 53.7596 37.123 53.8716C37.123 58.2189 37.123 62.5663 37.1231 66.9138C37.1231 66.9952 37.1269 67.077 37.1216 67.1581C37.1051 67.4082 36.9482 67.5715 36.6989 67.5987C36.6383 67.6053 36.5768 67.6019 36.5157 67.6019C35.4157 67.6021 34.3156 67.6022 33.2156 67.6019C33.1343 67.6019 33.0517 67.605 32.9719 67.5923C32.7807 67.5617 32.6366 67.4244 32.6059 67.2325C32.5868 67.1127 32.5871 66.9893 32.5871 66.8673C32.5862 64.0777 32.5863 61.288 32.5863 58.4984C32.5863 55.5254 32.5862 52.5525 32.5866 49.5797C32.5866 49.1752 32.6123 49.2056 32.2022 49.2056C30.5828 49.2056 28.9633 49.206 27.3438 49.2056C27.0339 49.2056 27.027 49.1833 27.0271 49.5236C27.0287 53.9219 27.0285 58.3202 27.0287 62.7185C27.0287 64.1234 27.0287 65.5285 27.0284 66.9335C27.0284 67.0149 27.0322 67.0968 27.0259 67.1778C27.0086 67.397 26.8641 67.5562 26.6463 67.5934C26.5767 67.6051 26.5042 67.6018 26.4331 67.6018C25.3229 67.6022 24.2128 67.6022 23.1025 67.6021C23.0414 67.6021 22.9799 67.6051 22.9194 67.5982C22.6803 67.5709 22.5292 67.4242 22.5024 67.185C22.49 67.0742 22.4945 66.9613 22.4945 66.8495C22.4942 61.1072 22.4942 55.365 22.4942 49.6228C22.4942 49.582 22.4936 49.5414 22.4943 49.5006C22.5 49.2002 22.4902 49.2048 22.1846 49.205C20.341 49.206 18.4974 49.2057 16.654 49.2057C16.5726 49.2057 16.4907 49.2098 16.4097 49.2033C16.1639 49.1834 16.018 49.0351 16.0033 48.7934C15.9997 48.7326 16.0019 48.6713 16.0019 48.6102C16.0019 47.6023 16.0019 46.5943 16.0019 45.5864C16.0019 45.5355 16 45.4845 16.0026 45.4337C16.0139 45.1885 16.1549 45.0347 16.3949 45.0084C16.4655 45.0008 16.5373 45.005 16.6086 45.005C23.769 45.005 30.9293 45.005 38.0898 45.005C38.1101 45.005 38.1307 45.007 38.1509 45.0047C38.4408 44.9722 38.6039 45.1187 38.7074 45.3757C38.996 46.0924 39.2918 46.8062 39.5865 47.5204C40.3388 49.3437 41.0923 51.1665 41.8448 52.9896C42.5778 54.766 43.3102 56.5425 44.0433 58.3189C44.0702 58.384 44.1013 58.4472 44.1297 58.5098C44.22 58.4839 44.2355 58.4119 44.2627 58.3462C44.5183 57.7256 44.7754 57.1056 45.0313 56.4852C45.8957 54.3894 46.7597 52.2932 47.6241 50.1973C48.2714 48.6279 48.9192 47.0587 49.567 45.4895C49.598 45.4142 49.6272 45.3379 49.6634 45.2651C49.7476 45.0959 49.8807 45.0005 50.0759 45.0049C50.137 45.0063 50.1982 45.0049 50.2593 45.0049C53.9362 45.0049 57.6132 45 61.2901 45.0079C62.4523 45.0105 63.5749 45.2301 64.639 45.7171C65.2361 45.9905 65.7791 46.3429 66.277 46.7696C66.3535 46.8352 66.4062 46.9525 66.5384 46.9345C66.5717 46.8271 66.5084 46.7369 66.4825 46.6412C66.3975 46.3272 66.3077 46.0146 66.2195 45.7016C66.2058 45.6527 66.1868 45.6045 66.1787 45.5547C66.1279 45.2443 66.3153 45.0147 66.631 45.006C66.8345 45.0005 67.0383 45.0047 67.2421 45.0047C68.393 45.0047 69.544 45.0121 70.6949 45.0006C71.0737 44.9968 71.2339 45.1014 71.3439 45.4901C71.8288 47.2023 72.3275 48.9107 72.8216 50.6203C73.2563 52.1244 73.6915 53.6282 74.1267 55.1322C74.4629 56.2945 74.7996 57.4567 75.1361 58.6189C75.1501 58.6677 75.161 58.7175 75.1785 58.7647C75.1839 58.7792 75.2062 58.7942 75.2224 58.796C75.2375 58.7978 75.2652 58.7864 75.2694 58.7743C75.3075 58.6695 75.3454 58.5644 75.3761 58.4573C76.0081 56.2478 76.6391 54.0378 77.2704 51.8282C77.7953 49.9904 78.3203 48.1528 78.8454 46.3151C78.9264 46.0317 79.008 45.7485 79.0905 45.4654C79.1103 45.3971 79.13 45.3277 79.1594 45.2632C79.2278 45.1129 79.3453 45.0237 79.5118 45.0075C79.5725 45.0017 79.6339 45.0046 79.695 45.0044C80.6626 45.0044 81.6303 45.0044 82.5978 45.0044C82.6487 45.0044 82.6997 45.0035 82.7506 45.0056C82.9471 45.0136 83.0743 45.1216 83.1404 45.2973C83.1938 45.4397 83.2311 45.5884 83.2728 45.735C83.6629 47.1039 84.0509 48.4734 84.442 49.842C84.8862 51.3961 85.3344 52.949 85.7775 54.5033C86.1733 55.892 86.5644 57.2818 86.9583 58.6709C86.9748 58.7289 86.999 58.7848 87.0193 58.8414C87.0972 59.1223 87.1736 59.4044 87.2539 59.685C87.9242 62.0276 88.5964 64.3697 89.2642 66.7129C89.3447 66.9954 89.443 67.2748 89.4857 67.5674ZM55.7508 52.2335C55.7508 53.1595 55.7514 54.0855 55.7503 55.0113C55.75 55.2906 55.7489 55.2723 56.0227 55.2723C57.4886 55.2718 58.9544 55.2723 60.4203 55.2705C60.583 55.2703 60.7461 55.2646 60.9083 55.2524C61.5281 55.2057 62.1089 55.0382 62.6204 54.6734C63.2241 54.2426 63.6287 53.6771 63.7767 52.9407C63.8313 52.6697 63.8411 52.3964 63.8389 52.1211C63.8359 51.7292 63.7595 51.3524 63.6026 50.9952C63.249 50.191 62.623 49.6873 61.8065 49.4068C61.4288 49.2771 61.0357 49.2234 60.6359 49.2234C59.0988 49.2234 57.5617 49.2234 56.0246 49.2234C55.9838 49.2234 55.9431 49.2222 55.9025 49.224C55.7836 49.2292 55.7572 49.2526 55.7518 49.3641C55.7483 49.4352 55.7508 49.5065 55.7508 49.5777C55.7508 50.4629 55.7506 51.3483 55.7508 52.2335Z" fill="black"/>
<path d="M89.4857 67.5674C89.443 67.2748 89.3447 66.9954 89.2642 66.7129C88.5964 64.3697 87.9242 62.0276 87.2539 59.685C87.1736 59.4044 87.0972 59.1223 87.0193 58.8414C87.0944 58.7659 87.1169 58.6686 87.1444 58.5696C87.3727 57.7469 87.6035 56.9249 87.8357 56.1034C88.2447 54.6555 88.6568 53.2085 89.0647 51.7603C89.4864 50.2634 89.905 48.7656 90.3247 47.2682C90.4865 46.6907 90.6472 46.113 90.8096 45.5356C90.8316 45.4574 90.8548 45.3787 90.8864 45.3042C90.9648 45.1192 91.1023 45.0127 91.3086 45.0073C91.3697 45.0058 91.4308 45.0064 91.4917 45.0064C92.795 45.0064 94.098 45.0066 95.4012 45.0069C95.4623 45.0069 95.5236 45.0041 95.5844 45.0089C95.8315 45.0281 96.0001 45.2017 96 45.4481C96 45.5379 95.9793 45.6299 95.9544 45.7171C95.5563 47.1152 95.1553 48.5124 94.7562 49.9103C94.3516 51.3275 93.9491 52.7452 93.5448 54.1625C93.1962 55.3846 92.8463 56.6064 92.497 57.8284C91.8014 60.2624 91.106 62.6963 90.4105 65.1302C90.2261 65.7754 90.042 66.4206 89.8573 67.0658C89.8348 67.144 89.8153 67.2238 89.7843 67.2986C89.7282 67.434 89.6504 67.5498 89.4857 67.5674Z" fill="#FDC400"/>
</g>
<rect x="1" y="1" width="110" height="110" rx="9" stroke="#CCCCCC" stroke-width="2"/>
<defs>
<clipPath id="clip0_428_516">
<rect x="2" y="2" width="108" height="108" rx="8" fill="white"/>
</clipPath>
</defs>
</svg>
