<svg width="112" height="112" viewBox="0 0 112 112" fill="none" xmlns="http://www.w3.org/2000/svg">
<g clip-path="url(#clip0_742_96)">
<rect x="2" y="2" width="108" height="108" rx="8" fill="white"/>
<path d="M44.181 59.1959C41.9479 59.1959 40.1365 57.3844 40.1365 55.1513C40.1365 52.9182 41.9538 51.1068 44.181 51.1068C46.4082 51.1068 48.2255 52.9182 48.2255 55.1513C48.2255 57.3844 46.4082 59.1959 44.181 59.1959ZM44.181 47.6918C40.0592 47.6918 36.7096 51.0415 36.7096 55.1573C36.7096 59.2731 40.0652 62.6228 44.181 62.6228C48.2968 62.6228 51.6524 59.2731 51.6524 55.1573C51.6524 51.0415 48.2968 47.6918 44.181 47.6918Z" fill="#FF8500"/>
<path d="M76.6385 59.196C74.4054 59.196 72.5939 57.3846 72.5939 55.1514C72.5939 52.9183 74.4113 51.1069 76.6385 51.1069C78.8656 51.1069 80.683 52.9183 80.683 55.1514C80.683 57.3846 78.8656 59.196 76.6385 59.196ZM80.683 48.8857C79.513 48.1314 78.1233 47.6919 76.6385 47.6919C72.5167 47.6919 69.1671 51.0416 69.1671 55.1574C69.1671 59.2732 72.5227 62.6229 76.6385 62.6229C80.7543 62.6229 84.1099 59.2732 84.1099 55.1574V43H80.683V48.8857Z" fill="#FF8500"/>
<path d="M89.4431 48.1253C87.5544 48.1253 86.0281 49.6517 86.0281 51.5344V62.1951H89.4431V52.8113C89.4431 52.1046 90.0192 51.5344 90.7259 51.5344H95.8514V48.1313H89.4431V48.1253Z" fill="#FF8500"/>
<path d="M33.3957 48.1196L30.5746 56.3928L27.9495 50.7625C27.6644 50.1864 27.0824 49.8241 26.4469 49.8241C25.8114 49.8241 25.2294 50.1864 24.9443 50.7625L22.0995 56.3809L19.5278 48.1136H16L20.1396 61.4173C20.3474 62.0825 20.9295 62.5517 21.6125 62.6051C22.2955 62.6586 22.9428 62.2903 23.2517 61.6727L26.4529 55.2228L29.654 61.6727C29.9391 62.2547 30.5271 62.6111 31.1566 62.6111C31.2042 62.6111 31.2457 62.6111 31.2932 62.6111C31.9762 62.5576 32.5583 62.0884 32.7661 61.4232L36.9295 48.1136H33.4016L33.3957 48.1196Z" fill="#FF8500"/>
<path d="M51.0169 63.8997H37.351V67.3206H51.0169V63.8997Z" fill="#3FD8D4"/>
<path d="M75.2427 66.7981C75.1773 66.9347 75.0942 67.0357 74.9814 67.1069C74.8745 67.1723 74.7438 67.2079 74.6013 67.2079C74.4587 67.2079 74.334 67.1723 74.2211 67.1069C74.1142 67.0416 74.0252 66.9347 73.9598 66.7981C73.8945 66.6615 73.8648 66.4893 73.8648 66.2933C73.8648 66.0973 73.8945 65.925 73.9598 65.7825C74.0252 65.6459 74.1083 65.539 74.2211 65.4737C74.3281 65.4083 74.4587 65.3727 74.6013 65.3727C74.8151 65.3727 74.9932 65.4499 75.1298 65.6043C75.2664 65.7588 75.3377 65.9904 75.3377 66.2933C75.3377 66.4952 75.308 66.6615 75.2427 66.7981ZM75.8188 65.4737C75.7119 65.248 75.5634 65.0758 75.3793 64.9629C75.1892 64.8501 74.9754 64.7907 74.7319 64.7907C74.5359 64.7907 74.3696 64.8263 74.233 64.8976C74.0905 64.9689 73.9836 65.0579 73.9004 65.1648H73.8707V63.8939H73.2234V67.7305H73.841V67.3861H73.8707C73.9717 67.5049 74.0905 67.6058 74.233 67.6771C74.3756 67.7484 74.5419 67.784 74.7319 67.784C74.9754 67.784 75.1952 67.7246 75.3793 67.6118C75.5693 67.4989 75.7178 67.3267 75.8188 67.101C75.9257 66.8753 75.9791 66.6081 75.9791 66.2873C75.9791 65.9666 75.9257 65.6994 75.8188 65.4677V65.4737Z" fill="#757575"/>
<path d="M76.8224 68.5916L77.2679 67.4928L76.181 64.844H76.8759L77.5886 66.6673H77.6123L78.3072 64.844H78.9843L77.4995 68.5916H76.8224Z" fill="#757575"/>
<path d="M82.2924 66.8989C82.3696 66.8989 82.4408 66.887 82.5002 66.8573C82.5596 66.8277 82.6012 66.7861 82.6309 66.7326C82.6606 66.6792 82.6784 66.6138 82.6784 66.5426C82.6784 66.4357 82.6487 66.3525 82.5834 66.2872C82.518 66.2219 82.423 66.1922 82.2983 66.1922H81.4728V66.8989H82.2983H82.2924ZM82.2389 65.4379C82.3161 65.4379 82.3874 65.4201 82.4468 65.3904C82.5002 65.3607 82.5477 65.3191 82.5774 65.2657C82.6071 65.2122 82.6249 65.1528 82.6249 65.0815C82.6249 64.9746 82.5952 64.8856 82.5299 64.8262C82.4646 64.7668 82.3696 64.7311 82.2508 64.7311H81.4787V65.4379H82.2508H82.2389ZM80.4869 67.7363V63.8997H82.3696C82.6309 63.8997 82.8566 63.9412 83.0407 64.0303C83.2248 64.1135 83.3614 64.2382 83.4505 64.3985C83.5396 64.5589 83.5871 64.749 83.5871 64.9687C83.5871 65.1469 83.5396 65.3132 83.4445 65.4617C83.3495 65.6101 83.2367 65.717 83.1001 65.7883C83.2604 65.8655 83.397 65.9784 83.498 66.1268C83.6049 66.2753 83.6584 66.4594 83.6584 66.6673C83.6584 66.8752 83.6108 67.0652 83.5277 67.2256C83.4386 67.3859 83.302 67.5106 83.1238 67.5997C82.9397 67.6888 82.714 67.7363 82.4468 67.7363H80.4869Z" fill="#757575"/>
<path d="M84.2226 67.7304V63.8997H85.4817L86.7348 66.2991H86.7586V63.8997H87.7385V67.7304H86.4735L85.2322 65.331H85.2025V67.7304H84.2226Z" fill="#757575"/>
<path d="M89.4431 63.8997H88.4453V67.7363H89.4431V63.8997Z" fill="#757575"/>
<path d="M60.4069 47.6742C56.4039 47.6742 53.1493 50.8813 53.1493 54.8189V62.1894H56.5642V54.8189C56.5642 52.7699 58.3282 51.101 60.4069 51.101C62.4855 51.101 64.2495 52.7699 64.2495 54.8189V62.1894H67.6645V54.8189C67.6645 50.8813 64.4098 47.6742 60.4069 47.6742Z" fill="#FF8500"/>
</g>
<rect x="1" y="1" width="110" height="110" rx="9" stroke="#CCCCCC" stroke-width="2"/>
<defs>
<clipPath id="clip0_742_96">
<rect x="2" y="2" width="108" height="108" rx="8" fill="white"/>
</clipPath>
</defs>
</svg>
