<svg width="112" height="112" viewBox="0 0 112 112" fill="none" xmlns="http://www.w3.org/2000/svg">
<g clip-path="url(#clip0_642_1148)">
<rect x="2" y="2" width="108" height="108" rx="8" fill="white"/>
<path fill-rule="evenodd" clip-rule="evenodd" d="M75.9145 64.4681L80.0641 64.4764V50.0349C80.694 50.0061 83.057 50.002 83.6004 50.0926C86.2804 50.5331 85.8934 53.6824 84.7078 54.4728C83.6375 55.1891 82.493 54.8309 81.5791 54.9668V58.9229C82.1101 58.9888 83.1682 58.9435 83.7404 58.927C85.6546 58.8776 87.2066 58.4618 88.4993 57.0951C89.8907 55.6213 90.2571 52.3856 89.582 50.0226C88.314 45.593 83.8886 46.1447 80.3317 46.1447C78.9074 46.1447 77.3389 46.0829 75.931 46.1447L75.9186 64.464L75.9145 64.4681ZM43.5736 64.4475H47.7068C47.818 64.4228 47.8056 64.3652 47.8797 64.1594C47.9209 64.0441 47.9621 63.9453 48.0032 63.8342L51.2842 55.2467C51.4448 54.8186 51.6095 54.3246 51.7947 53.9211L55.9155 64.4599H60.1105C60.0816 64.2335 59.777 63.5213 59.6741 63.2537L53.709 47.5402C53.499 46.9886 53.429 46.8404 53.0791 46.5234C52.4287 45.9265 51.276 45.8977 50.605 46.4452C50.2633 46.7251 50.1274 46.9433 49.9298 47.4538C49.0036 49.8538 48.1226 52.3074 47.2046 54.728C47.0564 55.1191 43.7013 63.9577 43.5736 64.4475ZM62.0865 64.4434H66.3267V57.8032L72.6623 57.7908L72.6705 53.9047L66.3308 53.8923V50.1049L73.9632 50.0967V46.1652C73.4074 46.12 70.9786 46.157 70.2211 46.157H66.4378C65.244 46.157 64.1284 46.1364 63.2639 46.7375C62.5187 47.2521 62.1153 48.1042 62.0947 49.3516C62.0494 51.8463 62.0947 54.3781 62.0947 56.8769V64.4475L62.0865 64.4434ZM91.8503 64.5258H95.9999V46.1447H91.8503V64.5258Z" fill="#333333"/>
<path fill-rule="evenodd" clip-rule="evenodd" d="M39.9098 56.387C40.2144 58.4865 37.4397 58.7459 37.2257 56.7863L34.2617 56.774C34.2081 57.5356 34.7145 58.573 35.0521 59.0341C35.3114 59.3963 35.4802 59.5816 35.7848 59.8368C35.9248 59.9562 36.5217 60.4873 36.7481 60.3308C36.8799 60.5573 36.884 60.5449 37.1557 60.6396C39.2882 61.3724 41.5523 60.4708 42.5651 58.4824C42.845 57.9308 43.2443 56.4282 42.9973 56.1194L42.9767 56.42C42.458 56.42 40.2268 56.4817 39.9015 56.387H39.9098Z" fill="#6CC5C4"/>
<path fill-rule="evenodd" clip-rule="evenodd" d="M34.5375 47.4538C34.628 47.5773 34.698 47.5896 34.7968 47.7625C34.8586 47.8696 34.9286 48.0136 34.9656 48.1618C35.0891 48.6805 34.8915 48.7917 34.8709 49.1252C34.8709 49.2857 35.1262 49.6933 35.2167 49.8538C35.3485 50.0885 35.472 50.3313 35.5996 50.5537C35.8589 51.0024 36.1059 51.5211 36.3735 51.9451H36.6493C36.7234 51.9327 36.6699 51.9533 36.7481 51.9122C37.1516 51.6857 37.7609 50.883 37.9873 50.4549C38.7489 49.0346 38.6459 47.322 37.7732 45.98C37.4439 45.4736 36.8634 44.8726 36.2747 44.5844C36.25 44.7779 35.9701 45.1566 35.863 45.3378L34.7927 47.1121C34.6075 47.4167 34.7145 47.3632 34.5334 47.4455L34.5375 47.4538Z" fill="#DBC27E"/>
<path fill-rule="evenodd" clip-rule="evenodd" d="M34.8421 63.5295C35.085 63.686 35.3114 64.1141 35.3073 64.5505C35.3073 65.1186 35.0356 65.3285 34.8174 65.5961C34.9615 65.7196 35.4349 66.5635 35.5708 66.7941C35.7025 67.0164 36.2459 67.8521 36.2871 68.0373C36.8511 67.7533 37.4397 67.1522 37.7609 66.6664C38.1355 66.0983 38.4278 65.382 38.4854 64.5505C38.5965 63.0108 37.835 61.4135 36.6576 60.6519L36.3735 60.6437C36.3159 60.8372 36.1018 61.1583 35.9865 61.3765C35.8589 61.6194 35.7272 61.8334 35.5996 62.0722C35.4555 62.3439 34.8833 63.2866 34.8421 63.5295Z" fill="#9090D5"/>
<path fill-rule="evenodd" clip-rule="evenodd" d="M22.3808 51.9698C22.706 52.011 22.6608 51.9945 23.0025 51.3523C23.2124 50.9571 24.1057 49.4257 24.1428 49.2281C23.9164 49.0181 23.6735 48.6517 23.7023 48.1577C23.7352 47.6596 24.011 47.4126 24.2498 47.1821C24.2086 46.9927 23.3153 45.5971 23.1013 45.2266C22.9983 45.0496 22.8172 44.6709 22.6978 44.6544C22.5496 44.675 22.4014 44.8067 22.2779 44.9014C20.5818 46.2023 20.0384 48.5159 21.0552 50.4549C21.3599 51.0353 21.8992 51.6816 22.3808 51.9698Z" fill="#8ACD80"/>
<path fill-rule="evenodd" clip-rule="evenodd" d="M36.8018 52.4885C36.81 52.7149 38.1974 54.9791 38.4114 55.3661C38.5802 55.3414 38.6584 55.3331 38.7819 55.4114C39.0989 55.469 39.3089 55.5719 39.4982 55.7572C39.6135 55.8683 39.6505 55.8807 39.7452 56.0371C39.7987 56.1235 39.8687 56.3211 39.914 56.3911C40.2392 56.4858 42.4705 56.4241 42.9892 56.4241L43.0098 56.1235C43.0674 55.506 42.6228 54.518 42.347 54.1146C41.9641 53.5547 41.6019 53.1595 41.0132 52.789C39.7123 51.9657 38.3332 51.8916 36.8059 52.4967L36.8018 52.4885Z" fill="#81E6EA"/>
<path fill-rule="evenodd" clip-rule="evenodd" d="M22.6937 67.9961C22.8296 67.9509 23.0025 67.5721 23.0766 67.4527L23.8052 66.2342C23.9081 66.0613 24.0563 65.7814 24.1798 65.629C23.9164 65.3779 23.5294 65.1844 23.4965 64.5134C23.4635 63.8794 23.8011 63.546 24.0975 63.2949C23.9246 62.8997 23.2206 61.6729 22.9407 61.1789C22.6608 60.6849 22.7143 60.5943 22.3726 60.6561C21.9733 60.8701 21.3064 61.6441 21.0594 62.1463C20.7012 62.8626 20.4995 63.546 20.5448 64.4764C20.5859 65.2915 20.8618 66.0366 21.2282 66.5965C21.5451 67.074 22.1585 67.7738 22.6896 68.0003L22.6937 67.9961Z" fill="#FC8080"/>
<path fill-rule="evenodd" clip-rule="evenodd" d="M22.2573 60.3473C22.2656 60.1868 21.3352 58.6595 21.187 58.4042C21.0264 58.1325 20.9276 57.8402 20.7712 57.8526C20.2401 57.902 20.0096 57.9967 19.5485 57.6838C19.2645 57.4903 19.0463 57.1939 18.9598 56.7411L18.9351 56.4323H15.9999C15.9588 59.5404 18.9681 61.6276 21.8498 60.6478C22.0844 60.5696 22.1956 60.5655 22.2573 60.3514V60.3473Z" fill="#FD81F8"/>
<path fill-rule="evenodd" clip-rule="evenodd" d="M15.9999 56.4282H18.9351L18.9598 56.7369C18.9187 56.1771 19.108 55.8313 19.4003 55.5431C19.7009 55.2426 20.1125 55.1849 20.6477 55.2261C20.7959 55.152 20.9935 54.728 21.0882 54.5674L22.2656 52.5091C21.8004 52.1962 20.6889 52.0439 20.0096 52.1015C19.1821 52.1756 18.5441 52.4432 17.9595 52.822C17.0168 53.4395 16.0123 54.7198 15.9999 56.4282Z" fill="#D9B1D9"/>
<path fill-rule="evenodd" clip-rule="evenodd" d="M22.6978 44.6544C22.8172 44.675 22.9983 45.0496 23.1013 45.2266C23.3153 45.5971 24.2086 46.9927 24.2498 47.1821C24.6821 47.0174 24.9867 46.8198 25.5383 47.0956C25.8677 47.2603 26.1517 47.5567 26.2423 47.9931C26.4893 48.0466 27.4361 47.9931 27.7408 47.9889C28.2595 47.9766 28.807 47.9601 29.3257 47.9601C29.1405 46.3093 28.1689 45.1525 27.0986 44.5638C26.4605 44.2139 25.7154 43.9834 24.855 43.9999C24.2704 44.0122 22.9654 44.2963 22.6978 44.6503L22.6978 44.6544Z" fill="#8BB184"/>
<path fill-rule="evenodd" clip-rule="evenodd" d="M29.7786 47.6843L29.7456 47.9519L32.3638 48.0013C32.5532 47.5979 32.7714 47.3344 33.216 47.1862C33.7224 47.0174 34.2369 47.1821 34.5375 47.4497C34.7186 47.3673 34.6075 47.4167 34.7968 47.1162L35.8672 45.3419C35.9742 45.1608 36.2541 44.782 36.2788 44.5885C35.8219 44.2551 34.8668 44.0122 34.1834 43.9999C32.7261 43.9752 31.3676 44.6709 30.5648 45.7742C30.2931 46.1447 29.7456 47.0791 29.7786 47.6843Z" fill="#F9DF8E"/>
<path fill-rule="evenodd" clip-rule="evenodd" d="M24.1839 65.629C24.0563 65.7814 23.9122 66.0613 23.8093 66.2342L23.0807 67.4527C23.0066 67.5721 22.8337 67.955 22.6978 67.9961C23.1383 68.3461 24.1592 68.6137 24.8591 68.626C25.7318 68.6384 26.4564 68.4243 27.1027 68.0661C28.1772 67.4774 29.161 66.2877 29.3257 64.6698L26.2011 64.6287C26.127 65.1021 25.8594 65.4273 25.5425 65.6126C25.0196 65.9172 24.6985 65.8019 24.1839 65.6332V65.629Z" fill="#CB9999"/>
<path fill-rule="evenodd" clip-rule="evenodd" d="M29.7168 64.674C29.9062 66.3124 30.8571 67.4527 31.8904 68.0332C33.1666 68.7495 35.0315 68.8565 36.2871 68.0332C36.2418 67.8479 35.7025 67.0081 35.5708 66.79C35.4349 66.5594 34.9615 65.7155 34.8174 65.592C34.628 65.6867 34.4469 65.8308 34.167 65.876C33.8706 65.9213 33.5989 65.876 33.3519 65.7525C33.0061 65.5838 32.5903 65.1515 32.5985 64.6204L29.7209 64.674H29.7168Z" fill="#8380FC"/>
<path fill-rule="evenodd" clip-rule="evenodd" d="M22.3808 51.9698C22.459 52.0274 22.5084 52.0192 22.6196 52.0233C22.6237 52.2744 23.2947 52.4885 23.5129 52.5667C24.7891 53.0154 26.02 52.8137 27.1315 52.2292L25.6001 49.3969C24.8138 49.6315 24.8056 49.6027 24.1428 49.2322C24.1057 49.4298 23.2124 50.9612 23.0025 51.3564C22.6608 51.9986 22.706 52.0151 22.3808 51.9739V51.9698Z" fill="#549149"/>
<path fill-rule="evenodd" clip-rule="evenodd" d="M38.7819 55.4114C38.6584 55.329 38.5802 55.3373 38.4114 55.3661C38.2015 54.9791 36.81 52.7149 36.8018 52.4885C36.0567 52.8219 35.4514 53.3818 35.0603 53.9335C34.7351 54.3904 34.1587 55.5349 34.2616 56.3006H37.2874C37.5056 56.0412 37.6374 55.362 38.7777 55.4114L38.7819 55.4114Z" fill="#66BEBE"/>
<path fill-rule="evenodd" clip-rule="evenodd" d="M36.6493 51.9533H36.3735C36.1059 51.5211 35.8589 51.0024 35.5996 50.5537C35.472 50.3313 35.3443 50.0885 35.2167 49.8538C35.1262 49.6933 34.8709 49.2857 34.8709 49.1252C34.7268 49.2404 34.6651 49.4915 34.2616 49.6933C33.8706 49.8909 33.6894 49.825 33.2489 49.8003L31.9234 52.2333C32.5491 52.5997 33.4177 52.8343 34.2946 52.7973C34.731 52.7767 35.1426 52.6943 35.5255 52.5626C35.7025 52.5009 35.8589 52.4391 36.0277 52.3568C36.1142 52.3156 36.1965 52.2703 36.2747 52.2292C36.3859 52.1674 36.4188 52.1633 36.4188 52.011C36.4435 52.011 36.5135 52.011 36.5382 52.011L36.6493 51.9616V51.9533Z" fill="#C1B080"/>
<path fill-rule="evenodd" clip-rule="evenodd" d="M20.6518 55.2261C21.0347 55.4278 21.2981 55.4937 21.5246 55.9342C21.574 56.033 21.6151 56.2018 21.6728 56.2923H24.7768C24.892 55.5843 24.2951 54.3657 23.9987 53.9499C23.6941 53.5177 22.9037 52.719 22.2697 52.5132L21.0923 54.5716C21.0017 54.7321 20.8 55.1561 20.6518 55.2302V55.2261Z" fill="#A050A0"/>
<path fill-rule="evenodd" clip-rule="evenodd" d="M26.2011 64.6246L29.3257 64.6657C29.4945 62.9244 28.7123 61.4917 27.3826 60.5573C27.2385 60.7425 25.8841 63.2496 25.8018 63.4225C25.8841 63.5789 26.0159 63.6613 26.1106 63.8918C26.2052 64.1223 26.2382 64.3529 26.2052 64.6204L26.2011 64.6246Z" fill="#A84242"/>
<path fill-rule="evenodd" clip-rule="evenodd" d="M29.7168 64.674L32.5944 64.6204C32.5614 64.2252 32.7344 63.8095 32.9731 63.5666C33.0719 63.4678 33.1501 63.4595 33.2366 63.3484L31.7093 60.5408C31.1988 60.7425 30.4949 61.6276 30.2232 62.1257C29.828 62.8585 29.6262 63.7107 29.7168 64.674Z" fill="#4B4BA0"/>
<path fill-rule="evenodd" clip-rule="evenodd" d="M34.8421 63.5295C34.8833 63.2866 35.4555 62.3398 35.5996 62.0722C35.7313 61.8293 35.8589 61.6152 35.9865 61.3765C36.1018 61.1583 36.3159 60.8372 36.3735 60.6437L36.6576 60.6519C36.5835 60.6025 36.5176 60.6108 36.4147 60.6108C36.4229 60.3597 35.7972 60.162 35.579 60.0838C35.2167 59.9562 34.8503 59.8739 34.4469 59.8409C33.5083 59.7668 32.862 59.9686 32.1251 60.2856L33.6894 63.1755C34.064 63.2125 34.2081 63.122 34.628 63.3566L34.8421 63.5295Z" fill="#4B4BA0"/>
<path fill-rule="evenodd" clip-rule="evenodd" d="M22.3808 60.6561C22.7225 60.5902 22.6649 60.6849 22.9489 61.1789C23.2289 61.6729 23.9328 62.8997 24.1057 63.2949C24.6697 63.0149 24.7397 63.0437 25.3819 63.1672L26.9586 60.3267C26.1559 59.7504 24.5792 59.7051 23.4923 60.0756C23.2742 60.1497 22.6237 60.3679 22.6278 60.6108C22.6155 60.6108 22.5167 60.6108 22.5043 60.6108C22.492 60.6108 22.4796 60.6108 22.4673 60.619L22.4096 60.6437C22.4096 60.6437 22.3932 60.6519 22.3849 60.6602L22.3808 60.6561Z" fill="#A84242"/>
<path fill-rule="evenodd" clip-rule="evenodd" d="M20.7753 57.8526C20.9276 57.8402 21.0305 58.1325 21.1911 58.4042C21.3393 58.6595 22.2656 60.1868 22.2614 60.3473C22.7966 60.442 23.7146 59.4293 23.974 59.0588C24.291 58.6101 24.855 57.5438 24.7768 56.774H21.6728C21.5328 57.0786 21.5822 57.1527 21.3599 57.4203C21.2775 57.5191 21.2158 57.5768 21.1088 57.655C21.0182 57.7208 20.8659 57.7702 20.7753 57.8526Z" fill="#A050A0"/>
<path fill-rule="evenodd" clip-rule="evenodd" d="M26.2424 47.989C26.3371 48.5941 26.1683 48.6806 25.9789 49.084C26.0613 49.2981 27.4815 51.8669 27.5556 51.9328C27.9879 51.694 28.6095 50.9324 28.8853 50.3766C29.2311 49.6768 29.4123 48.8452 29.3299 47.956C28.8112 47.956 28.2678 47.9684 27.745 47.9848C27.4363 47.9931 26.4894 48.0466 26.2465 47.989H26.2424Z" fill="#549149"/>
<path fill-rule="evenodd" clip-rule="evenodd" d="M32.3638 48.0013L29.7456 47.9519L29.7786 47.6843C29.6304 47.8531 29.7045 48.8082 29.7456 49.0634C29.8156 49.5121 29.9391 49.8991 30.112 50.2737C30.3714 50.8254 31.0465 51.7393 31.524 51.9574L32.8496 49.5698C32.4009 49.2198 32.1621 48.7794 32.3638 48.0054V48.0013Z" fill="#C1B080"/>
<path fill-rule="evenodd" clip-rule="evenodd" d="M44.6563 67.9756H44.2982L44.1541 67.5268H43.4954L43.3596 67.9756H43.0055L43.6436 66.0037H43.9977L44.6563 67.9756ZM44.0471 67.1934L43.8165 66.4647L43.5942 67.1934H44.0471ZM44.7181 67.5721L45.0351 67.5145C45.0474 67.5886 45.0762 67.6421 45.1174 67.6792C45.1586 67.7162 45.2162 67.7368 45.2903 67.7368C45.3726 67.7368 45.4344 67.7203 45.4756 67.6833C45.5044 67.6586 45.5167 67.6256 45.5167 67.5804C45.5167 67.5515 45.5085 67.5268 45.4961 67.5104C45.4797 67.4939 45.4467 67.4774 45.3891 67.461C45.1339 67.3951 44.9733 67.3334 44.9033 67.2757C44.8087 67.1975 44.7634 67.0905 44.7634 66.9546C44.7634 66.8311 44.8045 66.7282 44.8869 66.6418C44.9692 66.5553 45.0968 66.5141 45.2656 66.5141C45.4344 66.5141 45.5497 66.5471 45.6279 66.6088C45.7061 66.6747 45.7637 66.7694 45.7925 66.8929L45.4961 66.9587C45.4838 66.9011 45.4591 66.8599 45.422 66.8311C45.385 66.8023 45.3356 66.7858 45.2697 66.7858C45.1874 66.7858 45.1256 66.7982 45.0886 66.827C45.0639 66.8476 45.0515 66.8723 45.0515 66.9052C45.0515 66.934 45.0598 66.9546 45.0845 66.9752C45.1133 66.9999 45.2121 67.037 45.3809 67.0822C45.5497 67.1275 45.6649 67.1852 45.7349 67.251C45.8008 67.3169 45.8337 67.4116 45.8337 67.531C45.8337 67.6627 45.7884 67.7738 45.6979 67.8685C45.6073 67.9632 45.4714 68.0085 45.2903 68.0085C45.1298 68.0085 44.998 67.9673 44.9033 67.8891C44.8087 67.8109 44.7469 67.7039 44.7181 67.568V67.5721ZM46.0354 67.2428C46.0354 67.1152 46.0601 66.9958 46.1137 66.8764C46.1672 66.757 46.2372 66.6706 46.3318 66.6088C46.4265 66.5471 46.5336 66.5141 46.6488 66.5141C46.83 66.5141 46.9782 66.5841 47.0934 66.7241C47.2087 66.8641 47.2663 67.0411 47.2663 67.2551C47.2663 67.4692 47.2087 67.6503 47.0934 67.7944C46.9782 67.9385 46.83 68.0085 46.6529 68.0085C46.5418 68.0085 46.4389 67.9797 46.3401 67.9179C46.2413 67.8603 46.1672 67.7738 46.1137 67.6586C46.0601 67.5433 46.0354 67.4033 46.0354 67.2387V67.2428ZM46.3607 67.2634C46.3607 67.4033 46.3895 67.5145 46.443 67.5886C46.5006 67.6627 46.5665 67.7039 46.6488 67.7039C46.7312 67.7039 46.8011 67.6668 46.8547 67.5886C46.9082 67.5145 46.937 67.4033 46.937 67.2593C46.937 67.1152 46.9082 67.0123 46.8547 66.9382C46.8011 66.8641 46.7312 66.8229 46.6488 66.8229C46.5665 66.8229 46.4965 66.8599 46.443 66.9382C46.3854 67.0123 46.3607 67.1234 46.3607 67.2634ZM47.4022 67.5721L47.7192 67.5145C47.7315 67.5886 47.7603 67.6421 47.8015 67.6792C47.8427 67.7162 47.9003 67.7368 47.9744 67.7368C48.0567 67.7368 48.1185 67.7203 48.1597 67.6833C48.1885 67.6586 48.2008 67.6256 48.2008 67.5804C48.2008 67.5515 48.1926 67.5268 48.1802 67.5104C48.1638 67.4939 48.1308 67.4774 48.0732 67.461C47.818 67.3951 47.6574 67.3334 47.5874 67.2757C47.4928 67.1975 47.4475 67.0905 47.4475 66.9546C47.4475 66.8311 47.4886 66.7282 47.571 66.6418C47.6533 66.5553 47.7809 66.5141 47.9497 66.5141C48.1185 66.5141 48.2338 66.5471 48.312 66.6088C48.3902 66.6747 48.4478 66.7694 48.4766 66.8929L48.1802 66.9587C48.1679 66.9011 48.1432 66.8599 48.1061 66.8311C48.0691 66.8023 48.0197 66.7858 47.9538 66.7858C47.8715 66.7858 47.8097 66.7982 47.7727 66.827C47.748 66.8476 47.7356 66.8723 47.7356 66.9052C47.7356 66.934 47.748 66.9546 47.7686 66.9752C47.7974 66.9999 47.8962 67.037 48.065 67.0822C48.2338 67.1275 48.3531 67.1852 48.419 67.251C48.4849 67.3169 48.5178 67.4116 48.5178 67.531C48.5178 67.6627 48.4725 67.7738 48.382 67.8685C48.2914 67.9632 48.1555 68.0085 47.9744 68.0085C47.8139 68.0085 47.6821 67.9673 47.5874 67.8891C47.4928 67.8109 47.431 67.7039 47.4022 67.568V67.5721ZM48.7936 66.3536V66.0037H49.1106V66.3536H48.7936ZM48.7936 67.9756V66.5471H49.1106V67.9756H48.7936ZM49.6664 66.9876L49.3823 66.9258C49.4152 66.7858 49.4688 66.6829 49.547 66.617C49.6252 66.5512 49.7405 66.5182 49.8969 66.5182C50.0369 66.5182 50.1439 66.5388 50.2098 66.5759C50.2798 66.617 50.325 66.6665 50.3539 66.7282C50.3827 66.79 50.395 66.9011 50.395 67.0658V67.5063C50.3909 67.6298 50.395 67.7244 50.4074 67.7821C50.4156 67.8438 50.4362 67.9056 50.465 67.9714H50.1521C50.1439 67.9467 50.1357 67.9097 50.1233 67.8603C50.1192 67.8397 50.1151 67.8232 50.111 67.815C50.0575 67.8768 49.9998 67.9262 49.9381 67.9591C49.8763 67.992 49.8105 68.0085 49.7405 68.0085C49.617 68.0085 49.5223 67.9673 49.4523 67.8891C49.3823 67.8109 49.3453 67.708 49.3453 67.5886C49.3453 67.5063 49.3617 67.4363 49.3947 67.3745C49.4276 67.3128 49.4729 67.2634 49.5305 67.2304C49.5882 67.1975 49.6705 67.1687 49.7816 67.144C49.9298 67.1111 50.0328 67.0781 50.0863 67.0534V67.0164C50.0863 66.9423 50.0698 66.8888 50.041 66.8599C50.0122 66.827 49.9545 66.8147 49.8722 66.8147C49.8146 66.8147 49.7734 66.827 49.7405 66.8558C49.7075 66.8805 49.6828 66.9299 49.6623 66.9958L49.6664 66.9876ZM50.0904 67.2922C50.0492 67.3087 49.9875 67.3292 49.8969 67.3498C49.8105 67.3704 49.7528 67.3951 49.724 67.4157C49.6828 67.4527 49.6623 67.4939 49.6623 67.5474C49.6623 67.6009 49.6787 67.6462 49.7117 67.6833C49.7446 67.7203 49.7858 67.7409 49.8352 67.7409C49.8928 67.7409 49.9463 67.7203 49.9998 67.675C50.0369 67.6421 50.0616 67.6009 50.0739 67.5515C50.0822 67.5186 50.0863 67.4569 50.0863 67.3663V67.2922H50.0904ZM50.5967 67.5721L50.9137 67.5145C50.9261 67.5886 50.9549 67.6421 50.9961 67.6792C51.0372 67.7162 51.0949 67.7368 51.169 67.7368C51.2513 67.7368 51.3131 67.7203 51.3542 67.6833C51.383 67.6586 51.3954 67.6256 51.3954 67.5804C51.3954 67.5515 51.3872 67.5268 51.3748 67.5104C51.3583 67.4939 51.3254 67.4774 51.2678 67.461C51.0125 67.3951 50.852 67.3334 50.782 67.2757C50.6873 67.1975 50.642 67.0905 50.642 66.9546C50.642 66.8311 50.6832 66.7282 50.7655 66.6418C50.8479 66.5553 50.9755 66.5141 51.1443 66.5141C51.3131 66.5141 51.4283 66.5471 51.5065 66.6088C51.5848 66.6747 51.6424 66.7694 51.6712 66.8929L51.3748 66.9587C51.3625 66.9011 51.3378 66.8599 51.3007 66.8311C51.2637 66.8023 51.2143 66.7858 51.1484 66.7858C51.0661 66.7858 51.0043 66.7982 50.9673 66.827C50.9426 66.8476 50.9302 66.8723 50.9302 66.9052C50.9302 66.934 50.9426 66.9546 50.9631 66.9752C50.992 66.9999 51.0908 67.037 51.2595 67.0822C51.4283 67.1275 51.5436 67.1852 51.6136 67.251C51.6794 67.3169 51.7124 67.4116 51.7124 67.531C51.7124 67.6627 51.6671 67.7738 51.5765 67.8685C51.486 67.9632 51.3501 68.0085 51.169 68.0085C51.0084 68.0085 50.8767 67.9673 50.782 67.8891C50.6873 67.8109 50.6256 67.7039 50.5967 67.568V67.5721ZM51.9882 66.3536V66.0037H52.3011V66.3536H51.9882ZM51.9882 67.9756V66.5471H52.3011V67.9756H51.9882ZM53.2685 67.9756V66.0037H54.4006V66.3371H53.6019V66.8064H54.2894V67.1399H53.6019V67.9756H53.2685ZM54.6682 66.3536V66.0037H54.981V66.3536H54.6682ZM54.6682 67.9756V66.5471H54.981V67.9756H54.6682ZM56.3931 67.9756H56.0802V67.2469C56.0802 67.0946 56.072 66.9917 56.0596 66.9464C56.0473 66.9011 56.0226 66.8641 55.9938 66.8394C55.9649 66.8147 55.9279 66.8023 55.8826 66.8023C55.8291 66.8023 55.7797 66.8188 55.7344 66.8558C55.6891 66.8929 55.6603 66.9382 55.6438 66.9999C55.6274 67.0575 55.6191 67.1687 55.6191 67.3292V67.9756H55.3063V66.5471H55.5985V66.757C55.7015 66.5965 55.8332 66.5182 55.9938 66.5182C56.0637 66.5182 56.1255 66.5347 56.1872 66.5635C56.2449 66.5924 56.2902 66.6335 56.319 66.6788C56.3478 66.7241 56.3684 66.7776 56.3807 66.8394C56.3931 66.897 56.3972 66.9834 56.3972 67.0946V67.9797L56.3931 67.9756ZM57.2576 66.5471V66.8476H57.0435V67.428C57.0435 67.5474 57.0435 67.6133 57.0476 67.6339C57.0517 67.6545 57.06 67.6709 57.0764 67.6833C57.0929 67.6956 57.1094 67.7039 57.13 67.7039C57.1588 67.7039 57.2 67.6915 57.2576 67.6668L57.2823 67.9591C57.2082 67.9961 57.1258 68.0167 57.0353 68.0167C56.9776 68.0167 56.9282 68.0044 56.883 67.9838C56.8377 67.9591 56.8047 67.9303 56.7842 67.8932C56.7636 67.8562 56.7471 67.8068 56.7389 67.745C56.7306 67.6997 56.7306 67.6133 56.7306 67.4774V66.8517H56.5866V66.5512H56.7306V66.2671L57.0435 66.0448V66.5512H57.2576V66.5471ZM58.1674 67.5227L58.4802 67.5845C58.4391 67.7244 58.3773 67.8274 58.2909 67.9015C58.2044 67.9714 58.0933 68.0085 57.9657 68.0085C57.7598 68.0085 57.6034 67.9262 57.5046 67.7656C57.4264 67.6339 57.3852 67.4692 57.3852 67.2716C57.3852 67.0328 57.4387 66.8476 57.5416 66.7159C57.6446 66.58 57.7763 66.5141 57.9327 66.5141C58.1097 66.5141 58.2497 66.5841 58.3526 66.7241C58.4555 66.8641 58.5049 67.0781 58.5008 67.3704H57.7145C57.7145 67.4816 57.7434 67.568 57.7928 67.6339C57.8422 67.6956 57.8998 67.7286 57.9739 67.7286C58.0233 67.7286 58.0645 67.7121 58.0974 67.6792C58.1303 67.6462 58.155 67.5968 58.1756 67.5227H58.1674ZM58.1838 67.1399C58.1838 67.0287 58.1591 66.9464 58.1139 66.8888C58.0686 66.8311 58.0151 66.8023 57.9492 66.8023C57.8792 66.8023 57.8257 66.8311 57.7804 66.8929C57.7351 66.9546 57.7145 67.037 57.7145 67.1399H58.1838ZM59.7935 66.9711L59.4847 67.037C59.4765 66.9629 59.4518 66.9093 59.4147 66.8682C59.3777 66.8311 59.3283 66.8105 59.2707 66.8105C59.1924 66.8105 59.1307 66.8435 59.0813 66.9093C59.036 66.9752 59.0113 67.0822 59.0113 67.2346C59.0113 67.4033 59.036 67.5227 59.0813 67.5927C59.1307 67.6627 59.1924 67.6997 59.2707 67.6997C59.3283 67.6997 59.3777 67.6792 59.4189 67.638C59.4559 67.5968 59.4847 67.5268 59.5012 67.428L59.8099 67.4898C59.777 67.6586 59.7153 67.7903 59.6247 67.8768C59.5341 67.9632 59.4106 68.0085 59.2583 68.0085C59.0854 68.0085 58.9454 67.9426 58.8425 67.8109C58.7396 67.6792 58.6861 67.498 58.6861 67.2634C58.6861 67.0287 58.7396 66.8435 58.8425 66.7117C58.9454 66.58 59.0854 66.5141 59.2624 66.5141C59.4065 66.5141 59.5218 66.5512 59.6082 66.6253C59.6947 66.6994 59.7564 66.8147 59.7935 66.967V66.9711ZM60.3451 66.0037V66.7323C60.448 66.5882 60.5715 66.5141 60.7115 66.5141C60.7856 66.5141 60.8515 66.5306 60.9091 66.5635C60.9667 66.5965 61.012 66.6376 61.0408 66.687C61.0697 66.7364 61.0902 66.7941 61.1026 66.8517C61.1149 66.9135 61.1191 67.0081 61.1191 67.1358V67.9714H60.8062V67.2181C60.8062 67.0699 60.8021 66.9752 60.7897 66.934C60.7774 66.8929 60.7568 66.8599 60.7239 66.8394C60.695 66.8147 60.6539 66.8023 60.6086 66.8023C60.5551 66.8023 60.5098 66.8188 60.4686 66.8476C60.4274 66.8764 60.3986 66.9258 60.378 66.9834C60.3575 67.0452 60.3492 67.1358 60.3492 67.2551V67.9714H60.0364V65.9995H60.3492L60.3451 66.0037ZM62.0782 67.9756V66.0037H62.6093C62.811 66.0037 62.9428 66.0119 63.0045 66.0325C63.0992 66.0613 63.1774 66.1272 63.2392 66.226C63.3009 66.3248 63.3338 66.4524 63.3338 66.6088C63.3338 66.7282 63.3174 66.8311 63.2803 66.9135C63.2433 66.9958 63.198 67.0617 63.1404 67.1069C63.0827 67.1522 63.0251 67.1852 62.9675 67.2016C62.8892 67.2222 62.774 67.2304 62.6217 67.2304H62.4076V67.9756H62.0741H62.0782ZM62.4117 66.3371V66.897H62.5928C62.7246 66.897 62.811 66.8846 62.8563 66.8641C62.9016 66.8435 62.9345 66.8105 62.9592 66.7653C62.9839 66.72 62.9963 66.6706 62.9963 66.6129C62.9963 66.5429 62.9798 66.4812 62.9428 66.4359C62.9057 66.3906 62.8645 66.3618 62.811 66.3495C62.7699 66.3412 62.6916 66.3371 62.5723 66.3371H62.4117ZM64.2972 67.5227L64.61 67.5845C64.5689 67.7244 64.5071 67.8274 64.4207 67.9015C64.3342 67.9714 64.2231 68.0085 64.0954 68.0085C63.8896 68.0085 63.7332 67.9262 63.6344 67.7656C63.5561 67.6339 63.515 67.4692 63.515 67.2716C63.515 67.0328 63.5685 66.8476 63.6714 66.7159C63.7743 66.58 63.9061 66.5141 64.0625 66.5141C64.2395 66.5141 64.3795 66.5841 64.4824 66.7241C64.5853 66.8641 64.6347 67.0781 64.6306 67.3704H63.8443C63.8443 67.4816 63.8731 67.568 63.9225 67.6339C63.9719 67.6956 64.0296 67.7286 64.1037 67.7286C64.1531 67.7286 64.1942 67.7121 64.2272 67.6792C64.2601 67.6462 64.2848 67.5968 64.3054 67.5227H64.2972ZM64.3136 67.1399C64.3136 67.0287 64.2889 66.9464 64.2436 66.8888C64.1984 66.8311 64.1448 66.8023 64.079 66.8023C64.009 66.8023 63.9555 66.8311 63.9102 66.8929C63.8649 66.9546 63.8443 67.037 63.8443 67.1399H64.3136ZM65.9685 67.9756H65.6557V67.2469C65.6557 67.0946 65.6474 66.9917 65.6351 66.9464C65.6227 66.9011 65.598 66.8641 65.5692 66.8394C65.5404 66.8147 65.5033 66.8023 65.4581 66.8023C65.4045 66.8023 65.3551 66.8188 65.3099 66.8558C65.2646 66.8929 65.2358 66.9382 65.2193 66.9999C65.2028 67.0575 65.1946 67.1687 65.1946 67.3292V67.9756H64.8817V66.5471H65.174V66.757C65.2769 66.5965 65.4087 66.5182 65.5692 66.5182C65.6392 66.5182 65.7009 66.5347 65.7627 66.5635C65.8203 66.5924 65.8656 66.6335 65.8944 66.6788C65.9233 66.7241 65.9438 66.7776 65.9562 66.8394C65.9685 66.897 65.9727 66.9834 65.9727 67.0946V67.9797L65.9685 67.9756ZM67.3806 67.9756H67.0883V67.7656C67.0389 67.8479 66.9813 67.9097 66.9154 67.9509C66.8495 67.992 66.7836 68.0126 66.7137 68.0126C66.5778 68.0126 66.4584 67.9467 66.3596 67.815C66.2608 67.6833 66.2114 67.498 66.2114 67.2593C66.2114 67.0205 66.2608 66.8311 66.3555 66.7076C66.4502 66.58 66.5696 66.5182 66.7178 66.5182C66.8495 66.5182 66.9648 66.5841 67.0636 66.7159V66.0037H67.3765V67.9756H67.3806ZM66.5408 67.2346C66.5408 67.3869 66.5572 67.498 66.5943 67.568C66.6437 67.6668 66.7178 67.7162 66.8083 67.7162C66.8824 67.7162 66.9442 67.6792 66.9936 67.6051C67.043 67.531 67.0718 67.4198 67.0718 67.2716C67.0718 67.1069 67.0471 66.9876 66.9977 66.9176C66.9483 66.8435 66.8866 66.8105 66.8083 66.8105C66.7301 66.8105 66.6725 66.8476 66.619 66.9176C66.5696 66.9876 66.5449 67.0946 66.5449 67.2387L66.5408 67.2346ZM67.9281 66.9876L67.644 66.9258C67.677 66.7858 67.7305 66.6829 67.8087 66.617C67.8869 66.5512 68.0022 66.5182 68.1586 66.5182C68.2986 66.5182 68.4056 66.5388 68.4715 66.5759C68.5415 66.617 68.5868 66.6665 68.6156 66.7282C68.6444 66.79 68.6567 66.9011 68.6567 67.0658V67.5063C68.6526 67.6298 68.6567 67.7244 68.6691 67.7821C68.6773 67.8438 68.6979 67.9056 68.7267 67.9714H68.4139C68.4056 67.9467 68.3974 67.9097 68.385 67.8603C68.3809 67.8397 68.3768 67.8232 68.3727 67.815C68.3192 67.8768 68.2615 67.9262 68.1998 67.9591C68.138 67.992 68.0722 68.0085 68.0022 68.0085C67.8787 68.0085 67.784 67.9673 67.714 67.8891C67.644 67.8109 67.607 67.708 67.607 67.5886C67.607 67.5063 67.6235 67.4363 67.6564 67.3745C67.6893 67.3128 67.7346 67.2634 67.7922 67.2304C67.8499 67.1975 67.9322 67.1687 68.0434 67.144C68.1916 67.1111 68.2945 67.0781 68.348 67.0534V67.0164C68.348 66.9423 68.3315 66.8888 68.3027 66.8599C68.2739 66.827 68.2163 66.8147 68.1339 66.8147C68.0763 66.8147 68.0351 66.827 68.0022 66.8558C67.9693 66.8805 67.9446 66.9299 67.924 66.9958L67.9281 66.9876ZM68.3521 67.2922C68.3109 67.3087 68.2492 67.3292 68.1586 67.3498C68.0722 67.3704 68.0145 67.3951 67.9857 67.4157C67.9446 67.4527 67.924 67.4939 67.924 67.5474C67.924 67.6009 67.9404 67.6462 67.9734 67.6833C68.0063 67.7203 68.0475 67.7409 68.101 67.7409C68.1586 67.7409 68.2121 67.7203 68.2657 67.675C68.3027 67.6421 68.3274 67.6009 68.3398 67.5515C68.348 67.5186 68.3521 67.4569 68.3521 67.3663V67.2922ZM70.0564 67.9756H69.7436V67.2469C69.7436 67.0946 69.7353 66.9917 69.723 66.9464C69.7106 66.9011 69.6859 66.8641 69.6571 66.8394C69.6283 66.8147 69.5912 66.8023 69.546 66.8023C69.4924 66.8023 69.443 66.8188 69.3978 66.8558C69.3525 66.8929 69.3237 66.9382 69.3072 66.9999C69.2907 67.0575 69.2825 67.1687 69.2825 67.3292V67.9756H68.9696V66.5471H69.2619V66.757C69.3648 66.5965 69.4966 66.5182 69.6571 66.5182C69.7271 66.5182 69.7888 66.5347 69.8506 66.5635C69.9082 66.5924 69.9535 66.6335 69.9823 66.6788C70.0111 66.7241 70.0317 66.7776 70.0441 66.8394C70.0564 66.897 70.0606 66.9834 70.0606 67.0946V67.9797L70.0564 67.9756ZM70.6081 66.9876L70.324 66.9258C70.3569 66.7858 70.4105 66.6829 70.4887 66.617C70.5669 66.5512 70.6822 66.5182 70.8386 66.5182C70.9786 66.5182 71.0856 66.5388 71.1515 66.5759C71.2215 66.617 71.2667 66.6665 71.2956 66.7282C71.3244 66.79 71.3367 66.9011 71.3367 67.0658V67.5063C71.3326 67.6298 71.3367 67.7244 71.3491 67.7821C71.3573 67.8438 71.3779 67.9056 71.4067 67.9714H71.0938C71.0856 67.9467 71.0774 67.9097 71.065 67.8603C71.0609 67.8397 71.0568 67.8232 71.0527 67.815C70.9992 67.8768 70.9415 67.9262 70.8798 67.9591C70.818 67.992 70.7522 68.0085 70.6822 68.0085C70.5587 68.0085 70.464 67.9673 70.394 67.8891C70.324 67.8109 70.287 67.708 70.287 67.5886C70.287 67.5063 70.3034 67.4363 70.3364 67.3745C70.3693 67.3128 70.4146 67.2634 70.4722 67.2304C70.5299 67.1975 70.6122 67.1687 70.7233 67.144C70.8715 67.1111 70.9745 67.0781 71.028 67.0534V67.0164C71.028 66.9423 71.0115 66.8888 70.9827 66.8599C70.9539 66.827 70.8962 66.8147 70.8139 66.8147C70.7563 66.8147 70.7151 66.827 70.6822 66.8558C70.6492 66.8805 70.6245 66.9299 70.604 66.9958L70.6081 66.9876ZM71.0321 67.2922C70.9909 67.3087 70.9292 67.3292 70.8386 67.3498C70.7522 67.3704 70.6945 67.3951 70.6657 67.4157C70.6245 67.4527 70.604 67.4939 70.604 67.5474C70.604 67.6009 70.6204 67.6462 70.6534 67.6833C70.6863 67.7203 70.7275 67.7409 70.781 67.7409C70.8386 67.7409 70.8921 67.7203 70.9456 67.675C70.9827 67.6421 71.0074 67.6009 71.0197 67.5515C71.028 67.5186 71.0321 67.4569 71.0321 67.3663V67.2922ZM71.8884 66.9876L71.6043 66.9258C71.6372 66.7858 71.6908 66.6829 71.769 66.617C71.8472 66.5512 71.9625 66.5182 72.1189 66.5182C72.2589 66.5182 72.3659 66.5388 72.4318 66.5759C72.5018 66.617 72.547 66.6665 72.5759 66.7282C72.6047 66.79 72.617 66.9011 72.617 67.0658V67.5063C72.6129 67.6298 72.617 67.7244 72.6294 67.7821C72.6376 67.8438 72.6582 67.9056 72.687 67.9714H72.3741C72.3659 67.9467 72.3577 67.9097 72.3453 67.8603C72.3412 67.8397 72.3371 67.8232 72.333 67.815C72.2794 67.8768 72.2218 67.9262 72.1601 67.9591C72.0983 67.992 72.0325 68.0085 71.9625 68.0085C71.839 68.0085 71.7443 67.9673 71.6743 67.8891C71.6043 67.8109 71.5673 67.708 71.5673 67.5886C71.5673 67.5063 71.5837 67.4363 71.6167 67.3745C71.6496 67.3128 71.6949 67.2634 71.7525 67.2304C71.8101 67.1975 71.8925 67.1687 72.0036 67.144C72.1518 67.1111 72.2548 67.0781 72.3083 67.0534V67.0164C72.3083 66.9423 72.2918 66.8888 72.263 66.8599C72.2342 66.827 72.1765 66.8147 72.0942 66.8147C72.0366 66.8147 71.9954 66.827 71.9625 66.8558C71.9295 66.8805 71.9048 66.9299 71.8842 66.9958L71.8884 66.9876ZM72.3124 67.2922C72.2712 67.3087 72.2095 67.3292 72.1189 67.3498C72.0325 67.3704 71.9748 67.3951 71.946 67.4157C71.9048 67.4527 71.8842 67.4939 71.8842 67.5474C71.8842 67.6009 71.9007 67.6462 71.9336 67.6833C71.9666 67.7203 72.0077 67.7409 72.0571 67.7409C72.1148 67.7409 72.1683 67.7203 72.2218 67.675C72.2589 67.6421 72.2836 67.6009 72.2959 67.5515C72.3041 67.5186 72.3083 67.4569 72.3083 67.3663V67.2922H72.3124ZM74.0167 67.9756H73.7038V67.2469C73.7038 67.0946 73.6956 66.9917 73.6832 66.9464C73.6709 66.9011 73.6462 66.8641 73.6174 66.8394C73.5886 66.8147 73.5515 66.8023 73.5062 66.8023C73.4527 66.8023 73.4033 66.8188 73.358 66.8558C73.3127 66.8929 73.2839 66.9382 73.2675 66.9999C73.251 67.0575 73.2428 67.1687 73.2428 67.3292V67.9756H72.9299V66.5471H73.2222V66.757C73.3251 66.5965 73.4568 66.5182 73.6174 66.5182C73.6874 66.5182 73.7491 66.5347 73.8109 66.5635C73.8685 66.5924 73.9138 66.6335 73.9426 66.6788C73.9714 66.7241 73.992 66.7776 74.0043 66.8394C74.0167 66.897 74.0208 66.9834 74.0208 67.0946V67.9797L74.0167 67.9756ZM74.9759 66.0037H75.6346C75.7663 66.0037 75.861 66.0119 75.9269 66.0242C75.9927 66.0366 76.0504 66.0654 76.0998 66.1066C76.1492 66.1477 76.1903 66.2013 76.2274 66.2712C76.2603 66.3412 76.2768 66.4153 76.2768 66.5018C76.2768 66.5924 76.2562 66.6788 76.215 66.757C76.1739 66.8352 76.1162 66.8929 76.0462 66.9299C76.145 66.967 76.2233 67.0246 76.2768 67.1111C76.3303 67.1975 76.3591 67.2963 76.3591 67.4075C76.3591 67.498 76.3426 67.5845 76.3056 67.6709C76.2727 67.7574 76.2233 67.8232 76.1615 67.8726C76.0998 67.922 76.0257 67.955 75.9392 67.9673C75.8857 67.9756 75.7498 67.9797 75.5399 67.9797H74.98V66.0078L74.9759 66.0037ZM75.3094 66.333V66.7858H75.5275C75.6552 66.7858 75.7375 66.7858 75.7704 66.7776C75.8281 66.7694 75.8733 66.7447 75.9063 66.7076C75.9392 66.6706 75.9557 66.6171 75.9557 66.5553C75.9557 66.4935 75.9433 66.4441 75.9145 66.4071C75.8857 66.37 75.8445 66.3453 75.791 66.3371C75.7581 66.333 75.6634 66.3289 75.507 66.3289H75.3176L75.3094 66.333ZM75.3094 67.1152V67.6421H75.6181C75.7375 67.6421 75.8157 67.6421 75.8445 67.6298C75.8939 67.6174 75.9351 67.5927 75.9639 67.5515C75.9968 67.5104 76.0092 67.4527 76.0092 67.3828C76.0092 67.3251 75.9968 67.2716 75.9721 67.2304C75.9474 67.1893 75.9145 67.1605 75.8692 67.1399C75.8239 67.1193 75.7251 67.1111 75.5728 67.1111H75.3052L75.3094 67.1152ZM77.3224 67.5268L77.6353 67.5886C77.5941 67.7286 77.5324 67.8315 77.4459 67.9056C77.3595 67.9756 77.2483 68.0126 77.1207 68.0126C76.9149 68.0126 76.7584 67.9303 76.6596 67.7697C76.5814 67.638 76.5402 67.4733 76.5402 67.2757C76.5402 67.037 76.5938 66.8517 76.6967 66.72C76.7996 66.5841 76.9313 66.5182 77.0878 66.5182C77.2648 66.5182 77.4048 66.5882 77.5077 66.7282C77.6106 66.8682 77.66 67.0822 77.6559 67.3745H76.8655C76.8655 67.4857 76.8943 67.5721 76.9437 67.638C76.9931 67.6997 77.0507 67.7327 77.1248 67.7327C77.1742 67.7327 77.2154 67.7162 77.2483 67.6833C77.2812 67.6503 77.306 67.6009 77.3265 67.5268H77.3224ZM77.3389 67.144C77.3389 67.0328 77.3142 66.9505 77.2689 66.8929C77.2236 66.8352 77.1701 66.8064 77.1042 66.8064C77.0342 66.8064 76.9807 66.8352 76.9355 66.897C76.8902 66.9587 76.8696 67.0411 76.8696 67.144H77.3389ZM78.2116 67.9797H77.8988V66.5512H78.191V66.7529C78.2404 66.6582 78.2857 66.5924 78.3269 66.5635C78.3681 66.5347 78.4133 66.5182 78.4627 66.5182C78.5327 66.5182 78.6027 66.5429 78.6727 66.5882L78.5739 66.9176C78.5204 66.8764 78.471 66.8558 78.4257 66.8558C78.3804 66.8558 78.3434 66.8723 78.3145 66.9011C78.2857 66.9299 78.261 66.9834 78.2404 67.0575C78.224 67.1316 78.2157 67.2922 78.2157 67.5351V67.9756L78.2116 67.9797ZM78.6933 67.5762L79.0103 67.5186C79.0226 67.5927 79.0514 67.6462 79.0926 67.6833C79.1338 67.7203 79.1914 67.7409 79.2655 67.7409C79.3478 67.7409 79.4096 67.7244 79.4508 67.6874C79.4796 67.6627 79.4919 67.6298 79.4919 67.5845C79.4919 67.5557 79.4837 67.531 79.4713 67.5145C79.4549 67.498 79.4219 67.4816 79.3643 67.4651C79.1091 67.3992 78.9485 67.3375 78.8785 67.2798C78.7839 67.2016 78.7386 67.0946 78.7386 66.9587C78.7386 66.8352 78.7797 66.7323 78.8621 66.6459C78.9444 66.5594 79.072 66.5182 79.2408 66.5182C79.4096 66.5182 79.5249 66.5512 79.6031 66.6129C79.6813 66.6788 79.7389 66.7735 79.7677 66.897L79.4713 66.9629C79.459 66.9052 79.4343 66.8641 79.3972 66.8352C79.3602 66.8064 79.3108 66.79 79.2449 66.79C79.1626 66.79 79.1008 66.8023 79.0638 66.8311C79.0391 66.8517 79.0267 66.8764 79.0267 66.9093C79.0267 66.9382 79.035 66.9587 79.0597 66.9793C79.0885 67.004 79.1873 67.0411 79.3561 67.0864C79.5249 67.1316 79.6442 67.1893 79.7101 67.2551C79.776 67.321 79.8089 67.4157 79.8089 67.5351C79.8089 67.6668 79.7636 67.778 79.6731 67.8726C79.5825 67.9673 79.4466 68.0126 79.2655 68.0126C79.1049 68.0126 78.9732 67.9714 78.8785 67.8932C78.7839 67.815 78.7221 67.708 78.6933 67.5721V67.5762ZM80.3194 66.9917L80.0353 66.9299C80.0683 66.79 80.1218 66.687 80.2 66.6212C80.2782 66.5553 80.3935 66.5224 80.5499 66.5224C80.6899 66.5224 80.7969 66.5429 80.8628 66.58C80.9328 66.6212 80.9781 66.6706 81.0069 66.7323C81.0357 66.7941 81.048 66.9052 81.048 67.0699V67.5104C81.0439 67.6339 81.048 67.7286 81.0604 67.7862C81.0686 67.8479 81.0892 67.9097 81.118 67.9756H80.8052C80.7969 67.9509 80.7887 67.9138 80.7763 67.8644C80.7722 67.8438 80.7681 67.8274 80.764 67.8191C80.7105 67.8809 80.6528 67.9303 80.5911 67.9632C80.5293 67.9961 80.4635 68.0126 80.3935 68.0126C80.27 68.0126 80.1753 67.9714 80.1053 67.8932C80.0353 67.815 79.9983 67.7121 79.9983 67.5927C79.9983 67.5104 80.0147 67.4404 80.0477 67.3786C80.0806 67.3169 80.1259 67.2675 80.1835 67.2346C80.2412 67.2016 80.3235 67.1728 80.4347 67.1481C80.5829 67.1152 80.6858 67.0822 80.7393 67.0575V67.0205C80.7393 66.9464 80.7228 66.8929 80.694 66.8641C80.6652 66.8311 80.6076 66.8188 80.5252 66.8188C80.4676 66.8188 80.4264 66.8311 80.3935 66.8599C80.3605 66.8846 80.3358 66.934 80.3153 66.9999L80.3194 66.9917ZM80.7434 67.2963C80.7022 67.3128 80.6405 67.3334 80.5499 67.3539C80.4635 67.3745 80.4058 67.3992 80.377 67.4198C80.3359 67.4569 80.3153 67.498 80.3153 67.5515C80.3153 67.6051 80.3317 67.6503 80.3647 67.6874C80.3976 67.7244 80.4388 67.745 80.4923 67.745C80.5499 67.745 80.6034 67.7244 80.657 67.6792C80.694 67.6462 80.7187 67.6051 80.7311 67.5557C80.7393 67.5227 80.7434 67.461 80.7434 67.3704V67.2963ZM81.3403 66.5512H81.6285V66.7447C81.7314 66.5965 81.8549 66.5182 81.999 66.5182C82.0772 66.5182 82.1431 66.5388 82.1966 66.5759C82.2542 66.6129 82.2995 66.6706 82.3325 66.7447C82.386 66.6665 82.4436 66.6129 82.5012 66.5759C82.563 66.5388 82.6247 66.5182 82.6947 66.5182C82.7812 66.5182 82.8553 66.5388 82.917 66.58C82.9788 66.6212 83.0241 66.687 83.0529 66.7694C83.0735 66.8311 83.0858 66.9299 83.0858 67.0658V67.9797H82.7729V67.1646C82.7729 67.0246 82.7606 66.9299 82.74 66.8888C82.7112 66.8352 82.6659 66.8064 82.6042 66.8064C82.5589 66.8064 82.5177 66.8229 82.4807 66.8558C82.4436 66.8888 82.4148 66.934 82.3983 66.9958C82.3819 67.0575 82.3736 67.1563 82.3736 67.2922V67.9756H82.0608V67.1934C82.0608 67.0534 82.0566 66.967 82.0443 66.9258C82.0319 66.8846 82.0155 66.8558 81.9908 66.8352C81.9661 66.8147 81.9373 66.8064 81.8961 66.8064C81.8467 66.8064 81.8055 66.8229 81.7644 66.8517C81.7273 66.8846 81.6985 66.9299 81.682 66.9876C81.6656 67.0452 81.6573 67.144 81.6573 67.2798V67.9714H81.3444V66.5429L81.3403 66.5512ZM83.6416 66.9917L83.3575 66.9299C83.3904 66.79 83.444 66.687 83.5222 66.6212C83.6004 66.5553 83.7157 66.5224 83.8721 66.5224C84.0121 66.5224 84.1191 66.5429 84.185 66.58C84.255 66.6212 84.3002 66.6706 84.3291 66.7323C84.3579 66.7941 84.3702 66.9052 84.3702 67.0699V67.5104C84.3661 67.6339 84.3702 67.7286 84.3826 67.7862C84.3908 67.8479 84.4114 67.9097 84.4402 67.9756H84.1273C84.1191 67.9509 84.1109 67.9138 84.0985 67.8644C84.0944 67.8438 84.0903 67.8274 84.0862 67.8191C84.0327 67.8809 83.975 67.9303 83.9133 67.9632C83.8515 67.9961 83.7857 68.0126 83.7157 68.0126C83.5922 68.0126 83.4975 67.9714 83.4275 67.8932C83.3575 67.815 83.3205 67.7121 83.3205 67.5927C83.3205 67.5104 83.3369 67.4404 83.3699 67.3786C83.4028 67.3169 83.4481 67.2675 83.5057 67.2346C83.5633 67.2016 83.6457 67.1728 83.7568 67.1481C83.905 67.1152 84.0079 67.0822 84.0615 67.0575V67.0205C84.0615 66.9464 84.045 66.8929 84.0162 66.8641C83.9874 66.8311 83.9297 66.8188 83.8474 66.8188C83.7898 66.8188 83.7486 66.8311 83.7157 66.8599C83.6827 66.8846 83.658 66.934 83.6375 66.9999L83.6416 66.9917ZM84.0656 67.2963C84.0244 67.3128 83.9627 67.3334 83.8721 67.3539C83.7857 67.3745 83.728 67.3992 83.6992 67.4198C83.658 67.4569 83.6375 67.498 83.6375 67.5515C83.6375 67.6051 83.6539 67.6503 83.6869 67.6874C83.7198 67.7244 83.7609 67.745 83.8145 67.745C83.8721 67.745 83.9256 67.7244 83.9791 67.6792C84.0162 67.6462 84.0409 67.6051 84.0532 67.5557C84.0615 67.5227 84.0656 67.461 84.0656 67.3704V67.2963ZM85.3171 67.9797V66.0078H85.6505V67.9797H85.3171Z" fill="#333333"/>
<path fill-rule="evenodd" clip-rule="evenodd" d="M87.042 67.9756H86.7291V67.2469C86.7291 67.0946 86.7209 66.9917 86.7085 66.9464C86.6962 66.9011 86.6715 66.8641 86.6427 66.8394C86.6138 66.8147 86.5768 66.8023 86.5315 66.8023C86.478 66.8023 86.4286 66.8188 86.3833 66.8558C86.338 66.8929 86.3092 66.9382 86.2927 66.9999C86.2763 67.0575 86.268 67.1687 86.268 67.3292V67.9756H85.9552V66.5471H86.2474V66.757C86.3504 66.5965 86.4821 66.5182 86.6427 66.5182C86.7126 66.5182 86.7744 66.5347 86.8361 66.5635C86.8938 66.5923 86.939 66.6335 86.9679 66.6788C86.9967 66.7241 87.0173 66.7776 87.0296 66.8394C87.042 66.897 87.0461 66.9834 87.0461 67.0946V67.9797L87.042 67.9756ZM88.454 67.9756H88.1617V67.7656C88.1123 67.8479 88.0547 67.9097 87.9888 67.9509C87.9229 67.992 87.8571 68.0126 87.7871 68.0126C87.6512 68.0126 87.5319 67.9467 87.4331 67.815C87.3343 67.6833 87.2849 67.498 87.2849 67.2593C87.2849 67.0205 87.3343 66.8311 87.4289 66.7076C87.5236 66.58 87.643 66.5182 87.7912 66.5182C87.9229 66.5182 88.0382 66.5841 88.137 66.7159V66.0037H88.4499V67.9756H88.454ZM87.6142 67.2346C87.6142 67.3869 87.6307 67.498 87.6677 67.568C87.7171 67.6668 87.7912 67.7162 87.8818 67.7162C87.9559 67.7162 88.0176 67.6792 88.067 67.6051C88.1164 67.531 88.1452 67.4198 88.1452 67.2716C88.1452 67.1069 88.1206 66.9876 88.0712 66.9176C88.0218 66.8435 87.96 66.8105 87.8818 66.8105C87.8036 66.8105 87.7459 66.8476 87.6924 66.9176C87.643 66.9876 87.6183 67.0946 87.6183 67.2387L87.6142 67.2346ZM88.6928 67.2428C88.6928 67.1152 88.7175 66.9958 88.771 66.8764C88.8245 66.757 88.8945 66.6706 88.9892 66.6088C89.0839 66.5471 89.1909 66.5141 89.3062 66.5141C89.4873 66.5141 89.6355 66.5841 89.7508 66.7241C89.866 66.8641 89.9237 67.0411 89.9237 67.2551C89.9237 67.4692 89.866 67.6503 89.7508 67.7944C89.6355 67.9385 89.4873 68.0085 89.3103 68.0085C89.1991 68.0085 89.0962 67.9797 88.9974 67.9179C88.8986 67.8603 88.8245 67.7738 88.771 67.6586C88.7175 67.5433 88.6928 67.4033 88.6928 67.2387V67.2428ZM89.018 67.2634C89.018 67.4033 89.0468 67.5145 89.1003 67.5886C89.158 67.6627 89.2238 67.7039 89.3062 67.7039C89.3885 67.7039 89.4585 67.6668 89.512 67.5886C89.5655 67.5145 89.5943 67.4033 89.5943 67.2593C89.5943 67.1152 89.5655 67.0123 89.512 66.9382C89.4585 66.8641 89.3885 66.8229 89.3062 66.8229C89.2238 66.8229 89.1538 66.8599 89.1003 66.9382C89.0427 67.0123 89.018 67.1234 89.018 67.2634ZM91.2575 67.9756H90.9446V67.2469C90.9446 67.0946 90.9364 66.9917 90.924 66.9464C90.9117 66.9011 90.887 66.8641 90.8582 66.8394C90.8293 66.8147 90.7923 66.8023 90.747 66.8023C90.6935 66.8023 90.6441 66.8188 90.5988 66.8558C90.5535 66.8929 90.5247 66.9382 90.5082 66.9999C90.4918 67.0575 90.4835 67.1687 90.4835 67.3292V67.9756H90.1707V66.5471H90.463V66.757C90.5659 66.5965 90.6976 66.5182 90.8582 66.5182C90.9281 66.5182 90.9899 66.5347 91.0516 66.5635C91.1093 66.5923 91.1546 66.6335 91.1834 66.6788C91.2122 66.7241 91.2328 66.7776 91.2451 66.8394C91.2575 66.897 91.2616 66.9834 91.2616 67.0946V67.9797L91.2575 67.9756ZM92.2661 67.5227L92.5789 67.5845C92.5378 67.7244 92.476 67.8274 92.3896 67.9015C92.3031 67.9714 92.192 68.0085 92.0644 68.0085C91.8585 68.0085 91.7021 67.9262 91.6033 67.7656C91.5251 67.6339 91.4839 67.4692 91.4839 67.2716C91.4839 67.0328 91.5374 66.8476 91.6403 66.7159C91.7433 66.58 91.875 66.5141 92.0314 66.5141C92.2084 66.5141 92.3484 66.5841 92.4513 66.7241C92.5542 66.8641 92.6036 67.0781 92.5995 67.3704H91.8091C91.8091 67.4816 91.8379 67.568 91.8873 67.6339C91.9367 67.6956 91.9944 67.7286 92.0685 67.7286C92.1179 67.7286 92.159 67.7121 92.192 67.6792C92.2249 67.6462 92.2496 67.5968 92.2702 67.5227H92.2661ZM92.2825 67.1399C92.2825 67.0287 92.2578 66.9464 92.2126 66.8888C92.1673 66.8311 92.1137 66.8023 92.0479 66.8023C91.9779 66.8023 91.9244 66.8311 91.8791 66.8929C91.8338 66.9546 91.8132 67.037 91.8132 67.1399H92.2825ZM92.7395 67.5721L93.0565 67.5145C93.0688 67.5886 93.0976 67.6421 93.1388 67.6792C93.18 67.7162 93.2376 67.7368 93.3117 67.7368C93.3941 67.7368 93.4558 67.7203 93.497 67.6833C93.5258 67.6586 93.5381 67.6256 93.5381 67.5804C93.5381 67.5515 93.5299 67.5268 93.5176 67.5104C93.5011 67.4939 93.4681 67.4774 93.4105 67.461C93.1553 67.3951 92.9947 67.3334 92.9247 67.2757C92.8301 67.1975 92.7848 67.0905 92.7848 66.9546C92.7848 66.8311 92.8259 66.7282 92.9083 66.6418C92.9906 66.5553 93.1182 66.5141 93.287 66.5141C93.4558 66.5141 93.5711 66.5471 93.6493 66.6088C93.7275 66.6747 93.7851 66.7694 93.814 66.8929L93.5176 66.9587C93.5052 66.9011 93.4805 66.8599 93.4435 66.8311C93.4064 66.8023 93.357 66.7858 93.2911 66.7858C93.2088 66.7858 93.147 66.7982 93.11 66.827C93.0853 66.8476 93.0729 66.8723 93.0729 66.9052C93.0729 66.934 93.0853 66.9546 93.1059 66.9752C93.1347 66.9999 93.2335 67.037 93.4023 67.0822C93.5711 67.1275 93.6905 67.1852 93.7563 67.251C93.8222 67.3169 93.8551 67.4116 93.8551 67.531C93.8551 67.6627 93.8098 67.7738 93.7193 67.8685C93.6287 67.9632 93.4929 68.0085 93.3117 68.0085C93.1512 68.0085 93.0194 67.9673 92.9247 67.8891C92.8301 67.8109 92.7683 67.7039 92.7395 67.568V67.5721ZM94.1309 66.3536V66.0037H94.4438V66.3536H94.1309ZM94.1309 67.9756V66.5471H94.4438V67.9756H94.1309ZM95.0037 66.9876L94.7196 66.9258C94.7526 66.7858 94.8061 66.6829 94.8843 66.617C94.9625 66.5512 95.0778 66.5182 95.2342 66.5182C95.3742 66.5182 95.4812 66.5388 95.5471 66.5759C95.6171 66.617 95.6624 66.6665 95.6912 66.7282C95.72 66.79 95.7323 66.9011 95.7323 67.0658V67.5063C95.7282 67.6298 95.7323 67.7244 95.7447 67.7821C95.7529 67.8438 95.7735 67.9056 95.8023 67.9714H95.4895C95.4812 67.9467 95.473 67.9097 95.4606 67.8603C95.4565 67.8397 95.4524 67.8232 95.4483 67.815C95.3948 67.8768 95.3371 67.9262 95.2754 67.9591C95.2136 67.992 95.1478 68.0085 95.0778 68.0085C94.9543 68.0085 94.8596 67.9673 94.7896 67.8891C94.7196 67.8109 94.6826 67.708 94.6826 67.5886C94.6826 67.5063 94.699 67.4363 94.732 67.3745C94.7649 67.3128 94.8102 67.2634 94.8678 67.2304C94.9255 67.1975 95.0078 67.1687 95.1189 67.144C95.2672 67.1111 95.3701 67.0781 95.4236 67.0534V67.0164C95.4236 66.9423 95.4071 66.8888 95.3783 66.8599C95.3495 66.827 95.2919 66.8147 95.2095 66.8147C95.1519 66.8147 95.1107 66.827 95.0778 66.8558C95.0448 66.8805 95.0201 66.9299 94.9996 66.9958L95.0037 66.9876ZM95.4277 67.2922C95.3865 67.3087 95.3248 67.3292 95.2342 67.3498C95.1478 67.3704 95.0901 67.3951 95.0613 67.4157C95.0201 67.4527 94.9996 67.4939 94.9996 67.5474C94.9996 67.6009 95.016 67.6462 95.049 67.6833C95.0819 67.7203 95.1231 67.7409 95.1766 67.7409C95.2342 67.7409 95.2877 67.7203 95.3413 67.675C95.3783 67.6421 95.403 67.6009 95.4154 67.5515C95.4236 67.5186 95.4277 67.4569 95.4277 67.3663V67.2922Z" fill="#333333"/>
</g>
<rect x="1" y="1" width="110" height="110" rx="9" stroke="#CCCCCC" stroke-width="2"/>
<defs>
<clipPath id="clip0_642_1148">
<rect x="2" y="2" width="108" height="108" rx="8" fill="white"/>
</clipPath>
</defs>
</svg>
