<svg width="112" height="112" viewBox="0 0 112 112" fill="none" xmlns="http://www.w3.org/2000/svg">
<g clip-path="url(#clip0_428_507)">
<rect x="2" y="2" width="108" height="108" rx="8" fill="white"/>
<path fill-rule="evenodd" clip-rule="evenodd" d="M92.4099 62.54H95.3008V49.419H92.4099V62.54ZM81.0981 55.9002V51.3901C81.0981 51.3901 86.4087 50.3529 86.4087 53.5327C86.4087 56.7125 81.0981 55.9002 81.0981 55.9002ZM78.1236 49.6622L78.1106 62.54H81.0981V57.7768C81.0981 57.7768 89.5439 58.6782 89.5439 53.4046C89.5439 48.5252 81.2306 49.52 78.1236 49.6622ZM67.471 52.8605C67.4504 51.6963 68.9132 51.1696 70.413 51.2043C72.0518 51.2424 73.7405 51.9005 73.7405 51.9005L74.4442 50.0456C74.4442 50.0456 72.5112 49.0128 69.6496 49.3343C66.8498 49.6492 64.3336 51.0393 64.3358 52.8605C64.3358 53.6055 64.6713 55.0368 66.2232 55.8676C67.6155 56.6126 69.668 56.9601 70.9289 57.6324C71.701 58.045 72.1169 58.6988 72.0768 59.2896C71.9844 60.6558 70.0177 61.0826 68.1498 60.9305C66.4241 60.7904 64.7832 60.1215 64.7832 60.1215L64.1435 62.073C64.1435 62.073 66.6435 62.9907 69.3574 62.8723C72.1148 62.7528 75.0871 61.58 75.1794 59.2255C75.363 54.5536 67.5134 55.2964 67.47 52.8594L67.471 52.8605ZM52.5961 57.0828L54.7714 51.5486L56.9151 57.0828H52.5961ZM52.9893 49.419L47.5734 62.54H50.7619L52.1758 58.9605H57.4332L58.9156 62.54L62.3223 62.5541L56.7566 49.419H52.9893Z" fill="#EC202B"/>
<path fill-rule="evenodd" clip-rule="evenodd" d="M95.5549 66.3388C95.5549 66.4843 95.5452 66.5842 95.5256 66.6396C95.5071 66.695 95.4724 66.7428 95.4224 66.783C95.3725 66.8232 95.3225 66.8438 95.2715 66.8438C95.215 66.8438 95.1672 66.8188 95.1292 66.7699C95.0912 66.72 95.0727 66.6581 95.0727 66.5853C95.0727 66.5202 95.0901 66.468 95.1238 66.4268C95.1585 66.3855 95.2313 66.3486 95.341 66.3149C95.4377 66.2867 95.5082 66.2606 95.5538 66.2389V66.3399L95.5549 66.3388ZM95.9198 66.8948C95.909 66.8134 95.9025 66.6907 95.9025 66.5256L95.9057 65.937C95.9057 65.7144 95.8883 65.5612 95.8547 65.4765C95.821 65.3918 95.7634 65.3256 95.6842 65.2767C95.6038 65.2278 95.4887 65.2029 95.3377 65.2029C95.1683 65.2029 95.038 65.2452 94.9468 65.3288C94.8566 65.4135 94.7915 65.5515 94.7524 65.7437L95.0771 65.8262C95.0999 65.7339 95.1292 65.6709 95.1661 65.6383C95.2031 65.6047 95.2541 65.5884 95.3182 65.5884C95.3823 65.5884 95.43 65.5992 95.4648 65.6199C95.4995 65.6405 95.5234 65.6687 95.5365 65.7013C95.5495 65.7339 95.556 65.8034 95.556 65.9098C95.4909 65.9478 95.3757 65.9891 95.2096 66.0336C95.0728 66.0706 94.9739 66.114 94.9109 66.1607C94.849 66.2085 94.8002 66.2726 94.7665 66.3529C94.7328 66.4333 94.7155 66.5267 94.7155 66.6342C94.7155 66.8047 94.7578 66.9404 94.8414 67.0436C94.925 67.1457 95.0337 67.1967 95.1651 67.1967C95.2443 67.1967 95.3182 67.1761 95.3877 67.1327C95.4572 67.0903 95.5234 67.0273 95.5843 66.9426L95.631 67.1511H95.985C95.9535 67.0599 95.9329 66.9741 95.9209 66.8937L95.9198 66.8948ZM94.0834 67.1522H94.4429V65.2474H94.0834V67.1522ZM94.0834 64.9889H94.4429V64.5219H94.0834V64.9889ZM93.258 65.9576C93.0799 65.899 92.9735 65.8555 92.9398 65.8273C92.9051 65.8001 92.8888 65.7654 92.8888 65.723C92.8888 65.6763 92.9073 65.6383 92.9453 65.609C92.9822 65.5797 93.0452 65.5645 93.1332 65.5645C93.2732 65.5645 93.358 65.6405 93.3873 65.7936L93.725 65.7057C93.6881 65.5287 93.6229 65.4005 93.5306 65.3212C93.4383 65.2419 93.3047 65.2018 93.1266 65.2018C92.9485 65.2018 92.7998 65.255 92.7031 65.3614C92.6054 65.4678 92.5565 65.6101 92.5565 65.7871C92.5565 65.9641 92.6065 66.1042 92.7053 66.2063C92.7846 66.2878 92.9713 66.3736 93.2656 66.4637C93.3232 66.4822 93.3623 66.5028 93.3819 66.5267C93.4003 66.5506 93.4101 66.5832 93.4101 66.6255C93.4101 66.6863 93.3884 66.7363 93.346 66.7743C93.3037 66.8123 93.2396 66.8318 93.1538 66.8318C92.992 66.8318 92.8964 66.7319 92.8649 66.5321L92.5065 66.6092C92.5413 66.8004 92.6151 66.9459 92.7259 67.0458C92.8367 67.1457 92.98 67.1957 93.1549 67.1957C93.3471 67.1957 93.498 67.1359 93.6077 67.0165C93.7163 66.897 93.7717 66.745 93.7717 66.5603C93.7717 66.4072 93.737 66.2845 93.6664 66.1922C93.5947 66.0999 93.459 66.0217 93.2591 65.9554L93.258 65.9576ZM91.4499 66.0369C91.4499 65.8957 91.4748 65.7849 91.5281 65.7057C91.5802 65.6275 91.6432 65.5884 91.7192 65.5884C91.7909 65.5884 91.8528 65.6264 91.9038 65.7002C91.9559 65.7752 91.9831 65.887 91.9863 66.0358H91.4499V66.0369ZM91.6975 65.2029C91.5237 65.2029 91.3814 65.2843 91.2718 65.445C91.1425 65.6362 91.0774 65.8914 91.0774 66.2107C91.0774 66.5299 91.1414 66.7862 91.2707 66.9654C91.3793 67.1207 91.5346 67.1978 91.7344 67.1978C91.8777 67.1978 92.0005 67.1511 92.1015 67.0588C92.2025 66.9665 92.2763 66.8242 92.3241 66.6331L91.969 66.5484C91.9299 66.7308 91.8538 66.821 91.7387 66.821C91.6584 66.821 91.59 66.7797 91.5335 66.6972C91.477 66.6146 91.4477 66.4974 91.4455 66.3464H92.3415V66.2888C92.3426 65.9196 92.2796 65.6405 92.1536 65.4515C92.0439 65.2865 91.8919 65.2039 91.6986 65.2039L91.6975 65.2029ZM90.6278 65.2973C90.5561 65.2343 90.467 65.2029 90.3628 65.2029C90.2726 65.2029 90.1901 65.23 90.1163 65.2832C90.0424 65.3375 89.9751 65.4179 89.9164 65.5254V65.2474H89.5841V67.1522H89.9425V66.2888C89.9425 66.0695 89.9523 65.9207 89.9718 65.8414C89.9914 65.7621 90.0261 65.7002 90.0739 65.6557C90.1228 65.6112 90.1771 65.5884 90.2368 65.5884C90.2835 65.5884 90.3248 65.6058 90.3617 65.6405C90.3986 65.6753 90.4236 65.7252 90.4377 65.7893C90.4507 65.8534 90.4573 65.9837 90.4573 66.1792V67.1533H90.8167V65.9685C90.8167 65.7817 90.8026 65.6383 90.7755 65.5395C90.7483 65.4407 90.6983 65.3603 90.6267 65.2973H90.6278ZM88.8435 66.6375C88.7794 66.7363 88.7023 66.7862 88.6111 66.7862C88.5198 66.7862 88.4406 66.7374 88.3743 66.6385C88.3092 66.5397 88.2766 66.3931 88.2766 66.1998C88.2766 66.0065 88.3092 65.8621 88.3743 65.7621C88.4395 65.6633 88.5166 65.6123 88.6067 65.6123C88.6969 65.6123 88.7772 65.6622 88.8413 65.7621C88.9075 65.8621 88.9401 66.0065 88.9401 66.1955C88.9401 66.3844 88.9075 66.5375 88.8435 66.6364V66.6375ZM88.6078 65.2029C88.4786 65.2029 88.3624 65.2409 88.2581 65.318C88.1549 65.3951 88.0713 65.5102 88.0062 65.6633C87.9421 65.8164 87.9095 65.9869 87.9095 66.1737C87.9095 66.5017 87.9758 66.7547 88.1082 66.9318C88.2407 67.1088 88.4069 67.1978 88.6089 67.1978C88.7338 67.1978 88.8489 67.1576 88.9542 67.0784C89.0596 66.9991 89.1443 66.8796 89.2084 66.7211C89.2735 66.5625 89.3061 66.3855 89.3061 66.1889C89.3061 65.925 89.2442 65.6948 89.1193 65.4982C88.9955 65.3006 88.8239 65.2029 88.6067 65.2029H88.6078ZM87.196 66.6516C87.1374 66.7504 87.07 66.7993 86.9908 66.7993C86.9321 66.7993 86.8789 66.7775 86.8322 66.7352C86.7855 66.6928 86.7486 66.6288 86.7236 66.5451C86.6986 66.4604 86.6856 66.3323 86.6856 66.1596C86.6856 65.9696 86.7149 65.8262 86.7725 65.7317C86.8311 65.6372 86.9006 65.5895 86.9832 65.5895C87.0657 65.5895 87.1417 65.6373 87.1982 65.7339C87.2547 65.8306 87.2829 65.988 87.2829 66.2085C87.2829 66.4061 87.2536 66.5549 87.196 66.6527V66.6516ZM87.2807 65.4678C87.2264 65.3788 87.1656 65.3125 87.1004 65.268C87.0353 65.2235 86.9647 65.2018 86.8887 65.2018C86.7279 65.2018 86.5933 65.2843 86.4836 65.4505C86.3739 65.6166 86.3185 65.862 86.3185 66.1878C86.3185 66.5136 86.375 66.7602 86.4879 66.935C86.5998 67.1088 86.7323 67.1967 86.8832 67.1967C86.9614 67.1967 87.0385 67.1696 87.1124 67.1153C87.1873 67.061 87.2514 66.9795 87.3068 66.872V67.1522H87.6391V64.5219H87.2807V65.4678ZM85.8461 65.2962C85.7744 65.2333 85.6865 65.2018 85.5811 65.2018C85.491 65.2018 85.4085 65.2289 85.3346 65.2821C85.2608 65.3364 85.1934 65.4168 85.1348 65.5243V65.2463H84.8025V67.1511H85.1619V66.2878C85.1619 66.0684 85.1717 65.9196 85.1913 65.8403C85.2108 65.7611 85.2456 65.6992 85.2944 65.6546C85.3422 65.6101 85.3976 65.5873 85.4573 65.5873C85.504 65.5873 85.5453 65.6047 85.5822 65.6394C85.6191 65.6742 85.6441 65.7241 85.6572 65.7882C85.6713 65.8523 85.6778 65.9826 85.6778 66.1781V67.1522H86.0362V65.9674C86.0362 65.7806 86.0231 65.6372 85.9949 65.5384C85.9677 65.4396 85.9178 65.3592 85.845 65.2962H85.8461ZM84.0716 67.1522H84.4473V64.523H84.0716V67.1522ZM82.801 65.2962C82.7293 65.2333 82.6403 65.2018 82.536 65.2018C82.4459 65.2018 82.3633 65.2289 82.2895 65.2821C82.2156 65.3364 82.1483 65.4168 82.0897 65.5243V65.2463H81.7573V67.1511H82.1157V66.2878C82.1157 66.0684 82.1255 65.9196 82.145 65.8403C82.1646 65.7611 82.1993 65.6992 82.2471 65.6546C82.296 65.6101 82.3503 65.5873 82.41 65.5873C82.4567 65.5873 82.498 65.6047 82.5349 65.6394C82.5718 65.6742 82.5968 65.7241 82.6098 65.7882C82.6229 65.8523 82.6305 65.9826 82.6305 66.1781V67.1522H82.9889V65.9674C82.9889 65.7806 82.9747 65.6372 82.9476 65.5384C82.9204 65.4396 82.8705 65.3592 82.7977 65.2962H82.801ZM81.0558 66.3377C81.0558 66.4832 81.046 66.5832 81.0265 66.6385C81.008 66.6939 80.9733 66.7417 80.9233 66.7819C80.8733 66.8221 80.8234 66.8427 80.7723 66.8427C80.7159 66.8427 80.6681 66.8177 80.6301 66.7689C80.5921 66.7189 80.5736 66.657 80.5736 66.5842C80.5736 66.5191 80.591 66.467 80.6246 66.4257C80.6594 66.3844 80.7311 66.3475 80.8418 66.3138C80.9385 66.2856 81.0091 66.2595 81.0547 66.2378V66.3388L81.0558 66.3377ZM81.4044 66.5256L81.4076 65.937C81.4076 65.7144 81.3903 65.5612 81.3566 65.4765C81.3219 65.3918 81.2654 65.3256 81.1861 65.2767C81.1068 65.2278 80.9906 65.2029 80.8397 65.2029C80.6692 65.2029 80.5388 65.2452 80.4487 65.3288C80.3575 65.4135 80.2934 65.5515 80.2532 65.7437L80.5779 65.8262C80.6007 65.7339 80.6301 65.6709 80.667 65.6383C80.7039 65.6047 80.7539 65.5884 80.8179 65.5884C80.882 65.5884 80.9298 65.5992 80.9646 65.6199C80.9993 65.6405 81.0232 65.6687 81.0362 65.7013C81.0493 65.7339 81.0558 65.8034 81.0558 65.9098C80.9906 65.9478 80.8755 65.9891 80.7093 66.0336C80.5725 66.0706 80.4726 66.114 80.4107 66.1607C80.3488 66.2085 80.2999 66.2726 80.2663 66.3529C80.2326 66.4333 80.2152 66.5267 80.2152 66.6342C80.2152 66.8047 80.2576 66.9404 80.3412 67.0436C80.4248 67.1457 80.5323 67.1967 80.6637 67.1967C80.743 67.1967 80.8169 67.1761 80.8864 67.1327C80.9559 67.0903 81.0221 67.0273 81.0829 66.9426L81.1296 67.1511H81.4837C81.4522 67.0599 81.4315 66.9741 81.4196 66.8937C81.4087 66.8123 81.4022 66.6896 81.4022 66.5245L81.4044 66.5256ZM79.7656 65.2658C79.7211 65.3071 79.67 65.3918 79.6125 65.5189V65.2485H79.2802V67.1533H79.6386V66.5636C79.6386 66.266 79.6462 66.0608 79.6635 65.95C79.6798 65.8382 79.707 65.7611 79.745 65.7198C79.783 65.6774 79.8264 65.6557 79.8764 65.6557C79.9296 65.6557 79.985 65.6829 80.0447 65.7382L80.1566 65.2984C80.0816 65.2343 80.0034 65.2039 79.922 65.2039C79.8634 65.2039 79.8112 65.2246 79.7656 65.2669V65.2658ZM78.5906 66.3388C78.5906 66.4843 78.5808 66.5842 78.5612 66.6396C78.5417 66.695 78.508 66.7428 78.4581 66.783C78.4081 66.8232 78.3582 66.8438 78.3071 66.8438C78.2496 66.8438 78.2029 66.8188 78.1649 66.7699C78.1268 66.72 78.1084 66.6581 78.1084 66.5853C78.1084 66.5202 78.1258 66.468 78.1594 66.4268C78.1931 66.3855 78.2659 66.3486 78.3766 66.3149C78.4733 66.2867 78.5439 66.2606 78.5895 66.2389V66.3399L78.5906 66.3388ZM78.9381 66.5267L78.9413 65.9381C78.9413 65.7154 78.924 65.5623 78.8903 65.4776C78.8555 65.3929 78.7991 65.3267 78.7187 65.2778C78.6394 65.2289 78.5232 65.2039 78.3723 65.2039C78.2029 65.2039 78.0725 65.2463 77.9813 65.3299C77.8912 65.4146 77.826 65.5525 77.7869 65.7448L78.1116 65.8273C78.1344 65.735 78.1638 65.672 78.2007 65.6394C78.2376 65.6058 78.2876 65.5895 78.3517 65.5895C78.4157 65.5895 78.4635 65.6003 78.4983 65.621C78.533 65.6416 78.5569 65.6698 78.5699 65.7024C78.583 65.735 78.5895 65.8045 78.5895 65.9109C78.5243 65.9489 78.4092 65.9902 78.243 66.0347C78.1062 66.0716 78.0074 66.1151 77.9444 66.1618C77.8825 66.2096 77.8336 66.2736 77.8 66.354C77.7652 66.4344 77.7489 66.5278 77.7489 66.6353C77.7489 66.8058 77.7913 66.9415 77.8749 67.0447C77.9585 67.1468 78.066 67.1978 78.1974 67.1978C78.2767 67.1978 78.3506 67.1772 78.4201 67.1338C78.4907 67.0914 78.5558 67.0284 78.6166 66.9437L78.6633 67.1522H79.0174C78.9859 67.061 78.9652 66.9752 78.9533 66.8948C78.9424 66.8134 78.9359 66.6907 78.9359 66.5256L78.9381 66.5267ZM76.9268 66.6016L76.6043 65.2485H76.222L76.7368 67.1598C76.7085 67.2977 76.6727 67.3933 76.6282 67.4465C76.5836 67.4986 76.5272 67.5247 76.4598 67.5247C76.4153 67.5247 76.3643 67.5171 76.3089 67.5008L76.3393 67.895C76.4055 67.9157 76.474 67.9254 76.5435 67.9254C76.6336 67.9254 76.7096 67.9081 76.7715 67.8755C76.8334 67.8418 76.8845 67.794 76.9236 67.7321C76.9637 67.6702 77.0039 67.5714 77.0441 67.4378L77.1364 67.0805L77.6132 65.2474H77.2418L76.9257 66.6005L76.9268 66.6016ZM75.6877 66.3399C75.6877 66.4854 75.6779 66.5853 75.6584 66.6407C75.6388 66.6961 75.6052 66.7439 75.5552 66.7841C75.5052 66.8242 75.4553 66.8449 75.4043 66.8449C75.3467 66.8449 75.3 66.8199 75.262 66.771C75.224 66.7211 75.2055 66.6592 75.2055 66.5864C75.2055 66.5212 75.2229 66.4691 75.2566 66.4279C75.2902 66.3866 75.363 66.3497 75.4738 66.316C75.5704 66.2878 75.641 66.2617 75.6866 66.24V66.341L75.6877 66.3399ZM76.0352 66.5278L76.0385 65.9392C76.0385 65.7165 76.0211 65.5634 75.9874 65.4787C75.9527 65.394 75.8962 65.3277 75.8169 65.2789C75.7366 65.23 75.6214 65.205 75.4705 65.205C75.3011 65.205 75.1708 65.2474 75.0795 65.331C74.9894 65.4157 74.9242 65.5536 74.8851 65.7458L75.2099 65.8284C75.2327 65.7361 75.262 65.6731 75.2989 65.6405C75.3358 65.6068 75.3858 65.5906 75.4509 65.5906C75.5161 65.5906 75.5628 65.6014 75.5976 65.622C75.6323 65.6427 75.6562 65.6709 75.6692 65.7035C75.6823 65.7361 75.6888 65.8056 75.6888 65.912C75.6236 65.95 75.5085 65.9913 75.3424 66.0358C75.2055 66.0727 75.1067 66.1162 75.0437 66.1629C74.9818 66.2107 74.9329 66.2747 74.8993 66.3551C74.8645 66.4355 74.8482 66.5289 74.8482 66.6364C74.8482 66.8069 74.8906 66.9426 74.9742 67.0458C75.0578 67.1479 75.1664 67.1989 75.2978 67.1989C75.3771 67.1989 75.451 67.1783 75.5205 67.1348C75.59 67.0925 75.6562 67.0295 75.717 66.9448L75.7637 67.1533H76.1178C76.0863 67.0621 76.0656 66.9763 76.0537 66.8959C76.0428 66.8145 76.0363 66.6918 76.0363 66.5267L76.0352 66.5278ZM74.201 66.6581C74.1445 66.7537 74.0772 66.8014 73.999 66.8014C73.9436 66.8014 73.8915 66.7786 73.8426 66.7341C73.7926 66.6896 73.7546 66.6233 73.7275 66.5375C73.7003 66.4507 73.6862 66.3258 73.6862 66.1618C73.6862 65.9685 73.7155 65.8251 73.7742 65.7317C73.8317 65.6383 73.9023 65.5916 73.9849 65.5916C74.0717 65.5916 74.1445 65.6394 74.201 65.7361C74.2574 65.8327 74.2857 65.9902 74.2857 66.2063C74.2857 66.4224 74.2574 66.5636 74.202 66.6592L74.201 66.6581ZM74.0826 65.205C74.0066 65.205 73.936 65.2267 73.8708 65.2713C73.8046 65.3158 73.7448 65.382 73.6905 65.4711V64.5252H73.3322V67.1555H73.6645V66.8753C73.7177 66.9806 73.7818 67.061 73.8567 67.1164C73.9327 67.1718 74.0087 67.2 74.0858 67.2C74.2379 67.2 74.3704 67.112 74.4833 66.9383C74.5963 66.7645 74.6527 66.5147 74.6527 66.1911C74.6527 65.8675 74.5974 65.621 74.4877 65.4548C74.3769 65.2876 74.2433 65.205 74.0837 65.205H74.0826ZM72.787 65.281C72.7197 65.23 72.6404 65.205 72.5481 65.205C72.4699 65.205 72.3971 65.23 72.3287 65.28C72.2603 65.3299 72.1951 65.4059 72.1354 65.508C72.0952 65.407 72.0431 65.331 71.979 65.28C71.9149 65.23 71.84 65.205 71.7531 65.205C71.6717 65.205 71.5957 65.23 71.5251 65.281C71.4545 65.331 71.3904 65.4081 71.3307 65.5091V65.2495H71.0016V67.1544H71.36V66.228C71.36 66.0412 71.3698 65.9087 71.3893 65.8306C71.4089 65.7524 71.4414 65.6926 71.486 65.6525C71.5305 65.6112 71.5783 65.5916 71.6315 65.5916C71.7097 65.5916 71.7629 65.6307 71.789 65.71C71.8085 65.7697 71.8183 65.9033 71.8183 66.1107V67.1555H72.1767V66.24C72.1767 65.9837 72.2016 65.8121 72.2494 65.7241C72.2983 65.6362 72.3624 65.5927 72.4416 65.5927C72.5101 65.5927 72.5589 65.6242 72.5883 65.6872C72.6176 65.7502 72.6317 65.8773 72.6317 66.0673V67.1576H72.9901V65.9381C72.9901 65.7426 72.9727 65.5971 72.938 65.5015C72.9032 65.407 72.8522 65.3343 72.7859 65.2832L72.787 65.281ZM69.8472 66.0391C69.8472 65.8979 69.8722 65.7871 69.9254 65.7078C69.9775 65.6296 70.0405 65.5906 70.1165 65.5906C70.1882 65.5906 70.2501 65.6286 70.3012 65.7024C70.3533 65.7773 70.3804 65.8892 70.3837 66.038H69.8472V66.0391ZM70.0948 65.205C69.921 65.205 69.7788 65.2865 69.6691 65.4472C69.5399 65.6383 69.4758 65.8935 69.4758 66.2128C69.4758 66.5321 69.5399 66.7884 69.668 66.9676C69.7766 67.1229 69.9319 67.2 70.1317 67.2C70.2762 67.2 70.3978 67.1533 70.4988 67.061C70.5998 66.9687 70.6736 66.8264 70.7214 66.6353L70.3663 66.5506C70.3272 66.733 70.2512 66.8232 70.1361 66.8232C70.0568 66.8232 69.9884 66.7819 69.9308 66.6994C69.8744 66.6168 69.845 66.4995 69.8429 66.3486H70.7388L70.741 66.291C70.741 65.9218 70.678 65.6427 70.5509 65.4537C70.4412 65.2886 70.2892 65.2061 70.0959 65.2061L70.0948 65.205ZM68.8351 65.5601C68.8025 65.6199 68.7612 65.6611 68.7113 65.6839C68.6613 65.7068 68.5657 65.7176 68.4256 65.7176H68.2171V64.9694H68.4007C68.5581 64.9694 68.6613 64.9791 68.7102 64.9998C68.759 65.0204 68.8003 65.0606 68.8329 65.1203C68.8665 65.18 68.8828 65.2539 68.8828 65.3419C68.8828 65.4298 68.8665 65.5004 68.834 65.5601H68.8351ZM68.8894 64.5621C68.8199 64.5371 68.6722 64.5241 68.4474 64.5241H67.8414V67.1544H68.2171V66.1629H68.4636C68.6917 66.1629 68.8513 66.1368 68.9447 66.0847C69.0381 66.0326 69.1163 65.9424 69.1782 65.8132C69.2401 65.685 69.2716 65.5254 69.2716 65.3353C69.2716 65.1257 69.2358 64.9552 69.1641 64.8228C69.0924 64.6903 69.0001 64.6034 68.8894 64.5632V64.5621ZM66.5523 65.281C66.486 65.23 66.4057 65.205 66.3134 65.205C66.2352 65.205 66.1624 65.23 66.094 65.28C66.0256 65.3299 65.9604 65.4059 65.9007 65.508C65.8605 65.407 65.8084 65.331 65.7443 65.28C65.6802 65.23 65.6053 65.205 65.5184 65.205C65.437 65.205 65.3609 65.23 65.2904 65.281C65.2198 65.331 65.1546 65.4081 65.096 65.5091V65.2495H64.7669V67.1544H65.1253V66.228C65.1253 66.0412 65.1351 65.9087 65.1546 65.8306C65.1742 65.7524 65.2067 65.6926 65.2513 65.6525C65.2958 65.6112 65.3447 65.5916 65.3979 65.5916C65.4761 65.5916 65.5282 65.6307 65.5543 65.71C65.5738 65.7697 65.5836 65.9033 65.5836 66.1107V67.1555H65.942V66.24C65.942 65.9837 65.9658 65.8121 66.0147 65.7241C66.0636 65.6362 66.1277 65.5927 66.2069 65.5927C66.2754 65.5927 66.3242 65.6242 66.3525 65.6872C66.3818 65.7502 66.3959 65.8773 66.3959 66.0673V67.1576H66.7543V65.9381C66.7543 65.7426 66.7369 65.5971 66.7022 65.5015C66.6674 65.407 66.6164 65.3343 66.5501 65.2832L66.5523 65.281ZM63.6125 66.0391C63.6125 65.8979 63.6375 65.7871 63.6896 65.7078C63.7417 65.6296 63.8058 65.5906 63.8807 65.5906C63.9524 65.5906 64.0132 65.6286 64.0654 65.7024C64.1164 65.7773 64.1446 65.8892 64.1468 66.038H63.6114L63.6125 66.0391ZM63.859 65.205C63.6853 65.205 63.543 65.2865 63.4333 65.4472C63.3041 65.6383 63.2389 65.8935 63.2389 66.2128C63.2389 66.5321 63.303 66.7884 63.4322 66.9676C63.5408 67.1229 63.6961 67.2 63.8959 67.2C64.0393 67.2 64.162 67.1533 64.263 67.061C64.364 66.9687 64.4379 66.8264 64.4856 66.6353L64.1305 66.5506C64.0914 66.733 64.0154 66.8232 63.9003 66.8232C63.8199 66.8232 63.7515 66.7819 63.695 66.6994C63.6386 66.6168 63.6092 66.4995 63.6071 66.3486H64.503L64.5052 66.291C64.5052 65.9218 64.4422 65.6427 64.3151 65.4537C64.2054 65.2886 64.0534 65.2061 63.8601 65.2061L63.859 65.205ZM62.9489 66.7819C62.9044 66.7819 62.8751 66.758 62.8599 66.7102C62.8523 66.6842 62.849 66.5875 62.849 66.4213V65.6525H63.0934V65.2506H62.849V64.5784L62.4907 64.8727V65.2517H62.3256V65.6535H62.4907V66.4854C62.4907 66.6983 62.4983 66.8394 62.5124 66.909C62.5308 67.0034 62.5678 67.0751 62.6231 67.1262C62.6774 67.1772 62.7513 67.2022 62.8414 67.2022C62.9457 67.2022 63.0391 67.1772 63.1227 67.1262L63.0923 66.7352C63.0304 66.7678 62.9826 66.7841 62.9489 66.7841V66.7819ZM61.6501 65.9598C61.472 65.9011 61.3656 65.8577 61.3319 65.8295C61.2971 65.8023 61.2809 65.7676 61.2809 65.7252C61.2809 65.6785 61.2993 65.6405 61.3373 65.6112C61.3742 65.5819 61.4372 65.5667 61.5252 65.5667C61.6653 65.5667 61.75 65.6427 61.7793 65.7958L62.1171 65.7078C62.0802 65.5308 62.015 65.4027 61.9227 65.3234C61.8304 65.2441 61.6957 65.2039 61.5187 65.2039C61.3417 65.2039 61.1918 65.2572 61.0941 65.3636C60.9974 65.47 60.9485 65.6123 60.9485 65.7893C60.9485 65.9663 60.9985 66.1064 61.0984 66.2085C61.1777 66.2899 61.3645 66.3757 61.6588 66.4659C61.7163 66.4843 61.7554 66.505 61.775 66.5289C61.7934 66.5527 61.8032 66.5853 61.8032 66.6277C61.8032 66.6885 61.7826 66.7385 61.7391 66.7765C61.6968 66.8145 61.6327 66.834 61.5469 66.834C61.3851 66.834 61.2885 66.7341 61.258 66.5343L60.8997 66.6114C60.9344 66.8025 61.0083 66.948 61.118 67.048C61.2287 67.1479 61.3721 67.1978 61.5469 67.1978C61.7391 67.1978 61.8912 67.1381 61.9998 67.0186C62.1095 66.8992 62.1638 66.7471 62.1638 66.5625C62.1638 66.4094 62.129 66.2867 62.0573 66.1944C61.9857 66.1021 61.8499 66.0239 61.6501 65.9576V65.9598ZM60.2991 64.9911H60.6575V64.5241H60.2991V64.9911ZM60.2991 67.1544H60.6575V65.2495H60.2991V67.1544ZM59.7235 65.7176C59.6388 65.647 59.502 65.5808 59.313 65.5178C59.1338 65.4591 59.0198 65.4048 58.9699 65.356C58.9199 65.3071 58.8949 65.2474 58.8949 65.1757C58.8949 65.104 58.9221 65.0421 58.9775 64.9933C59.0328 64.9444 59.111 64.9194 59.212 64.9194C59.313 64.9194 59.3923 64.9476 59.4466 65.0041C59.502 65.0606 59.5378 65.1594 59.5541 65.3006L59.932 65.2767C59.9244 65.0215 59.8593 64.8238 59.7366 64.687C59.6138 64.5491 59.4423 64.4807 59.2229 64.4807C59.0774 64.4807 58.9546 64.51 58.8547 64.5686C58.7559 64.6273 58.6777 64.7131 58.6212 64.8282C58.5648 64.9433 58.5365 65.0725 58.5365 65.2159C58.5365 65.3386 58.5583 65.4537 58.6028 65.5601C58.6473 65.6677 58.706 65.7535 58.7809 65.8197C58.8547 65.8859 58.9731 65.9457 59.1338 66.0021C59.313 66.0651 59.426 66.1107 59.4727 66.1379C59.5194 66.165 59.5541 66.1987 59.5769 66.2411C59.5997 66.2834 59.6106 66.3334 59.6106 66.3931C59.6106 66.4952 59.578 66.5799 59.5129 66.6494C59.4477 66.7178 59.3576 66.7526 59.2446 66.7526C59.0144 66.7526 58.8786 66.5842 58.8374 66.2487L58.4692 66.2986C58.5213 66.9003 58.7755 67.2011 59.2337 67.2011C59.4933 67.2011 59.6833 67.1229 59.805 66.9676C59.9266 66.8123 59.9874 66.6201 59.9874 66.392C59.9874 66.2345 59.9657 66.0999 59.9212 65.9891C59.8767 65.8783 59.8126 65.7882 59.7279 65.7187L59.7235 65.7176ZM57.1085 64.9922H57.4679V64.5252H57.1085V64.9922ZM57.1085 67.1555H57.4679V65.2506H57.1085V67.1555ZM56.2831 65.9609C56.105 65.9022 55.9996 65.8588 55.9649 65.8306C55.9312 65.8034 55.9139 65.7687 55.9139 65.7263C55.9139 65.6796 55.9323 65.6416 55.9703 65.6123C56.0072 65.583 56.0702 65.5677 56.1582 65.5677C56.2983 65.5677 56.383 65.6438 56.4134 65.7969L56.7501 65.7089C56.7132 65.5319 56.648 65.4038 56.5557 65.3245C56.4634 65.2452 56.3287 65.205 56.1517 65.205C55.9747 65.205 55.8248 65.2582 55.7271 65.3647C55.6304 65.4711 55.5815 65.6134 55.5815 65.7904C55.5815 65.9674 55.6315 66.1075 55.7303 66.2096C55.8096 66.291 55.9964 66.3768 56.2907 66.467C56.3493 66.4854 56.3873 66.506 56.408 66.5299C56.4264 66.5538 56.4362 66.5864 56.4362 66.6288C56.4362 66.6896 56.4145 66.7395 56.3721 66.7775C56.3298 66.8156 56.2657 66.8351 56.1799 66.8351C56.0181 66.8351 55.9215 66.7352 55.89 66.5354L55.5316 66.6125C55.5663 66.8036 55.6402 66.9491 55.7499 67.049C55.8606 67.149 56.004 67.1989 56.1788 67.1989C56.3711 67.1989 56.522 67.1392 56.6317 67.0197C56.7414 66.9003 56.7957 66.7482 56.7957 66.5636C56.7957 66.4105 56.7609 66.2878 56.6903 66.1955C56.6187 66.1031 56.4829 66.025 56.2831 65.9587V65.9609ZM54.9527 66.341C54.9527 66.4865 54.943 66.5864 54.9234 66.6418C54.9039 66.6972 54.8702 66.745 54.8203 66.7851C54.7703 66.8253 54.7203 66.846 54.6693 66.846C54.6128 66.846 54.565 66.821 54.527 66.7721C54.489 66.7222 54.4706 66.6603 54.4706 66.5875C54.4706 66.5223 54.4879 66.4702 54.5216 66.4289C54.5564 66.3877 54.628 66.3507 54.7388 66.3171C54.8355 66.2888 54.9061 66.2628 54.9517 66.2411V66.3421L54.9527 66.341ZM55.3003 66.5289L55.3035 65.9402C55.3035 65.7176 55.2861 65.5645 55.2525 65.4798C55.2177 65.3951 55.1613 65.3288 55.082 65.28C55.0027 65.2311 54.8865 65.2061 54.7355 65.2061C54.5661 65.2061 54.4358 65.2485 54.3446 65.3321C54.2545 65.4168 54.1893 65.5547 54.1502 65.7469L54.4749 65.8295C54.4977 65.7372 54.527 65.6742 54.565 65.6416C54.602 65.6079 54.6519 65.5916 54.716 65.5916C54.7801 65.5916 54.8279 65.6025 54.8626 65.6231C54.8974 65.6438 54.9213 65.672 54.9343 65.7046C54.9473 65.7372 54.9538 65.8067 54.9538 65.9131C54.8887 65.9511 54.7736 65.9924 54.6074 66.0369C54.4706 66.0738 54.3717 66.1173 54.3088 66.164C54.2468 66.2117 54.198 66.2758 54.1643 66.3562C54.1306 66.4365 54.1133 66.5299 54.1133 66.6375C54.1133 66.808 54.1556 66.9437 54.2392 67.0469C54.3229 67.149 54.4304 67.2 54.5629 67.2C54.6422 67.2 54.716 67.1794 54.7855 67.1359C54.8561 67.0936 54.9213 67.0306 54.9821 66.9459L55.0288 67.1544H55.3828C55.3513 67.0632 55.3307 66.9774 55.3187 66.897C55.3079 66.8156 55.3014 66.6928 55.3014 66.5278L55.3003 66.5289ZM53.4812 64.9922H53.8407V64.5252H53.4812V64.9922ZM53.4812 67.1555H53.8407V65.2506H53.4812V67.1555ZM52.6559 65.9609C52.4778 65.9022 52.3713 65.8588 52.3377 65.8306C52.3029 65.8034 52.2866 65.7687 52.2866 65.7263C52.2866 65.6796 52.3051 65.6416 52.3431 65.6123C52.38 65.583 52.443 65.5677 52.531 65.5677C52.6711 65.5677 52.7558 65.6438 52.7851 65.7969L53.1228 65.7089C53.0859 65.5319 53.0208 65.4038 52.9285 65.3245C52.8361 65.2452 52.7015 65.205 52.5255 65.205C52.3398 65.205 52.1987 65.2582 52.1009 65.3647C52.0032 65.4711 51.9543 65.6134 51.9543 65.7904C51.9543 65.9674 52.0043 66.1075 52.1042 66.2096C52.1835 66.291 52.3702 66.3768 52.6646 66.467C52.7232 66.4854 52.7612 66.506 52.7818 66.5299C52.8003 66.5538 52.809 66.5864 52.809 66.6288C52.809 66.6896 52.7884 66.7395 52.7449 66.7775C52.7026 66.8156 52.6385 66.8351 52.5527 66.8351C52.392 66.8351 52.2953 66.7352 52.2638 66.5354L51.9044 66.6125C51.9402 66.8036 52.013 66.9491 52.1237 67.049C52.2345 67.149 52.3778 67.1989 52.5527 67.1989C52.7449 67.1989 52.8959 67.1392 53.0056 67.0197C53.1142 66.9003 53.1695 66.7482 53.1695 66.5636C53.1695 66.4105 53.1348 66.2878 53.0642 66.1955C52.9925 66.1031 52.8568 66.025 52.657 65.9587L52.6559 65.9609ZM51.2853 66.6407C51.2213 66.7395 51.1431 66.7895 51.054 66.7895C50.965 66.7895 50.8824 66.7406 50.8173 66.6418C50.751 66.543 50.7184 66.3964 50.7184 66.2031C50.7184 66.0108 50.751 65.8653 50.8162 65.7654C50.8813 65.6666 50.9585 65.6155 51.0486 65.6155C51.1387 65.6155 51.218 65.6655 51.2832 65.7654C51.3483 65.8653 51.3809 66.0097 51.3809 66.1987C51.3809 66.3877 51.3483 66.5408 51.2842 66.6396L51.2853 66.6407ZM51.0497 65.2061C50.9204 65.2061 50.8042 65.2441 50.7 65.3212C50.5968 65.3983 50.5132 65.5134 50.448 65.6666C50.384 65.8197 50.3514 65.9902 50.3514 66.177C50.3514 66.505 50.4176 66.758 50.5501 66.935C50.6826 67.112 50.8498 67.2011 51.0508 67.2011C51.1767 67.2011 51.2919 67.1609 51.3961 67.0816C51.5004 67.0023 51.5862 66.8829 51.6502 66.7243C51.7154 66.5658 51.748 66.3888 51.748 66.1922C51.748 65.9283 51.6861 65.6981 51.5623 65.5015C51.4385 65.3039 51.2669 65.2061 51.0497 65.2061ZM49.6107 65.9609C49.4326 65.9022 49.3262 65.8588 49.2925 65.8306C49.2578 65.8034 49.2415 65.7687 49.2415 65.7263C49.2415 65.6796 49.26 65.6416 49.2969 65.6123C49.3338 65.583 49.3968 65.5677 49.4847 65.5677C49.6248 65.5677 49.7096 65.6438 49.74 65.7969L50.0766 65.7089C50.0397 65.5319 49.9745 65.4038 49.8822 65.3245C49.7899 65.2452 49.6553 65.205 49.4782 65.205C49.3012 65.205 49.1513 65.2582 49.0547 65.3647C48.957 65.4711 48.9081 65.6134 48.9081 65.7904C48.9081 65.9674 48.958 66.1075 49.058 66.2096C49.1383 66.291 49.324 66.3768 49.6183 66.467C49.677 66.4854 49.715 66.506 49.7356 66.5299C49.7541 66.5538 49.7628 66.5864 49.7628 66.6288C49.7628 66.6896 49.741 66.7395 49.6987 66.7775C49.6563 66.8156 49.5923 66.8351 49.5065 66.8351C49.3447 66.8351 49.248 66.7352 49.2176 66.5354L48.8592 66.6125C48.894 66.8036 48.9678 66.9491 49.0786 67.049C49.1894 67.149 49.3327 67.1989 49.5076 67.1989C49.6998 67.1989 49.8507 67.1392 49.9604 67.0197C50.069 66.9003 50.1244 66.7482 50.1244 66.5636C50.1244 66.4105 50.0896 66.2878 50.018 66.1955C49.9463 66.1031 49.8106 66.025 49.6107 65.9587V65.9609ZM47.5843 66.1151L47.8373 65.1388L48.0947 66.1151H47.5843ZM47.6407 64.5252L46.9131 67.1555H47.3138L47.4681 66.5603H48.2163L48.3792 67.1555H48.7886L48.0404 64.5252H47.6407Z" fill="#234497"/>
<path fill-rule="evenodd" clip-rule="evenodd" d="M24.7284 51.4617C29.5339 51.4617 33.4294 55.3583 33.4294 60.1627C33.4294 64.9672 29.5339 68.8637 24.7284 68.8637C19.9228 68.8637 16.0273 64.9683 16.0273 60.1627C16.0273 55.3572 19.9228 51.4617 24.7284 51.4617Z" fill="#204195"/>
<path fill-rule="evenodd" clip-rule="evenodd" d="M32.6496 43.1365C36.6689 43.1365 39.9269 46.3945 39.9269 50.4137C39.9269 54.433 36.6689 57.691 32.6496 57.691C28.6303 57.691 25.3723 54.433 25.3723 50.4137C25.3723 46.3945 28.6303 43.1365 32.6496 43.1365Z" fill="#0673BA"/>
<path fill-rule="evenodd" clip-rule="evenodd" d="M40.7653 50.8644C44.1221 50.8644 46.8425 53.5849 46.8425 56.9417C46.8425 60.2985 44.1221 63.0189 40.7653 63.0189C37.4085 63.0189 34.688 60.2974 34.688 56.9417C34.688 53.5859 37.4095 50.8644 40.7653 50.8644Z" fill="#21ADE3"/>
</g>
<rect x="1" y="1" width="110" height="110" rx="9" stroke="#CCCCCC" stroke-width="2"/>
<defs>
<clipPath id="clip0_428_507">
<rect x="2" y="2" width="108" height="108" rx="8" fill="white"/>
</clipPath>
</defs>
</svg>
