<svg width="112" height="112" viewBox="0 0 112 112" fill="none" xmlns="http://www.w3.org/2000/svg">
<g clip-path="url(#clip0_324_36)">
<rect x="2" y="2" width="108" height="108" rx="8" fill="white"/>
<path fill-rule="evenodd" clip-rule="evenodd" d="M96 55.9971C96 33.9061 78.0887 15.9995 56.0024 15.9995C33.9085 15.9995 16 33.9061 16 55.9971C16 78.0854 33.9085 95.9976 56.0024 95.9976C78.0887 95.9976 96 78.0854 96 55.9971ZM46.0259 88.6816C49.1991 88.6816 51.5667 88.3708 51.7373 84.0555H59.5471C59.7177 88.3708 62.1156 88.511 65.2092 88.511V90.6995H46.0259V88.6816ZM66.2878 52.5102C70.4694 53.8343 80.2838 58.3097 80.2838 67.5687C80.2838 76.7006 71.676 82.14 61.4588 82.14H31.7162L31.7466 79.7705C37.1423 79.7705 38.7403 79.0597 38.7403 73.5502V38.7019C38.7403 32.5687 36.3196 32.1849 31.7361 32.1849V29.9803C32.5948 29.9604 43.3996 29.9746 51.7373 29.9803C51.5667 25.6603 49.1992 25.3466 46.026 25.3466V23.3325H65.2092V25.52C62.1156 25.52 59.7177 25.6603 59.5471 29.9803H61.4588C65.7731 29.9803 76.3675 31.4655 76.3874 40.188C76.4026 46.3088 72.2683 50.2024 66.2878 52.5102ZM72.0569 69.034C72.0569 61.79 67.083 56.9677 61.0323 54.0456C57.0857 54.9034 52.4529 55.4057 48.1196 55.4427L49.2086 52.7405C50.1924 52.7083 50.9374 52.6477 51.7373 52.6003V34.4804H59.5471V51.4288C66.0916 49.4972 68.8316 45.6132 68.8316 41.1036C68.8316 35.324 64.4491 32.564 59.5272 32.564L46.5652 32.5687V73.7104C46.5652 78.0655 49.184 78.9782 51.7373 79.0237V57.6245C54.665 57.5221 57.8107 57.1061 59.5471 56.7023V79.0237C65.7883 79.018 72.0569 75.2154 72.0569 69.034Z" fill="#004F91"/>
</g>
<rect x="1" y="1" width="110" height="110" rx="9" stroke="#CCCCCC" stroke-width="2"/>
<defs>
<clipPath id="clip0_324_36">
<rect x="2" y="2" width="108" height="108" rx="8" fill="white"/>
</clipPath>
</defs>
</svg>
