<svg width="112" height="112" viewBox="0 0 112 112" fill="none" xmlns="http://www.w3.org/2000/svg">
<g clip-path="url(#clip0_528_620)">
<rect x="2" y="2" width="108" height="108" rx="8" fill="white"/>
<path d="M41.9815 38.784C39.2112 38.784 36.6562 39.6581 34.5449 41.1374V30.339C34.5449 28.8732 33.3615 27.6898 31.8957 27.6898H31.7613C30.2955 27.6898 29.0986 28.8866 29.0986 30.3524V51.2365C29.0986 51.3844 29.0986 51.5323 29.0986 51.6803C29.0986 51.8282 29.0986 51.9761 29.0986 52.124V52.2719C29.0986 52.393 29.0986 52.5274 29.1255 52.6485C29.6231 59.3185 35.177 64.563 41.968 64.563C48.7591 64.563 54.8508 58.794 54.8508 51.6803C54.8508 44.5665 49.0818 38.7975 41.968 38.7975M41.968 59.5605C37.6782 59.5605 34.1953 56.0776 34.1953 51.8013C34.1953 47.525 37.6782 44.0286 41.968 44.0286C46.2578 44.0286 49.7273 47.5115 49.7273 51.8013C49.7273 56.0911 46.2578 59.5605 41.968 59.5605Z" fill="#27C4EE"/>
<path d="M69.8584 51.8416C69.8584 44.7682 64.1297 39.0395 57.0563 39.0395C49.9828 39.0395 44.792 44.2572 44.2945 50.8734C44.281 50.9944 44.2676 51.1155 44.2676 51.2365V51.3844C44.2676 51.5323 44.2676 51.6803 44.2676 51.8282C44.2676 51.9761 44.2676 52.124 44.2676 52.2719V73.0081C44.2676 74.4604 45.4509 75.6438 46.9033 75.6438H47.0378C48.4901 75.6438 49.6735 74.4604 49.6735 73.0081V62.2769C51.7579 63.7562 54.2995 64.6168 57.0563 64.6168C64.1297 64.6168 69.8584 58.8882 69.8584 51.8147M64.7752 51.6937C64.7752 55.9566 61.3192 59.4126 57.0563 59.4126C52.7934 59.4126 49.3373 55.9566 49.3373 51.6937C49.3373 47.4308 52.7934 43.9748 57.0563 43.9748C61.3192 43.9748 64.7752 47.4308 64.7752 51.6937Z" fill="#1079BF"/>
<path d="M49.539 49.9993C53.1968 49.9052 51.3141 46.1802 53.0758 45.1178C52.2151 43.652 51.0586 42.3745 49.7004 41.366C46.8764 40.5053 45.182 42.5359 46.0964 45.212C47.8043 46.2878 49.0549 47.9822 49.5256 49.9993" fill="#27C4EE"/>
<path d="M59.423 51.6265C59.423 58.7402 65.1921 64.5092 72.3059 64.5092C79.4197 64.5092 84.6508 59.2512 85.1484 52.5947C85.1618 52.4737 85.1753 52.3526 85.1753 52.2182V52.0702C85.1753 51.9223 85.1753 51.7744 85.1753 51.613C85.1753 51.4516 85.1753 51.3172 85.1753 51.1692V30.2986C85.1753 28.8328 83.9784 27.636 82.5126 27.636H82.3782C80.9124 27.636 79.7155 28.8328 79.7155 30.2986V41.097C77.6177 39.6178 75.0492 38.7302 72.279 38.7302C65.1652 38.7302 59.3961 44.4992 59.3961 51.613M64.5197 51.734C64.5197 47.4443 68.0026 43.9748 72.2924 43.9748C76.5822 43.9748 80.0652 47.4443 80.0652 51.734C80.0652 56.0238 76.5822 59.5067 72.2924 59.5067C68.0026 59.5067 64.5197 56.0238 64.5197 51.734Z" fill="#21376C"/>
<path d="M64.6542 53.0788C64.2776 55.2439 63.0001 57.0727 61.225 58.2158C61.494 60.986 62.4219 62.3442 64.7483 62.0752C66.1065 61.0532 67.2496 59.7622 68.1102 58.283C67.9623 54.5849 66.8596 53.5898 64.6407 53.0788" fill="#1079BF"/>
<path d="M16.041 84.062H15.7451V80.216H16.3906V81.6011C16.5116 81.3859 16.6327 81.2515 16.7537 81.1842C16.8747 81.117 17.0226 81.0767 17.184 81.0767C17.4933 81.0767 17.7488 81.2111 17.964 81.4801C18.1657 81.749 18.2733 82.1121 18.2733 82.5828C18.2733 83.0131 18.1657 83.3762 17.9774 83.672C17.7757 83.9679 17.4799 84.1292 17.1033 84.1292C16.7268 84.1292 16.4309 83.9544 16.2158 83.6048L16.041 84.0755V84.062ZM16.3906 82.8517C16.3906 83.1072 16.4444 83.2955 16.552 83.4165C16.6596 83.5376 16.8075 83.6048 16.9823 83.6048C17.1571 83.6048 17.2916 83.5376 17.4126 83.3896C17.5337 83.2552 17.5874 82.9728 17.6009 82.5693C17.6009 82.2735 17.5471 82.0449 17.4395 81.8835C17.3319 81.7221 17.1975 81.6415 17.0092 81.6415C16.8344 81.6415 16.6865 81.7087 16.5654 81.8432C16.4578 81.9776 16.3906 82.1794 16.3906 82.4214V82.8517Z" fill="#ED1C24"/>
<path d="M20.667 83.161L21.2452 83.2417C21.1645 83.4972 21.0166 83.7124 20.8014 83.8737C20.5863 84.0351 20.3173 84.1292 19.9811 84.1292C19.5911 84.1292 19.2684 83.9948 19.0263 83.7258C18.7843 83.4569 18.6633 83.1072 18.6633 82.65C18.6633 82.1928 18.7843 81.8701 19.0263 81.5877C19.2684 81.3053 19.5911 81.1573 20.008 81.1573C20.4249 81.1573 20.7342 81.2918 20.9494 81.5742C21.178 81.8566 21.2855 82.2062 21.2855 82.65V82.7173H19.3222C19.3222 82.9055 19.3356 83.0669 19.376 83.1879C19.4163 83.309 19.4836 83.4031 19.5911 83.4972C19.6987 83.5913 19.8332 83.6317 19.9946 83.6317C20.3173 83.6317 20.5325 83.4838 20.6401 83.1745M20.5997 82.3273C20.5997 82.1256 20.5325 81.9507 20.4114 81.8297C20.2904 81.6952 20.1425 81.628 19.9542 81.628C19.766 81.628 19.6315 81.6952 19.5105 81.8163C19.3894 81.9373 19.3222 82.1121 19.2953 82.3273H20.5997Z" fill="#ED1C24"/>
<path d="M22.5362 84.062H21.8907V81.2111H22.4689V81.897C22.5496 81.628 22.6707 81.4397 22.8051 81.3187C22.9531 81.1977 23.101 81.1304 23.2489 81.1304C23.2758 81.1304 23.3027 81.1304 23.3296 81.1304V81.8163C23.0068 81.8163 22.7917 81.9239 22.6841 82.1256C22.5765 82.3407 22.5227 82.5424 22.5227 82.7307V84.0486L22.5362 84.062Z" fill="#ED1C24"/>
<path d="M23.4506 83.4165L24.0558 83.2955C24.1499 83.5241 24.3516 83.6451 24.6609 83.6451C25.0643 83.6451 25.2526 83.5241 25.2526 83.2955C25.2526 83.2148 25.2257 83.161 25.1585 83.1072C25.0912 83.0534 25.024 83.0266 24.9433 83.0131L24.4188 82.919C23.8406 82.8114 23.5582 82.529 23.5582 82.0718C23.5582 81.8163 23.6523 81.6011 23.8271 81.4263C24.0154 81.2515 24.2844 81.1573 24.6475 81.1573C25.2526 81.1573 25.6157 81.3725 25.7502 81.8163L25.1719 81.9373C25.1181 81.7221 24.9433 81.6146 24.6609 81.6146C24.3247 81.6146 24.1499 81.7221 24.1499 81.9373C24.1499 82.0852 24.2844 82.1928 24.5668 82.2466L25.1719 82.3676C25.6426 82.4618 25.8846 82.7442 25.8846 83.1879C25.8846 83.4972 25.7636 83.7393 25.5215 83.8872C25.2795 84.0351 24.9836 84.1158 24.6475 84.1158C24.3516 84.1158 24.0961 84.062 23.8809 83.941C23.6523 83.82 23.5044 83.6451 23.4506 83.4031" fill="#ED1C24"/>
<path d="M28.87 84.062H28.2514C28.1976 83.8872 28.1707 83.6989 28.1573 83.4838C27.9825 83.9141 27.6597 84.1158 27.1891 84.1158C26.9067 84.1158 26.678 84.0351 26.5032 83.8737C26.3284 83.7124 26.2477 83.4972 26.2477 83.2417C26.2477 82.5828 26.826 82.26 27.969 82.26C28.0094 82.26 28.0766 82.26 28.1573 82.26V82.0449C28.1573 81.749 27.9556 81.6011 27.5521 81.6011C27.1487 81.6011 26.9336 81.749 26.8932 82.0449L26.3419 81.9642C26.3688 81.7221 26.4898 81.5339 26.7049 81.3725C26.9201 81.2246 27.2294 81.1439 27.6328 81.1439C27.848 81.1439 28.0363 81.1573 28.1707 81.1977C28.3052 81.238 28.4262 81.2918 28.5204 81.3859C28.6145 81.4801 28.6817 81.5742 28.7221 81.6683C28.7624 81.7759 28.7759 81.9507 28.7759 82.1928V83.4838C28.7759 83.672 28.8028 83.8603 28.8566 84.062M28.1438 82.6097C27.3101 82.6097 26.8932 82.8114 26.8932 83.2014C26.8932 83.3224 26.9336 83.4165 27.0142 83.4972C27.0949 83.5779 27.2294 83.6182 27.3908 83.6182C27.6328 83.6182 27.8211 83.5376 27.9421 83.3896C28.0632 83.2417 28.1304 83.0534 28.1304 82.8652V82.6097H28.1438Z" fill="#ED1C24"/>
<path d="M33.8053 84.062H33.1329V82.2869C33.1329 81.9238 32.9715 81.7356 32.6488 81.7356C32.4605 81.7356 32.2992 81.8028 32.1916 81.9373C32.0705 82.0718 32.0168 82.2869 32.0168 82.5559V84.0486H31.3309V82.2735C31.3309 81.897 31.183 81.7087 30.8737 81.7087C30.6854 81.7087 30.5241 81.7894 30.403 81.9373C30.282 82.0852 30.2148 82.2869 30.2148 82.5559V84.0486H29.5558V81.1977H30.1744V81.8028C30.3761 81.359 30.6989 81.1439 31.1292 81.1439C31.5595 81.1439 31.8285 81.359 31.9495 81.8028C32.1781 81.359 32.5009 81.1439 32.9043 81.1439C33.1867 81.1439 33.4019 81.2246 33.5632 81.3994C33.7246 81.5742 33.8187 81.7894 33.8187 82.0314V84.0486L33.8053 84.062Z" fill="#ED1C24"/>
<path d="M37.0058 84.062H36.3872C36.3335 83.8872 36.2931 83.6989 36.2931 83.4838C36.1183 83.9141 35.7955 84.1158 35.3249 84.1158C35.0425 84.1158 34.8139 84.0351 34.639 83.8737C34.4642 83.7124 34.3835 83.4972 34.3835 83.2417C34.3835 82.5828 34.9618 82.26 36.1048 82.26C36.1452 82.26 36.2124 82.26 36.2931 82.26V82.0449C36.2931 81.749 36.0914 81.6011 35.688 81.6011C35.2845 81.6011 35.0694 81.749 35.029 82.0449L34.4777 81.9642C34.5046 81.7221 34.6256 81.5339 34.8408 81.3725C35.0559 81.2246 35.3652 81.1439 35.7687 81.1439C35.9838 81.1439 36.1721 81.1573 36.3066 81.1977C36.441 81.238 36.5621 81.2918 36.6562 81.3859C36.7503 81.4801 36.8176 81.5742 36.8579 81.6683C36.8983 81.7759 36.9117 81.9507 36.9117 82.1928V83.4838C36.9117 83.672 36.9386 83.8603 36.9924 84.062M36.2797 82.6097C35.4459 82.6097 35.029 82.8114 35.029 83.2014C35.029 83.3224 35.0694 83.4165 35.1501 83.4972C35.2307 83.5779 35.3652 83.6182 35.5266 83.6182C35.7687 83.6182 35.9569 83.5376 36.0779 83.3896C36.199 83.2417 36.2662 83.0534 36.2662 82.8652V82.6097H36.2797Z" fill="#ED1C24"/>
<path d="M43.3935 84.062H42.7211V82.2869C42.7211 81.9238 42.5597 81.7356 42.237 81.7356C42.0487 81.7356 41.8873 81.8028 41.7797 81.9373C41.6587 82.0718 41.6049 82.2869 41.6049 82.5559V84.0486H40.9191V82.2735C40.9191 81.897 40.7712 81.7087 40.4619 81.7087C40.2736 81.7087 40.1122 81.7894 39.9912 81.9373C39.8702 82.0852 39.8029 82.2869 39.8029 82.5559V84.0486H39.144V81.1977H39.7626V81.8028C39.9643 81.359 40.2871 81.1439 40.7174 81.1439C41.1477 81.1439 41.4167 81.359 41.5377 81.8028C41.7663 81.359 42.089 81.1439 42.4925 81.1439C42.7749 81.1439 42.99 81.2246 43.1514 81.3994C43.3128 81.5742 43.4069 81.7894 43.4069 82.0314V84.0486L43.3935 84.062Z" fill="#ED1C24"/>
<path d="M45.9754 83.161L46.5537 83.2417C46.473 83.4972 46.325 83.7124 46.1099 83.8737C45.8947 84.0351 45.6123 84.1292 45.2896 84.1292C44.8996 84.1292 44.5769 83.9948 44.3348 83.7258C44.0927 83.4569 43.9717 83.1072 43.9717 82.65C43.9717 82.1928 44.0927 81.8701 44.3348 81.5877C44.5769 81.3053 44.913 81.1573 45.3165 81.1573C45.7199 81.1573 46.0426 81.2918 46.2578 81.5742C46.473 81.8566 46.594 82.2062 46.594 82.65V82.7173H44.6306C44.6306 82.9055 44.6441 83.0669 44.6844 83.1879C44.7248 83.309 44.792 83.4031 44.8996 83.4972C45.0072 83.5913 45.1417 83.6317 45.303 83.6317C45.6258 83.6317 45.8409 83.4838 45.9485 83.1745M45.9082 82.3273C45.9082 82.1256 45.8409 81.9507 45.7199 81.8297C45.5989 81.6952 45.4509 81.628 45.2761 81.628C45.1013 81.628 44.9534 81.6952 44.8324 81.8163C44.7113 81.9373 44.6441 82.1121 44.6172 82.3273H45.9082Z" fill="#ED1C24"/>
<path d="M51.4486 84.062H50.7762V82.2869C50.7762 81.9238 50.6148 81.7356 50.2787 81.7356C50.0904 81.7356 49.9425 81.8028 49.8214 81.9373C49.7138 82.0718 49.6466 82.2869 49.6466 82.5559V84.0486H48.9608V82.2735C48.9608 81.897 48.8129 81.7087 48.5036 81.7087C48.3153 81.7087 48.1539 81.7894 48.0329 81.9373C47.9119 82.0852 47.8446 82.2869 47.8446 82.5559V84.0486H47.1857V81.1977H47.8043V81.8028C48.006 81.359 48.3287 81.1439 48.7591 81.1439C49.1894 81.1439 49.4583 81.359 49.5794 81.8028C49.808 81.359 50.1307 81.1439 50.5342 81.1439C50.8031 81.1439 51.0317 81.2246 51.1931 81.3994C51.3545 81.5742 51.4486 81.7894 51.4486 82.0314V84.062Z" fill="#ED1C24"/>
<path d="M52.511 84.062H52.2151V80.216H52.8606V81.6011C52.9816 81.3859 53.1027 81.2515 53.2237 81.1842C53.3447 81.117 53.4926 81.0767 53.654 81.0767C53.9633 81.0767 54.2188 81.2111 54.434 81.4801C54.6357 81.749 54.7433 82.1121 54.7433 82.5828C54.7433 83.0131 54.6357 83.3762 54.434 83.672C54.2323 83.9679 53.9364 84.1292 53.5599 84.1292C53.1833 84.1292 52.8875 83.9544 52.6723 83.6048L52.4975 84.0755L52.511 84.062ZM52.8606 82.8517C52.8606 83.1072 52.9144 83.2955 53.022 83.4165C53.1296 83.5376 53.2775 83.6048 53.4523 83.6048C53.6271 83.6048 53.7616 83.5376 53.8826 83.3896C54.0036 83.2552 54.0574 82.9728 54.0709 82.5693C54.0709 82.2735 54.0171 82.0449 53.9095 81.8835C53.8019 81.7221 53.654 81.6415 53.4657 81.6415C53.2909 81.6415 53.143 81.7087 53.0354 81.8432C52.9278 81.9776 52.8606 82.1794 52.8606 82.4214V82.8517Z" fill="#ED1C24"/>
<path d="M57.7824 84.062H57.1638C57.1101 83.8872 57.0832 83.6989 57.0697 83.4838C56.8949 83.9141 56.5722 84.1158 56.1015 84.1158C55.8191 84.1158 55.5905 84.0351 55.4156 83.8737C55.2408 83.7124 55.1601 83.4972 55.1601 83.2417C55.1601 82.5828 55.7384 82.26 56.8814 82.26C56.9218 82.26 56.989 82.26 57.0697 82.26V82.0449C57.0697 81.749 56.868 81.6011 56.4646 81.6011C56.0611 81.6011 55.846 81.749 55.8056 82.0449L55.2543 81.9642C55.2812 81.7221 55.4022 81.5339 55.6174 81.3725C55.8325 81.2246 56.1418 81.1439 56.5453 81.1439C56.7604 81.1439 56.9487 81.1573 57.0832 81.1977C57.2176 81.238 57.3387 81.2918 57.4328 81.3859C57.5269 81.4801 57.5942 81.5742 57.6345 81.6683C57.6749 81.7759 57.6883 81.9507 57.6883 82.1928V83.4838C57.6883 83.672 57.7152 83.8603 57.769 84.062M57.0563 82.6097C56.2225 82.6097 55.8056 82.8114 55.8056 83.2014C55.8056 83.3224 55.846 83.4165 55.9267 83.4972C56.0073 83.5779 56.1418 83.6182 56.3032 83.6182C56.5453 83.6182 56.7335 83.5376 56.8545 83.3896C56.9756 83.2417 57.0428 83.0534 57.0428 82.8652V82.6097H57.0563Z" fill="#ED1C24"/>
<path d="M60.8216 84.062H60.1761V82.2869C60.1761 82.0987 60.1358 81.9642 60.0416 81.8566C59.9609 81.7625 59.8534 81.7087 59.7323 81.7087C59.571 81.7087 59.423 81.7759 59.2886 81.9238C59.1541 82.0718 59.1003 82.2869 59.1003 82.5828V84.0486H58.4548V81.1977H59.0465V81.8566C59.2482 81.3725 59.5441 81.1439 59.9072 81.1439C60.1627 81.1439 60.3778 81.2246 60.5526 81.3859C60.7275 81.5473 60.8216 81.8163 60.8216 82.2197V84.062Z" fill="#ED1C24"/>
<path d="M64.1835 80.6732V81.1708H63.9818C63.9011 81.1708 63.8204 81.1708 63.7532 81.1977C63.6859 81.2246 63.6322 81.2918 63.5649 81.3994C63.7935 81.5877 63.9011 81.7894 63.9011 82.018C63.9011 82.2735 63.7935 82.4752 63.5784 82.65C63.3632 82.8114 63.0943 82.8921 62.7446 82.8921C62.5967 82.8921 62.4219 82.8652 62.2202 82.8248C62.0857 82.8786 62.0184 82.9728 62.0184 83.1072C62.0184 83.1745 62.0453 83.2417 62.1126 83.2955C62.1798 83.3493 62.2739 83.3896 62.4084 83.3896H63.2556C63.5515 83.3896 63.7666 83.4703 63.9415 83.6182C64.1028 83.7662 64.1835 83.9544 64.1835 84.1696C64.1835 84.4385 64.0625 84.6672 63.807 84.842C63.5515 85.0168 63.1884 85.1109 62.7043 85.1109C61.7898 85.1109 61.3192 84.8554 61.3192 84.3444C61.3192 84.0889 61.4536 83.9006 61.736 83.7662C61.5612 83.6182 61.4671 83.4569 61.4671 83.2955C61.4671 83.0534 61.615 82.8517 61.9243 82.7038C61.6554 82.5424 61.5343 82.3273 61.5343 82.0449C61.5343 81.8028 61.6285 81.6011 61.8302 81.4397C62.0184 81.2784 62.3143 81.1842 62.7177 81.1842C62.8925 81.1842 63.0808 81.1977 63.2691 81.238C63.3498 80.8749 63.5784 80.7001 63.9549 80.7001H64.197L64.1835 80.6732ZM62.0184 83.9141C61.9243 83.9948 61.884 84.0755 61.884 84.1561C61.884 84.2906 61.9646 84.3982 62.1126 84.5058C62.2605 84.5999 62.516 84.6537 62.8522 84.6537C63.3498 84.6537 63.5918 84.5327 63.5918 84.2772C63.5918 84.183 63.5515 84.1158 63.4573 84.062C63.3767 84.0082 63.2691 83.9948 63.1615 83.9948H62.4757C62.3412 83.9948 62.1933 83.9679 62.0184 83.9275M62.7177 82.529C63.0674 82.529 63.2422 82.3676 63.2422 82.0314C63.2422 81.9104 63.2018 81.8028 63.1077 81.7087C63.027 81.628 62.8925 81.5742 62.7177 81.5742C62.5429 81.5742 62.4219 81.6146 62.3277 81.7087C62.2336 81.8028 62.1933 81.9104 62.1933 82.0449C62.1933 82.1794 62.2336 82.3004 62.3277 82.3811C62.4219 82.4752 62.5429 82.5155 62.7177 82.5155" fill="#ED1C24"/>
<path d="M66.9268 84.062H66.3217V83.4434C66.1603 83.8872 65.8645 84.1158 65.4207 84.1158C65.1652 84.1158 64.95 84.0351 64.8021 83.8737C64.6542 83.7124 64.5735 83.4838 64.5735 83.2014V81.2111H65.2324V83.0669C65.2324 83.2686 65.2728 83.4031 65.3669 83.4703C65.461 83.5376 65.5417 83.5645 65.6359 83.5645C65.7703 83.5645 65.9183 83.4972 66.0662 83.3762C66.2141 83.2552 66.2813 82.9862 66.2813 82.5828V81.2111H66.9268V84.062Z" fill="#ED1C24"/>
<path d="M70.0601 84.062H69.4146V82.2869C69.4146 82.0987 69.3743 81.9642 69.2802 81.8566C69.1995 81.7625 69.0919 81.7087 68.9709 81.7087C68.8095 81.7087 68.6616 81.7759 68.5271 81.9238C68.3926 82.0718 68.3388 82.2869 68.3388 82.5828V84.0486H67.6933V81.1977H68.285V81.8566C68.4868 81.3725 68.7826 81.1439 69.1457 81.1439C69.4012 81.1439 69.6029 81.2246 69.7912 81.3859C69.966 81.5473 70.0601 81.8163 70.0601 82.2197V84.062Z" fill="#ED1C24"/>
<path d="M73.0052 80.216H72.3059V84.062H73.0052V80.216Z" fill="#ED1C24"/>
<path d="M76.1788 84.062H75.5333V82.2869C75.5333 82.0987 75.493 81.9642 75.3988 81.8566C75.3182 81.7625 75.2106 81.7087 75.0895 81.7087C74.9282 81.7087 74.7802 81.7759 74.6458 81.9238C74.5113 82.0718 74.4575 82.2869 74.4575 82.5828V84.0486H73.812V81.1977H74.4037V81.8566C74.6054 81.3725 74.9013 81.1439 75.2644 81.1439C75.5199 81.1439 75.735 81.2246 75.9099 81.3859C76.0847 81.5473 76.1788 81.8163 76.1788 82.2197V84.062Z" fill="#ED1C24"/>
<path d="M79.2852 84.062H78.6801V83.4838C78.5187 83.9141 78.2363 84.1158 77.8463 84.1158C77.4967 84.1158 77.2277 83.9679 77.0395 83.672C76.8512 83.3762 76.757 83.0131 76.757 82.5828C76.757 82.1794 76.8512 81.8297 77.0529 81.5339C77.2412 81.238 77.5236 81.0901 77.8732 81.0901C78.2228 81.0901 78.4918 81.2515 78.6397 81.5877V80.2026H79.2852V84.062ZM78.6397 82.3811C78.6397 82.1525 78.5859 81.9642 78.4784 81.8432C78.3708 81.7087 78.2228 81.6549 78.048 81.6549C77.8598 81.6549 77.7118 81.7356 77.6043 81.897C77.4967 82.0583 77.4429 82.3138 77.4429 82.6366C77.4429 83.2686 77.6446 83.5914 78.0346 83.5914C78.1959 83.5914 78.3304 83.5241 78.4515 83.3896C78.5725 83.2552 78.6397 83.0803 78.6397 82.8652V82.3811Z" fill="#ED1C24"/>
<path d="M81.1679 84.1292C80.751 84.1292 80.4283 83.9813 80.1996 83.672C79.9845 83.3627 79.8635 83.0266 79.8635 82.6366C79.8635 82.2197 79.9845 81.8701 80.2265 81.5877C80.4686 81.3053 80.7913 81.1708 81.1948 81.1708C81.5713 81.1708 81.894 81.3053 82.1361 81.5742C82.3782 81.8432 82.4992 82.2063 82.4992 82.6366C82.4992 83.0669 82.3782 83.4434 82.1227 83.7258C81.8671 83.9948 81.5444 84.1292 81.1544 84.1292M81.1813 83.6048C81.6116 83.6048 81.8268 83.2821 81.8268 82.6366C81.8268 82.3407 81.773 82.1121 81.6789 81.9507C81.5713 81.7759 81.4099 81.6952 81.1948 81.6952C80.9796 81.6952 80.8048 81.7894 80.6972 81.9507C80.5896 82.1256 80.5358 82.3542 80.5358 82.6366C80.5358 82.9459 80.5896 83.1879 80.7107 83.3493C80.8182 83.5107 80.9796 83.5914 81.1813 83.5914" fill="#ED1C24"/>
<path d="M85.4716 84.0619H84.8261V82.2868C84.8261 82.0986 84.7857 81.9641 84.6916 81.8565C84.6109 81.7624 84.5033 81.7086 84.3823 81.7086C84.2209 81.7086 84.073 81.7758 83.9385 81.9237C83.8041 82.0717 83.7503 82.2868 83.7503 82.5827V84.0485H83.1048V81.1976H83.6965V81.8565C83.8982 81.3724 84.194 81.1438 84.5571 81.1438C84.8126 81.1438 85.0278 81.2245 85.2026 81.3858C85.3774 81.5472 85.4716 81.8162 85.4716 82.2196V84.0619Z" fill="#ED1C24"/>
<path d="M88.0534 83.1609L88.6317 83.2416C88.5644 83.4971 88.4165 83.7123 88.1879 83.8736C87.9727 84.035 87.7038 84.1292 87.3676 84.1292C86.9776 84.1292 86.6549 83.9947 86.4128 83.7257C86.1708 83.4568 86.0497 83.1071 86.0497 82.6499C86.0497 82.1927 86.1708 81.87 86.4128 81.5876C86.6549 81.3052 86.9776 81.1572 87.3945 81.1572C87.8114 81.1572 88.1207 81.2917 88.3358 81.5741C88.5644 81.8565 88.672 82.2062 88.672 82.6499V82.7172H86.7087C86.7087 82.9054 86.7356 83.0668 86.7625 83.1878C86.8028 83.3089 86.87 83.403 86.9776 83.4971C87.0852 83.5913 87.2197 83.6316 87.3811 83.6316C87.7038 83.6316 87.9055 83.4837 88.0265 83.1744M87.9862 82.3272C87.9862 82.1255 87.919 81.9506 87.7979 81.8296C87.6769 81.6951 87.529 81.6279 87.3542 81.6279C87.1793 81.6279 87.0314 81.6951 86.9104 81.8162C86.7894 81.9372 86.7221 82.112 86.6952 82.3272H87.9862Z" fill="#ED1C24"/>
<path d="M88.9272 83.4165L89.5323 83.2955C89.6264 83.5241 89.8282 83.6451 90.1375 83.6451C90.5409 83.6451 90.7291 83.5241 90.7291 83.2955C90.7291 83.2148 90.7022 83.161 90.635 83.1072C90.5678 83.0534 90.5005 83.0266 90.4198 83.0131L89.8954 82.919C89.3171 82.8114 89.0347 82.529 89.0347 82.0718C89.0347 81.8163 89.1289 81.6011 89.3037 81.4263C89.492 81.2515 89.7609 81.1573 90.124 81.1573C90.7291 81.1573 91.0922 81.3725 91.2267 81.8163L90.6485 81.9373C90.5947 81.7221 90.4199 81.6146 90.1375 81.6146C89.8013 81.6146 89.6264 81.7221 89.6264 81.9373C89.6264 82.0852 89.7609 82.1928 90.0433 82.2466L90.6485 82.3676C91.1191 82.4618 91.3612 82.7442 91.3612 83.1879C91.3612 83.4972 91.2402 83.7393 90.9981 83.8872C90.756 84.0351 90.4602 84.1158 90.124 84.1158C89.8282 84.1158 89.5726 84.062 89.344 83.941C89.1154 83.82 88.9675 83.6451 88.9137 83.4031" fill="#ED1C24"/>
<path d="M91.8856 84.062H92.5311V81.2111H91.8856V84.062ZM91.8856 80.8749H92.5311V80.2026H91.8856V80.8749Z" fill="#ED1C24"/>
<path d="M95.7451 84.062H95.1265C95.0727 83.8872 95.0458 83.6989 95.0324 83.4838C94.8576 83.9141 94.5348 84.1158 94.0642 84.1158C93.7818 84.1158 93.5532 84.0351 93.3783 83.8737C93.2035 83.7124 93.1228 83.4972 93.1228 83.2417C93.1228 82.5828 93.7011 82.26 94.8441 82.26C94.8845 82.26 94.9517 82.26 95.0324 82.26V82.0449C95.0324 81.749 94.8307 81.6011 94.4272 81.6011C94.0238 81.6011 93.8087 81.749 93.7683 82.0449L93.217 81.9642C93.2439 81.7221 93.3649 81.5339 93.58 81.3725C93.7952 81.2246 94.1045 81.1439 94.5079 81.1439C94.7231 81.1439 94.9114 81.1573 95.0458 81.1977C95.1803 81.238 95.3013 81.2918 95.3955 81.3859C95.4896 81.4801 95.5569 81.5742 95.5972 81.6683C95.6375 81.7759 95.651 81.9507 95.651 82.1928V83.4838C95.651 83.672 95.6779 83.8603 95.7317 84.062M95.0189 82.6097C94.1852 82.6097 93.7683 82.8114 93.7683 83.2014C93.7683 83.3224 93.8087 83.4165 93.8893 83.4972C93.97 83.5779 94.1045 83.6182 94.2659 83.6182C94.5079 83.6182 94.6962 83.5376 94.8172 83.3896C94.9383 83.2417 95.0055 83.0534 95.0055 82.8652V82.6097H95.0189Z" fill="#ED1C24"/>
</g>
<rect x="1" y="1" width="110" height="110" rx="9" stroke="#CCCCCC" stroke-width="2"/>
<defs>
<clipPath id="clip0_528_620">
<rect x="2" y="2" width="108" height="108" rx="8" fill="white"/>
</clipPath>
</defs>
</svg>
