<svg width="112" height="112" viewBox="0 0 112 112" fill="none" xmlns="http://www.w3.org/2000/svg">
<g clip-path="url(#clip0_528_616)">
<rect x="2" y="2" width="108" height="108" rx="8" fill="white"/>
<path d="M56.0014 61.9727C55.8769 61.9555 55.8211 61.8461 55.746 61.7689C54.5423 60.5695 53.3365 59.3679 52.1414 58.1599C51.9697 57.9861 51.7981 57.9089 51.5492 57.911C49.8606 57.9217 48.1698 57.9046 46.4812 57.926C46.1207 57.9303 46.0606 57.8187 46.0649 57.4905C46.0821 55.7911 46.0692 54.0896 46.0778 52.3881C46.0799 52.1757 46.0156 52.0319 45.8675 51.8839C44.6359 50.663 43.415 49.4293 42.1792 48.2127C42.0011 48.0368 41.9925 47.9509 42.177 47.7686C43.4065 46.5606 44.6166 45.3333 45.8418 44.1231C46.007 43.96 46.0799 43.7991 46.0778 43.5631C46.0671 41.8402 46.0756 40.1172 46.0671 38.3943C46.0649 38.1303 46.0992 38.0638 46.3975 38.1175C49.1654 38.6217 51.6522 39.7439 53.8686 41.4733C53.9845 41.5634 54.1025 41.6513 54.2205 41.7393C54.3256 41.8166 54.4308 41.8938 54.6131 42.029C54.3342 42.029 54.1454 42.029 53.9587 42.029C52.7679 42.029 51.5771 42.0376 50.3862 42.0225C50.1094 42.0182 50.0451 42.1084 50.0494 42.368C50.0644 43.3206 50.0494 44.2733 50.0579 45.2238C50.0601 45.432 50 45.5843 49.8498 45.7323C49.1611 46.4061 48.4916 47.0991 47.7986 47.7686C47.6076 47.9531 47.6312 48.0475 47.8072 48.2191C48.4916 48.8822 49.1546 49.5666 49.8348 50.2318C49.9914 50.3862 50.0644 50.5407 50.0622 50.766C50.0494 51.6844 50.0708 52.6027 50.0494 53.521C50.0429 53.8364 50.1073 53.948 50.4506 53.9394C51.3797 53.9137 52.3109 53.9373 53.2399 53.9244C53.4524 53.9223 53.5961 53.9909 53.742 54.1368C54.493 54.8921 55.2525 55.6366 56.01 56.3855C56.0057 58.2479 56.0035 60.1103 56.0014 61.9727Z" fill="#509C85"/>
<path d="M56.0079 34C56.2353 34.133 56.392 34.3454 56.5743 34.5257C57.6836 35.6285 58.7929 36.7335 59.8915 37.8471C60.0567 38.0145 60.2219 38.0746 60.4537 38.0746C62.1766 38.066 63.9017 38.0746 65.6246 38.0638C65.8735 38.0617 65.9486 38.1153 65.9465 38.3771C65.9336 40.1129 65.9443 41.8466 65.9358 43.5824C65.9336 43.8056 66.0023 43.9579 66.1589 44.1124C67.3841 45.3247 68.5942 46.552 69.8237 47.76C70.0211 47.9531 69.9953 48.0475 69.8151 48.2256C68.6049 49.4207 67.4077 50.6309 66.1997 51.826C66.0173 52.0062 65.9336 52.1822 65.9358 52.4439C65.9486 54.1454 65.9293 55.8469 65.9529 57.5463C65.9572 57.9067 65.8135 57.9132 65.5538 57.8638C63.4812 57.4626 61.5372 56.7309 59.7349 55.6259C58.9345 55.1367 58.1986 54.5595 57.4498 53.9888C57.5334 53.8708 57.6429 53.9266 57.733 53.9266C59.0375 53.9223 60.3421 53.9158 61.6466 53.9287C61.8912 53.9309 61.9449 53.8579 61.9427 53.624C61.9299 52.6606 61.9427 51.6972 61.9341 50.7317C61.932 50.5472 61.9856 50.4184 62.1187 50.2876C62.7988 49.6203 63.4554 48.9294 64.1484 48.2771C64.3995 48.0411 64.363 47.9231 64.1356 47.7063C63.4554 47.0562 62.8031 46.3761 62.1315 45.7173C61.9899 45.5779 61.9341 45.4406 61.9363 45.2432C61.9449 44.2798 61.9299 43.3142 61.947 42.3508C61.9535 42.0698 61.8612 42.0161 61.6037 42.0204C60.6618 42.0354 59.722 42.0204 58.7801 42.0311C58.5483 42.0333 58.381 41.9732 58.2158 41.8037C57.4884 41.057 56.7438 40.3232 56.0079 39.5872C56.0014 37.7291 56.0036 35.8646 56.0079 34Z" fill="#A4C616"/>
<path d="M56.0014 61.9727C56.0035 60.1103 56.0057 58.2479 56.0079 56.3854C56.2095 56.188 56.4241 56.0014 56.6108 55.789C56.7352 55.6473 56.8189 55.6774 56.9434 55.7804C59.4194 57.8316 62.2581 59.1104 65.41 59.6919C66.4314 59.8807 67.4699 59.9472 68.6028 59.988C67.8046 60.2326 67.0751 60.3527 66.3434 60.4493C65.6031 60.548 64.8543 60.5394 64.1076 60.5287C62.3203 60.5051 60.606 60.1231 58.9495 59.4623C58.7414 59.3786 58.6191 59.3893 58.4582 59.5567C57.7244 60.312 56.9734 61.0522 56.2267 61.7946C56.1623 61.8633 56.1172 61.9663 56.0014 61.9727Z" fill="#A4C616"/>
<path d="M56.0079 34C56.0036 35.8646 56.0014 37.727 55.9971 39.5915C55.7246 39.8125 55.5272 40.2588 55.229 40.261C54.9629 40.2631 54.6947 39.8876 54.4244 39.6838C51.9118 37.8021 49.0967 36.6456 45.9984 36.1843C45.1724 36.062 44.3399 35.9954 43.4988 35.9976C44.0137 35.7959 44.5523 35.7036 45.093 35.6178C47.863 35.1844 50.5493 35.5019 53.1456 36.5576C53.3279 36.6327 53.4095 36.549 53.5146 36.4417C54.257 35.6951 55.0037 34.9484 55.7504 34.206C55.8276 34.1309 55.8856 34.0236 56.0079 34Z" fill="#509C85"/>
<path d="M55.9971 51.665C54.993 51.0879 53.9931 50.5064 52.9825 49.9378C52.8387 49.8563 52.8023 49.7662 52.8044 49.616C52.8087 48.5281 52.8109 47.4424 52.8044 46.3546C52.8044 46.2001 52.8516 46.11 52.9846 46.0327C53.9523 45.4813 54.9157 44.9234 55.8834 44.3677C55.9199 44.3463 55.9671 44.3484 56.01 44.3377C56.0014 46.7816 55.9993 49.2233 55.9971 51.665Z" fill="#F7A500"/>
<path d="M55.9971 51.665C55.9993 49.2233 56.0036 46.7837 56.0057 44.342C56.7932 44.7046 57.4841 45.2496 58.2736 45.5929C59.222 46.0521 59.222 46.125 59.222 47.2193C59.222 48.1719 59.2027 48.8028 59.2049 49.5967C59.2049 49.7383 59.1941 49.8413 59.0418 49.9271C58.0205 50.4978 57.0099 51.0836 55.9971 51.665Z" fill="#FDD000"/>
<path d="M52.1499 66.3176C51.3668 66.2039 50.5922 66.2747 49.8498 66.5794C49.7361 66.6266 49.6481 66.6738 49.5043 66.6094C48.2277 66.028 47.0004 66.2146 45.8053 66.8712C45.6465 66.957 45.6207 67.0686 45.6207 67.2295C45.6272 68.0449 45.6229 68.8624 45.6229 69.6777C45.6229 70.2892 45.6164 70.9029 45.625 71.5144C45.6293 71.8062 45.4963 72.186 45.6872 72.3641C45.8739 72.5379 46.2515 72.3855 46.5412 72.4198C46.8201 72.452 46.9038 72.3619 46.9017 72.0744C46.8867 70.7934 46.8952 69.5125 46.8952 68.2316C46.8952 67.7445 46.9382 67.6823 47.3995 67.5471C47.5282 67.5106 47.6634 67.4806 47.7986 67.472C48.9164 67.4055 49.2919 67.7488 49.3155 68.8924C49.3327 69.7421 49.3134 70.5939 49.322 71.4436C49.3263 71.7568 49.1825 72.1688 49.382 72.3576C49.5794 72.5443 49.9871 72.3855 50.3004 72.4177C50.5557 72.4434 50.5986 72.3297 50.5922 72.1066C50.5772 71.6088 50.6008 71.1089 50.5857 70.6111C50.5578 69.697 50.693 68.7744 50.4398 67.8732C50.3991 67.7295 50.5085 67.7059 50.5986 67.6608C51.0213 67.4484 51.4697 67.4269 51.9225 67.4956C52.3323 67.5578 52.5855 67.8024 52.682 68.2122C52.7507 68.5019 52.7743 68.7937 52.7764 69.0877C52.7786 70.109 52.7829 71.1282 52.7743 72.1495C52.7722 72.349 52.8151 72.437 53.0361 72.422C53.2957 72.4027 53.5575 72.407 53.8171 72.4198C53.9995 72.4284 54.0488 72.3598 54.0467 72.186C54.0359 70.9608 54.0574 69.7356 54.0252 68.5126C53.9952 67.3261 53.2592 66.4786 52.1499 66.3176Z" fill="#5D5C60"/>
<path d="M20.0747 71.1325C19.2358 71.1432 18.3969 71.1325 17.5579 71.141C17.3798 71.1432 17.2961 71.1153 17.3004 70.905C17.3154 70.3042 17.3133 69.7035 17.3004 69.1027C17.2961 68.886 17.382 68.8345 17.5815 68.8388C18.1029 68.8495 18.6243 68.8495 19.1457 68.8388C19.4611 68.8323 19.8731 68.9761 20.0619 68.7808C20.2485 68.5877 20.0898 68.1758 20.1198 67.8625C20.1434 67.6265 20.0468 67.5814 19.8323 67.5857C19.0727 67.5986 18.3132 67.5857 17.5536 67.5943C17.3648 67.5964 17.2961 67.5471 17.2983 67.3475C17.309 66.7575 17.3133 66.1674 17.2983 65.5795C17.2918 65.3542 17.3863 65.3178 17.5794 65.3199C18.1458 65.3285 18.7144 65.3328 19.2809 65.3199C19.5941 65.3135 20.019 65.468 20.1863 65.2513C20.3429 65.0517 20.2228 64.644 20.2464 64.3308C20.2657 64.1012 20.1777 64.0497 19.961 64.054C19.1221 64.0669 18.2831 64.0583 17.4442 64.0583C16.4829 64.0583 16.0045 64.5325 16.0023 65.4937C16.0002 66.4013 16.0023 67.3068 16.0023 68.2144C16.0023 69.1671 15.9959 70.1197 16.0045 71.0702C16.013 71.8555 16.4636 72.3791 17.2017 72.4027C18.1866 72.4327 19.1736 72.4091 20.1606 72.4134C20.3065 72.4134 20.3623 72.3662 20.358 72.2182C20.3494 71.9457 20.3387 71.6732 20.3601 71.4028C20.3816 71.1689 20.285 71.1303 20.0747 71.1325Z" fill="#5D5C60"/>
<path d="M64.0132 68.3367C63.4424 67.8732 62.7558 67.6351 62.1014 67.3411C61.7924 67.2016 61.4792 67.0665 61.2367 66.8219C60.7175 66.3026 60.9149 65.5259 61.6229 65.3414C62.0885 65.2191 62.5584 65.2641 63.0347 65.3457C63.3351 65.3993 63.6205 65.7448 63.8844 65.5645C64.1226 65.4015 64.217 65.0388 64.4015 64.7835C64.5388 64.5947 64.5045 64.511 64.3028 64.4123C63.3995 63.9682 62.4554 63.8094 61.4684 64.0111C60.578 64.1935 59.8957 64.6612 59.6833 65.601C59.4365 66.691 59.8184 67.5514 60.7732 68.1522C61.2238 68.4375 61.7216 68.6199 62.2065 68.8366C62.5348 68.9847 62.8674 69.1327 63.1528 69.3559C63.5626 69.6799 63.6656 70.1176 63.5518 70.6046C63.4531 71.0273 63.0948 71.1475 62.7279 71.1925C62.2537 71.2483 61.7109 71.2955 61.3461 70.9951C60.726 70.4823 60.3999 70.86 60.033 71.2741C60.0115 71.2998 59.9879 71.3256 59.9579 71.3449C59.739 71.4865 59.797 71.6066 59.9729 71.7461C60.6681 72.2911 61.462 72.5336 62.3374 72.5443C62.4726 72.5357 62.6078 72.5271 62.7451 72.5164C63.8007 72.437 64.5882 71.877 64.8435 71.0252C65.1418 70.0189 64.8178 68.9911 64.0132 68.3367Z" fill="#5D5C60"/>
<path d="M70.2076 66.4399C69.9459 66.4185 69.8364 66.5279 69.7442 66.7575C69.2464 68.0084 68.7336 69.2529 68.21 70.5403C68.1457 70.3987 68.0963 70.2999 68.0555 70.197C67.5792 69.0297 67.105 67.8604 66.6244 66.6931C66.5815 66.588 66.5836 66.4421 66.4013 66.4464C66 66.4528 65.5988 66.4485 65.1611 66.4485C65.2169 66.5901 65.2533 66.6824 65.2898 66.7747C65.9936 68.5062 66.6974 70.2399 67.4076 71.9693C67.4805 72.1495 67.4805 72.2975 67.4011 72.4756C67.09 73.188 66.7961 73.9068 66.4978 74.6256C66.1524 75.4538 65.8112 76.2841 65.4572 77.1402C65.8327 77.1402 66.1738 77.1231 66.5128 77.1467C66.7574 77.1639 66.8647 77.0737 66.957 76.8506C68.2208 73.7759 69.4953 70.7076 70.7655 67.6351C70.9243 67.2488 71.0766 66.8583 71.2418 66.4485C70.8642 66.4464 70.5359 66.4678 70.2076 66.4399Z" fill="#5D5C60"/>
<path d="M95.9446 68.3903C95.8673 67.4849 95.406 66.8154 94.5285 66.4979C93.6723 66.1868 92.8119 66.1632 91.9365 66.5901C91.9365 65.8048 91.9258 65.0496 91.943 64.2964C91.9473 64.0561 91.855 64.039 91.664 64.0797C91.0182 64.2214 90.6491 64.6784 90.6491 65.3714C90.647 67.3883 90.6448 69.4052 90.6513 71.4221C90.6534 71.744 90.5011 72.1752 90.7221 72.3598C90.9109 72.5185 91.3272 72.3941 91.6426 72.4198C91.8829 72.4392 91.943 72.3576 91.9408 72.1194C91.9301 70.817 91.9408 69.5146 91.9301 68.2101C91.9279 67.9934 92.0052 67.8861 92.1918 67.8003C92.5824 67.62 92.9879 67.56 93.4127 67.5857C94.3461 67.6415 94.6744 67.9762 94.7108 68.9139C94.7151 69.0147 94.713 69.1177 94.713 69.2207C94.713 70.1948 94.7173 71.1689 94.7087 72.1431C94.7065 72.3383 94.7387 72.437 94.964 72.4198C95.2236 72.4005 95.4854 72.407 95.745 72.4177C95.9102 72.4241 95.9939 72.3877 95.9896 72.1967C95.966 70.9286 96.0519 69.6563 95.9446 68.3903Z" fill="#5D5C60"/>
<path d="M88.01 66.4356C87.2912 66.1975 86.551 66.2511 85.8214 66.3327C84.961 66.4292 84.9653 66.4571 84.9675 67.339C84.9675 67.3733 84.9718 67.4076 84.9675 67.4398C84.9374 67.6715 85.0276 67.6973 85.24 67.6394C85.8772 67.4634 86.5317 67.4141 87.1904 67.4699C87.6195 67.5063 87.9971 67.6501 88.2074 68.1414C87.7225 68.1414 87.2912 68.1307 86.8621 68.1436C86.3085 68.1607 85.8086 68.341 85.3301 68.6242C84.165 69.313 84.2079 71.2934 85.2636 71.9972C86.3493 72.7202 88.4177 72.7052 89.4369 71.8942C89.5334 71.8169 89.5828 71.7375 89.5806 71.6088C89.5699 70.5553 89.587 69.5018 89.5527 68.4483C89.5248 67.4784 88.9283 66.7403 88.01 66.4356ZM88.3104 70.4995C88.3104 71.1861 88.3125 71.2011 87.6431 71.3191C87.2419 71.3899 86.8299 71.3921 86.4308 71.2698C85.9416 71.1196 85.7163 70.7634 85.7485 70.197C85.7785 69.6927 85.9824 69.4567 86.5081 69.3559C87.0573 69.2507 87.6152 69.3258 88.1688 69.3044C88.2997 69.3001 88.3125 69.3795 88.3104 69.4803C88.3082 69.7292 88.3104 69.9781 88.3104 70.2291C88.3104 70.3171 88.3104 70.4072 88.3104 70.4995Z" fill="#5D5C60"/>
<path d="M74.8379 66.3756C74.0269 66.1932 73.218 66.2983 72.4048 66.3863C72.055 66.4249 71.9477 66.5794 71.9907 66.9098C72.0143 67.0879 72.01 67.2746 71.9907 67.4527C71.9649 67.6951 72.0615 67.7016 72.2589 67.6458C72.9068 67.4634 73.5741 67.4141 74.2436 67.4699C74.6663 67.5042 75.0289 67.6587 75.252 68.1393C74.7693 68.1393 74.3401 68.1307 73.911 68.1414C73.3682 68.1565 72.8789 68.3367 72.4048 68.6006C71.1882 69.2829 71.2375 71.3384 72.3533 72.0315C73.4626 72.7202 75.4923 72.6838 76.5008 71.877C76.6081 71.7912 76.6209 71.7032 76.6209 71.5873C76.6188 70.5789 76.6317 69.5683 76.6166 68.5598C76.6081 67.4741 75.9 66.6137 74.8379 66.3756ZM74.9473 71.2612C74.4538 71.3749 73.9603 71.405 73.4711 71.2655C72.9691 71.1217 72.7802 70.787 72.8103 70.1562C72.8317 69.6842 73.042 69.4503 73.5613 69.3537C74.0998 69.2529 74.647 69.328 75.1898 69.3044C75.3507 69.2979 75.3357 69.4052 75.3357 69.5082C75.3357 69.7464 75.3357 69.9845 75.3357 70.2227C75.3357 70.3922 75.3121 70.5682 75.34 70.7312C75.4001 71.0595 75.2434 71.1925 74.9473 71.2612Z" fill="#5D5C60"/>
<path d="M24.0678 69.5103C23.9026 69.3215 23.8983 69.2078 24.0785 69.0211C24.808 68.2766 25.5182 67.5128 26.2349 66.7553C26.3164 66.6695 26.3872 66.5751 26.4945 66.4485C25.9989 66.4485 25.559 66.4657 25.1213 66.4421C24.866 66.4271 24.7072 66.5258 24.5441 66.7081C23.9626 67.3647 23.3662 68.0105 22.7268 68.7122C22.7268 68.5813 22.7268 68.5191 22.7268 68.4568C22.7268 67.0858 22.7182 65.7147 22.7332 64.3437C22.7353 64.0561 22.6474 64.0261 22.4006 64.0948C21.7591 64.2728 21.4329 64.702 21.4308 65.4251C21.4286 67.5664 21.4308 69.7078 21.4308 71.8491C21.4308 72.4156 21.4308 72.4156 21.9994 72.4156C22.7268 72.4156 22.7268 72.4156 22.7268 71.7011C22.7268 71.0981 22.7268 70.4952 22.7268 69.8236C23.4005 70.6368 24.027 71.3814 24.6407 72.1345C24.8016 72.3319 24.9689 72.4392 25.2414 72.4198C25.647 72.3919 26.0568 72.4134 26.4752 72.4134C26.4966 72.3168 26.443 72.2847 26.4087 72.2439C25.632 71.332 24.8574 70.4137 24.0678 69.5103Z" fill="#5D5C60"/>
<path d="M39.9777 66.9806C39.246 67.6415 39.0701 68.4826 39.0894 69.1134C39.0937 71.332 40.1172 72.4713 41.8895 72.525C43.1897 72.5636 44.314 71.8513 44.6552 70.7141C44.917 69.8429 44.9234 68.9418 44.6509 68.0728C44.0759 66.2511 41.4453 65.6546 39.9777 66.9806ZM43.5266 70.1262C43.3592 70.9394 42.7563 71.3663 41.8573 71.3406C41.0741 71.3191 40.4862 70.8106 40.3682 70.0296C40.3296 69.7721 40.3296 69.5104 40.3103 69.2507C40.3575 68.6349 40.4519 68.0492 41.0484 67.6951C41.868 67.2081 43.4322 67.4012 43.5652 68.9074C43.6017 69.3215 43.6081 69.7271 43.5266 70.1262Z" fill="#5D5C60"/>
<path d="M28.5929 66.3327C27.4536 66.5837 26.5052 67.5514 26.443 68.7615C26.4044 69.5254 26.355 70.2871 26.6855 70.993C27.533 72.7953 30.3052 73.0786 31.5518 71.5165C32.0496 70.8921 32.1611 70.1755 32.1375 69.4117C32.1289 68.9954 32.1354 68.577 32.0152 68.1693C31.6204 66.8111 30.0927 66.0022 28.5929 66.3327ZM30.3888 70.9565C29.8653 71.3899 29.2624 71.4457 28.6337 71.2226C28.0308 71.008 27.7754 70.5446 27.6832 69.9373C27.6167 69.5018 27.6295 69.0769 27.7197 68.6542C27.8935 67.8346 28.5286 67.4162 29.4769 67.4677C30.2301 67.5085 30.8072 68.0749 30.8888 68.8624C30.9081 69.0426 30.9102 69.225 30.9188 69.3773C30.9016 69.9781 30.8737 70.5553 30.3888 70.9565Z" fill="#5D5C60"/>
<path d="M38.2397 68.3882C38.1582 67.4355 37.6518 66.7403 36.7292 66.4593C35.4676 66.0752 34.251 66.264 33.0988 66.8991C32.9851 66.9613 32.9421 67.0364 32.9421 67.1652C32.9464 68.8431 32.9464 70.5188 32.9421 72.1967C32.9421 72.3619 33.0001 72.4156 33.1589 72.4113C33.4979 72.4027 33.839 72.4048 34.178 72.4027L34.1995 72.4091L34.2081 72.3855C34.2167 72.2632 34.2295 72.1388 34.2295 72.0143C34.2317 70.7119 34.2381 69.4074 34.2231 68.105C34.2209 67.8453 34.3046 67.7338 34.5428 67.6436C35.0685 67.4462 35.5942 67.4248 36.1413 67.5213C36.609 67.6029 36.8472 67.8968 36.9373 68.3281C36.9824 68.547 36.9996 68.7765 37.0017 69.0018C37.0081 69.8064 37.0017 70.6111 37.006 71.4157C37.006 71.7311 36.8944 72.1688 37.0553 72.334C37.2613 72.5443 37.6969 72.3834 38.0338 72.4048C38.0445 72.4048 38.0574 72.4027 38.0681 72.4048C38.2333 72.4263 38.2848 72.349 38.2826 72.1903C38.2612 70.9265 38.347 69.6541 38.2397 68.3882Z" fill="#5D5C60"/>
<path d="M81.2555 66.4142C80.1162 66.161 79.0176 66.2168 77.962 66.7661C77.7646 66.8691 77.6981 66.9914 77.7002 67.2145C77.7109 68.6414 77.7023 70.0682 77.7088 71.4951C77.7109 71.7955 77.5736 72.2074 77.7689 72.3683C77.9534 72.5207 78.3503 72.4005 78.6529 72.4284C78.9146 72.452 78.9983 72.3748 78.9962 72.098C78.9811 70.7741 78.9897 69.4481 78.9897 68.1243C78.9897 67.6329 78.9919 67.6436 79.4682 67.5342C80.1312 67.3819 80.7685 67.5192 81.4508 67.7102C81.4508 67.3347 81.4401 66.9957 81.4551 66.6567C81.4615 66.4957 81.4014 66.4464 81.2555 66.4142Z" fill="#5D5C60"/>
<path d="M56.4197 66.7081C56.4219 66.4957 56.3618 66.4292 56.1537 66.4464C55.9177 66.4657 55.6773 66.4678 55.4413 66.4464C55.1903 66.4228 55.1173 66.5 55.1195 66.7618C55.1324 68.3131 55.1238 69.8665 55.1281 71.4178C55.1281 71.744 55.0186 72.1838 55.1838 72.3662C55.377 72.5786 55.8232 72.4027 56.158 72.437C56.364 72.4585 56.4262 72.3962 56.424 72.1795C56.4112 71.2741 56.4176 70.3665 56.4176 69.461C56.4154 68.5427 56.409 67.6243 56.4197 66.7081Z" fill="#5D5C60"/>
<path d="M83.6608 66.7553C83.6629 66.5301 83.62 66.4228 83.3668 66.4464C83.1415 66.4678 82.912 66.4678 82.6867 66.4464C82.4485 66.4249 82.3841 66.5065 82.3863 66.7446C82.397 68.3324 82.3884 69.918 82.3949 71.5058C82.397 71.8062 82.2597 72.2203 82.4549 72.3791C82.6416 72.5314 83.0386 72.4113 83.3411 72.437C83.5878 72.4585 83.6694 72.3898 83.6629 72.128C83.6436 71.2333 83.6565 70.3364 83.6565 69.4417C83.6565 68.5448 83.6479 67.6501 83.6608 66.7553Z" fill="#5D5C60"/>
<path d="M55.952 65.4251C56.4154 65.4251 56.4154 65.4251 56.4154 64.9702C56.4154 64.3329 56.4154 64.3329 55.7954 64.3329C55.6709 64.3329 55.5465 64.3458 55.4242 64.3308C55.1967 64.3029 55.1152 64.3715 55.1173 64.6183C55.1259 65.4229 55.1152 65.4251 55.952 65.4251Z" fill="#5D5C60"/>
<path d="M82.9592 64.3329C82.3906 64.3329 82.3906 64.3329 82.3906 64.8221C82.3906 65.4251 82.3906 65.4251 83.0171 65.4251C83.0858 65.4251 83.1544 65.4165 83.2209 65.4272C83.5621 65.483 83.6844 65.3693 83.6651 65.0024C83.6308 64.3351 83.6565 64.3329 82.9592 64.3329Z" fill="#5D5C60"/>
</g>
<rect x="1" y="1" width="110" height="110" rx="9" stroke="#CCCCCC" stroke-width="2"/>
<defs>
<clipPath id="clip0_528_616">
<rect x="2" y="2" width="108" height="108" rx="8" fill="white"/>
</clipPath>
</defs>
</svg>
