<svg width="112" height="112" viewBox="0 0 112 112" fill="none" xmlns="http://www.w3.org/2000/svg">
<g clip-path="url(#clip0_528_618)">
<rect x="2" y="2" width="108" height="108" rx="8" fill="white"/>
<path d="M33.1793 38.7978C33.2619 38.8184 33.3721 38.8115 33.4203 38.8597C34.0952 39.5415 34.7494 40.237 35.4243 40.9119C36.1404 41.6212 36.9255 42.2685 37.5866 43.026C38.1169 43.6389 38.6953 43.7904 39.4666 43.7698C41.3122 43.7216 43.1646 43.756 45.0102 43.756H45.5473V44.3276C45.5473 46.3866 45.5473 48.4457 45.5473 50.5116C45.5473 50.9179 45.692 51.2003 46.0363 51.4688C46.5597 51.882 47.0004 52.3985 47.4756 52.8737C47.8681 53.2662 48.2675 53.6587 48.6531 54.0582C49.1559 54.5815 49.6517 55.1049 50.1544 55.6283C50.2164 55.6971 50.2852 55.7591 50.361 55.8073C50.5745 55.945 50.5951 56.0415 50.3816 56.2412C49.9616 56.6337 49.6035 57.0951 49.1834 57.5014C48.6807 57.9903 48.1435 58.4517 47.6339 58.9338C47.2896 59.2574 46.9728 59.6018 46.6492 59.9461C46.4701 60.132 46.3462 60.3937 46.1327 60.5245C45.6093 60.8344 45.5473 61.2889 45.5542 61.833C45.5749 63.7956 45.5611 65.7583 45.5611 67.7209V68.2994C41.5601 67.714 38.1926 65.9511 35.135 63.527L35.1557 63.3893C35.321 63.3755 35.4862 63.3549 35.6515 63.3549C37.139 63.3549 38.6265 63.348 40.1139 63.3549C40.4514 63.3549 40.5753 63.2654 40.5684 62.9073C40.5478 61.7641 40.5684 60.6141 40.5616 59.4709C40.5616 59.1955 40.6442 59.0233 40.8508 58.8236C41.3604 58.3347 41.8149 57.7768 42.3038 57.2741C42.655 56.916 43.0269 56.5717 43.4125 56.2481C43.6191 56.069 43.6054 55.9726 43.4125 55.7935C42.9787 55.3804 42.5793 54.9258 42.1592 54.4989C41.7391 54.0788 41.2915 53.6863 40.8921 53.2387C40.7268 53.0527 40.5822 52.7842 40.5753 52.55C40.5409 51.4551 40.5616 50.3601 40.5616 49.2652V48.7211H39.1085C38.5714 48.7211 38.0136 48.6454 37.4902 48.7349C36.4297 48.914 35.8443 48.3011 35.2383 47.5987C34.7907 47.0822 34.2467 46.6483 33.744 46.18C33.5649 46.0079 33.3859 45.8288 33.2068 45.6567C33.2068 43.3704 33.193 41.0841 33.193 38.8046" fill="#A2C33D"/>
<path d="M33.1655 73.2163C33.0622 73.175 32.9245 73.1543 32.8556 73.0786C31.7056 71.8803 30.5693 70.6821 29.4261 69.4838C29.1231 69.1602 28.827 68.8227 28.4827 68.5542C28.2692 68.3958 27.9593 68.2925 27.6908 68.2856C25.6592 68.2649 23.6346 68.2718 21.6031 68.2718H21.0178C21.0109 68.0652 20.9902 67.8931 20.9902 67.714C20.9902 65.9166 20.942 64.1124 21.0109 62.315C21.0453 61.406 20.7561 60.7931 20.0881 60.194C19.0965 59.2988 18.2081 58.2864 17.2715 57.3292C16.9134 56.9642 16.5347 56.6268 16.1559 56.2825C15.9631 56.1103 15.9287 55.9657 16.1353 55.7591C17.4919 54.4163 18.8348 53.0596 20.1845 51.703C20.2878 51.5997 20.3842 51.4964 20.5013 51.4069C20.8181 51.159 20.9971 50.8628 20.9902 50.429C20.9696 48.4181 20.9833 46.4073 20.9833 44.3965V43.7836C21.4516 43.8524 21.8924 43.8731 22.2987 43.9833C23.2628 44.2381 24.2613 44.4309 25.1497 44.851C26.4925 45.4776 27.9042 45.9872 29.0956 46.9307C29.7774 47.4678 30.5349 47.9154 31.2579 48.4044C31.3268 48.4526 31.3544 48.549 31.4508 48.7074H25.8176C25.8176 50.0227 25.8039 51.276 25.8245 52.5294C25.8245 52.8806 25.7419 53.1216 25.4733 53.3695C24.5781 54.2097 23.7173 55.0842 22.7394 56.0483C23.4487 56.7232 24.1098 57.3361 24.764 57.9628C25.0808 58.2658 25.4045 58.5688 25.6868 58.8993C25.7832 59.0164 25.8108 59.223 25.8108 59.3883C25.8176 60.6829 25.8108 61.9707 25.8108 63.3204C25.9967 63.3273 26.1688 63.348 26.341 63.348C27.4842 63.348 28.6342 63.3342 29.7774 63.3618C29.9977 63.3618 30.2663 63.4995 30.4316 63.6579C31.3612 64.56 32.2703 65.4897 33.1793 66.4125C33.1724 68.685 33.1655 70.9506 33.1586 73.2232" fill="#689584"/>
<path d="M33.1655 73.2163C33.1724 70.9438 33.1793 68.6781 33.1862 66.4056C33.5098 66.1164 33.8335 65.8202 34.1709 65.5103C38.351 68.9329 43.1164 70.7165 48.5636 70.8611C48.3708 70.9506 48.2262 71.0471 48.0678 71.0815C46.0638 71.5222 44.0323 71.7495 42.0008 71.4602C40.4858 71.2468 38.9914 70.8336 37.4902 70.4893C37.2974 70.4411 37.1045 70.3446 36.9324 70.2345C36.5881 70.021 36.3746 70.2069 36.1404 70.4342C35.6308 70.9438 35.1006 71.4396 34.591 71.9492C34.2054 72.3348 33.8473 72.7411 33.4685 73.1268C33.3996 73.1956 33.2619 73.1887 33.1517 73.2094" fill="#A3C340"/>
<path d="M33.1793 38.7978C33.1793 41.0841 33.193 43.3704 33.193 45.6498C33.0691 45.7737 32.9382 45.8977 32.8143 46.0285C32.3185 46.5381 32.2083 46.5313 31.6642 46.0836C30.4453 45.092 29.1645 44.1899 27.6976 43.5838C26.6991 43.1707 25.7212 42.6955 24.7089 42.3099C24.1373 42.0895 23.5176 41.9862 22.9184 41.8485C22.1472 41.6694 21.3759 41.4697 20.5977 41.3664C19.6956 41.2562 18.7866 41.2493 17.7329 41.1805C17.974 41.1047 18.0841 41.0703 18.2012 41.0427C20.4462 40.4781 22.7187 40.237 25.0119 40.6571C26.3272 40.8981 27.6219 41.2425 28.9303 41.5386C28.9441 41.5386 28.9648 41.5386 28.9785 41.5386C29.6901 41.8048 30.2984 41.6648 30.8034 41.1185C31.4783 40.3954 32.1601 39.6723 32.8487 38.9561C32.9314 38.8666 33.0691 38.8391 33.1862 38.7771" fill="#699685"/>
<path d="M93.5253 55.3115H92.2789C92.2789 54.065 92.2444 52.8461 92.2926 51.6272C92.3202 51.0075 92.0172 50.5667 91.5833 50.3326C91.1288 50.0847 90.5366 50.0571 90.0958 50.4979C89.9857 50.608 89.9444 50.8353 89.9444 51.0075C89.9306 52.4261 89.9444 53.8447 89.9444 55.2977H88.6566V54.7881C88.6566 53.6587 88.6566 52.5294 88.6566 51.4C88.6566 50.8904 88.45 50.4841 87.9886 50.2775C87.5065 50.0571 86.632 50.2224 86.3634 50.5736C86.2808 50.6838 86.2876 50.8766 86.2808 51.035C86.2808 52.4398 86.2808 53.8447 86.2808 55.2908H84.9517C84.9517 55.1324 84.931 54.9603 84.931 54.7881C84.931 53.3626 84.931 51.944 84.931 50.5185C84.931 50.2499 84.8897 49.8712 85.0343 49.7335C85.3098 49.4787 85.7023 49.3203 86.0742 49.2032C87.0383 48.9002 87.9955 48.9759 88.9596 49.2996C89.2488 49.396 89.6413 49.2101 89.9788 49.1206C90.7845 48.9002 91.6109 48.9346 92.3271 49.2721C93.0433 49.6095 93.5253 50.2706 93.5322 51.1452C93.5391 52.5156 93.5322 53.886 93.5322 55.3115" fill="#5D5C60"/>
<path d="M33.1724 51.765C33.4134 51.8476 33.682 51.8958 33.9023 52.0267C34.8114 52.5431 35.6928 53.1147 36.6156 53.5968C36.9462 53.7689 37.0426 53.9686 37.0426 54.2716C37.0495 55.4492 37.0632 56.6268 37.0288 57.8044C37.0219 58.0316 36.836 58.3347 36.6432 58.4586C35.624 59.0784 34.5772 59.6569 33.5305 60.2353C33.4341 60.2904 33.2894 60.2766 33.1655 60.2904C33.1655 59.9874 33.1724 59.6844 33.1724 59.3814C33.1724 56.8472 33.1724 54.313 33.1724 51.7787" fill="#F4C81E"/>
<path d="M33.1724 51.765C33.1724 54.2992 33.1724 56.8334 33.1724 59.3676C33.1724 59.6706 33.1724 59.9736 33.1655 60.2766C32.7385 60.0563 32.3116 59.8497 31.8984 59.6155C31.2373 59.2505 30.5831 58.858 29.9151 58.493C29.5983 58.3209 29.4743 58.0661 29.4743 57.7149C29.4812 56.6544 29.5226 55.587 29.4606 54.5264C29.4261 53.8998 29.7223 53.6381 30.1974 53.3833C31.0169 52.9288 31.8157 52.433 32.6283 51.9647C32.7936 51.8683 32.9933 51.8338 33.1724 51.765Z" fill="#EBA227"/>
<path d="M58.6936 48.0463H55.8701V50.3808C56.5588 50.3808 57.2337 50.3808 57.9154 50.3808C58.4113 50.3808 58.6592 50.631 58.6592 51.1314C58.6592 51.2898 58.6592 51.4482 58.6592 51.641H55.8839V54.0237H58.852V55.3046C57.7157 55.3046 56.5795 55.3046 55.4432 55.2977C55.3261 55.2977 55.209 55.1875 55.092 55.1393C54.5755 54.9465 54.4171 54.5196 54.4171 54.0375C54.4033 52.0404 54.3964 50.0502 54.4171 48.0532C54.424 47.2888 55.0093 46.7378 55.7806 46.731C56.7447 46.7172 57.7088 46.731 58.7005 46.731V48.0532L58.6936 48.0463Z" fill="#5E5D61"/>
<path d="M55.5878 63.4513C56.2214 64.0917 57.3989 64.2777 58.1565 63.8369C58.5559 63.6028 58.7074 62.6318 58.3286 62.377C57.7639 61.9982 57.1648 61.6539 56.545 61.3991C55.2504 60.862 54.0659 59.8772 54.4929 58.2933C54.7545 57.3292 55.3743 56.8127 56.3522 56.6888C57.2956 56.5648 58.2322 56.6199 59.1343 56.9849C59.4442 57.1089 59.5062 57.3223 59.2789 57.6322C59.0999 57.8733 58.9071 58.0936 58.7143 58.3278C57.9499 57.8251 57.0959 57.8388 56.242 58.0799C56.0699 58.1281 55.9252 58.4793 55.8701 58.7203C55.76 59.1748 55.9321 59.5604 56.3591 59.7739C56.9995 60.0838 57.6813 60.318 58.3011 60.6692C59.5131 61.3578 60.3463 62.5216 59.6508 64.1124C59.2583 65.0145 58.0738 65.6068 56.9789 65.4759C56.1318 65.3795 55.395 65.0076 54.6994 64.5531C54.6512 64.5187 54.6444 64.2983 54.6994 64.2432C54.9818 63.9678 55.2917 63.713 55.5878 63.4513Z" fill="#5D5C60"/>
<path d="M91.7968 65.2693C91.7968 65.2693 91.7555 65.29 91.7348 65.2969C90.8763 65.3703 90.4471 64.987 90.4471 64.1468C90.4471 63.3755 90.4471 62.6111 90.4471 61.8399C90.4333 60.5245 89.7377 60.0287 88.45 60.4006C88.3398 60.435 88.2296 60.497 88.1263 60.497C87.6994 60.5108 87.6443 60.7656 87.6443 61.1237C87.658 62.315 87.6443 63.5133 87.6443 64.7046V65.2762H86.4116C86.4047 65.1591 86.384 65.0214 86.384 64.8768C86.384 62.5905 86.384 60.2973 86.384 58.011C86.384 57.1984 86.7628 56.8196 87.6374 56.7439V59.3056C87.782 59.2781 87.8922 59.2919 87.9679 59.2437C88.7599 58.7341 89.4898 58.8993 90.33 59.2368C91.3905 59.6637 91.7899 60.435 91.8312 61.4611C91.8794 62.6662 91.845 63.8783 91.845 65.0903C91.845 65.1522 91.8175 65.2142 91.8037 65.2693" fill="#605F62"/>
<path d="M80.5099 60.435C80.5099 60.318 80.4961 60.2353 80.4961 60.1527C80.4824 59.1404 80.5925 59.0095 81.6324 58.9475C82.0594 58.92 82.4863 58.8925 82.9064 58.9475C83.8016 59.0577 85.1032 59.7395 85.1238 60.9171C85.1445 62.0465 85.2478 63.1758 85.2753 64.3052C85.2753 64.4843 85.1238 64.7528 84.9654 64.8355C84.0427 65.3313 83.0717 65.6894 82.0112 65.3864C81.0608 65.1109 80.2551 64.622 79.9865 63.5752C79.835 63.0037 80.0554 62.4734 80.3309 62.0051C80.8542 61.0961 81.7977 61.0135 82.7136 60.924C83.0648 60.8895 83.4229 60.924 83.7879 60.924C83.6226 60.1664 82.7756 60.0494 80.5237 60.4488M83.9738 62.1084C83.4711 62.1084 83.0097 62.0533 82.569 62.1153C81.3225 62.2875 81.3225 62.2668 81.412 63.5408C81.4258 63.7199 81.6117 63.9609 81.7839 64.0298C82.4381 64.3052 83.1199 64.2226 83.7879 64.0298C83.8636 64.0091 83.9669 63.8783 83.9669 63.7956C83.9807 63.2447 83.9738 62.6938 83.9738 62.0947" fill="#5F5E61"/>
<path d="M70.5727 60.7449C69.5673 59.8497 68.4035 60.2491 67.2328 60.3937C67.2328 60.1114 67.2535 59.8359 67.2328 59.5604C67.2053 59.223 67.405 59.0577 67.6735 59.0302C68.3691 58.9751 69.0853 58.8856 69.7739 58.9544C70.9377 59.0715 71.8881 60.1458 71.9294 61.3165C71.9638 62.3288 71.95 63.3411 71.9294 64.3603C71.9294 64.5118 71.8192 64.7253 71.6952 64.7942C70.7036 65.3451 69.6431 65.7169 68.5137 65.3244C67.8319 65.0903 67.1708 64.7666 66.799 64.0573C66.551 63.589 66.6819 62.4803 66.9642 62.0327C67.584 61.0479 68.5619 60.979 69.5535 60.9033C69.8841 60.8758 70.2215 60.9033 70.559 60.9033C70.559 60.8482 70.5727 60.7931 70.5796 60.738M70.6072 64.078V62.0465C69.9805 62.0809 69.3952 62.0809 68.8167 62.1566C68.1556 62.2462 68.0041 62.4596 68.0247 63.1345C68.0385 63.7543 68.1625 63.9815 68.7754 64.0642C69.3676 64.1468 69.9805 64.0848 70.6141 64.0848" fill="#5D5C60"/>
<path d="M61.4688 51.4138C62.0335 50.7733 62.5982 50.1329 63.1767 49.5062C63.2938 49.3754 63.4797 49.2376 63.6381 49.2239C64.1201 49.1894 64.6091 49.2101 65.222 49.2101C64.43 50.0502 63.7276 50.8215 62.9976 51.5653C62.5294 52.0404 62.5087 52.0886 62.9219 52.5845C63.5761 53.3695 64.2303 54.1546 64.8845 54.9327C64.9878 55.0498 65.1187 55.1324 65.2426 55.2357C64.2992 55.5663 63.5348 55.3322 62.9357 54.554C62.7015 54.2441 62.4467 53.948 62.1919 53.6519C61.944 53.3626 61.6823 53.0872 61.3655 52.736V55.2839H60.0915C60.0778 55.1807 60.0571 55.0774 60.0571 54.9672C60.0571 52.7084 60.0571 50.4565 60.0571 48.1978C60.0571 47.3025 60.3877 46.91 61.3105 46.7447V51.3587C61.3655 51.3793 61.4137 51.3931 61.4688 51.4138Z" fill="#5D5C60"/>
<path d="M68.1281 55.3941C67.1571 55.4217 66.3031 55.1738 65.7178 54.3336C65.1669 53.5417 65.0498 52.6464 65.1806 51.7305C65.2564 51.1865 65.4079 50.5943 65.6971 50.1398C66.2963 49.2101 67.7355 48.7969 68.8511 49.0999C70.1114 49.4442 70.8344 50.2362 71.0066 51.5515C71.1237 52.3985 71.0686 53.2524 70.7174 53.9893C70.3317 54.795 69.5811 55.2633 68.6652 55.3872C68.4861 55.4079 68.3071 55.3872 68.1281 55.3872M68.1143 54.2097C68.8993 54.2097 69.5398 53.9204 69.6431 53.3144C69.767 52.6051 69.7601 51.8476 69.6431 51.1452C69.588 50.8422 69.1128 50.5943 68.8029 50.3601C68.2451 49.9469 66.8678 50.3326 66.6475 50.9937C66.4891 51.4757 66.3858 52.006 66.3927 52.5087C66.3995 53.5279 67.1295 54.3474 68.1212 54.2097" fill="#5D5C60"/>
<path d="M84.1184 52.2264C84.022 52.7291 83.9945 53.2593 83.8223 53.7414C83.5055 54.6435 82.8031 55.2013 81.8941 55.3597C80.992 55.525 80.0347 55.4905 79.2841 54.8708C78.9191 54.5746 78.7057 54.0926 78.4371 53.6863C78.0446 53.0941 78.0514 52.3916 78.1754 51.765C78.2925 51.1383 78.5128 50.4428 78.9122 49.9745C79.6835 49.0861 80.7578 48.8313 81.9147 49.1206C83.1405 49.4305 84.2355 50.4979 84.1253 52.2332M82.8513 52.2539C82.9133 51.462 82.624 50.8284 81.8734 50.4083C81.1641 50.0089 79.9452 50.2637 79.6904 50.9937C79.5045 51.5239 79.4563 52.1437 79.4976 52.7153C79.594 54.1339 80.5099 54.368 81.6255 54.1959C82.3692 54.0788 82.8513 53.2938 82.8513 52.2539Z" fill="#5C5C5F"/>
<path d="M62.5362 65.0765C61.7581 63.1552 60.9868 61.2407 60.1811 59.2299C60.6494 59.2299 61.0212 59.2023 61.3793 59.2437C61.517 59.2574 61.6823 59.4296 61.7374 59.5673C61.9578 60.1182 62.1231 60.6967 62.3503 61.2476C62.6189 61.9087 62.9219 62.5561 63.2455 63.2929C63.3488 63.1276 63.4659 62.9761 63.5348 62.8109C63.9893 61.6815 64.43 60.5452 64.8914 59.4227C64.9327 59.3263 65.1049 59.2437 65.2151 59.2299C65.5732 59.2092 65.9313 59.223 66.3445 59.223C66.2618 59.5122 66.2067 59.7739 66.1034 60.0149C65.8486 60.621 65.5732 61.2201 65.3046 61.8192C64.9396 62.6456 64.554 63.4582 64.2028 64.2914C63.948 64.8974 63.7483 65.531 63.5003 66.1439C63.3213 66.5777 63.1147 66.9978 62.9012 67.4179C62.8599 67.5005 62.6946 67.5625 62.5844 67.5694C62.2264 67.5901 61.8683 67.5694 61.4826 67.5694C61.8476 66.6948 62.1988 65.8547 62.5294 65.0696" fill="#5D5C60"/>
<path d="M77.2526 55.3046H76.0612V53.1836C76.0612 52.7084 76.0612 52.2332 76.0612 51.7581C76.0475 50.4359 74.8492 49.823 73.6441 50.4083C73.162 50.6425 73.1552 50.9042 73.1552 51.2967C73.162 52.6189 73.1552 53.9411 73.1552 55.2977H71.8605V50.5392C71.8605 49.8505 72.2186 49.3754 72.8866 49.2445C73.7818 49.0655 74.6702 48.914 75.593 49.1894C76.4125 49.4305 77.1837 50.064 77.2251 50.8973C77.2939 52.3641 77.2457 53.8309 77.2457 55.3184" fill="#5C5C5F"/>
<path d="M74.3121 65.2969H73.1414C73.1276 65.1454 73.1001 65.0076 73.1001 64.863C73.1001 63.2447 73.0863 61.6333 73.1138 60.0149C73.1138 59.829 73.2447 59.5673 73.3962 59.4778C74.3672 58.9131 75.4277 58.7685 76.5226 59.0302C76.6741 59.0646 76.8463 59.2988 76.8807 59.464C76.9358 59.7601 76.8945 60.0769 76.8945 60.373C76.3505 60.318 75.8409 60.256 75.3313 60.2078C75.2073 60.194 75.0696 60.2078 74.9388 60.2353C74.5187 60.3111 74.2639 60.4419 74.2914 60.9859C74.3465 62.4046 74.3121 63.8232 74.3121 65.29" fill="#5B5A5E"/>
<path d="M96.0044 49.2445H94.6753V55.339H96.0044V49.2445Z" fill="#5D5C60"/>
<path d="M79.1808 59.2643H77.8655V65.3106H79.1808V59.2643Z" fill="#605F62"/>
<path d="M96.0044 47.0891H94.6753V48.1151H96.0044V47.0891Z" fill="#616063"/>
<path d="M79.1808 56.9987H77.8655V58.011H79.1808V56.9987Z" fill="#616064"/>
</g>
<rect x="1" y="1" width="110" height="110" rx="9" stroke="#CCCCCC" stroke-width="2"/>
<defs>
<clipPath id="clip0_528_618">
<rect x="2" y="2" width="108" height="108" rx="8" fill="white"/>
</clipPath>
</defs>
</svg>
