<svg width="112" height="112" viewBox="0 0 112 112" fill="none" xmlns="http://www.w3.org/2000/svg">
<g clip-path="url(#clip0_642_1149)">
<rect x="2" y="2" width="108" height="108" rx="8" fill="white"/>
<path fill-rule="evenodd" clip-rule="evenodd" d="M57.5341 64.2636C57.5341 64.5422 57.5462 64.8167 57.5543 65.0589H56.9407L56.9043 64.7804H56.8922C56.7671 64.958 56.549 65.0993 56.2786 65.0993C55.7739 65.0993 55.568 64.7319 55.568 64.0254V62.4429H56.2826V63.9528C56.2826 64.2959 56.3472 64.5139 56.5491 64.5139C56.6702 64.5139 56.7428 64.4251 56.7751 64.3363C56.8034 64.2838 56.8195 64.2031 56.8195 64.1102V62.4429H57.5301V64.2596L57.5341 64.2636Z" fill="#767775"/>
<path fill-rule="evenodd" clip-rule="evenodd" d="M59.6698 63.2342C59.6698 62.9475 59.6536 62.6932 59.6496 62.4469H60.2592L60.2915 62.7457H60.3036C60.4449 62.5357 60.671 62.4025 60.9495 62.4025C61.4542 62.4025 61.652 62.7981 61.652 63.3795V65.0589H60.9415V63.4239C60.9415 63.1978 60.8849 62.9919 60.6831 62.9919C60.562 62.9919 60.4651 63.0727 60.4166 63.2261C60.3924 63.2786 60.3803 63.3674 60.3803 63.4683V65.063H59.6698V63.2342Z" fill="#767775"/>
<path fill-rule="evenodd" clip-rule="evenodd" d="M64.6112 61.7404V62.4469H65.132V62.9435H64.6112V64.1344C64.6112 64.4372 64.7404 64.5139 64.8817 64.5139L65.0674 64.4978V65.0428C64.9746 65.0711 64.8292 65.0912 64.6395 65.0912C64.4336 65.0912 64.256 65.0428 64.1308 64.9257C63.9855 64.7885 63.9047 64.5906 63.9047 64.1788V62.9435H63.5898V62.4469H63.9047V61.9059L64.6153 61.7404H64.6112Z" fill="#767775"/>
<path fill-rule="evenodd" clip-rule="evenodd" d="M69.028 64.2636C69.028 64.5421 69.0401 64.8167 69.0482 65.0589H68.4386L68.4022 64.7803H68.3901C68.265 64.958 68.047 65.0993 67.7765 65.0993C67.2718 65.0993 67.0659 64.7319 67.0659 64.0254V62.4428H67.7805V63.9527C67.7805 64.2959 67.8451 64.5139 68.0429 64.5139C68.164 64.5139 68.2367 64.4251 68.269 64.3363C68.2973 64.2838 68.3134 64.203 68.3134 64.1102V62.4428H69.0239V64.2595L69.028 64.2636Z" fill="#767775"/>
<path fill-rule="evenodd" clip-rule="evenodd" d="M71.866 63.5894H71.8781C71.9265 63.44 71.9629 63.331 72.0153 63.2261L72.3585 62.4469H73.1215L72.4837 63.545L73.1619 65.063H72.3706L71.9911 63.9891L71.87 64.2152V65.067H71.1595V61.365H71.87V63.5935L71.866 63.5894Z" fill="#767775"/>
<path fill-rule="evenodd" clip-rule="evenodd" d="M77.4897 64.4291C77.5906 64.4937 77.7885 64.5704 77.9661 64.5704C78.1437 64.5704 78.2527 64.4897 78.2527 64.3363C78.2527 64.2031 78.176 64.1183 77.9419 63.981C77.5099 63.7388 77.4049 63.4683 77.4049 63.2261C77.4049 62.7537 77.7481 62.4025 78.2769 62.4025C78.499 62.4025 78.6726 62.455 78.8139 62.5196L78.6887 63.0323C78.5838 62.9717 78.4627 62.9233 78.3214 62.9233C78.1437 62.9233 78.0549 63.0323 78.0549 63.1453C78.0549 63.2584 78.1155 63.327 78.3617 63.4723C78.7533 63.6904 78.8987 63.9649 78.8987 64.2636C78.8987 64.7965 78.5071 65.0872 77.962 65.0872C77.74 65.0872 77.4776 65.0266 77.3565 64.9378L77.4857 64.4251L77.4897 64.4291Z" fill="#767775"/>
<path fill-rule="evenodd" clip-rule="evenodd" d="M82.1203 63.5087C82.1203 63.1736 82.0355 62.9112 81.8215 62.9112C81.5874 62.9112 81.4945 63.2503 81.4905 63.5087H82.1203ZM81.4865 64.0012C81.4945 64.409 81.7368 64.5583 82.0476 64.5583C82.2495 64.5583 82.4271 64.5139 82.5523 64.4736L82.6492 64.9742C82.4635 65.0428 82.1889 65.0912 81.9184 65.0912C81.1958 65.0912 80.8002 64.6189 80.8002 63.8034C80.8002 62.9273 81.2604 62.4025 81.8619 62.4025C82.4312 62.4025 82.7622 62.8466 82.7622 63.6379C82.7622 63.8236 82.7582 63.9285 82.742 64.0012H81.4865Z" fill="#767775"/>
<path fill-rule="evenodd" clip-rule="evenodd" d="M84.7889 63.2342C84.7889 62.9475 84.7727 62.6932 84.7687 62.4469H85.3864L85.4186 62.7497H85.4308C85.568 62.5519 85.7901 62.4025 86.0646 62.4025C86.3633 62.4025 86.5531 62.5357 86.6459 62.7537H86.6581C86.7227 62.6528 86.8195 62.5559 86.9245 62.4913C87.0335 62.4308 87.1627 62.3985 87.3 62.3985C87.7723 62.3985 87.9822 62.7658 87.9822 63.3997V65.0589H87.2798V63.5208C87.2798 63.222 87.2475 62.9798 87.0295 62.9798C86.9043 62.9798 86.8115 63.0646 86.763 63.222L86.7428 63.4037V65.063H86.0363V63.4199C86.0363 63.2342 86.0162 62.9798 85.7941 62.9798C85.6851 62.9798 85.5761 63.0606 85.5277 63.214L85.4994 63.4118V65.0589H84.7969V63.2301L84.7889 63.2342Z" fill="#767775"/>
<path fill-rule="evenodd" clip-rule="evenodd" d="M92.0396 64.2636C92.0396 64.5422 92.0517 64.8167 92.0597 65.0589H91.4461L91.4098 64.7804H91.3977C91.2725 64.958 91.0545 65.0993 90.784 65.0993C90.2794 65.0993 90.0735 64.7319 90.0735 64.0254V62.4429H90.788V63.9528C90.788 64.2959 90.8526 64.5139 91.0545 64.5139C91.1756 64.5139 91.2483 64.4251 91.2806 64.3363C91.3088 64.2838 91.325 64.2031 91.325 64.1102V62.4429H92.0355V64.2596L92.0396 64.2636Z" fill="#767775"/>
<path fill-rule="evenodd" clip-rule="evenodd" d="M95.2652 63.7872C95.027 63.7913 94.7 63.868 94.7 64.2313C94.7 64.4937 94.8454 64.5906 94.9544 64.5906C95.0674 64.5906 95.1966 64.522 95.245 64.3646L95.2612 64.2434V63.7872H95.2652ZM95.3621 65.0589L95.3258 64.8006H95.3177C95.1724 65.0024 94.9665 65.0993 94.7323 65.0993C94.3327 65.0993 94.0339 64.7683 94.0339 64.3C94.0339 63.6177 94.6476 63.331 95.2491 63.327V63.2665C95.2491 63.0646 95.1239 62.9152 94.8736 62.9152C94.6637 62.9152 94.4901 62.9677 94.3327 63.0646L94.1994 62.5963C94.3448 62.5115 94.6556 62.3985 95.023 62.3985C95.8304 62.3985 95.9596 62.9556 95.9596 63.4845V64.4574C95.9596 64.6673 95.9717 64.8813 96.004 65.0549H95.3662L95.3621 65.0589Z" fill="#767775"/>
<path fill-rule="evenodd" clip-rule="evenodd" d="M55.7497 53.2301H57.1788V56.4962H57.199C57.3201 56.1934 57.4372 55.8704 57.5583 55.5595L58.5394 53.2301H60.1138L58.4667 56.3872L60.1381 60.4929H58.5757L57.5059 57.4853L57.1788 58.0787V60.4929H55.7497V53.2301Z" fill="#242222"/>
<path fill-rule="evenodd" clip-rule="evenodd" d="M63.8765 57.3036H62.193V59.2656H64.0945V60.4929H60.7638V53.2301H63.9612V54.4614H62.193V56.1288H63.8765V57.3036Z" fill="#242222"/>
<path fill-rule="evenodd" clip-rule="evenodd" d="M66.4523 53.2301V57.9496C66.4523 59.0154 66.7793 59.3383 67.1507 59.3383C67.5665 59.3383 67.8612 59.0477 67.8612 57.9496V53.2301H69.2904V57.7033C69.2904 59.5685 68.5798 60.5777 67.1628 60.5777C65.6246 60.5777 65.0231 59.5321 65.0231 57.7114V53.2301H66.4523Z" fill="#242222"/>
<path fill-rule="evenodd" clip-rule="evenodd" d="M72.8066 57.7356L72.5684 56.2176C72.4917 55.7776 72.3948 55.0509 72.3262 54.5704H72.2939C72.2172 55.0549 72.1082 55.8099 72.0315 56.2297L71.757 57.7356H72.8066ZM71.6157 58.8337L71.2887 60.4929H69.8999L71.4946 53.2301H73.2103L74.6435 60.4929H73.2547L72.9398 58.8337H71.6157Z" fill="#242222"/>
<path fill-rule="evenodd" clip-rule="evenodd" d="M75.447 60.493V53.2301H76.7591L77.8935 56.0763C78.1115 56.6375 78.4749 57.5741 78.6808 58.1999H78.701C78.6566 57.4328 78.5597 56.1732 78.5597 54.8369V53.2301H79.8152V60.493H78.5032L77.3768 57.7356C77.1386 57.1219 76.7995 56.2055 76.634 55.5475H76.6138C76.6461 56.2782 76.6985 57.4005 76.6985 58.8539V60.493H75.443H75.447Z" fill="#242222"/>
<path fill-rule="evenodd" clip-rule="evenodd" d="M85.1684 60.2992C84.8535 60.4283 84.1752 60.5575 83.6383 60.5575C82.7985 60.5575 82.1647 60.3193 81.6722 59.8349C81.0383 59.2333 80.6992 58.1554 80.7235 56.9039C80.7558 54.2636 82.2858 53.1655 83.8482 53.1655C84.4053 53.1655 84.8212 53.2745 85.0472 53.3795L84.7969 54.5987C84.587 54.4897 84.3165 54.4372 83.9572 54.4372C82.9843 54.4372 82.2091 55.0953 82.2091 56.9887C82.2091 58.7327 82.8995 59.3585 83.5656 59.3585C83.6948 59.3585 83.7957 59.3464 83.8482 59.3262V57.57H83.1901V56.4154H85.1684V60.2992Z" fill="#242222"/>
<path fill-rule="evenodd" clip-rule="evenodd" d="M88.5959 57.7356L88.3537 56.2176C88.2769 55.7776 88.1801 55.0509 88.1155 54.5704H88.0832C88.0065 55.0549 87.8975 55.8099 87.8207 56.2297L87.5462 57.7356H88.5959ZM87.4049 58.8337L87.0779 60.4929H85.6932L87.2878 53.2301H89.0036L90.4368 60.4929H89.048L88.7291 58.8337H87.4049Z" fill="#242222"/>
<path fill-rule="evenodd" clip-rule="evenodd" d="M91.2402 60.4929V53.2301H92.5482L93.6827 56.0763C93.9007 56.6375 94.26 57.5741 94.4699 58.1998H94.4901C94.4457 57.4328 94.3488 56.1732 94.3488 54.8369V53.2301H95.6044V60.4929H94.2923L93.17 57.7356C92.9277 57.1219 92.5926 56.2055 92.4271 55.5474H92.4069C92.4392 56.2782 92.4917 57.4005 92.4917 58.8539V60.4929H91.2362H91.2402Z" fill="#242222"/>
<path d="M57.4736 43.9931H55.8103V52.4469H57.4736V43.9931Z" fill="#242222"/>
<path fill-rule="evenodd" clip-rule="evenodd" d="M58.9633 52.4429V43.9891H60.4893L61.8094 47.2996C62.0638 47.9536 62.4836 49.0436 62.7259 49.7703H62.7501C62.6976 48.8821 62.5846 47.4126 62.5846 45.8583V43.9891H64.046V52.4429H62.52L61.2119 49.2333C60.9334 48.5188 60.5377 47.453 60.348 46.6859H60.3238C60.3601 47.5377 60.4247 48.8417 60.4247 50.5373V52.4429H58.9633Z" fill="#242222"/>
<path fill-rule="evenodd" clip-rule="evenodd" d="M65.5196 43.9931H67.1869V47.7921H67.2111C67.3524 47.4409 67.4897 47.0654 67.631 46.7021L68.7735 43.9931H70.6023L68.6847 47.6669L70.6266 52.4469H68.8098L67.5664 48.9467L67.1869 49.6371V52.4469H65.5196V43.9931Z" fill="#242222"/>
<path fill-rule="evenodd" clip-rule="evenodd" d="M71.3532 43.9931H73.0165V51.0541H75.2168V52.4429H71.3532V43.9931Z" fill="#242222"/>
<path fill-rule="evenodd" clip-rule="evenodd" d="M77.5422 43.9931V49.4837C77.5422 50.7271 77.9217 51.1025 78.3577 51.1025C78.8421 51.1025 79.1813 50.7634 79.1813 49.4837V43.9931H80.8486V49.197C80.8486 51.369 80.021 52.5438 78.3698 52.5438C76.5773 52.5438 75.8789 51.3286 75.8789 49.2091V43.9931H77.5422Z" fill="#242222"/>
<path fill-rule="evenodd" clip-rule="evenodd" d="M82.092 50.7634C82.4352 50.9532 83.0206 51.0904 83.501 51.0904C84.2882 51.0904 84.6718 50.6908 84.6718 50.1377C84.6718 49.524 84.2923 49.2212 83.5656 48.757C82.3948 48.0545 81.9507 47.1623 81.9507 46.3993C81.9507 45.0468 82.8672 43.9164 84.6597 43.9164C85.2168 43.9164 85.7537 44.0658 86.0081 44.2192L85.7416 45.6363C85.4994 45.4869 85.132 45.3496 84.6476 45.3496C83.937 45.3496 83.5939 45.7776 83.5939 46.2257C83.5939 46.7263 83.8482 46.9887 84.7767 47.5418C85.9071 48.22 86.327 49.0719 86.327 49.96C86.327 51.5022 85.1724 52.5196 83.4929 52.5196C82.8066 52.5196 82.1324 52.346 81.8539 52.1805L82.0961 50.7634H82.092Z" fill="#242222"/>
<path d="M88.9552 43.9931H87.2878V52.4469H88.9552V43.9931Z" fill="#242222"/>
<path fill-rule="evenodd" clip-rule="evenodd" d="M38.9713 41.2196C37.1143 36.0077 35.3339 35.3254 35.4146 33C35.4146 33 30.344 36.1126 30.3319 41.3407C30.3561 42.2652 30.5499 43.331 31.0505 44.4857C31.4057 45.0791 33.3314 48.1514 34.2923 46.7142C34.8535 45.5797 35.2572 43.2059 34.1631 38.2967C34.1631 38.2967 37.6956 43.9851 34.8696 47.5741C32.9883 49.956 30.4893 44.3605 30.4893 44.3605C30.4207 44.4816 30.6508 45.3496 31.0262 46.3105L30.9859 46.262C30.9859 46.262 31.1998 46.8353 31.5834 47.5539C31.7166 47.8123 31.8579 48.0585 31.9992 48.2765C32.6936 49.3827 33.6948 50.5131 34.8696 50.4122C37.1223 50.2224 40.8405 46.4477 38.9754 41.2196H38.9713Z" fill="#B1B2B2"/>
<path fill-rule="evenodd" clip-rule="evenodd" d="M38.9713 69.9641C37.1143 75.176 35.3339 75.8583 35.4146 78.1837C35.4146 78.1837 30.344 75.0711 30.3319 69.843C30.3561 68.9184 30.5499 67.8526 31.0505 66.7021C31.4057 66.1086 33.3314 63.0363 34.2923 64.4736C34.8535 65.608 35.2572 67.9818 34.1631 72.891C34.1631 72.891 37.6956 67.2027 34.8696 63.6136C32.9883 61.2317 30.4893 66.8272 30.4893 66.8272C30.4207 66.7061 30.6508 65.8381 31.0262 64.8773L30.9859 64.9257C30.9859 64.9257 31.1998 64.3524 31.5834 63.6338C31.7166 63.3755 31.8579 63.1292 31.9992 62.9112C32.6936 61.805 33.6948 60.6746 34.8696 60.7755C37.1223 60.9653 40.8405 64.74 38.9754 69.9681L38.9713 69.9641Z" fill="#056F3F"/>
<path fill-rule="evenodd" clip-rule="evenodd" d="M47.9622 51.7283C51.1192 47.0856 49.791 45.3375 53.5374 43.6823C53.5374 43.6823 46.9771 41.5991 42.6896 44.7239C41.9468 45.2971 41.1878 46.0925 40.5459 47.1946C40.2714 47.8405 38.9109 51.26 40.663 51.1833C41.9307 50.9612 44.1148 49.8712 47.4777 46.0359C47.4777 46.0359 44.9343 52.3379 40.2997 52.1764C37.2234 52.0593 40.3077 46.6617 40.3077 46.6617C40.1664 46.6778 39.5972 47.3843 39.032 48.2685L39.0481 48.2079C39.0481 48.2079 38.709 48.7287 38.3457 49.4715C38.2125 49.738 38.0954 49.9964 38.0025 50.2426C37.51 51.474 37.187 52.9758 37.9702 53.8761C39.4761 55.604 44.793 56.3912 47.9622 51.7323V51.7283Z" fill="#DC2835"/>
<path fill-rule="evenodd" clip-rule="evenodd" d="M25.7618 65.3537C20.1704 65.8704 19.2862 63.8599 16.0242 66.3387C16.0242 66.3387 17.3767 59.5886 22.1849 57.348C23.0448 56.9725 24.1106 56.698 25.3864 56.6657C26.0848 56.7424 29.7344 57.2027 28.822 58.6964C28.0186 59.6976 26.0081 61.0824 21.0182 62.1683C21.0182 62.1683 27.7642 62.9919 29.8635 58.8579C31.2564 56.1086 25.0351 56.1934 25.0351 56.1934C25.1159 56.0763 26.0121 55.9189 27.0618 55.8583L27.0012 55.8421C27.0012 55.8421 27.6189 55.7977 28.4465 55.8421C28.7453 55.8543 29.0279 55.8785 29.2903 55.9148C30.6064 56.0803 32.0759 56.5204 32.4836 57.6467C33.2669 59.8026 31.3855 64.8369 25.7739 65.3537H25.7618Z" fill="#672F8A"/>
<path fill-rule="evenodd" clip-rule="evenodd" d="M44.3286 65.3819C49.9201 65.8987 50.8042 63.8882 54.0702 66.367C54.0702 66.367 52.7178 59.6169 47.9096 57.3763C47.0497 57.0008 45.9838 56.7263 44.7081 56.694C44.0097 56.7667 40.3601 57.2309 41.2725 58.7247C42.0759 59.7259 44.0864 61.1106 49.0763 62.1966C49.0763 62.1966 42.3302 63.0202 40.2309 58.8862C38.8381 56.1369 45.0593 56.2216 45.0593 56.2216C44.9786 56.1046 44.0824 55.9471 43.0327 55.8866L43.0933 55.8704C43.0933 55.8704 42.4756 55.826 41.648 55.8704C41.3492 55.8825 41.0666 55.9067 40.8042 55.9431C39.4881 56.1086 38.0186 56.5486 37.6108 57.675C36.8276 59.8308 38.7089 64.8652 44.3205 65.3819H44.3286Z" fill="#F8B83C"/>
<path fill-rule="evenodd" clip-rule="evenodd" d="M22.201 51.7485C19.048 47.1058 19.7465 45.281 16 43.6258C16 43.6258 23.1861 41.6193 27.4776 44.744C28.2204 45.3173 28.9794 46.1126 29.6213 47.2148C29.8958 47.8607 31.2564 51.2802 29.5042 51.2035C28.2366 50.9814 26.0525 49.8914 22.6895 46.0561C22.6895 46.0561 25.2329 52.3581 29.8676 52.1966C32.9439 52.0795 29.8595 46.6819 29.8595 46.6819C30.0008 46.694 30.57 47.4045 31.1352 48.2887L31.1191 48.2281C31.1191 48.2281 31.4582 48.7489 31.8216 49.4917C31.9548 49.7582 32.0719 50.0206 32.1647 50.2628C32.6572 51.4941 32.9802 52.996 32.197 53.8962C30.6912 55.6241 25.3742 56.4114 22.2051 51.7525L22.201 51.7485Z" fill="#37A9E1"/>
</g>
<rect x="1" y="1" width="110" height="110" rx="9" stroke="#CCCCCC" stroke-width="2"/>
<defs>
<clipPath id="clip0_642_1149">
<rect x="2" y="2" width="108" height="108" rx="8" fill="white"/>
</clipPath>
</defs>
</svg>
