<svg width="112" height="112" viewBox="0 0 112 112" fill="none" xmlns="http://www.w3.org/2000/svg">
<g clip-path="url(#clip0_428_508)">
<rect x="2" y="2" width="108" height="108" rx="8" fill="white"/>
<path d="M56.8712 69.0233C56.8712 69.0233 57.93 70.0077 57.7342 70.5625C57.285 71.839 55.274 72.4322 53.9679 72.0793C51.8831 71.5157 49.9767 69.1205 49.9954 66.961C50.0228 63.7917 53.2639 61.2265 55.9541 59.5513C58.7235 57.8269 62.2419 57.3583 65.5033 57.4121C69.0543 57.4714 72.8438 58.1431 75.8167 60.0859C77.4713 61.1672 78.8373 62.8778 79.4836 64.7455C79.8501 65.8043 79.4836 68.1068 79.4836 68.1068C79.4836 68.1068 82.4011 64.0789 83.4561 61.8425C84.7133 59.1768 86.5594 56.3649 86.2062 53.439C86.0445 52.0994 85.1586 50.7984 84.067 50.0011C80.5659 47.4545 75.7894 47.0127 71.4624 46.8691C66.9895 46.721 62.4409 47.6742 58.2466 49.2373C55.3893 50.2999 52.5919 51.8022 50.3779 53.8969C47.8845 56.256 45.4948 59.1266 44.6485 62.453C44.0998 64.609 44.217 67.1343 45.2597 69.0996C46.2013 70.8739 48.0562 72.1704 49.9194 72.9194C51.7443 73.653 53.9302 73.9821 55.8018 73.3777C57.0399 72.9783 58.7402 72.1572 58.7811 70.8562C58.8413 68.9412 56.8715 69.0226 56.8715 69.0226L56.8712 69.0233Z" fill="#18D1FF"/>
<path d="M55.8342 70.1504C55.8342 70.1504 55.5579 69.2987 55.7939 68.9931C56.1771 68.4981 57.0401 68.3638 57.6294 68.5834C58.4802 68.9055 59.2418 69.8715 59.2434 70.7796C59.2453 71.946 58.2207 73.0779 57.1809 73.6063C54.9106 74.7602 51.9506 74.4317 49.5415 73.6063C47.4983 72.9066 45.4969 71.5074 44.4233 69.6339C42.8647 66.916 42.5008 63.3673 43.2009 60.3139C43.9158 57.1954 46.2382 54.5832 48.4724 52.2923C50.874 49.8295 53.7803 47.7422 56.9522 46.41C60.5856 44.8845 64.6341 44.4769 68.5643 44.1944C71.9456 43.9516 75.3944 44.0218 78.7251 44.6527C80.8141 45.0488 82.9275 45.6374 84.7598 46.7152C85.4805 47.1393 86.6221 48.3962 86.6221 48.3962C86.6221 48.3962 86.121 41.9654 85.1421 38.9233C84.2942 36.2891 83.3941 33.4305 81.3989 31.5135C79.9862 30.1559 77.9671 29.4841 76.0514 29.0742C72.4125 28.2962 68.5566 28.4833 64.8981 29.1451C60.6242 29.9179 56.4943 31.5828 52.6651 33.6331C49.081 35.5523 45.7053 37.9691 42.8196 40.8335C40.456 43.1801 38.2269 45.8171 36.8609 48.8551C35.4846 51.9159 34.7758 55.3535 34.7984 58.7096C34.8164 61.3969 35.3722 64.1653 36.5553 66.5782C37.6621 68.8356 39.4358 70.7764 41.3683 72.3843C43.0499 73.7831 45.0284 74.8748 47.0977 75.5832C49.0472 76.2505 51.152 76.6266 53.2097 76.5094C55.6168 76.3725 58.3562 76.1841 60.1918 74.6214C61.2641 73.7081 62.0392 72.174 61.93 70.77C61.8534 69.7862 61.1485 68.8121 60.3096 68.2923C59.3935 67.7243 58.1392 67.3746 57.0978 67.6541C56.1317 67.913 55.3215 68.4311 55.1995 69.2384C55.1415 69.6216 55.8383 70.1507 55.8383 70.1507L55.8342 70.1504Z" fill="#0166FE"/>
<path d="M56.1565 70.8331C56.1565 70.8331 54.6752 70.5337 54.2894 69.9798C53.7355 69.1789 53.7741 68.0496 54.3177 67.2426C55.2129 65.9139 57.1299 65.4048 58.7307 65.3427C61.4373 65.2316 64.7445 65.8193 66.4319 67.9382C67.8401 69.707 68.1247 72.6709 67.1023 74.6877C66.0764 76.7117 63.4139 77.4977 61.2402 78.1488C57.8377 79.168 54.1055 79.2212 50.5968 78.6679C46.9721 78.0963 43.4318 76.6865 40.2998 74.7715C36.849 72.6642 33.6845 69.9041 31.3009 66.6378C28.744 63.1342 26.835 59.0268 25.936 54.7874C25.1229 50.9499 25.2362 46.8657 26.0229 43.0197C26.9222 38.661 28.6557 34.5172 31.1279 30.8164C33.014 28.0051 35.5506 25.5996 38.3097 23.6346C40.7905 21.87 43.6456 20.627 46.5299 19.6545C48.872 18.8645 51.3297 18.3139 53.798 18.1835C56.8646 18.0215 59.9721 18.3831 62.9698 19.0487C65.4816 19.6065 67.9612 20.4415 70.2379 21.6442C72.9203 23.0634 77.5929 27.0091 77.5929 27.0091C77.5929 27.0091 68.1183 26.1036 63.4883 26.9222C58.0332 27.8873 52.6474 29.8423 47.9137 32.7195C44.3888 34.862 41.28 37.7753 38.7418 41.0261C36.7089 43.6297 35.0914 46.6241 34.0725 49.7658C33.0362 52.9538 32.4888 56.3737 32.6878 59.7163C32.8231 61.9788 33.4156 64.2594 34.4184 66.292C35.4186 68.3207 36.8731 70.1637 38.5718 71.6569C40.7789 73.5915 43.3335 75.0891 46.0997 76.0699C48.3275 76.8543 50.7465 77.1377 53.1085 77.1081C55.1283 77.0823 57.2806 76.9896 59.0788 76.0699C60.5859 75.2989 62.1979 74.1377 62.7128 72.5221C63.1321 71.2099 62.878 69.4974 61.9767 68.455C61.0873 67.4265 59.4694 67.1573 58.1099 67.1573C57.1116 67.1569 55.9935 67.4203 55.2712 68.1091C54.8681 68.4936 54.6604 68.9873 54.8075 69.5244C54.975 70.1337 56.1581 70.8351 56.1581 70.8351L56.159 70.8341L56.1565 70.8331ZM29.0319 82.9669L25.6378 86.2264L24.3667 87.5123C25.5728 88.888 26.784 90.2587 28.0001 91.6245L29.2109 93.1197V93.1944L28.3885 93.1493L27.5512 93.1944C27.3917 92.9651 27.2221 92.7358 27.0424 92.5065C26.8707 92.2674 26.6963 92.042 26.5191 91.8303L23.2596 88.0175C23.2098 87.9778 23.145 87.9529 23.0651 87.9428C23.0252 87.9523 23.0052 87.9623 23.0052 87.9728V93.1908L22.3473 93.1457L21.6895 93.1908V82.9634L22.3473 83.0085L23.0052 82.9634V87.5835C23.0151 87.6232 23.06 87.6331 23.1398 87.6134C23.2296 87.5934 23.3155 87.5535 23.3975 87.4936C23.4769 87.4238 23.6413 87.2693 23.8908 87.0299C23.9805 86.9402 24.0752 86.8504 24.1748 86.7607L27.8539 82.964L28.4519 83.0091L29.0319 82.9669Z" fill="#0100CC"/>
<path d="M39.8282 87.9573C39.8282 87.2795 39.7633 86.6814 39.6337 86.163C39.504 85.6349 39.2548 85.1365 38.8859 84.6678C38.5171 84.1994 38.0586 83.8406 37.5103 83.5913C36.972 83.3423 36.3939 83.2178 35.7758 83.2178C34.4699 83.2178 33.4384 83.6763 32.6812 84.5934C31.9337 85.5005 31.5599 86.7167 31.5599 88.242C31.5599 89.7072 31.9587 90.8585 32.7562 91.696C33.5038 92.4735 34.4655 92.8623 35.6416 92.8623C37.0471 92.8623 38.1385 92.2543 38.9159 91.0381C39.5239 90.0913 39.8278 89.0646 39.8278 87.9579L39.8282 87.9573ZM35.5968 93.3544C33.9322 93.3544 32.5965 92.876 31.5899 91.9191C30.5931 90.9522 30.0947 89.6663 30.0947 88.0613C30.0947 86.4566 30.628 85.1556 31.6945 84.1584C32.7211 83.2016 34.032 82.7231 35.6271 82.7231C37.182 82.7231 38.4778 83.1267 39.5145 83.934C40.7006 84.8609 41.2937 86.1619 41.2937 87.8369C41.2937 89.4916 40.7654 90.8273 39.7087 91.8438C38.652 92.8528 37.2813 93.3573 35.5965 93.3573L35.5968 93.3544Z" fill="#0100CC"/>
<path d="M52.9399 82.967H53.2539C53.4632 84.9507 53.5928 86.1668 53.6426 86.6155C53.8021 88.0807 53.9316 89.2221 54.0313 90.0396C54.1386 90.8468 54.2832 91.8984 54.465 93.1944L53.7624 93.1493L53.0597 93.1944C52.97 92.1977 52.8841 91.2455 52.8021 90.3381C52.7323 89.4311 52.6464 88.5339 52.5445 87.6466C52.4547 86.7596 52.3689 86.0368 52.2869 85.4784C51.6789 86.5748 51.1505 87.5318 50.7019 88.3493C50.1836 89.3061 49.75 90.1335 49.4009 90.8314C49.0222 91.5989 48.6783 92.3315 48.3691 93.0292H48.2081L47.3857 91.3396C47.0267 90.5921 46.7077 89.948 46.4286 89.4074C46.1495 88.8591 45.8056 88.1963 45.3969 87.419C45.048 86.771 44.7041 86.1231 44.3651 85.4752C44.1934 86.9007 44.0289 88.341 43.8718 89.7961C43.7123 91.2517 43.6325 92.383 43.6325 93.1902L43.1092 93.1452L42.5708 93.1902C42.7801 91.8944 43.0543 90.0554 43.3932 87.673C43.7324 85.2806 43.9368 83.7107 44.0064 82.9631H44.3928C44.911 83.9799 45.3347 84.8122 45.6638 85.4601C46.0625 86.2276 46.5348 87.1097 47.0807 88.1065C47.6788 89.1928 48.1921 90.0899 48.6206 90.7979C50.056 88.1863 51.4914 85.5747 52.9267 82.9631L52.9399 82.967ZM56.6348 93.1999V82.9725L57.2927 83.0176L57.9506 82.9725V93.1999L57.2927 93.1548L56.6348 93.1999ZM69.5363 82.967V93.1944H69.0877L68.3104 92.2825L61.8512 85.1355H61.7018V93.1947L61.2832 93.1497L60.8646 93.1947V82.9673H61.4442L68.5464 90.6675H68.6958V82.9673L69.1145 83.0124L69.5363 82.967ZM72.3379 93.1999V82.9725H77.6458L77.6007 83.421L77.6458 83.8696C77.3467 83.8095 77.1025 83.7696 76.9132 83.7498C76.7238 83.7198 76.5195 83.7048 76.3001 83.7048L74.8049 83.6748H73.6537V87.4248H75.9713C76.1606 87.4248 76.4099 87.4148 76.719 87.3948C77.038 87.3647 77.2312 87.3497 77.2986 87.3497L77.2536 87.7384L77.2986 88.157C77.1192 88.157 76.8699 88.147 76.5509 88.1271C76.2319 88.097 76.0387 88.082 75.9713 88.082H73.6537V93.1957L72.9958 93.1506L72.3379 93.1999Z" fill="#0100CC"/>
<path d="M88.8418 87.9573C88.8418 87.2795 88.777 86.6814 88.6473 86.163C88.5177 85.6349 88.2684 85.1365 87.8996 84.6678C87.5308 84.1994 87.0722 83.8406 86.5239 83.5913C85.9857 83.3423 85.4076 83.2178 84.7895 83.2178C83.4836 83.2178 82.4521 83.6763 81.6949 84.5934C80.9474 85.5005 80.5736 86.7167 80.5736 88.242C80.5736 89.7072 80.9724 90.8585 81.7699 91.696C82.5174 92.4735 83.4792 92.8623 84.6552 92.8623C86.0608 92.8623 87.1522 92.2543 87.9296 91.0381C88.5375 90.0913 88.8415 89.0646 88.8415 87.9579L88.8418 87.9573ZM84.6105 93.3544C82.9458 93.3544 81.6102 92.876 80.6035 91.9191C79.6068 90.9522 79.1084 89.6663 79.1084 88.0613C79.1084 86.4566 79.6417 85.1556 80.7082 84.1584C81.7348 83.2016 83.0457 82.7231 84.6407 82.7231C86.1957 82.7231 87.4915 83.1267 88.5282 83.934C89.7143 84.8609 90.3074 86.1619 90.3074 87.8369C90.3074 89.4916 89.779 90.8273 88.7224 91.8438C87.6657 92.8528 86.295 93.3573 84.6101 93.3573L84.6105 93.3544Z" fill="#0100CC"/>
</g>
<rect x="1" y="1" width="110" height="110" rx="9" stroke="#CCCCCC" stroke-width="2"/>
<defs>
<clipPath id="clip0_428_508">
<rect x="2" y="2" width="108" height="108" rx="8" fill="white"/>
</clipPath>
</defs>
</svg>
