<svg width="112" height="112" viewBox="0 0 112 112" fill="none" xmlns="http://www.w3.org/2000/svg">
<g clip-path="url(#clip0_324_33)">
<rect x="2" y="2" width="108" height="108" rx="8" fill="white"/>
<path fill-rule="evenodd" clip-rule="evenodd" d="M51.5675 56.43C50.1388 58.8303 48.9672 60.9162 47.5385 63.3164C46.1384 65.7166 44.8526 67.8311 43.4525 70.2313C43.081 70.8599 42.7095 71.0885 41.9666 71.0885C39.1378 71.0885 36.7376 71.0885 33.9087 71.0885C31.1085 71.0885 28.6226 71.0599 25.7937 71.0599C25.0794 71.0599 24.6793 70.8313 24.3079 70.2027C22.9078 67.7739 21.7077 65.7452 20.279 63.3164C18.8788 60.9162 17.6787 58.7731 16.2786 56.3729C15.9071 55.7157 15.9071 55.2871 16.2786 54.6585C17.6787 52.2582 18.8788 50.1723 20.279 47.7721C21.6791 45.3719 22.9649 43.2574 24.365 40.8572C24.7365 40.2286 25.1365 40 25.8795 40C28.6797 40 31.0799 40 33.9087 40C36.7376 40 39.1949 40.0286 42.0238 40.0286C42.7667 40.0286 43.1381 40.2572 43.5096 40.8858C44.9383 43.3146 46.1384 45.3433 47.5385 47.7721C48.9672 50.1723 50.1673 52.3154 51.5675 54.7156C51.9389 55.3728 51.9389 55.8014 51.5675 56.43Z" fill="white"/>
<path fill-rule="evenodd" clip-rule="evenodd" d="M32.4515 50.7724H31.8228V55.3442H32.6515C33.7944 55.3442 34.6517 55.1442 35.2803 54.7442C35.8803 54.3441 36.1661 53.7727 36.1661 53.0297C36.1661 52.2582 35.8803 51.6868 35.2803 51.3153C34.6802 50.9724 33.7373 50.7724 32.4515 50.7724ZM51.5675 56.43C51.0531 57.3158 50.5674 58.1445 50.0816 58.9445C50.0245 58.0302 49.7102 57.2301 49.1101 56.5443C48.4529 55.8014 47.1671 54.9728 45.2812 54.087L42.9953 53.0297C42.2523 52.6868 42.2238 52.1439 42.2523 51.7439C42.3095 51.2296 43.1381 50.7152 43.8239 50.7438C45.5669 50.8295 46.1384 51.3153 47.5957 52.0868L48.8244 49.9723C49.7387 51.5439 50.5959 53.0583 51.5675 54.7156C51.9389 55.3728 51.9389 55.8014 51.5675 56.43ZM47.4242 63.5164C46.0813 65.8309 44.824 67.8882 43.4525 70.2313C43.081 70.8599 42.7095 71.0885 41.9666 71.0885C39.1378 71.0885 36.7376 71.0885 33.9087 71.0885C31.1085 71.0885 28.6226 71.0599 25.7937 71.0599C25.0794 71.0599 24.6793 70.8313 24.3079 70.2027C23.1078 68.1454 22.0505 66.3452 20.9076 64.3736H26.5652L27.5367 62.602V64.3736H31.7085V58.9445C31.8228 58.9445 31.9371 58.9731 32.0514 58.9731C32.1657 58.9731 32.7086 58.9731 32.9658 58.9731C33.9945 58.9731 35.3089 58.9731 36.1375 58.7731C37.9091 58.3731 39.2235 57.2015 39.9379 55.63C41.7094 57.6016 44.5668 58.2016 45.2526 58.6017C45.9384 59.0303 45.8812 59.6303 45.7098 59.8875C45.5098 60.2018 44.8526 60.3447 44.5954 60.3447C43.0524 60.4875 40.9379 59.4875 40.0807 58.6302C39.1949 59.9446 38.1948 61.3733 37.852 62.0877C38.7377 62.9163 40.0236 63.8307 43.0524 64.1736C44.7954 64.3736 46.2527 64.145 47.4242 63.5164ZM17.7359 58.916C17.2501 58.0873 16.7644 57.2301 16.2786 56.3729C15.9071 55.7157 15.9071 55.2871 16.2786 54.6585C17.6787 52.2582 18.8788 50.1723 20.279 47.7721C21.6791 45.3719 22.9649 43.2574 24.365 40.8572C24.7365 40.2286 25.1365 40 25.8795 40C28.6797 40 31.0799 40 33.9087 40C36.7376 40 39.1949 40.0286 42.0238 40.0286C42.7667 40.0286 43.1381 40.2572 43.5096 40.8858C44.9383 43.3146 46.1384 45.3433 47.5385 47.7721L47.5957 47.8293C46.9099 47.6293 46.2527 47.4292 45.8812 47.3721C45.0812 47.2292 44.3382 47.1721 43.6525 47.1721C43.0524 47.1721 42.4809 47.2006 41.938 47.2864L40.1664 50.5152C39.8236 49.7723 39.2235 49.0294 38.252 48.315C36.2232 46.9149 34.5088 47.1149 31.5657 47.2578L27.5367 54.5727V60.5447H21.9934V46.7149L17.7359 54.4584V58.916Z" fill="#DC7902"/>
<path d="M85.8277 63.6021L87.885 59.116H88.7708L90.8281 63.5735H89.828L89.4566 62.6592H87.2278L86.7992 63.6021H85.8277ZM89.1422 61.8591L88.3708 60.1161L87.6278 61.8591H89.1422Z" fill="#333333"/>
<path d="M75.2553 63.6021L77.284 59.116H78.1698L80.2272 63.5735H79.2271L78.8842 62.6592H76.6268L76.2268 63.6021H75.2553ZM78.5699 61.8591L77.7984 60.1161L77.0554 61.8591H78.5699Z" fill="#333333"/>
<path d="M74.6552 60.5733C74.6552 60.7733 74.6267 60.9733 74.5695 61.1733C74.5124 61.3448 74.4266 61.5162 74.3123 61.6305C74.2552 61.7162 74.1695 61.7734 74.1123 61.8591C74.0266 61.9162 73.9409 61.9734 73.8552 62.0305C73.7409 62.0591 73.6551 62.1163 73.5409 62.1163C73.4266 62.1448 73.3123 62.1734 73.1694 62.1734H71.9407V63.5735H70.9692V59.116L73.1694 59.1731C73.398 59.1731 73.598 59.2017 73.7694 59.2303C73.9123 59.2874 74.0552 59.3732 74.1981 59.4589C74.3409 59.5732 74.4552 59.716 74.5409 59.9161C74.5981 60.0875 74.6552 60.3161 74.6552 60.5733ZM73.798 60.459C73.798 60.3447 73.7694 60.2304 73.7409 60.1447C73.6837 60.0589 73.6266 60.0018 73.5409 59.9732C73.4551 59.9161 73.3694 59.8875 73.2837 59.8875C73.198 59.8589 72.1979 59.8589 72.055 59.8589H71.9407V61.4019H71.9979C72.0836 61.4019 72.1693 61.4019 72.255 61.4019C72.3407 61.4019 73.2837 61.4019 73.3408 61.4019C73.398 61.3733 73.4551 61.3733 73.5123 61.3448C73.5694 61.2876 73.598 61.259 73.6551 61.2305C73.7123 61.1733 73.7409 61.0876 73.7694 61.0019C73.798 60.9162 73.798 60.6018 73.798 60.459Z" fill="#333333"/>
<path d="M76.9983 57.5444L79.0556 53.0583H79.9414L81.9987 57.5159H80.9987L80.6272 56.6301H78.3984L77.9698 57.5444H76.9983ZM80.3129 55.83L79.5414 54.087L78.7985 55.83H80.3129Z" fill="#333333"/>
<path d="M61.3398 54.4299C61.3398 54.6299 61.3112 54.8299 61.254 55.0013C61.1969 55.2014 61.1112 55.3442 60.9969 55.4871C60.9397 55.5728 60.8826 55.63 60.7969 55.6871C60.7111 55.7728 60.6254 55.83 60.5397 55.8586C60.454 55.9157 60.3397 55.9443 60.2254 55.9729C60.1111 56.0014 59.9968 56.0014 59.8539 56.0014L58.6252 55.9729V57.4301H57.6537V52.9726L59.8825 53.0012C60.0825 53.0297 60.2825 53.0297 60.454 53.0869C60.5968 53.1155 60.7683 53.2012 60.8826 53.3155C61.0254 53.4298 61.1397 53.5726 61.2255 53.7441C61.3112 53.9441 61.3398 54.1727 61.3398 54.4299ZM60.5111 54.3441C60.5111 54.2013 60.4825 54.087 60.4254 54.0013C60.3682 53.9155 60.3111 53.8584 60.2254 53.8298C60.1397 53.7727 60.0539 53.7441 59.9682 53.7441C59.8825 53.7441 58.911 53.7441 58.7681 53.7441H58.6252V55.2871H58.6824C58.7681 55.2871 58.8538 55.2585 58.9395 55.2585C59.0253 55.2585 59.9682 55.2585 60.0254 55.2585C60.0825 55.2299 60.1397 55.2299 60.1968 55.2014C60.2539 55.1728 60.3111 55.1156 60.3397 55.0871C60.3968 55.0299 60.454 54.9442 60.454 54.8585C60.4825 54.7727 60.5111 54.4584 60.5111 54.3441Z" fill="#333333"/>
<path d="M87.7993 51.4582L89.8566 46.9721H90.7424L92.7997 51.4296H91.7996L91.4567 50.5152H89.1994L88.7708 51.4582H87.7993ZM91.1138 49.7152L90.3424 48.0007L89.5994 49.7152H91.1138Z" fill="#333333"/>
<path d="M77.2269 51.4582L79.2842 46.9721H80.1414L82.1988 51.4296H81.2272L80.8558 50.5152H78.5984L78.1984 51.4582H77.2269ZM80.5415 49.7152L79.77 48.0007L79.0271 49.7152H80.5415Z" fill="#333333"/>
<path d="M76.5697 50.058C76.5697 50.2866 76.5411 50.4867 76.4554 50.6581C76.3983 50.801 76.3125 50.9438 76.1697 51.0581C76.0268 51.201 75.8839 51.2867 75.7125 51.3439C75.541 51.401 74.941 51.4296 74.6838 51.4296H72.7408V46.9721H74.4838C74.7695 46.9721 75.3696 46.9721 75.5125 47.0006C75.6553 47.0292 75.7982 47.0863 75.9125 47.1721C76.0554 47.2578 76.1411 47.3721 76.2268 47.515C76.284 47.6578 76.3125 47.8293 76.3125 48.0007C76.3125 48.2293 76.284 48.4293 76.1697 48.6008C76.0839 48.7436 75.9696 48.8865 75.7982 48.9722C76.0268 49.0294 76.2268 49.1722 76.3697 49.3437C76.5125 49.5151 76.5697 49.7723 76.5697 50.058ZM75.4267 48.2293C75.4267 48.1436 75.3982 48.0864 75.3696 48.0007C75.341 47.9436 75.2839 47.8864 75.2267 47.8293C75.1696 47.8007 75.0838 47.8007 74.9981 47.8007C74.9124 47.7721 73.9123 47.7721 73.7409 47.7721H73.6551V48.7436H73.7694C73.9409 48.7436 74.941 48.7151 74.9981 48.7151C75.0838 48.7151 75.141 48.6865 75.1981 48.6579C75.2839 48.6293 75.341 48.5722 75.3696 48.4865C75.3982 48.4008 75.4267 48.315 75.4267 48.2293ZM75.6553 50.058C75.6553 49.9152 75.6267 49.8009 75.5982 49.7152C75.541 49.6294 75.4553 49.5723 75.3696 49.5437C75.3124 49.5151 75.2267 49.5151 75.141 49.4866C75.0267 49.4866 73.998 49.4866 73.8266 49.4866H73.6551V50.6009H73.7123C73.9695 50.6009 75.0267 50.6009 75.1124 50.6009C75.1981 50.6009 75.3124 50.5724 75.3982 50.5152C75.4839 50.4867 75.5696 50.4295 75.5982 50.3438C75.6267 50.2581 75.6553 50.1438 75.6553 50.058Z" fill="#333333"/>
<path d="M59.2253 63.8021C58.4824 63.8021 57.8537 63.4592 57.3108 62.9163L58.1109 62.3449C58.7681 63.1164 60.3111 63.0878 60.3111 62.4592C60.3111 61.8019 59.1681 61.8591 58.5681 61.6305C58.1966 61.5162 57.8823 61.4305 57.7109 61.2019C57.568 60.9733 57.4823 60.7161 57.4823 60.3732C57.4823 59.9446 57.6823 59.5732 58.0538 59.316C58.4538 59.0303 58.8824 58.9445 59.4539 58.9445C60.1682 58.9445 60.9112 59.316 61.2826 59.7446L60.6254 60.2875C60.5683 60.2875 60.2539 59.8018 59.5682 59.7732C59.1967 59.716 58.5109 59.8303 58.5109 60.2304C58.5109 61.0019 60.3682 60.6876 61.0826 61.5448C61.2255 61.7448 61.3398 61.9162 61.3398 62.2306C61.3398 62.6877 61.1683 63.0878 60.7683 63.3735C60.3968 63.6593 59.8825 63.7736 59.2253 63.8021Z" fill="#333333"/>
<path d="M89.7994 57.5444H88.9422V53.0869H89.7709L89.7994 57.5444Z" fill="#333333"/>
<path d="M76.0268 56.1157C76.0268 56.3157 75.9982 56.4872 75.9411 56.6586C75.8839 56.8301 75.7982 56.9729 75.6839 57.1158C75.541 57.2301 75.4267 57.373 75.2267 57.4301C74.9981 57.573 74.4552 57.6301 74.2266 57.6587C73.4266 57.6873 72.5408 57.373 72.1979 56.5158V55.63C72.3407 55.63 72.8836 55.6014 72.9122 55.6014C72.9122 56.4015 73.1694 56.8301 74.2552 56.8015C74.6267 56.7729 75.1981 56.5729 75.2267 56.0014C75.2267 55.8586 75.2267 55.7157 75.2267 55.5728V53.8012L74.0266 53.7727V52.9726H76.0268V56.1157Z" fill="#333333"/>
<path d="M70.9978 57.4301H70.312L68.1118 54.3156V57.4301H67.1974V52.9726H68.1118L70.1691 55.7443V52.9726H70.9978V57.4301Z" fill="#333333"/>
<path d="M87.0278 50.9724C86.4563 51.3724 85.7991 51.5153 85.1419 51.5153C83.8561 51.5153 83.0274 50.4295 83.0274 49.2294C83.0274 48.0007 83.8561 46.8863 85.1705 46.8863C86.142 46.8863 86.542 47.0863 87.0563 47.6578L86.6277 48.3436C86.4563 48.1436 86.2563 48.0293 86.0848 47.915C85.0276 47.2006 83.656 48.0864 83.7703 49.258C83.8846 50.2866 84.4561 50.7152 85.399 50.7152C85.7134 50.7152 85.9991 50.6581 86.2563 50.4295V49.8009H85.2276V48.9722L87.1135 48.9437L87.0278 50.9724Z" fill="#333333"/>
<path d="M71.3692 51.4296H70.4834V48.4008L69.1119 50.0866H68.8261L67.4546 48.2007V51.4296H66.7117V46.9721H67.5975L68.9404 48.8579L70.5406 46.9721H71.3692V51.4296Z" fill="#333333"/>
<path d="M62.0541 51.4296V46.9721H65.3115V47.8293H62.8828V48.6008H65.1972V49.458H62.8828V50.5724H65.3115V51.4296H62.0541Z" fill="#333333"/>
<path d="M60.9111 51.4582L57.6537 51.4296V46.9721H58.5109V50.6867L60.9111 50.7152V51.4582Z" fill="#333333"/>
<path d="M62.597 57.5444V53.0869H65.8544V53.9441H63.4257V54.7156H65.7402V55.5728H63.4257V56.6872H65.8544V57.5444H62.597Z" fill="#333333"/>
<path d="M87.7707 57.5444H86.8849V54.5156L85.5133 56.2015H85.2276L83.856 54.287V57.5159L83.1131 57.5444V53.0869H83.9989L85.3133 54.9728L86.942 53.0869H87.7707V57.5444Z" fill="#333333"/>
<path d="M95.0285 57.5444H94.3427L92.1139 54.4299V57.5444H91.1996V53.0869H92.1139L94.1713 55.8586V53.0869H95.0285V57.5444Z" fill="#333333"/>
<path d="M63.3114 63.5164H62.4541V59.0588H63.2828L63.3114 63.5164Z" fill="#333333"/>
<path d="M69.5119 63.5735H68.6261L68.5975 60.5447L67.2546 62.2591H66.9403L65.5687 60.3447V63.5735H64.8258V59.116H65.7116L67.0546 61.0305L68.6547 59.116H69.5119V63.5735Z" fill="#333333"/>
<path d="M84.9704 63.6593H84.2847L82.0845 60.5447V63.6593H81.1701V59.2017H82.0845L84.1418 61.9734V59.2017H84.9704V63.6593Z" fill="#333333"/>
<path d="M95.6857 63.5735H94.9999L92.7711 60.459V63.5735H91.8568V59.116H92.7711L94.857 61.8877V59.116H95.6857V63.5735Z" fill="#333333"/>
<path fill-rule="evenodd" clip-rule="evenodd" d="M57.5966 44.1718H96V44.6576H57.5966V44.1718Z" fill="#333333"/>
<path fill-rule="evenodd" clip-rule="evenodd" d="M57.5966 66.4309H96V66.9167H57.5966V66.4309Z" fill="#333333"/>
</g>
<rect x="1" y="1" width="110" height="110" rx="9" stroke="#CCCCCC" stroke-width="2"/>
<defs>
<clipPath id="clip0_324_33">
<rect x="2" y="2" width="108" height="108" rx="8" fill="white"/>
</clipPath>
</defs>
</svg>
