<svg width="112" height="112" viewBox="0 0 112 112" fill="none" xmlns="http://www.w3.org/2000/svg">
<g clip-path="url(#clip0_324_34)">
<rect x="2" y="2" width="108" height="108" rx="8" fill="white"/>
<g clip-path="url(#clip1_324_34)">
<path d="M35.1599 50.9602V65.8002C35.0799 67.0302 34.7299 68.3902 33.2999 68.3902C32.6499 68.3902 32.3599 68.2402 32.2199 67.9802C33.3999 66.2202 34.0999 64.0602 34.0999 61.7102C34.0999 60.3202 33.8499 58.9902 33.3999 57.7702C33.3199 57.5602 33.2399 57.3602 33.1499 57.1602C31.5899 53.5702 28.2599 51.0802 24.3799 51.0802C19.0199 51.0802 14.6699 55.8302 14.6699 61.7002C14.6699 67.5702 19.0199 72.3202 24.3799 72.3202C26.0399 72.3202 27.6099 71.8602 28.9799 71.0602C30.1099 71.8702 31.4699 72.3502 32.9399 72.3502C36.2099 72.3502 38.9499 70.0002 39.7099 66.8402V50.9602H35.1299H35.1599ZM26.6199 68.1202C25.9399 68.5102 25.1899 68.7402 24.3999 68.7402C21.3799 68.7402 18.9399 65.5702 18.9399 61.6602C18.9399 57.7502 21.3899 54.5802 24.3999 54.5802C26.6299 54.5802 28.5399 56.3102 29.3899 58.7802C29.6899 59.6602 29.8599 60.6302 29.8599 61.6602C29.8599 64.5402 28.5299 67.0202 26.6199 68.1202Z" fill="url(#paint0_radial_324_34)"/>
<path d="M41.0601 59.0802V65.5302L43.8601 62.9302L50.2301 72.4002H56.5401L47.5701 58.8802L55.2901 50.6602H48.2701L41.0601 59.0802Z" fill="url(#paint1_radial_324_34)"/>
<path d="M55.53 50.8601C54.31 50.9801 52.86 51.0001 51.15 50.8201C51.05 50.8201 50.96 50.8201 50.87 50.8001C43.89 48.7501 41.72 45.8101 37.29 42.4101C32.56 38.7701 21.22 36.3101 11 44.3801C11 44.3801 14.5 46.4001 16.1 49.8201C16.13 49.8801 16.16 49.9401 16.19 50.0001C17.77 53.5301 18.02 56.5701 18.02 56.5701C18.02 56.5701 23.82 49.9401 30.99 49.6801C37.04 49.4601 44.06 51.8101 49.63 52.4301C50.66 52.5401 51.64 52.6001 52.56 52.5701C58.41 52.3601 60.65 49.0001 60.65 49.0001C60.65 49.0001 59.21 50.4901 55.55 50.8601H55.53Z" fill="#313132"/>
<path d="M33.0698 45.1501C41.6398 47.4301 43.8898 50.4101 50.8598 50.3601C50.9798 50.3601 51.0798 50.3501 51.1898 50.3501C51.0898 50.3501 50.9998 50.3501 50.9098 50.3301C43.9598 48.3901 41.8098 45.6101 37.3998 42.3901C32.6998 38.9501 21.9198 36.5201 11.7598 44.1601C11.7598 44.1601 14.7398 46.1701 16.3298 49.4001C16.6198 49.0701 16.8998 48.7701 17.1898 48.4801C22.7498 42.7301 28.0698 43.8201 33.0798 45.1501H33.0698Z" fill="url(#paint2_linear_324_34)"/>
<path d="M55.5396 50.3901C54.3296 50.5101 52.8796 50.5201 51.1796 50.3501C51.0596 50.3501 50.9596 50.3601 50.8496 50.3601C43.8896 50.4101 40.0796 46.5601 33.5996 44.4701C28.6696 42.8801 22.7296 42.7201 17.1696 48.4701C16.8796 48.7601 16.5996 49.0601 16.3096 49.3901C16.3396 49.4501 16.3696 49.5001 16.3996 49.5601C17.9696 52.9001 18.2196 55.7801 18.2196 55.7801C18.2196 55.7801 23.9896 49.5101 31.1196 49.2501C37.1396 49.0401 44.1196 51.2701 49.6596 51.8501C50.6796 51.9601 51.6596 52.0201 52.5696 51.9801C58.3896 51.7801 60.7096 48.7401 60.7096 48.7401C60.7096 48.7401 59.1796 50.0101 55.5396 50.3701V50.3901Z" fill="url(#paint3_linear_324_34)"/>
<path d="M61.8699 50.6802H60.9199V72.1302H61.8699V50.6802Z" fill="#660812"/>
<path d="M70.13 53.8402C70.13 54.1602 70.07 54.4702 69.95 54.7502C69.83 55.0402 69.65 55.2902 69.42 55.5202C69.19 55.7502 68.92 55.9202 68.63 56.0402C68.34 56.1602 68.03 56.2202 67.7 56.2202C67.37 56.2202 67.06 56.1602 66.77 56.0402C66.47 55.9202 66.21 55.7502 65.98 55.5202C65.75 55.2902 65.57 55.0402 65.45 54.7502C65.33 54.4602 65.27 54.1602 65.27 53.8302C65.27 53.5002 65.33 53.2002 65.45 52.9102C65.57 52.6202 65.74 52.3702 65.98 52.1402C66.21 51.9102 66.47 51.7402 66.77 51.6202C67.06 51.5002 67.38 51.4402 67.7 51.4402C68.02 51.4402 68.34 51.5002 68.63 51.6202C68.92 51.7402 69.18 51.9102 69.42 52.1402C69.65 52.3702 69.83 52.6302 69.95 52.9202C70.07 53.2102 70.13 53.5102 70.13 53.8302V53.8402ZM69.36 53.8402C69.36 53.6102 69.32 53.3902 69.24 53.1802C69.16 52.9702 69.04 52.7902 68.88 52.6302C68.73 52.4702 68.55 52.3502 68.35 52.2602C68.15 52.1702 67.94 52.1302 67.71 52.1302C67.48 52.1302 67.27 52.1702 67.07 52.2602C66.87 52.3502 66.69 52.4702 66.53 52.6302C66.37 52.7902 66.25 52.9702 66.17 53.1802C66.09 53.3902 66.05 53.6102 66.05 53.8402C66.05 54.0702 66.09 54.2902 66.17 54.4902C66.25 54.7002 66.37 54.8802 66.53 55.0402C66.69 55.2002 66.87 55.3202 67.07 55.4102C67.27 55.4902 67.48 55.5402 67.71 55.5402C67.94 55.5402 68.14 55.5002 68.34 55.4102C68.54 55.3202 68.72 55.2002 68.88 55.0402C69.04 54.8802 69.16 54.6902 69.24 54.4902C69.32 54.2802 69.36 54.0702 69.36 53.8402Z" fill="#313132"/>
<path d="M72.22 52.18V56.09H71.48V52.18H70.27V51.55H73.42V52.18H72.22Z" fill="#313132"/>
<path d="M78.4201 53.8402C78.4201 54.1602 78.3601 54.4702 78.2401 54.7502C78.1201 55.0402 77.9401 55.2902 77.7101 55.5202C77.4801 55.7502 77.2101 55.9202 76.9201 56.0402C76.6301 56.1602 76.3201 56.2202 75.9901 56.2202C75.6601 56.2202 75.3501 56.1602 75.0601 56.0402C74.7601 55.9202 74.5001 55.7502 74.2701 55.5202C74.0401 55.2902 73.8601 55.0402 73.7401 54.7502C73.6201 54.4602 73.5601 54.1602 73.5601 53.8302C73.5601 53.5002 73.6201 53.2002 73.7401 52.9102C73.8601 52.6202 74.0401 52.3702 74.2701 52.1402C74.5001 51.9102 74.7601 51.7402 75.0601 51.6202C75.3501 51.5002 75.6701 51.4402 75.9901 51.4402C76.3101 51.4402 76.6301 51.5002 76.9201 51.6202C77.2101 51.7402 77.4701 51.9102 77.7101 52.1402C77.9401 52.3702 78.1201 52.6302 78.2401 52.9202C78.3601 53.2102 78.4201 53.5102 78.4201 53.8302V53.8402ZM77.6501 53.8402C77.6501 53.6102 77.6101 53.3902 77.5301 53.1802C77.4501 52.9702 77.3301 52.7902 77.1701 52.6302C77.0201 52.4702 76.8401 52.3502 76.6401 52.2602C76.4401 52.1702 76.2301 52.1302 76.0001 52.1302C75.7701 52.1302 75.5601 52.1702 75.3601 52.2602C75.1601 52.3502 74.9801 52.4702 74.8201 52.6302C74.6601 52.7902 74.5401 52.9702 74.4601 53.1802C74.3801 53.3902 74.3401 53.6102 74.3401 53.8402C74.3401 54.0702 74.3801 54.2902 74.4601 54.4902C74.5401 54.7002 74.6601 54.8802 74.8201 55.0402C74.9801 55.2002 75.1601 55.3202 75.3601 55.4102C75.5601 55.4902 75.7701 55.5402 76.0001 55.5402C76.2301 55.5402 76.4301 55.5002 76.6301 55.4102C76.8301 55.3202 77.0101 55.2002 77.1701 55.0402C77.3301 54.8802 77.4501 54.6902 77.5301 54.4902C77.6101 54.2802 77.6501 54.0702 77.6501 53.8402Z" fill="#313132"/>
<path d="M79.96 54.06V56.09H79.27V51.55H80.3C80.6 51.55 80.84 51.57 81 51.61C81.17 51.65 81.31 51.71 81.43 51.8C81.57 51.91 81.68 52.05 81.76 52.23C81.84 52.4 81.88 52.59 81.88 52.8C81.88 53.16 81.79 53.45 81.62 53.65C81.44 53.86 81.18 53.98 80.84 54.02L82.4 56.09H81.56L80.05 54.06H79.97H79.96ZM80.01 53.49H80.14C80.53 53.49 80.79 53.44 80.92 53.35C81.05 53.26 81.11 53.1 81.11 52.87C81.11 52.62 81.04 52.44 80.91 52.34C80.77 52.24 80.52 52.19 80.14 52.19H80.01V53.49Z" fill="#313132"/>
<path d="M82.8301 56.1001V51.5601H83.5701V56.1001H82.8301Z" fill="#313132"/>
<path d="M86.0999 52.18V56.09H85.3599V52.18H84.1499V51.55H87.2899V52.18H86.0899H86.0999Z" fill="#313132"/>
<path d="M90.4 56.1001L89.88 54.9301H88.08L87.55 56.1001H86.77L88.97 51.3801L91.17 56.1001H90.39H90.4ZM88.36 54.3201H89.63L89.17 53.2801C89.14 53.2101 89.12 53.1401 89.09 53.0501C89.06 52.9601 89.03 52.8701 89 52.7601C88.98 52.8601 88.95 52.9501 88.92 53.0401C88.89 53.1301 88.86 53.2001 88.83 53.2801L88.37 54.3201H88.36Z" fill="#313132"/>
<path d="M91.3498 55.1902L91.9398 54.9202C91.9998 55.1202 92.0998 55.2802 92.2498 55.3802C92.3998 55.4902 92.5898 55.5402 92.8198 55.5402C93.0498 55.5402 93.2098 55.4802 93.3398 55.3602C93.4698 55.2402 93.5298 55.0702 93.5298 54.8702C93.5298 54.6002 93.3099 54.3702 92.8699 54.1602C92.8099 54.1302 92.7599 54.1102 92.7299 54.0902C92.2299 53.8502 91.8999 53.6302 91.7299 53.4302C91.5599 53.2302 91.4799 52.9902 91.4799 52.7102C91.4799 52.3402 91.5998 52.0402 91.8498 51.8102C92.0998 51.5802 92.4298 51.4702 92.8398 51.4702C93.1798 51.4702 93.4598 51.5302 93.6798 51.6602C93.9098 51.7902 94.0598 51.9702 94.1498 52.2202L93.5698 52.5202C93.4798 52.3802 93.3798 52.2702 93.2698 52.2102C93.1598 52.1402 93.0398 52.1102 92.8998 52.1102C92.6998 52.1102 92.5398 52.1602 92.4298 52.2702C92.3098 52.3702 92.2598 52.5102 92.2598 52.6802C92.2598 52.9502 92.5198 53.2102 93.0298 53.4402C93.0698 53.4602 93.0999 53.4702 93.1199 53.4802C93.5699 53.6902 93.8798 53.8902 94.0398 54.0902C94.2098 54.2902 94.2898 54.5302 94.2898 54.8302C94.2898 55.2602 94.1498 55.6002 93.8798 55.8502C93.6098 56.1002 93.2398 56.2302 92.7798 56.2302C92.3898 56.2302 92.0798 56.1402 91.8298 55.9602C91.5798 55.7802 91.4198 55.5302 91.3398 55.2002L91.3498 55.1902Z" fill="#313132"/>
<path d="M65.44 62.8902C65.52 62.9802 65.59 63.0502 65.66 63.0902C65.73 63.1302 65.8 63.1502 65.88 63.1502C66.02 63.1502 66.13 63.1002 66.18 63.0102C66.24 62.9102 66.27 62.7402 66.27 62.4802V59.1802H67V62.7202C67 63.1002 66.92 63.3902 66.75 63.5702C66.58 63.7502 66.32 63.8402 65.96 63.8402C65.76 63.8402 65.58 63.8002 65.42 63.7202C65.26 63.6402 65.11 63.5202 64.96 63.3602L65.43 62.8902H65.44Z" fill="#313132"/>
<path d="M70.9801 63.7202L70.4601 62.5502H68.6601L68.1301 63.7202H67.3501L69.5501 59.0002L71.7501 63.7202H70.9701H70.9801ZM68.9401 61.9402H70.2101L69.7501 60.9002C69.7201 60.8302 69.6901 60.7602 69.6701 60.6702C69.6401 60.5802 69.6101 60.4902 69.5801 60.3802C69.5601 60.4802 69.5301 60.5702 69.5001 60.6602C69.4701 60.7502 69.4401 60.8302 69.4101 60.9002L68.9501 61.9402H68.9401Z" fill="#313132"/>
<path d="M71.9302 62.8101L72.5202 62.5401C72.5802 62.7401 72.6802 62.9001 72.8302 63.0001C72.9802 63.1101 73.1702 63.1601 73.4002 63.1601C73.6202 63.1601 73.7902 63.1001 73.9202 62.9801C74.0502 62.8601 74.1202 62.6901 74.1202 62.4901C74.1202 62.2201 73.9002 61.9901 73.4602 61.7801C73.4002 61.7501 73.3502 61.7301 73.3202 61.7101C72.8202 61.4701 72.4902 61.2501 72.3202 61.0501C72.1502 60.8501 72.0702 60.6101 72.0702 60.3201C72.0702 59.9501 72.1902 59.6501 72.4502 59.4201C72.7002 59.1901 73.0302 59.0801 73.4402 59.0801C73.7702 59.0801 74.0502 59.1401 74.2802 59.2701C74.5002 59.4001 74.6602 59.5801 74.7502 59.8301L74.1702 60.1301C74.0802 59.9901 73.9802 59.8801 73.8702 59.8201C73.7602 59.7501 73.6402 59.7201 73.5002 59.7201C73.3002 59.7201 73.1402 59.7701 73.0302 59.8801C72.9102 59.9801 72.8602 60.1201 72.8602 60.3001C72.8602 60.5701 73.1202 60.8301 73.6302 61.0601C73.6702 61.0801 73.7002 61.0901 73.7202 61.1001C74.1702 61.3101 74.4802 61.5101 74.6502 61.7101C74.8202 61.9101 74.9002 62.1501 74.9002 62.4501C74.9002 62.8801 74.7702 63.2201 74.4902 63.4701C74.2202 63.7201 73.8502 63.8501 73.3902 63.8501C73.0002 63.8501 72.6902 63.7601 72.4402 63.5801C72.1902 63.4001 72.0302 63.1501 71.9602 62.8201L71.9302 62.8101Z" fill="#313132"/>
<path d="M78.6698 63.7202L78.1598 62.5502H76.3598L75.8298 63.7202H75.0498L77.2498 59.0002L79.4498 63.7202H78.6698ZM76.6298 61.9402H77.8998L77.4298 60.9002C77.3998 60.8302 77.3798 60.7602 77.3498 60.6702C77.3198 60.5802 77.2898 60.4902 77.2598 60.3802C77.2298 60.4802 77.2098 60.5702 77.1798 60.6602C77.1498 60.7502 77.1298 60.8302 77.0998 60.9002L76.6298 61.9402Z" fill="#313132"/>
<path d="M65.48 71.34V66.8H66.22V68.68L67.85 66.8H68.75L66.95 68.82L68.96 71.34H68.01L66.22 69.0201V71.34H65.48Z" fill="#313132"/>
<path d="M69.4199 71.34V66.8H71.9599V67.43H70.1699V68.57H71.9599V69.22H70.1699V70.6901H71.9599V71.35H69.4199V71.34Z" fill="#313132"/>
<path d="M72.7798 66.8H73.5098V69.56C73.5098 69.97 73.6098 70.28 73.7898 70.48C73.9798 70.69 74.2598 70.7901 74.6398 70.7901C75.0198 70.7901 75.2998 70.69 75.4898 70.48C75.6798 70.27 75.7698 69.97 75.7698 69.56V66.8H76.5098V69.63C76.5098 70.24 76.3498 70.7 76.0498 71.01C75.7398 71.32 75.2698 71.4701 74.6498 71.4701C74.0298 71.4701 73.5598 71.32 73.2498 71.01C72.9398 70.71 72.7898 70.25 72.7898 69.63V66.8H72.7798Z" fill="#313132"/>
<path d="M80.41 71.3401L79.9 70.1701H78.1L77.57 71.3401H76.79L78.99 66.6201L81.19 71.3401H80.41ZM78.37 69.5601H79.64L79.17 68.5201C79.14 68.4501 79.12 68.3801 79.09 68.2901C79.06 68.2001 79.03 68.1101 79 68.0001C78.97 68.1001 78.95 68.1901 78.92 68.2801C78.89 68.3701 78.87 68.4501 78.84 68.5201L78.37 69.5601Z" fill="#313132"/>
<path d="M81.6201 71.3401V66.6201L84.5001 69.4001C84.5801 69.4801 84.6601 69.5601 84.7401 69.6501C84.8201 69.7401 84.9101 69.8401 85.0001 69.9501V66.8001H85.6801V71.5201L82.7401 68.6901C82.6601 68.6101 82.5901 68.5301 82.5101 68.4501C82.4401 68.3601 82.3701 68.2801 82.3001 68.1801V71.3401H81.6201Z" fill="#313132"/>
<path d="M89.2398 69.0202H91.0398C91.0398 69.0202 91.0398 69.1002 91.0398 69.1502C91.0398 69.3002 91.0398 69.4002 91.0398 69.4502C91.0398 70.0902 90.8598 70.5802 90.4898 70.9402C90.1198 71.2902 89.6098 71.4702 88.9398 71.4702C88.5698 71.4702 88.2298 71.4202 87.9398 71.3102C87.6498 71.2002 87.3898 71.0402 87.1698 70.8102C86.9598 70.5902 86.7898 70.3302 86.6798 70.0402C86.5598 69.7402 86.5098 69.4302 86.5098 69.0902C86.5098 68.7502 86.5698 68.4302 86.6798 68.1402C86.7998 67.8502 86.9698 67.5902 87.1998 67.3702C87.4198 67.1502 87.6798 66.9902 87.9798 66.8702C88.2798 66.7602 88.5998 66.7002 88.9398 66.7002C89.2998 66.7002 89.6198 66.7702 89.8998 66.9002C90.1798 67.0302 90.4298 67.2302 90.6498 67.5002L90.1098 67.9102C89.9598 67.7302 89.7798 67.6002 89.5898 67.5102C89.3998 67.4202 89.1798 67.3802 88.9398 67.3802C88.4498 67.3802 88.0498 67.5402 87.7298 67.8502C87.4198 68.1702 87.2698 68.5802 87.2698 69.0802C87.2698 69.5802 87.4198 70.0102 87.7298 70.3302C88.0398 70.6502 88.4498 70.8102 88.9398 70.8102C89.3598 70.8102 89.6898 70.7102 89.9398 70.5202C90.1798 70.3202 90.2998 70.0602 90.2998 69.7202V69.6502H89.2098V69.0302L89.2398 69.0202Z" fill="#313132"/>
<path d="M94.8302 71.3401L94.3102 70.1701H92.5102L91.9802 71.3401H91.2002L93.4002 66.6201L95.6002 71.3401H94.8202H94.8302ZM92.7902 69.5601H94.0602L93.6002 68.5201C93.5702 68.4501 93.5402 68.3801 93.5202 68.2901C93.4902 68.2001 93.4602 68.1101 93.4302 68.0001C93.4102 68.1001 93.3802 68.1901 93.3502 68.2801C93.3202 68.3701 93.2902 68.4501 93.2602 68.5201L92.8002 69.5601H92.7902Z" fill="#313132"/>
<path d="M96.0298 71.3401V66.6201L98.9198 69.4001C98.9998 69.4801 99.0798 69.5601 99.1598 69.6501C99.2398 69.7401 99.3198 69.8401 99.4098 69.9501V66.8001H100.09V71.5201L97.1498 68.6901C97.0698 68.6101 96.9998 68.5301 96.9198 68.4501C96.8498 68.3601 96.7798 68.2801 96.7098 68.1801V71.3401H96.0298Z" fill="#313132"/>
</g>
</g>
<rect x="1" y="1" width="110" height="110" rx="9" stroke="#CCCCCC" stroke-width="2"/>
<defs>
<radialGradient id="paint0_radial_324_34" cx="0" cy="0" r="1" gradientUnits="userSpaceOnUse" gradientTransform="translate(37.0499 60.5302) scale(17.32)">
<stop stop-color="#C40015"/>
<stop offset="0.14" stop-color="#AC0114"/>
<stop offset="0.37" stop-color="#8E0413"/>
<stop offset="0.59" stop-color="#770612"/>
<stop offset="0.81" stop-color="#6A0712"/>
<stop offset="1" stop-color="#660812"/>
</radialGradient>
<radialGradient id="paint1_radial_324_34" cx="0" cy="0" r="1" gradientUnits="userSpaceOnUse" gradientTransform="translate(37.0501 60.5302) scale(17.32)">
<stop stop-color="#C40015"/>
<stop offset="0.14" stop-color="#AC0114"/>
<stop offset="0.37" stop-color="#8E0413"/>
<stop offset="0.59" stop-color="#770612"/>
<stop offset="0.81" stop-color="#6A0712"/>
<stop offset="1" stop-color="#660812"/>
</radialGradient>
<linearGradient id="paint2_linear_324_34" x1="47.2598" y1="48.9201" x2="8.95977" y2="41.7701" gradientUnits="userSpaceOnUse">
<stop stop-color="#E77D62"/>
<stop offset="0.02" stop-color="#D76854"/>
<stop offset="0.04" stop-color="#C24B41"/>
<stop offset="0.07" stop-color="#B13532"/>
<stop offset="0.1" stop-color="#A62628"/>
<stop offset="0.14" stop-color="#9F1C21"/>
<stop offset="0.19" stop-color="#9D1A20"/>
<stop offset="0.22" stop-color="#A01E23"/>
<stop offset="0.26" stop-color="#AA2B2B"/>
<stop offset="0.3" stop-color="#BA423A"/>
<stop offset="0.34" stop-color="#D1604F"/>
<stop offset="0.38" stop-color="#E77D62"/>
<stop offset="0.43" stop-color="#D76753"/>
<stop offset="0.52" stop-color="#C24B41"/>
<stop offset="0.61" stop-color="#B13532"/>
<stop offset="0.71" stop-color="#A52628"/>
<stop offset="0.83" stop-color="#9F1C21"/>
<stop offset="1" stop-color="#9D1A20"/>
</linearGradient>
<linearGradient id="paint3_linear_324_34" x1="-1.12043" y1="50.5801" x2="51.8896" y2="48.5501" gradientUnits="userSpaceOnUse">
<stop stop-color="#7F8083"/>
<stop offset="0.15" stop-color="#818285"/>
<stop offset="0.26" stop-color="#8B8B8E"/>
<stop offset="0.35" stop-color="#9A9B9D"/>
<stop offset="0.44" stop-color="#B0B1B3"/>
<stop offset="0.52" stop-color="#CCCDCE"/>
<stop offset="0.59" stop-color="#EFEFEF"/>
<stop offset="0.62" stop-color="white"/>
<stop offset="0.64" stop-color="#F1F2F2"/>
<stop offset="0.69" stop-color="#D3D4D5"/>
<stop offset="0.73" stop-color="#BCBEC0"/>
<stop offset="0.77" stop-color="#AFB1B4"/>
<stop offset="0.81" stop-color="#ABADB0"/>
<stop offset="0.87" stop-color="#ADAFB2"/>
<stop offset="0.9" stop-color="#B7B8BB"/>
<stop offset="0.94" stop-color="#C6C8CA"/>
<stop offset="0.97" stop-color="#DCDDDE"/>
<stop offset="1" stop-color="white"/>
</linearGradient>
<clipPath id="clip0_324_34">
<rect x="2" y="2" width="108" height="108" rx="8" fill="white"/>
</clipPath>
<clipPath id="clip1_324_34">
<rect width="89.09" height="33.4" fill="white" transform="translate(11 39)"/>
</clipPath>
</defs>
</svg>
