<svg width="112" height="112" viewBox="0 0 112 112" fill="none" xmlns="http://www.w3.org/2000/svg">
<g clip-path="url(#clip0_528_619)">
<rect x="2" y="2" width="108" height="108" rx="8" fill="white"/>
<path fill-rule="evenodd" clip-rule="evenodd" d="M21.0001 22.0768H66.8349C76.3736 22.0768 84.1779 29.8813 84.1779 39.4197V67.7741C84.1779 77.3128 76.3736 85.1171 66.8349 85.1171L21 85.2547L21.0001 22.0768Z" fill="#005FA1"/>
<path fill-rule="evenodd" clip-rule="evenodd" d="M70.2104 16L76.2818 21.5689L84.2759 21.7761L84.6408 30.0177L90.1474 35.8309L84.5922 41.9173L84.3856 49.9313L76.1644 50.2973L70.3656 55.8174L64.2942 50.2485L56.3 50.0413L55.9351 41.7997L50.4285 35.9865L55.9838 29.9001L56.1903 21.8861L64.4116 21.5201L70.2104 16Z" fill="#E30016"/>
<path fill-rule="evenodd" clip-rule="evenodd" d="M70.313 23.9969L76.2818 21.5689L78.7077 27.5035L84.6408 30.0177L82.1702 35.9338L84.5922 41.9173L78.6723 44.3493L76.1644 50.2973L70.2629 47.8205L64.2942 50.2485L61.8682 44.3139L55.9351 41.7997L58.4057 35.8836L55.9838 29.9001L61.9036 27.4682L64.4116 21.5201L70.313 23.9969Z" fill="#F07C00"/>
<path fill-rule="evenodd" clip-rule="evenodd" d="M70.313 23.9969L73.7278 27.6594L78.7077 27.5035L78.5389 32.5138L82.1702 35.9338L78.5169 39.357L78.6723 44.3493L73.6744 44.1803L70.2629 47.8205L66.8481 44.158L61.8682 44.3139L62.037 39.3036L58.4057 35.8836L62.0591 32.4604L61.9036 27.4682L66.9016 27.6372L70.313 23.9969Z" fill="#B1C900"/>
<path fill-rule="evenodd" clip-rule="evenodd" d="M70.2878 27.0296C75.1909 27.0296 79.167 31.0056 79.167 35.9086C79.167 40.8117 75.1909 44.7878 70.2878 44.7878C65.3848 44.7878 61.4088 40.8117 61.4088 35.9086C61.4088 31.0056 65.3848 27.0296 70.2878 27.0296Z" fill="white"/>
<path fill-rule="evenodd" clip-rule="evenodd" d="M33.4891 61.465L33.6668 77.7506C33.6908 79.9579 34.3695 80.1773 36.2884 80.3541V80.3516C37.3654 80.3516 38.0906 80.2366 38.4777 80.0036C38.8573 79.775 39.1249 79.4806 39.2795 79.1137C39.4349 78.7445 39.5135 78.6187 39.5135 77.1799V59.9281C39.5135 58.4894 39.4349 58.3737 39.2795 57.998C39.1249 57.6243 38.8506 57.3312 38.4658 57.1079C38.078 56.883 37.3537 56.7733 36.2884 56.7733V55.2572H47.4331C50.0962 55.2572 51.9865 55.5328 53.0933 56.0736C54.2048 56.6168 55.0775 57.4254 55.7156 58.5028C56.3594 59.5801 56.6754 60.7312 56.6754 61.9424C56.6754 63.2273 56.2714 64.3649 55.458 65.3687C54.65 66.3656 53.8135 67.1374 51.7649 67.7263C55.9291 68.3016 57.7408 70.8533 57.7408 74.5098C57.7408 76.5108 57.0383 78.1636 55.6335 79.4685C53.9068 81.0546 51.3958 81.8442 48.1062 81.8442H36.2884V81.8358H26.6483V80.3621C28.6329 80.2696 29.4838 79.7374 29.4838 77.7506V66.2433C29.4838 64.0818 28.9447 63.7622 26.8003 63.5746V62.302C29.1631 62.2632 31.4014 61.9998 33.4891 61.465ZM44.1613 68.7448V76.5922C44.1613 77.3705 44.0152 78.3691 44.7686 78.9698C45.1849 79.3019 45.8202 79.4158 46.6532 79.4625C52.3742 79.7833 53.3589 76.9614 53.2857 74.2515C53.1271 68.3644 49.6618 68.7159 44.1613 68.7448ZM44.1601 66.5799C50.1709 67.5951 51.7183 65.4052 51.8368 62.0899C51.9661 58.4724 50.3134 57.5485 47.2574 57.4706C45.2999 57.4207 44.1602 57.7105 44.1602 59.3974L44.1601 66.5799ZM31.714 53.3359C33.226 53.3359 34.4525 54.5621 34.4525 56.0743C34.4525 57.5862 33.226 58.8127 31.714 58.8127C30.2019 58.8127 28.9757 57.5862 28.9757 56.0743C28.9757 54.5621 30.2019 53.3359 31.714 53.3359Z" fill="white"/>
<path fill-rule="evenodd" clip-rule="evenodd" d="M21.2049 94.3454H22.1026V92.3532C22.251 92.3798 22.4227 92.3864 22.61 92.3864C23.6873 92.3864 24.8428 91.9614 24.8428 90.7263C24.8428 90.2615 24.6398 89.8763 24.3042 89.6306C23.945 89.3584 23.3907 89.2255 22.657 89.2255C22.0403 89.2255 21.5639 89.272 21.2049 89.3251V94.3454ZM22.1026 89.8763C22.2196 89.8564 22.4306 89.8298 22.7116 89.8298C23.4377 89.8298 23.9372 90.1419 23.9372 90.7595C23.9372 91.4102 23.4377 91.7754 22.61 91.7754C22.3992 91.7754 22.2354 91.7688 22.1026 91.7357V89.8763ZM28.7229 93.6547C28.4418 93.7544 28.1141 93.8274 27.6377 93.8274C26.9585 93.8274 26.3574 93.5152 26.334 92.6918H29.0665C29.0821 92.5988 29.0898 92.4927 29.0898 92.3665C29.0898 91.4634 28.6058 90.6067 27.3957 90.6067C26.1778 90.6067 25.4596 91.4766 25.4596 92.5657C25.4596 93.6813 26.2091 94.4196 27.5051 94.4196C28.0905 94.4196 28.5668 94.3188 28.8712 94.1993L28.7229 93.6547ZM26.3418 92.1406C26.3887 91.7158 26.6697 91.1579 27.3334 91.1579C28.0281 91.1579 28.2388 91.7025 28.2311 92.1406H26.3418ZM32.1267 90.6267C32.0486 90.6134 31.9863 90.6067 31.9004 90.6067C31.4319 90.6067 30.9792 90.8923 30.784 91.3571H30.7528L30.7215 90.6865H29.933C29.9564 91.0251 29.9642 91.377 29.9642 91.802V94.3454H30.8699V92.4063C30.8699 91.7688 31.2523 91.3438 31.8613 91.3438C31.9628 91.3438 32.0486 91.3505 32.1267 91.3637V90.6267ZM33.735 91.1978V89.0197H32.8293V93.3692C32.8293 93.7012 32.8137 94.0996 32.7981 94.3454H33.571L33.618 93.7942H33.6413C33.9301 94.2258 34.3595 94.4196 34.9137 94.4196C35.8038 94.4196 36.7171 93.7942 36.7171 92.4595C36.7171 91.3438 36.0381 90.6067 35.0543 90.6067C34.4531 90.6067 34.0083 90.8258 33.7506 91.1978H33.735ZM33.735 92.1805C33.735 91.6957 34.1564 91.2244 34.7264 91.2244C35.4446 91.2244 35.7961 91.802 35.7961 92.4927C35.7961 93.2762 35.4134 93.8008 34.7186 93.8008C34.1253 93.8008 33.735 93.3626 33.735 92.8977V92.1805ZM40.6206 92.0943C40.6206 91.3172 40.2693 90.6067 39.0046 90.6067C38.4269 90.6067 37.9195 90.7462 37.6151 90.9122L37.8024 91.4235C38.0756 91.2707 38.466 91.1712 38.8485 91.1712C39.715 91.1712 39.715 91.7158 39.715 91.988C38.2396 91.988 37.3105 92.4395 37.3105 93.3493C37.3105 93.9138 37.7712 94.4196 38.5753 94.4196C39.1139 94.4196 39.5355 94.2059 39.7776 93.9204H39.8009L39.8634 94.3454H40.6832C40.6286 94.1063 40.6206 93.7876 40.6206 93.4755V92.0943ZM39.7385 93.1103C39.7385 93.5353 39.3326 93.854 38.8406 93.854C38.5049 93.854 38.2082 93.6747 38.2082 93.2696C38.2082 92.6189 39.0281 92.506 39.7385 92.506V93.1103ZM45.3126 92.1075C45.3126 90.9786 44.5631 90.6067 43.8917 90.6067C43.2438 90.6067 42.7909 90.9188 42.588 91.231H42.5645L42.5177 90.6865H41.7291C41.7447 90.9985 41.7605 91.3106 41.7605 91.7158V94.3454H42.666V92.1406C42.666 91.5564 43.1421 91.2443 43.5871 91.2443C44.2041 91.2443 44.4069 91.6826 44.4069 92.2004V94.3454H45.3126V92.1075ZM48.3261 92.1938L49.8405 90.6865H48.7711L47.7014 91.9083C47.5921 92.0345 47.4751 92.1938 47.3735 92.3333H47.3579V89.0197H46.4523V94.3454H47.3579V93.0306L47.7093 92.6654L48.9428 94.3454H50.0357L48.3261 92.1938ZM53.5566 92.0943C53.5566 91.3172 53.2053 90.6067 51.9405 90.6067C51.3629 90.6067 50.8555 90.7462 50.551 90.9122L50.7383 91.4235C51.0115 91.2707 51.4019 91.1712 51.7844 91.1712C52.6509 91.1712 52.6509 91.7158 52.6509 91.988C51.1755 91.988 50.2465 92.4395 50.2465 93.3493C50.2465 93.9138 50.7071 94.4196 51.5112 94.4196C52.0498 94.4196 52.4714 94.2059 52.7135 93.9204H52.7368L52.7993 94.3454H53.6192C53.5645 94.1063 53.5566 93.7876 53.5566 93.4755V92.0943ZM52.6745 93.1103C52.6745 93.5353 52.2685 93.854 51.7766 93.854C51.4409 93.854 51.1442 93.6747 51.1442 93.2696C51.1442 92.6189 51.9641 92.506 52.6745 92.506V93.1103ZM58.2485 92.1075C58.2485 90.9786 57.499 90.6067 56.8277 90.6067C56.1797 90.6067 55.727 90.9188 55.524 91.231H55.5004L55.4537 90.6865H54.6651C54.6808 90.9985 54.6964 91.3106 54.6964 91.7158V94.3454H55.6021V92.1406C55.6021 91.5564 56.0782 91.2443 56.5231 91.2443C57.1401 91.2443 57.3428 91.6826 57.3428 92.2004V94.3454H58.2485V92.1075ZM64.1974 89.4181C63.9398 89.3052 63.5104 89.1857 62.9404 89.1857C61.7537 89.1857 60.9966 89.79 60.9966 90.5935C60.9966 91.284 61.5977 91.7422 62.4877 92.0478C63.198 92.3001 63.5025 92.5657 63.5025 92.9974C63.5025 93.4556 63.1044 93.7676 62.394 93.7676C61.9021 93.7676 61.4181 93.6348 61.098 93.4688L60.895 94.1129C61.1839 94.279 61.7773 94.4196 62.3394 94.4196C63.6821 94.4196 64.4238 93.7809 64.4238 92.9309C64.4238 92.2336 63.9631 91.7887 63.0028 91.4302C62.2456 91.1513 61.9099 90.9387 61.9099 90.5071C61.9099 90.1818 62.2066 89.8298 62.917 89.8298C63.4088 89.8298 63.7835 89.9626 63.9787 90.0556L64.1974 89.4181ZM67.7964 90.6865L67.1016 92.745C67.0233 92.9907 66.9376 93.2629 66.8751 93.4755H66.8517C66.7893 93.2629 66.7033 92.9841 66.6175 92.745L65.8368 90.6865H64.8452L66.3208 94.0598C66.3599 94.1328 66.3676 94.1793 66.3676 94.2192C66.3676 94.3188 66.0319 95.0636 65.0951 95.3491L65.3293 96C65.5401 95.9601 65.9383 95.8339 66.3285 95.5285C66.8438 95.1035 67.203 94.4261 67.7103 93.2231L68.7487 90.6865H67.7964ZM72.4024 92.0943C72.4024 91.3172 72.0511 90.6067 70.7864 90.6067C70.2086 90.6067 69.7013 90.7462 69.3968 90.9122L69.5842 91.4235C69.8573 91.2707 70.2477 91.1712 70.6303 91.1712C71.4968 91.1712 71.4968 91.7158 71.4968 91.988C70.0213 91.988 69.0922 92.4395 69.0922 93.3493C69.0922 93.9138 69.5529 94.4196 70.357 94.4196C70.8958 94.4196 71.3173 94.2059 71.5593 93.9204H71.5827L71.6451 94.3454H72.465C72.4103 94.1063 72.4024 93.7876 72.4024 93.4755V92.0943ZM71.5203 93.1103C71.5203 93.5353 71.1143 93.854 70.6224 93.854C70.2867 93.854 69.9901 93.6747 69.9901 93.2696C69.9901 92.6189 70.81 92.506 71.5203 92.506V93.1103ZM75.7047 90.6267C75.6266 90.6134 75.5642 90.6067 75.4783 90.6067C75.0099 90.6067 74.5572 90.8923 74.3619 91.3571H74.3308L74.2995 90.6865H73.511C73.5345 91.0251 73.5422 91.377 73.5422 91.802V94.3454H74.4479V92.4063C74.4479 91.7688 74.8303 91.3438 75.4393 91.3438C75.5408 91.3438 75.6266 91.3505 75.7047 91.3637V90.6267ZM77.3911 89.6771C77.3911 89.4181 77.1803 89.2255 76.868 89.2255C76.5557 89.2255 76.337 89.4181 76.337 89.6771C76.337 89.9227 76.5479 90.122 76.8601 90.122C77.188 90.122 77.3911 89.9227 77.3911 89.6771ZM77.313 90.6865H76.4073V94.3454H77.313V90.6865ZM81.4896 92.0943C81.4896 91.3172 81.1383 90.6067 79.8735 90.6067C79.2959 90.6067 78.7885 90.7462 78.484 90.9122L78.6713 91.4235C78.9445 91.2707 79.3349 91.1712 79.7174 91.1712C80.5839 91.1712 80.5839 91.7158 80.5839 91.988C79.1085 91.988 78.1795 92.4395 78.1795 93.3493C78.1795 93.9138 78.6401 94.4196 79.4442 94.4196C79.9828 94.4196 80.4044 94.2059 80.6465 93.9204H80.6698L80.7323 94.3454H81.5522C81.4975 94.1063 81.4896 93.7876 81.4896 93.4755V92.0943ZM80.6075 93.1103C80.6075 93.5353 80.2015 93.854 79.7096 93.854C79.3738 93.854 79.0772 93.6747 79.0772 93.2696C79.0772 92.6189 79.8971 92.506 80.6075 92.506V93.1103ZM86.1815 92.1341C86.1815 90.9786 85.432 90.6067 84.7841 90.6067C84.3157 90.6067 83.8317 90.806 83.5507 91.1845H83.5349V89.0197H82.6294V94.3454H83.5349V92.1075C83.5349 91.5564 84.0111 91.2443 84.4561 91.2443C85.0651 91.2443 85.2759 91.6826 85.2759 92.2071V94.3454H86.1815V92.1341Z" fill="#005FA1"/>
</g>
<rect x="1" y="1" width="110" height="110" rx="9" stroke="#CCCCCC" stroke-width="2"/>
<defs>
<clipPath id="clip0_528_619">
<rect x="2" y="2" width="108" height="108" rx="8" fill="white"/>
</clipPath>
</defs>
</svg>
