<svg width="112" height="112" viewBox="0 0 112 112" fill="none" xmlns="http://www.w3.org/2000/svg">
<g clip-path="url(#clip0_528_615)">
<rect x="2" y="2" width="108" height="108" rx="8" fill="white"/>
<path d="M67.3664 55.9243C67.3664 55.9265 67.3664 55.9287 67.3664 55.9308V55.9178C67.3664 55.9199 67.3664 55.9221 67.3664 55.9243Z" fill="url(#paint0_radial_528_615)"/>
<path fill-rule="evenodd" clip-rule="evenodd" d="M17.5439 66.9602C16.5495 63.4735 16 59.797 16 55.9963C16 33.944 33.9442 16 55.9967 16C68.8318 16 79.2006 20.625 85.1994 29.005C85.8602 29.7966 85.749 30.9741 84.9639 31.6282C84.349 32.1385 83.4789 32.1516 82.8248 31.7787C78.6511 29.4498 73.4699 28.0892 67.8701 27.7228C72.1158 31.0264 75.9951 35.1673 79.2595 39.9559C79.8482 40.8129 80.3977 41.6829 80.9342 42.5661C82.6481 40.9175 83.7341 38.9877 84.1266 36.8813C84.3163 35.8673 85.2845 35.2 86.2919 35.3897C87.2994 35.5729 87.9732 36.5476 87.7835 37.5551C87.1947 40.7344 85.4807 43.5866 82.7986 45.8893C86.4555 52.974 88.4376 60.5166 88.418 67.6471C88.418 68.3013 88.3984 68.9358 88.3657 69.5704C89.7002 68.092 90.6619 66.4631 91.2114 64.7033C91.9048 61.9165 92.2777 58.9989 92.2777 55.9963C92.2777 51.0965 91.3226 46.3472 89.432 41.8792C89.0264 40.9306 89.4713 39.8381 90.4198 39.4391C91.3618 39.0335 92.4543 39.4783 92.8534 40.4269C94.8456 45.1294 95.9017 50.1181 95.9935 55.2563V56.7092C95.9474 59.2451 95.6588 61.7241 95.1626 64.1211C95.1626 64.2258 95.1561 64.3239 95.1299 64.422C95.0384 64.8538 94.9206 65.2856 94.7963 65.7042C92.5132 74.8365 87.077 82.7324 79.7174 88.1751C79.3576 88.4564 78.9912 88.7312 78.6118 88.9863C78.5938 88.9971 78.5762 89.008 78.5589 89.0187C78.5134 89.0467 78.4695 89.0738 78.4221 89.0975C72.0242 93.4478 64.3048 95.9925 55.9967 95.9925C38.0525 95.9925 22.8231 84.1062 17.7794 67.791C17.7694 67.756 17.7555 67.7248 17.7408 67.6916C17.7363 67.6814 17.7317 67.671 17.727 67.6602C17.6616 67.4313 17.6027 67.1957 17.5439 66.9602ZM79.6651 79.0952C75.2493 80.5802 70.271 81.3456 65.0114 81.411V81.4044C64.0955 85.6696 62.8918 89.2938 61.4068 91.8647C67.3468 90.9685 72.8223 88.6265 77.4539 85.2117C79.809 83.3539 81.6145 80.8549 82.8378 77.8588C81.8369 78.3102 80.7772 78.7223 79.6651 79.0952ZM39.93 88.4564C40.0674 88.5153 40.1851 88.6004 40.2898 88.6919L40.2963 88.705C44.9868 90.9685 50.2334 92.2376 55.7678 92.2768C55.7881 92.2737 55.8085 92.2702 55.829 92.2666C55.8939 92.2555 55.9598 92.2441 56.0294 92.2441C57.4228 92.2441 59.5293 88.4891 61.1779 81.339C57.8219 81.1624 54.394 80.7045 50.953 79.9718C46.4064 79.0036 42.0757 77.584 38.1114 75.7981C37.032 82.8436 37.8693 87.449 39.93 88.4564ZM20.5204 62.2306C20.5989 63.48 20.7952 64.7099 21.1157 65.9201H21.1223C23.3072 73.5936 27.9585 80.2335 34.1601 84.9304C33.6891 81.9212 33.8984 78.199 34.6311 74.0842C31.0331 72.1544 27.808 69.9106 25.0801 67.392C23.2745 65.7238 21.7568 63.9968 20.5204 62.2306ZM67.301 51.5675C67.3467 53.0241 67.3664 54.4742 67.3664 55.9243C67.3661 63.3929 66.8362 71.0638 65.731 77.6756C70.3168 77.5579 74.6475 76.8514 78.4875 75.5626C80.6529 74.8365 82.5762 73.9468 84.2443 72.9198C84.5387 71.2582 84.6957 69.4919 84.7023 67.6406C84.7153 61.2428 82.9752 54.4655 79.7239 48.035C76.2175 50.0564 71.9326 51.26 67.301 51.5675ZM38.8375 72.017C42.7757 73.8683 47.1326 75.3337 51.738 76.3215H51.7445C55.1855 77.0542 58.6135 77.4859 61.9433 77.6298C62.9507 71.9516 63.6507 64.6837 63.6507 55.9178C63.6507 54.4328 63.6376 53.0001 63.5918 51.6002C61.3152 51.5217 59.006 51.247 56.6902 50.7563C53.6417 50.1021 50.7306 49.1536 48.0615 47.9565C47.4793 49.0489 46.9167 50.161 46.3606 51.2993C42.5402 59.1363 40.1263 66.1949 38.8375 72.017ZM21.1746 55.5645C22.2802 58.6391 24.4586 61.7334 27.6183 64.651H27.6117C29.8621 66.7313 32.505 68.6218 35.4423 70.2769C37.0189 63.6894 39.7141 56.4346 43.0177 49.6704C43.5803 48.5256 44.156 47.3873 44.7448 46.2687C42.6056 45.0454 40.6823 43.6389 39.0272 42.0885C37.2871 40.4596 35.9199 38.7391 34.9451 36.9729C31.5695 39.3998 28.6192 42.2259 26.251 45.3659C23.7521 48.6695 22.0577 52.1236 21.1746 55.5645ZM76.1783 42.0493C72.9401 37.2999 69.0608 33.2375 64.8282 30.0909C66.0319 35.2262 66.7973 41.4016 67.1375 47.8256C71.1934 47.5378 74.9484 46.5107 77.9249 44.7902C77.3754 43.8679 76.7932 42.952 76.1783 42.0493ZM49.854 44.6921C52.209 45.7323 54.7669 46.5565 57.4556 47.1322C59.4508 47.5574 61.4526 47.806 63.4282 47.8845C63.0161 40.211 62.0348 34.0225 60.8638 29.4171C57.1219 33.3422 53.3211 38.6279 49.854 44.6921ZM38.0656 34.9318C38.8571 36.4364 40.0216 37.941 41.5655 39.3802V39.3868C42.9916 40.7278 44.6663 41.9446 46.5242 43.024C49.7885 37.2999 53.3407 32.2235 56.906 28.2331C54.4398 28.6125 51.9604 29.1555 49.5203 29.8881C45.4121 31.1245 41.5524 32.8385 38.0656 34.9318ZM33.4143 28.1088C33.4536 27.9125 33.5059 27.7228 33.5583 27.5331C27.5332 32.302 23.0455 38.9223 20.9849 46.5434C21.6652 45.3986 22.4175 44.2604 23.268 43.1417C26.0417 39.4718 29.522 36.2075 33.5256 33.4468C33.0807 31.661 33.0415 29.862 33.4143 28.1088ZM40.4206 23.7978C38.6216 25.2304 37.4637 26.9509 37.0516 28.8807V28.8742C36.8881 29.6657 36.8488 30.4704 36.9273 31.2881C40.4795 29.247 44.3523 27.5593 48.454 26.3294C50.6586 25.6622 52.8894 25.1454 55.1267 24.7594C49.8147 22.8165 44.7644 22.5025 40.4206 23.7978ZM70.67 22.3455C69.6822 22.5745 68.5112 23.1436 67.2356 23.9744C70.3299 24.1249 73.326 24.5501 76.139 25.2566C74.3858 24.0464 72.541 23.0913 70.67 22.3455ZM65.7441 20.8082C64.0824 20.4157 62.4731 20.1606 60.9685 19.9905V19.997C61.5311 20.8278 62.0545 21.796 62.5386 22.895C63.631 22.0577 64.7039 21.3642 65.7441 20.8082ZM51.9473 19.9578C53.5893 20.3176 55.251 20.8147 56.9322 21.4558V21.4624C57.3509 21.6194 57.763 21.796 58.1752 21.9726C57.364 20.5007 56.5855 19.7419 55.9509 19.7288C54.5902 19.7288 53.2622 19.8138 51.9473 19.9578Z" fill="url(#paint1_radial_528_615)"/>
</g>
<rect x="1" y="1" width="110" height="110" rx="9" stroke="#CCCCCC" stroke-width="2"/>
<defs>
<radialGradient id="paint0_radial_528_615" cx="0" cy="0" r="1" gradientUnits="userSpaceOnUse" gradientTransform="translate(92.4924 31.0866) scale(66.164 66.1633)">
<stop stop-color="white"/>
<stop offset="0.17" stop-color="#B3E0F3"/>
<stop offset="0.43" stop-color="#4AB6E2"/>
<stop offset="0.54" stop-color="#21A6DC"/>
<stop offset="0.71" stop-color="#2177A4"/>
<stop offset="0.91" stop-color="#214669"/>
<stop offset="1" stop-color="#223353"/>
</radialGradient>
<radialGradient id="paint1_radial_528_615" cx="0" cy="0" r="1" gradientUnits="userSpaceOnUse" gradientTransform="translate(92.4924 31.0866) scale(66.164 66.1633)">
<stop stop-color="white"/>
<stop offset="0.17" stop-color="#B3E0F3"/>
<stop offset="0.43" stop-color="#4AB6E2"/>
<stop offset="0.54" stop-color="#21A6DC"/>
<stop offset="0.71" stop-color="#2177A4"/>
<stop offset="0.91" stop-color="#214669"/>
<stop offset="1" stop-color="#223353"/>
</radialGradient>
<clipPath id="clip0_528_615">
<rect x="2" y="2" width="108" height="108" rx="8" fill="white"/>
</clipPath>
</defs>
</svg>
