<svg width="112" height="112" viewBox="0 0 112 112" fill="none" xmlns="http://www.w3.org/2000/svg">
<g clip-path="url(#clip0_528_617)">
<rect x="2" y="2" width="108" height="108" rx="8" fill="white"/>
<g clip-path="url(#clip1_528_617)">
<path fill-rule="evenodd" clip-rule="evenodd" d="M16.1128 58.2901C15.9178 57.6064 15.8101 56.8854 15.8101 56.1401C15.8101 51.8157 19.3289 48.2969 23.6533 48.2969C26.1702 48.2969 28.2035 49.2038 29.3799 50.8471C29.5094 51.0024 29.4876 51.2333 29.3337 51.3616C29.2131 51.4616 29.0425 51.4642 28.9142 51.3911C28.0957 50.9344 27.0797 50.6675 25.9816 50.5957C26.8142 51.2435 27.5749 52.0556 28.215 52.9946C28.3305 53.1627 28.4383 53.3333 28.5435 53.5065C28.8796 53.1832 29.0925 52.8047 29.1695 52.3917C29.2067 52.1928 29.3965 52.062 29.5941 52.0992C29.7916 52.1351 29.9238 52.3263 29.8866 52.5238C29.7711 53.1473 29.435 53.7066 28.9091 54.1581C29.6262 55.5474 30.0149 57.0266 30.011 58.4248C30.011 58.5531 30.0072 58.6776 30.0008 58.802C30.2624 58.5121 30.451 58.1926 30.5588 57.8476C30.6948 57.3011 30.7679 56.7289 30.7679 56.1401C30.7679 55.1793 30.5806 54.2479 30.2099 53.3718C30.1303 53.1858 30.2176 52.9715 30.4036 52.8933C30.5883 52.8137 30.8025 52.901 30.8808 53.087C31.2714 54.0091 31.4785 54.9874 31.4965 55.995V56.28C31.4875 56.7772 31.4309 57.2633 31.3336 57.7334C31.3336 57.7539 31.3323 57.7732 31.3272 57.7924C31.3092 57.8771 31.2861 57.9617 31.2618 58.0438C30.8141 59.8347 29.748 61.3831 28.3048 62.4504C28.2343 62.5055 28.1625 62.5594 28.088 62.6094C28.0845 62.6116 28.0811 62.6137 28.0777 62.6158C28.0688 62.6213 28.0601 62.6266 28.0508 62.6312C26.7962 63.4843 25.2825 63.9834 23.6533 63.9834C20.1345 63.9834 17.1481 61.6524 16.159 58.4531C16.157 58.4462 16.1543 58.4401 16.1514 58.4336C16.1505 58.4316 16.1496 58.4295 16.1487 58.4274C16.1359 58.3825 16.1244 58.3363 16.1128 58.2901ZM28.2946 60.6698C27.4287 60.961 26.4524 61.1111 25.421 61.1239V61.1226C25.2414 61.959 25.0054 62.6697 24.7142 63.1739C25.879 62.9981 26.9527 62.5389 27.861 61.8692C28.3228 61.5049 28.6769 61.0149 28.9168 60.4273C28.7205 60.5159 28.5127 60.5967 28.2946 60.6698ZM20.5027 62.5055C20.5296 62.5171 20.5527 62.5338 20.5732 62.5517L20.5745 62.5543C21.4943 62.9981 22.5231 63.247 23.6084 63.2547C23.6124 63.2541 23.6164 63.2534 23.6204 63.2527C23.6331 63.2505 23.6461 63.2483 23.6597 63.2483C23.933 63.2483 24.346 62.5119 24.6693 61.1098C24.0112 61.0752 23.339 60.9854 22.6642 60.8417C21.7727 60.6518 20.9234 60.3735 20.146 60.0232C19.9344 61.4049 20.0986 62.308 20.5027 62.5055ZM16.6965 57.3627C16.7119 57.6077 16.7504 57.8488 16.8132 58.0862H16.8145C17.243 59.5909 18.1551 60.893 19.3712 61.8141C19.2788 61.224 19.3199 60.494 19.4636 59.6871C18.758 59.3087 18.1256 58.8687 17.5906 58.3748C17.2366 58.0477 16.939 57.709 16.6965 57.3627ZM25.87 55.2716C25.879 55.5577 25.8829 55.8425 25.8829 56.1273V56.1247C25.8829 57.5897 25.7789 59.0945 25.5622 60.3914C26.4614 60.3683 27.3107 60.2298 28.0637 59.9771C28.4883 59.8347 28.8654 59.6602 29.1926 59.4588C29.2503 59.133 29.2811 58.7866 29.2824 58.4236C29.2849 57.1689 28.9437 55.8399 28.3061 54.5789C27.6185 54.9753 26.7783 55.2113 25.87 55.2716ZM20.2884 59.2818C21.0607 59.6448 21.9151 59.9322 22.8182 60.1259H22.8195C23.4942 60.2696 24.1664 60.3542 24.8194 60.3824C25.0169 59.2689 25.1542 57.8437 25.1542 56.1247C25.1542 55.8335 25.1516 55.5526 25.1427 55.278C24.6962 55.2627 24.2434 55.2088 23.7893 55.1126C23.1915 54.9843 22.6206 54.7983 22.0972 54.5635C21.983 54.7777 21.8727 54.9958 21.7637 55.219C21.0145 56.7559 20.5411 58.14 20.2884 59.2818ZM16.8248 56.0554C17.0416 56.6584 17.4688 57.2652 18.0884 57.8373H18.0871C18.5284 58.2452 19.0466 58.616 19.6226 58.9405C19.9318 57.6487 20.4603 56.2261 21.1082 54.8996C21.2185 54.6751 21.3314 54.4519 21.4468 54.2325C21.0273 53.9927 20.6502 53.7168 20.3256 53.4128C19.9844 53.0934 19.7163 52.756 19.5251 52.4096C18.8632 52.8856 18.2846 53.4398 17.8203 54.0555C17.3302 54.7033 16.998 55.3807 16.8248 56.0554ZM27.6108 53.4051C26.9758 52.4738 26.2151 51.6771 25.3851 51.0601C25.6212 52.0671 25.7713 53.2781 25.838 54.5379C26.6333 54.4814 27.3697 54.28 27.9534 53.9426C27.8456 53.7617 27.7314 53.5821 27.6108 53.4051ZM22.4487 53.9234C22.9105 54.1273 23.4121 54.289 23.9394 54.4019C24.3306 54.4853 24.7232 54.534 25.1106 54.5494C25.0298 53.0446 24.8374 51.8311 24.6077 50.928C23.8739 51.6977 23.1286 52.7342 22.4487 53.9234ZM20.1371 52.0094C20.2923 52.3044 20.5206 52.5995 20.8234 52.8817V52.883C21.103 53.146 21.4314 53.3846 21.7958 53.5963C22.4359 52.4738 23.1325 51.4783 23.8316 50.6958C23.348 50.7702 22.8618 50.8767 22.3833 51.0203C21.5777 51.2628 20.8208 51.5989 20.1371 52.0094ZM19.225 50.6714C19.2327 50.6329 19.2429 50.5957 19.2532 50.5585C18.0717 51.4937 17.1917 52.7919 16.7876 54.2864C16.921 54.0619 17.0685 53.8387 17.2353 53.6193C17.7792 52.8997 18.4617 52.2595 19.2468 51.7182C19.1595 51.368 19.1518 51.0152 19.225 50.6714ZM20.5989 49.826C20.2461 50.107 20.019 50.4443 19.9382 50.8228V50.8215C19.9061 50.9767 19.8984 51.1345 19.9138 51.2949C20.6104 50.8946 21.3699 50.5636 22.1742 50.3225C22.6065 50.1916 23.044 50.0903 23.4827 50.0146C22.441 49.6336 21.4507 49.572 20.5989 49.826ZM26.5307 49.5412C26.337 49.5861 26.1074 49.6977 25.8572 49.8606C26.464 49.8902 27.0515 49.9735 27.6031 50.1121C27.2593 49.8748 26.8976 49.6875 26.5307 49.5412ZM25.5647 49.2398C25.2389 49.1628 24.9233 49.1128 24.6282 49.0794V49.0807C24.7386 49.2436 24.8412 49.4335 24.9361 49.649C25.1504 49.4848 25.3607 49.3488 25.5647 49.2398ZM22.8592 49.073C23.1812 49.1435 23.5071 49.241 23.8367 49.3668V49.368C23.9188 49.3988 23.9997 49.4335 24.0805 49.4681C23.9214 49.1795 23.7688 49.0307 23.6443 49.0281C23.3775 49.0281 23.1171 49.0448 22.8592 49.073Z" fill="url(#paint0_radial_528_617)"/>
<path d="M94.0115 53.8476C95.1712 53.8476 95.81 54.4082 95.81 55.4281C95.81 56.3889 95.1802 56.9636 94.127 56.9636H93.3893V58.4338H92.4118V53.8476H94.0115ZM93.3893 56.1657H93.973C94.5388 56.1657 94.8261 55.9181 94.8261 55.4281C94.8261 54.938 94.5118 54.6584 93.941 54.6584H93.3893V56.167V56.1657ZM90.6146 56.5967C90.6146 57.2702 90.3567 57.5973 89.8244 57.5973C89.292 57.5973 89.0162 57.26 89.0162 56.5967V53.8476H88.0399V56.5313C88.0361 57.1881 88.2003 57.6859 88.5261 58.013C88.8289 58.317 89.2663 58.471 89.8244 58.471C90.63 58.471 91.5908 58.1336 91.5908 56.5313V53.8463H90.6146V56.5955V56.5967ZM85.3755 53.8091C86.3671 53.8091 87.4242 54.4223 87.4242 56.1465C87.4242 57.8706 86.3658 58.4722 85.3755 58.4722C84.3851 58.4722 83.3204 57.8616 83.3204 56.1465C83.3204 54.4313 84.3826 53.8091 85.3755 53.8091ZM85.3755 57.6166C85.7642 57.6166 86.4159 57.4254 86.4159 56.1465C86.4159 54.8675 85.7642 54.6763 85.3755 54.6763C84.702 54.6763 84.33 55.1985 84.33 56.1465C84.33 57.0945 84.702 57.6166 85.3755 57.6166ZM82.3134 57.0419C82.475 57.3703 82.6136 57.6538 82.9368 57.6538H83.169V58.4081L83.1357 58.4171C83.1292 58.4196 82.9586 58.4633 82.661 58.4633C81.89 58.4633 81.6527 57.9322 81.4436 57.4639C81.273 57.0804 81.1242 56.7494 80.7214 56.7494H80.2916V58.4312H79.3154V53.8476H80.9407C82.1286 53.8476 82.6815 54.3107 82.6815 55.3062C82.6815 55.922 82.3121 56.3017 81.9426 56.4633C82.1055 56.6211 82.2107 56.8353 82.3134 57.0432M80.2916 55.9925H80.8368C81.3795 55.9925 81.7156 55.7398 81.7156 55.3319C81.7156 54.9034 81.4218 54.6584 80.9074 54.6584H80.2916V55.9938V55.9925ZM76.7151 56.7571H77.7234V56.8071C77.7234 57.1047 77.6182 57.6038 76.9139 57.6038C76.2507 57.6038 75.8556 57.0586 75.8556 56.1465C75.8556 55.2344 76.234 54.6763 76.896 54.6763C77.6823 54.6763 77.7093 55.4717 77.7106 55.505L77.7131 55.5564L78.6239 55.414V55.3755C78.6239 55.0445 78.3289 53.8079 76.8831 53.8079C75.5888 53.8079 74.8473 54.6597 74.8473 56.1452C74.8473 57.6307 75.6131 58.471 76.896 58.471C78.1788 58.471 78.6432 57.5704 78.6432 56.8007V56.0041H76.7151V56.7558V56.7571ZM73.7902 53.8476H72.6293L71.1117 55.9117V53.8476H70.1213V58.4338H71.1117V56.3248L72.6678 58.4338H73.8428L72.0674 56.1221L73.7902 53.8489V53.8476ZM68.2664 56.6801L66.6628 53.8476H65.6725V58.4338H66.65V55.6988L68.2471 58.4338H69.2439V53.8476H68.2676V56.6801H68.2664ZM63.738 53.8771L65.4108 58.4325H64.3948L64.0035 57.3087H62.4756L62.0972 58.4325H61.0748L62.7592 53.8463H63.7277L63.7392 53.8759L63.738 53.8771ZM63.2389 55.0971L62.7438 56.5441H63.7457L63.2389 55.0971ZM60.1665 56.0156C60.518 56.117 60.9799 56.4402 60.9799 57.1291C60.9799 57.9578 60.3923 58.4338 59.3673 58.4338H57.4328V53.8476H59.18C60.173 53.8476 60.6771 54.2633 60.6771 55.0804C60.6771 55.7142 60.3885 55.9374 60.1653 56.0156M59.0774 55.7218C59.4841 55.7218 59.6739 55.5512 59.6739 55.1831C59.6739 54.8341 59.4328 54.6571 58.9556 54.6571H58.4104V55.7218H59.0774ZM58.4104 57.6217H59.1736C59.6727 57.6217 59.9049 57.4344 59.9049 57.0316C59.9049 56.539 59.4969 56.4351 59.1544 56.4351H58.4104V57.6217ZM53.4086 53.8463C54.8364 53.8463 55.6882 54.7328 55.6882 56.2157C55.6882 57.6987 54.9275 58.4312 53.601 58.4312H52.0475V53.8476H53.4099L53.4086 53.8463ZM53.0237 57.6217H53.5946C54.2976 57.6217 54.7184 57.0919 54.7184 56.2029C54.7184 55.1766 54.2732 54.6558 53.3958 54.6558H53.0237V57.6217ZM49.6088 53.8463H48.6313V58.4325H51.5934V57.6217H49.6088V53.8463ZM47.3151 57.0419C47.4768 57.3703 47.6166 57.6538 47.9399 57.6538H48.1708V58.4081L48.1374 58.4171C48.1297 58.4196 47.9604 58.4633 47.6628 58.4633C46.8918 58.4633 46.6545 57.9322 46.4454 57.4639C46.2735 57.0804 46.1259 56.7494 45.7231 56.7494H45.2934V58.4312H44.3159V53.8476H45.9412C47.1278 53.8476 47.682 54.3107 47.682 55.3062C47.682 55.922 47.3126 56.3017 46.9444 56.4633C47.1073 56.6211 47.2125 56.8353 47.3151 57.0432M45.2947 55.9925H45.8399C46.3825 55.9925 46.7186 55.7398 46.7186 55.3319C46.7186 54.9034 46.4236 54.6584 45.9104 54.6584H45.2947V55.9938V55.9925ZM41.7117 53.8091C42.7021 53.8091 43.7604 54.4223 43.7604 56.1465C43.7604 57.8706 42.7021 58.4722 41.7117 58.4722C40.7214 58.4722 39.6566 57.8616 39.6566 56.1465C39.6566 54.4313 40.7188 53.8091 41.7117 53.8091ZM41.7117 57.6166C42.1004 57.6166 42.7521 57.4254 42.7521 56.1465C42.7521 54.8675 42.1004 54.6763 41.7117 54.6763C41.0382 54.6763 40.6649 55.1985 40.6649 56.1465C40.6649 57.0945 41.037 57.6166 41.7117 57.6166ZM38.4148 53.8476H39.5194L38.2019 58.4338H37.0987L36.2982 55.5576L35.4849 58.4338H34.3816L33.0654 53.8476H34.202L34.973 57.1945L35.8966 53.8476H36.7177L37.6118 57.1945L38.4136 53.8476H38.4148Z" fill="#223353"/>
</g>
</g>
<rect x="1" y="1" width="110" height="110" rx="9" stroke="#CCCCCC" stroke-width="2"/>
<defs>
<radialGradient id="paint0_radial_528_617" cx="0" cy="0" r="1" gradientUnits="userSpaceOnUse" gradientTransform="translate(30.81 51.2553) scale(12.9746)">
<stop stop-color="white"/>
<stop offset="0.17" stop-color="#B3E0F3"/>
<stop offset="0.43" stop-color="#4AB6E2"/>
<stop offset="0.54" stop-color="#21A6DC"/>
<stop offset="0.71" stop-color="#2177A4"/>
<stop offset="0.91" stop-color="#214669"/>
<stop offset="1" stop-color="#223353"/>
</radialGradient>
<clipPath id="clip0_528_617">
<rect x="2" y="2" width="108" height="108" rx="8" fill="white"/>
</clipPath>
<clipPath id="clip1_528_617">
<rect width="80" height="15.6865" fill="white" transform="translate(15.8101 48.2969)"/>
</clipPath>
</defs>
</svg>
